<svg xmlns="http://www.w3.org/2000/svg" width="306.6" height="40" viewBox="0 0 306.6 40"><path d="M68.6 25.3c-.4.9-1.2 1-2 1-.9.4-2.1.6-3.1.1-14 2.5-28 3.4-41.1 7.4-.8 0-.5-.6-1.4-.2-3.6 2.2-7.6 2.7-11.3 3.3C8.3 38.5 6.3 39.5 5 40 1 34.5 1.3 26.3.2 19.4l-.2-.5c8.4-6.1 17.7-5.7 26.5-8.6 18.3-2.1 35.9-5.9 54.7-6.6.9-.3 2-.2 2.9-1.4 1.9.8 3.6 1.2 5.7-.1 1.3.6 2.5.4 3.4.8 6.6-2 13.4-1.2 20.2-1.2 1.2-1 2.1-.6 3.1-.9 6.5-.1 13 1.3 19.3-.9 7.3 1.4 14.6-1.4 21.1 1.1 8.2-2.4 16.2 0 23.9-1.1 24.6.8 49.2 1.5 74.3 3.6.4-.9 1.1.1 1.8-.7 14 1.7 27.8 2.2 41.2 1.7.2-1.4.7-.8 1.6-1.2 1.4.2 2.7.8 4.1 1.1.8 1.5.6 2.9 2.2 3.6-1.1 4.1.7 6-.8 10.2 1.4.2 1.1.9 1.5 1.8-1.2 1-.1 1.1-.8 1.9-1.2 1.8-1.6 1.9-3.4 4.2-1.7.4-4 .5-6 1.5-13.6-.8-27.1-1.1-40.9-2.3.1-.3-.2-.5 0 0-6.2.3-12.4-1-18.6-.7-.9-.4.1-1.1-.8-1.5-.7.8-1.8.7-2.3.9-5.1-.4-10.2 0-15.2-.7-2.6 0-5.6-1-8.2-1-1.1-.1-2 1-2.7 1-8 .2-16.1-1.1-23.8-.8-3.3-.3-7-1.2-9.6-1.3-.5.2-.4.9-.9 1.1-4.2 0-7.9-.9-11.8-.7-9.6-.5-18.8.7-28.6.5-1.5.1-4-.3-5.4-.5-1.1-.1-2 1-2.7 1-2.8.3-7.6 0-10.7.2-10.2 0-20.2 1.2-30.8 2.2-1.5.1.1-1.1-.8-1.5-2.2 2.4-6.6 2-9.5 1-.2-.5-.6-.3 0 0 1 1.7-2.9 1.8-4.6.7zm17.6-2.4c-.3-.1-.5.2-.9.3.4.2.8.1.9-.3zM268.4.9" fill="#ffcb39"/></svg>