<svg xmlns="http://www.w3.org/2000/svg" preserveAspectRatio="none" viewBox="0 0 815.4 745.5"><path d="M815.4 0H39.5c-1.2 4.7-2 12.6-5.6 12.6 6.9 0-5.8 16.8.1 16.8.5 0-6.3 16.7-1 16.7 5.7 0 11.5 16.3 10.7 16.3-.2 0-7.2 16.7-5.3 16.7-5.3 0-9.1 16.3-2.9 16.3.8 0-5.2 13.9-6.8 13.9-.3 0 10.1 17.8 4.1 17.8 3.2 0-16.2 13.3-10.2 13.3-4.9 0 6.6 16.7 4.9 16.7 2.3 0-5.3 20.4-5.6 20.4-1.7 0 11.1 16.1 11.5 16.1.6 0 1.7 20.8-1.3 20.8-4.4 0 9.6 15.9 10.3 15.9 3.8 0-1.3 18.7-2.6 18.7-2.1 0 1.9 17.2 2.8 17.2-3 0 5 17.9 5.6 17.9-.8 0 .5 18.2-.6 18.2-6.3 0-4.8 17.2-5.2 17.2 1.1 0 1.5 17.4-3.3 17.4 1.2 0-2.4 18.1-.8 18.1 3.5 0-6.4 15.1-10.5 15.1-.9 0-.9 17.7-2.1 17.7 3.4 0-7.9 18.2-.8 18.2 2 0-1.4 18.2-.1 18.2.8 0 5.8 17.9-.2 17.9 2.4 0-9.6 16.4-8.2 16.4-.6 0-8.7 17.8-3.1 17.8.5 0 8 17.8 8.2 17.8 4.3 0-7.6 18.6-6.8 18.6 3.8 0 1.7 15 4.8 15 2 0-3.9 15.6.4 15.6-2.7 0-4.8 14.4-3.6 14.4 3.7 0-1.6 17.3 2.1 17.3 1.2 0-9.7 13.8-9.3 13.8-2 0 4.4 18.3 2 18.3 4.8 0-2.1 16.9 3.7 16.9-3.4 0 2.6 17.4 2.2 17.4-6.5 0-10.4 18.4-.8 18.4 1.4 0 5 16.7 3.1 16.7 7.3 0-16.5 16.1-6.8 16.1.2 0-10.6 15.2-8 15.2-2.7 0 1 22.3 1 22.3-5.4 0-5.8 13.1-5 15.5h815.1V0z" fill="#1f1f34"/></svg>