<svg xmlns="http://www.w3.org/2000/svg" preserveAspectRatio="none" viewBox="0 0 876.5 806.3"><path d="M0 806.3l833.4-39c1.3-4.8 2.1-13 6.1-13-7.5 0 6.3-17.3-.1-17.3-.6 0 6.9-17.2 1.1-17.2-6.3 0-12.6-16.8-11.7-16.8.2 0 7.8-17.2 5.8-17.2 5.8 0 10-16.7 3.2-16.7-.9 0 5.6-14.3 7.4-14.3.4 0-11.1-18.4-4.5-18.4-3.5 0 17.6-13.7 11.1-13.7 5.3 0-7.2-17.2-5.4-17.2-2.6 0 5.8-21 6.2-21 1.9 0-12.1-16.5-12.6-16.5-.7 0-1.8-21.4 1.5-21.4 4.8 0-10.5-16.3-11.3-16.3-4.1 0 1.4-19.3 2.8-19.3 2.3 0-2.1-17.7-3-17.7 3.2 0-5.4-18.4-6.1-18.4.9 0-.5-18.7.7-18.7 6.9 0 5.2-17.7 5.7-17.7-1.2 0-1.6-17.9 3.6-17.9-1.3 0 2.7-18.7.8-18.7-3.8 0 7-15.5 11.5-15.5 1 0 1-18.3 2.3-18.3-3.7 0 8.7-18.7.9-18.7-2.2 0 1.6-18.8.1-18.8-.9 0-6.3-18.5.2-18.5-2.6 0 10.5-16.9 9-16.9.6 0 9.5-18.3 3.4-18.3-.5 0-8.7-18.3-8.9-18.3-4.7 0 8.3-19.2 7.4-19.2-4.1 0-1.9-15.4-5.2-15.4-2.1 0 4.2-16-.4-16 2.9 0 5.3-14.9 4-14.9-4 0 1.8-17.8-2.3-17.8-1.3 0 10.6-14.2 10.2-14.2 2.1 0-4.8-18.8-2.2-18.8-5.3 0 2.3-17.4-4-17.4 3.7 0-2.9-17.9-2.4-17.9 7.1 0 11.4-18.9.8-18.9-1.6 0-5.4-17.2-3.4-17.2-8 0 18-16.5 7.4-16.5-.2 0 11.6-15.7 8.7-15.7 2.9 0-1.1-23-1.1-23 5.9 0 6.3-13.5 5.5-16L0 39v767.3z" fill="#1f1f34"/></svg>