<svg xmlns="http://www.w3.org/2000/svg" preserveAspectRatio="none" viewBox="0 0 1534.4 44.2"><path d="M0-524.7V11.5c9.7 1 26 1.6 26 4.6 0-5.7 34.5 4.8 34.5-.1 0-.4 34.3 5.2 34.3.8 0-4.8 33.6-9.6 33.6-8.9 0 .2 34.3 5.9 34.3 4.4 0 4.4 33.5 7.6 33.5 2.4 0-.7 28.7 4.3 28.7 5.6 0 .3 36.7-8.4 36.7-3.4 0-2.6 27.3 13.4 27.3 8.5 0 4 34.4-5.5 34.4-4.1 0-1.9 41.9 4.4 41.9 4.7 0 1.4 33.1-9.2 33.1-9.6 0-.5 42.9-1.4 42.9 1.1 0 3.7 32.6-7.9 32.6-8.5 0-3.1 38.5 1.1 38.5 2.1 0 1.8 35.4-1.6 35.4-2.3 0 2.5 36.8-4.1 36.8-4.6 0 .7 37.4-.4 37.4.5 0 5.3 35.5 3.9 35.5 4.3 0-.9 35.8-1.2 35.8 2.7 0-1 37.3 2 37.3.6 0-2.9 31 5.3 31 8.7 0 1 36.5 1 36.5 2 0-2.8 37.4 6.6 37.4.6 0-1.7 37.5 1.2 37.5.1 0-.7 36.9-4.8 36.9.2 0-2 33.8 7.9 33.8 6.8 0 .5 36.7 7.2 36.7 2.6 0-.4 36.6-6.6 36.6-6.8 0-3.6 38.3 6.3 38.3 5.6 0-3.1 30.8-1.4 30.8-4 0-1.6 32.1 3.2 32.1-.3 0 2.2 29.7 4 29.7 3 0-3 35.6 1.3 35.6-1.7 0-1 28.3 8 28.3 7.7 0 1.6 37.6-3.7 37.6-1.7 0-4 34.7 1.8 34.7-3 0 2.8 35.8-2.2 35.8-1.9 0 5.4 37.9 8.6 37.9.6 0-1.2 34.3-4.1 34.3-2.6 0-6 33 13.7 33 5.6 0-.1 31.3 8.8 31.3 6.6 0 2.2 46-.9 46-.8 0 4.5 27 4.8 31.9 4.2v-568.6H0z" fill="#634ddc"/></svg>