<svg xmlns="http://www.w3.org/2000/svg" viewBox="0 0 745 513.6" preserveAspectRatio="none"><path d="M720.1 0l-702 36.8c-1.1 3.1-1.7 8.2-5.6 8.4 7.5-.4-5.7 11 .7 10.7.6 0-6.3 11-.5 10.7 6.2-.3 13.1 9.7 12.1 9.8-.2 0-7.2 11-5.2 10.9-5.7.3-9.4 10.9-2.6 10.5.9 0-5.1 9.2-6.9 9.3-.4 0 11.6 10.8 5.1 11.1 3.4-.2-17.1 9.4-10.6 9-5.3.3 7.7 10.3 5.9 10.4 2.6-.1-5.1 13.3-5.4 13.3-1.9.1 12.6 9.6 13.1 9.6.7 0 2.5 13.2-.8 13.3-4.8.3 10.9 9.5 11.7 9.5 4.1-.2-.8 12-2.1 12.1-2.3.1 2.6 10.8 3.6 10.8-3.2.2 6 11.1 6.6 11.1-.9 0 1.1 11.5 0 11.6-6.9.4-4.6 11.2-5.1 11.3 1.2-.1 2.2 11-3 11.3 1.3-.1-2 11.7-.2 11.6 3.8-.2-6.5 10-10.9 10.2-1 .1-.4 11.3-1.7 11.4 3.7-.2-8 12-.2 11.6 2.2-.1-.9 11.7.5 11.6.9 0 6.9 11.1.4 11.4 2.6-.1-9.8 11-8.4 10.9-.6 0-8.8 11.8-2.8 11.5.5 0 9.2 10.9 9.5 10.9 4.7-.2-7.6 12.3-6.8 12.2 4.1-.2 2.4 9.4 5.7 9.3 2.1-.1-3.7 10.1.9 9.9-2.9.2-4.8 9.5-3.5 9.4 4-.2-1.2 11.1 2.9 10.9 1.3-.1-10.1 9.3-9.6 9.3-2.1.1 5.4 11.4 2.8 11.5 5.2-.3-1.8 10.9 4.5 10.5-3.7.2 3.4 10.9 3 11-7.1.4-10.7 12.3-.2 11.8 1.6-.1 5.9 10.3 3.9 10.4 7.9-.4-17.4 11.2-6.8 10.6.2 0-11 10.3-8.2 10.1-2.9.2 1.9 14.2 1.8 14.2-5.9.3-5.9 8.7-4.9 10.2l744.5-39L720.1 0z" fill="#1f1f34"/></svg>