<svg xmlns="http://www.w3.org/2000/svg" preserveAspectRatio="none" viewBox="0 0 464.9 262.7"><path d="M459.1 0l5.7 255.3c-2.9.6-7.7.9-7.9 3.2.2-4.5-10.4 3.3-10.2-.6 0-.4-10.3 3.6-10.2.1.2-3.8-9.5-8.1-9.6-7.5 0 .1-10.4 4.2-10.3 3-.2 3.4-10.2 5.5-10 1.4 0-.5-8.6 2.9-8.7 4 0 .2-10.5-7.2-10.7-3.3.1-2.1-8.6 10.1-8.4 6.2-.2 3.2-9.9-4.8-10-3.7.1-1.5-12.6 2.8-12.6 3-.1 1.1-9.4-7.8-9.4-8.1 0-.4-12.6-1.7-12.7.2-.2 2.9-9.3-6.8-9.3-7.2.1-2.5-11.4.3-11.5 1.1-.1 1.4-10.4-1.8-10.3-2.3-.1 1.9-10.7-3.8-10.7-4.2 0 .5-11-.9-11.1-.2-.2 4.1-10.6 2.6-10.6 2.9 0-.7-10.5-1.5-10.7 1.6 0-.8-11.1 1-11-.1.1-2.3-9.4 3.7-9.5 6.4 0 .6-10.8 0-10.9.8.1-2.2-11.3 4.6-11.1-.1.1-1.3-11.1.4-11.1-.5 0-.5-10.7-4.3-10.9-.4.1-1.5-10.3 5.7-10.3 4.9 0 .4-11.1 5.1-10.9 1.4 0-.3-10.5-5.8-10.5-5.9.1-2.8-11.6 4.3-11.6 3.9.1-2.5-9-1.6-8.9-3.6.1-1.3-9.6 2-9.4-.7-.1 1.8-8.9 2.7-8.9 1.9.1-2.4-10.6.5-10.4-1.9 0-.8-8.7 5.9-8.7 5.6-.1 1.3-10.9-3.5-11-1.9.2-3.1-10.3.9-10.1-2.9-.1 2.2-10.5-2.3-10.5-2-.2 4.3-11.5 6.2-11.2-.1 0-.9-10-3.8-10-2.6.2-4.8-10.3 10.3-10 3.9 0-.1-9.6 6.4-9.5 4.8-.1 1.8-13.5-1.4-13.5-1.4-.2 3.5-8.2 3.4-9.6 2.8L0 18.8 459.1 0z" fill="#fff"/></svg>