<svg xmlns="http://www.w3.org/2000/svg" width="66.137" height="66.137" fill="#89c053">
  <path d="M33.068 66.136C14.834 66.136 0 51.302 0 33.069 0 14.835 14.834.001 33.068.001s33.069 14.834 33.069 33.068c0 18.233-14.835 33.067-33.069 33.067zm0-62.135C17.04 4.001 4 17.041 4 33.069c0 16.027 13.04 29.066 29.068 29.066s29.069-13.039 29.069-29.066c0-16.028-13.041-29.068-29.069-29.068z"/>
  <circle cx="25.319" cy="25.616" r="4.335"/>
  <circle cx="41.602" cy="25.616" r="4.335"/>
  <path d="M33.406 48.419c-9.21 0-14.993-6.135-15.078-6.229l2.943-2.709c.425.457 10.598 11.065 25.645-.241l2.402 3.196c-5.959 4.481-11.355 5.983-15.912 5.983z"/>
</svg>