<svg id="hkbicon-components" class="hkbiconset" xmlns="http://www.w3.org/2000/svg" viewBox="0 0 230 230"><g><path class="hkbiconsvg-stroke" d="M51.5,77.21H33.42a3,3,0,0,1-3-3V50a20,20,0,0,1,20-20H74.67a3,3,0,0,1,3,3V74.21a3,3,0,0,1-3,3H68.25"/><rect class="hkbiconsvg-stroke" x="91.84" y="29.96" width="47.24" height="47.24" rx="3" ry="3"/><path class="hkbiconsvg-stroke" d="M156.26,30H180.5a20,20,0,0,1,20,20V74.21a3,3,0,0,1-3,3H156.26a3,3,0,0,1-3-3V33A3,3,0,0,1,156.26,30Z"/><rect class="hkbiconsvg-stroke" x="30.42" y="91.41" width="47.24" height="47.24" rx="3" ry="3"/><path class="hkbiconsvg-stroke" d="M68.24,152.87h6.43a3,3,0,0,1,3,3v41.24a3,3,0,0,1-3,3H50.42a20,20,0,0,1-20-20V155.87a3,3,0,0,1,3-3H51.5"/><polyline class="hkbiconsvg-stroke" points="115.44 77.2 115.44 114.91 153.26 152.87 153.26 199.61"/><line class="hkbiconsvg-stroke" x1="176.88" y1="77.21" x2="176.88" y2="200.11"/><polyline class="hkbiconsvg-stroke" points="77.67 115.04 115.46 152.87 115.46 199.61"/></g></svg>