<svg id="hkbicon-community" class="hkbiconset" xmlns="http://www.w3.org/2000/svg" viewBox="0 0 230 230"><g><path class="hkbiconsvg-stroke" d="M162.81,72.35H173.7a22.8,22.8,0,0,1,22.8,22.8v15.29a6.74,6.74,0,0,1-6.74,6.74h0"/><path class="hkbiconsvg-stroke" d="M175.7,200.17h20.67a5,5,0,0,0,5-5v-6.94a26.11,26.11,0,0,0-26.11-26.11h0l-5.63,5.08"/><line class="hkbiconsvg-stroke" x1="172.58" y1="164.54" x2="172.58" y2="150.82"/><path class="hkbiconsvg-stroke" d="M135,133.6a27.35,27.35,0,0,0,26.26,19.68h0a27.36,27.36,0,0,0,27.35-27.35V102a76.25,76.25,0,0,1-27.35,4.77,83.51,83.51,0,0,1-9.07-.47"/><path class="hkbiconsvg-stroke" d="M193.55,117.32h3a0,0,0,0,1,0,0v9.92a0,0,0,0,1,0,0h-3a5,5,0,0,1-5-5v0A5,5,0,0,1,193.55,117.32Z" transform="translate(385.09 244.55) rotate(-180)"/><path class="hkbiconsvg-stroke" d="M79,90.9h0a9.47,9.47,0,0,1-9.48-9.48V61.92a30,30,0,0,1,30-30H132a30,30,0,0,1,30,30V82a8.87,8.87,0,0,1-8.87,8.87h0"/><path class="hkbiconsvg-stroke" d="M135,150h-.92l-12.89,11.63a8.46,8.46,0,0,1-11.31,0L97,150h0a42.34,42.34,0,0,0-42.34,42.34v7.73H177.34v-7.73A42.34,42.34,0,0,0,135,150Z"/><line class="hkbiconsvg-stroke" x1="100.46" y1="136.26" x2="100.46" y2="152.15"/><line class="hkbiconsvg-stroke" x1="130.55" y1="152.15" x2="130.55" y2="136.26"/><line class="hkbiconsvg-stroke" x1="115.51" y1="163.84" x2="115.51" y2="175.08"/><path class="hkbiconsvg-stroke" d="M115.62,77.25a100.27,100.27,0,0,1-36-6.28v31.45a36,36,0,0,0,36,36h0a36,36,0,0,0,36-36V71A100.23,100.23,0,0,1,115.62,77.25Z"/><path class="hkbiconsvg-stroke" d="M75.53,90.72h4.1a0,0,0,0,1,0,0v13.78a0,0,0,0,1,0,0h-4.1a6.89,6.89,0,0,1-6.89-6.89v0A6.89,6.89,0,0,1,75.53,90.72Z"/><path class="hkbiconsvg-stroke" d="M158.14,91.09H162a0,0,0,0,1,0,0v13.06a0,0,0,0,1,0,0h-3.88a6.53,6.53,0,0,1-6.53-6.53v0a6.53,6.53,0,0,1,6.53-6.53Z" transform="translate(313.63 195.23) rotate(-180)"/><line class="hkbiconsvg-stroke" x1="115.48" y1="183.79" x2="115.48" y2="187"/><path class="hkbiconsvg-stroke" d="M69.19,72.29H58.3a22.8,22.8,0,0,0-22.8,22.8v15.29a6.74,6.74,0,0,0,6.74,6.74h0"/><path class="hkbiconsvg-stroke" d="M56.3,200.11H35.63a5,5,0,0,1-5-5v-7a26.11,26.11,0,0,1,26.11-26.1h0l5.63,5.08"/><line class="hkbiconsvg-stroke" x1="59.42" y1="164.61" x2="59.42" y2="150.76"/><path class="hkbiconsvg-stroke" d="M97,133.54a27.35,27.35,0,0,1-26.26,19.68h0a27.36,27.36,0,0,1-27.35-27.35V102a76.25,76.25,0,0,0,27.35,4.77,83.51,83.51,0,0,0,9.07-.47"/><path class="hkbiconsvg-stroke" d="M40.46,117.26h3a0,0,0,0,1,0,0v9.92a0,0,0,0,1,0,0h-3a5,5,0,0,1-5-5v0a5,5,0,0,1,5-5Z"/></g></svg>