<svg id="hkbicon-register-login" class="hkbiconset" xmlns="http://www.w3.org/2000/svg" viewBox="0 0 230 230"><g><circle class="hkbiconsvg-stroke" cx="76.86" cy="139.77" r="5.5"/><circle class="hkbiconsvg-stroke" cx="95.95" cy="139.77" r="5.5"/><circle class="hkbiconsvg-stroke" cx="115.04" cy="139.77" r="5.5"/><circle class="hkbiconsvg-stroke" cx="134.13" cy="139.77" r="5.5"/><circle class="hkbiconsvg-stroke" cx="153.22" cy="139.77" r="5.5"/><path class="hkbiconsvg-stroke" d="M19.6,173.18H210.41a0,0,0,0,1,0,0v4.35A22.42,22.42,0,0,1,188,200H42A22.42,22.42,0,0,1,19.6,177.53v-4.35A0,0,0,0,1,19.6,173.18Z"/><path class="hkbiconsvg-stroke" d="M143.83,29.8h36.34a20,20,0,0,1,20,20V173.18H29.77V49.83a20,20,0,0,1,20-20H86.24"/><circle class="hkbiconsvg-stroke" cx="115.03" cy="63.57" r="43.5"/><circle class="hkbiconsvg-stroke" cx="115.03" cy="63.57" r="43.5"/><circle class="hkbiconsvg-stroke" cx="115.04" cy="60.57" r="15.87"/><path class="hkbiconsvg-fill" d="M86.24,96.19a43.47,43.47,0,0,0,57.59,0,30.89,30.89,0,0,0-57.59,0Z"/><path class="hkbiconsvg-stroke" d="M157.33,126.43h13.34A3.53,3.53,0,0,1,174.2,130v19.62a3.53,3.53,0,0,1-3.53,3.54H59.24a3.54,3.54,0,0,1-3.54-3.54V130a3.54,3.54,0,0,1,3.54-3.53h83.39"/></g></svg>