<svg id="hkbicon-pricing-plans" class="hkbiconset" xmlns="http://www.w3.org/2000/svg" viewBox="0 0 230 230"><g><path class="hkbiconsvg-stroke" d="M153.79,142.3v50.41a8,8,0,0,1-8,8H86.27a8,8,0,0,1-8-8V141.79"/><path class="hkbiconsvg-stroke" d="M78.27,82.71V38.56a8,8,0,0,1,8-8h59.52a8,8,0,0,1,8,8V82.19"/><line class="hkbiconsvg-stroke" x1="89.44" y1="187.33" x2="143.24" y2="187.33"/><line class="hkbiconsvg-stroke" x1="31.11" y1="164.5" x2="78.2" y2="164.5"/><path class="hkbiconsvg-stroke" d="M78.2,82.25V53.11H42.12A11.13,11.13,0,0,0,31,64.25V167a11.13,11.13,0,0,0,11.13,11.13H78.2V141.79"/><line class="hkbiconsvg-stroke" x1="200.84" y1="164.5" x2="153.79" y2="164.5"/><path class="hkbiconsvg-stroke" d="M201,99.25V167a11.13,11.13,0,0,1-11.14,11.13h-36V144.67"/><path class="hkbiconsvg-stroke" d="M153.79,80.67V53.11h36A11.14,11.14,0,0,1,201,64.25V84.5"/><circle class="hkbiconsvg-stroke" cx="116.37" cy="112.25" r="48"/><line class="hkbiconsvg-stroke" x1="116.37" y1="133.35" x2="116.37" y2="126.88"/><line class="hkbiconsvg-stroke" x1="116.37" y1="96.38" x2="116.37" y2="89.91"/><path class="hkbiconsvg-fill" d="M125.63,111.43a24.4,24.4,0,0,0-8.45-2.84H117a16,16,0,0,1-6.2-2.08c-1.24-1-1.48-1.67-1.48-2.47a3.94,3.94,0,0,1,1.7-3,9,9,0,0,1,5.63-1.66c2.83,0,5,1.46,7.32,3l.24.16a2.7,2.7,0,0,0,2,.36,2.62,2.62,0,0,0,1.72-1.17,2.84,2.84,0,0,0-.81-3.81l-.11-.07c-2.61-1.64-5.85-3.69-10.38-3.69a15.34,15.34,0,0,0-8.79,2.45,9.31,9.31,0,0,0-4,7.39,7.94,7.94,0,0,0,4,6.85c2.13,1.53,5,2.22,7.82,2.74a1.06,1.06,0,0,0,.3.1c3.1.51,5.31,1.27,6.54,2.2,1.61,1.36,1.94,2.2,2,3.24a4.11,4.11,0,0,1-2.11,3.24,9,9,0,0,1-5.63,1.79c-3,0-6.23-1.23-9.49-3.63a2.81,2.81,0,0,0-2-.62,2.67,2.67,0,0,0-1.43,4.69,21,21,0,0,0,13,5,14.8,14.8,0,0,0,8.94-2.87c2.77-2.1,4.23-4.72,4.23-7.59A9.37,9.37,0,0,0,125.63,111.43Z"/><circle class="hkbiconsvg-stroke" cx="116.37" cy="112.25" r="48"/></g></svg>