<svg id="hkbicon-settings-options" class="hkbiconset" xmlns="http://www.w3.org/2000/svg" viewBox="0 0 230 230"><g fill="none" stroke-width="5" stroke-linecap="round" stroke-linejoin="round"><path class="hkbiconsvg-stroke" d="M174.1 173.72a9.78 9.78 0 0 0 .6-13.18l-2.21-2.65a9.73 9.73 0 0 1-1.08-10.89 63.16 63.16 0 0 0 5.8-14.23 9.74 9.74 0 0 1 8.53-7.11l3.56-.33a9.77 9.77 0 0 0 8.89-9.74 9.78 9.78 0 0 0-8.89-9.75l-3.76-.34a9.75 9.75 0 0 1-8.5-7 63 63 0 0 0-5.82-14 9.71 9.71 0 0 1 1-11l2.44-2.94a9.78 9.78 0 0 0-.6-13.18 9.8 9.8 0 0 0-13.18-.6L158 59.23a9.71 9.71 0 0 1-11 1 64.05 64.05 0 0 0-14-5.82 9.74 9.74 0 0 1-7-8.5l-.34-3.76a9.78 9.78 0 0 0-9.74-8.89 9.79 9.79 0 0 0-9.75 8.89l-.32 3.56a9.75 9.75 0 0 1-7.12 8.53 63.62 63.62 0 0 0-14.23 5.8A9.71 9.71 0 0 1 73.6 59L71 56.79a9.8 9.8 0 0 0-13.18.6 9.79 9.79 0 0 0-.6 13.18l2 2.43a9.72 9.72 0 0 1 1 11 63.71 63.71 0 0 0-6.1 14.49 9.71 9.71 0 0 1-8.49 7l-3 .28a9.79 9.79 0 0 0-8.89 9.75 9.78 9.78 0 0 0 8.89 9.74l2.84.26a9.73 9.73 0 0 1 8.52 7.1A63.69 63.69 0 0 0 60 147.43a9.68 9.68 0 0 1-1 11l-1.78 2.14a9.79 9.79 0 0 0 .6 13.18 9.78 9.78 0 0 0 13.18.6l2.14-1.78a9.7 9.7 0 0 1 11-1 63.44 63.44 0 0 0 14.77 6.07 9.73 9.73 0 0 1 7.1 8.53l.26 2.83a9.78 9.78 0 0 0 9.75 8.89 9.77 9.77 0 0 0 9.74-8.89l.28-3a9.7 9.7 0 0 1 7-8.5 63.45 63.45 0 0 0 14.49-6.1 9.72 9.72 0 0 1 11 1l2.42 2a9.78 9.78 0 0 0 13.15-.68z"/><circle class="hkbiconsvg-stroke" cx="115.92" cy="116.07" r="25.06"/><path class="hkbiconsvg-stroke" d="M96.77 80.79a40.13 40.13 0 1 1-14 12.65"/></g></svg>