<svg id="hkbicon-customization" class="hkbiconset" xmlns="http://www.w3.org/2000/svg" viewBox="0 0 230 230"><g><path class="hkbiconsvg-stroke" d="M30,178.32v-110a22,22,0,0,1,44,0v110a22,22,0,1,0-22,22H67.6"/><path class="hkbiconsvg-stroke" d="M177.81,71.42H192.4A7.59,7.59,0,0,1,200,79v101.3a20,20,0,0,1-20,20H81"/><line class="hkbiconsvg-stroke" x1="73.95" y1="71.42" x2="94.89" y2="71.42"/><line class="hkbiconsvg-stroke" x1="125.31" y1="71.42" x2="148.18" y2="71.42"/><polygon class="hkbiconsvg-stroke" points="148.16 54.38 148.27 139.35 162.64 164.16 176.94 139.31 176.84 54.35 148.16 54.38"/><path class="hkbiconsvg-stroke" d="M162.48,29.51h0a14.34,14.34,0,0,1,14.34,14.34V54.36a0,0,0,0,1,0,0H148.14a0,0,0,0,1,0,0V43.85A14.34,14.34,0,0,1,162.48,29.51Z" transform="matrix(1, 0, 0, 1, -0.05, 0.21)"/><rect class="hkbiconsvg-stroke" x="95.41" y="29.93" width="29.89" height="133.04"/><line class="hkbiconsvg-stroke" x1="96.11" y1="58.75" x2="106.71" y2="58.75"/><line class="hkbiconsvg-stroke" x1="96.11" y1="79.57" x2="106.71" y2="79.57"/><line class="hkbiconsvg-stroke" x1="96.11" y1="100.39" x2="106.71" y2="100.39"/><line class="hkbiconsvg-stroke" x1="96.11" y1="121.21" x2="106.71" y2="121.21"/><line class="hkbiconsvg-stroke" x1="96.11" y1="142.03" x2="106.71" y2="142.03"/><path class="hkbiconsvg-stroke" d="M30,178.32v-110a22,22,0,0,1,44,0v110a22,22,0,1,0-22,22H67.6"/></g></svg>