<svg id="hkbicon-server-hosting" class="hkbiconset" xmlns="http://www.w3.org/2000/svg" viewBox="0 0 230 230"><g fill="none" stroke-width="5" stroke-linecap="round" stroke-linejoin="round"><path class="hkbiconsvg-stroke" d="M50.46 30.3h130.15a20 20 0 0 1 20 20v19.84a8 8 0 0 1-8 8H38.41a8 8 0 0 1-8-8V50.3a20 20 0 0 1 20-20zM140.07 139.28H38.46a8 8 0 0 1-8-8V99.49a8 8 0 0 1 8-8h154.15a8 8 0 0 1 8 8v31.79a8 8 0 0 1-8 8h-34.27"/><path class="hkbiconsvg-stroke" d="M50.46 152.68h130.15a20 20 0 0 1 20 20v19.84a8 8 0 0 1-8 8H38.41a8 8 0 0 1-8-8v-19.84a20 20 0 0 1 20.05-20z" transform="rotate(180 115.535 176.575)"/><circle class="hkbiconsvg-stroke" cx="147.32" cy="55.36" r="7.25"/><circle class="hkbiconsvg-stroke" cx="168.56" cy="55.36" r="7.25"/><circle class="hkbiconsvg-stroke" cx="147.32" cy="115.39" r="7.25"/><circle class="hkbiconsvg-stroke" cx="168.56" cy="115.39" r="7.25"/><circle class="hkbiconsvg-stroke" cx="147.32" cy="175.18" r="7.25"/><circle class="hkbiconsvg-stroke" cx="168.56" cy="175.18" r="7.25"/><path class="hkbiconsvg-stroke" d="M56.19 55.36h67.58M56.19 175.18h67.58M56.19 106.18h68.91v17.64H56.19z"/></g></svg>