<svg id="hkbicon-dashboard" class="hkbiconset" xmlns="http://www.w3.org/2000/svg" viewBox="0 0 230 230"><g><path class="hkbiconsvg-stroke" d="M200.93,173.94H30.5V50.6a20,20,0,0,1,20-20H180.9a20,20,0,0,1,20,20Z"/><path class="hkbiconsvg-stroke" d="M188.72,200.71h-146a22.42,22.42,0,0,1-22.42-22.42v-4.35H211.14v4.35A22.42,22.42,0,0,1,188.72,200.71Z"/><line class="hkbiconsvg-stroke" x1="52.04" y1="72.23" x2="199.48" y2="72.23"/><circle class="hkbiconsvg-fill" cx="52.92" cy="52.62" r="4.51"/><circle class="hkbiconsvg-fill" cx="78.09" cy="52.62" r="4.51"/><circle class="hkbiconsvg-fill" cx="103.27" cy="52.62" r="4.51"/><rect class="hkbiconsvg-stroke" x="52.04" y="96.38" width="33" height="41.87" rx="4.45" ry="4.45"/><rect class="hkbiconsvg-stroke" x="99.08" y="96.38" width="33" height="41.87" rx="4.45" ry="4.45"/><rect class="hkbiconsvg-stroke" x="146.11" y="96.38" width="33" height="41.87" rx="4.45" ry="4.45"/><line class="hkbiconsvg-stroke" x1="52.04" y1="152.4" x2="85.05" y2="152.4"/><line class="hkbiconsvg-stroke" x1="99.08" y1="152.4" x2="132.08" y2="152.4"/><line class="hkbiconsvg-stroke" x1="146.11" y1="152.4" x2="179.12" y2="152.4"/></g></svg>