<svg id="hkbicon-social-share" class="hkbiconset" xmlns="http://www.w3.org/2000/svg" viewBox="0 0 230 230"><g><circle class="hkbiconsvg-stroke" cx="66.38" cy="164.34" r="36.03"/><polyline class="hkbiconsvg-stroke" points="100.25 137.41 115.36 122.27 115.36 109.29"/><line class="hkbiconsvg-stroke" x1="130.53" y1="137.41" x2="115.38" y2="122.26"/><circle class="hkbiconsvg-stroke" cx="66.39" cy="161.86" r="13.15"/><path class="hkbiconsvg-stroke" d="M42.53,191.35a36,36,0,0,0,47.69,0,25.57,25.57,0,0,0-47.69,0Z"/><circle class="hkbiconsvg-stroke" cx="164.75" cy="164.34" r="36.03"/><circle class="hkbiconsvg-stroke" cx="164.76" cy="161.86" r="13.15"/><path class="hkbiconsvg-stroke" d="M140.91,191.35a36,36,0,0,0,47.69,0,25.57,25.57,0,0,0-47.69,0Z"/><circle class="hkbiconsvg-stroke" cx="115.39" cy="66.77" r="36.03"/><circle class="hkbiconsvg-stroke" cx="115.4" cy="64.29" r="13.15"/><path class="hkbiconsvg-stroke" d="M91.54,93.79a36,36,0,0,0,47.7,0,25.58,25.58,0,0,0-47.7,0Z"/></g></svg>