<svg id="hkbicon-database" class="hkbiconset" xmlns="http://www.w3.org/2000/svg" viewBox="0 0 230 230"><g><path class="hkbiconsvg-stroke" d="M97,89.11C58.66,86.25,29.93,74.42,29.93,60.26h0V97.68c0,16.3,38.06,29.51,85,29.51S200,114,200,97.68V60.26c0,16.3-38.07,29.51-85,29.51h-.69"/><path class="hkbiconsvg-stroke" d="M114.94,127.07c-46.95,0-85-13.22-85-29.52h0V135c0,16.3,38.06,29.52,85,29.52s85-13.22,85-29.52V97.55C200,113.85,161.89,127.07,114.94,127.07Z"/><path class="hkbiconsvg-stroke" d="M114.94,164.36c-46.95,0-85-13.21-85-29.52h0v37.43c0,16.3,38.06,29.51,85,29.51s85-13.21,85-29.51V134.85C200,151.15,161.89,164.36,114.94,164.36Z"/><path class="hkbiconsvg-stroke" d="M124.74,89.58C167.08,87.89,200,75.41,200,60.26c0-16.3-38.06-29.52-85-29.52s-85,13.22-85,29.52c0,14.13,28.6,25.94,66.79,28.83"/></g></svg>