<svg id="hkbicon-notifications" class="hkbiconset" xmlns="http://www.w3.org/2000/svg" viewBox="0 0 230 230"><g><path class="hkbiconsvg-stroke" d="M103.45,50.49V42A11.45,11.45,0,0,1,114.9,30.57h0A11.45,11.45,0,0,1,126.35,42v8.47"/><path class="hkbiconsvg-stroke" d="M168.65,134.74V151H61.15V104.24A53.76,53.76,0,0,1,114.9,50.49h0a53.53,53.53,0,0,1,26.84,7.17"/><path class="hkbiconsvg-stroke" d="M57.55,151H172a27.67,27.67,0,0,1,27.67,27.67v0a0,0,0,0,1,0,0H29.89a0,0,0,0,1,0,0v0A27.67,27.67,0,0,1,57.55,151Z"/><circle class="hkbiconsvg-stroke" cx="167.65" cy="92.11" r="31.94"/><path class="hkbiconsvg-stroke" d="M76.59,178.66a44.25,44.25,0,0,0,76.68,0Z"/><line class="hkbiconsvg-stroke" x1="167.65" y1="77.85" x2="167.65" y2="95.26"/><line class="hkbiconsvg-stroke" x1="167.65" y1="102.66" x2="167.65" y2="103.2"/></g></svg>