<svg id="hkbicon-users" class="hkbiconset" xmlns="http://www.w3.org/2000/svg" viewBox="0 0 230 230"><g><path class="hkbiconsvg-stroke" d="M48.4,90.54h0A9.59,9.59,0,0,1,38.81,81V77.66A46.79,46.79,0,0,1,85.6,30.87h0a46.6,46.6,0,0,1,28.51,9.68"/><path class="hkbiconsvg-stroke" d="M91.42,162.37a8.54,8.54,0,0,1-11.44,0l-13-11.76H63.26A42.26,42.26,0,0,0,21,192.87h0a8.4,8.4,0,0,0,8.39,8.4H88.44"/><line class="hkbiconsvg-stroke" x1="70.13" y1="136.43" x2="70.13" y2="153.53"/><path class="hkbiconsvg-stroke" d="M96.63,76.19c-3.62.35-7.36.54-11.17.54a101.35,101.35,0,0,1-36.41-6.36v31.82A36.41,36.41,0,0,0,85.46,138.6h0a36.12,36.12,0,0,0,11.26-1.78"/><path class="hkbiconsvg-stroke" d="M44.9,90.36h4.15a0,0,0,0,1,0,0V104.3a0,0,0,0,1,0,0H44.9a7,7,0,0,1-7-7v0A7,7,0,0,1,44.9,90.36Z"/><path class="hkbiconsvg-stroke" d="M127.05,150.36H96.82V77.66a46.79,46.79,0,0,1,46.8-46.79h0a46.79,46.79,0,0,1,46.79,46.79v72.71h-30.8"/><line class="hkbiconsvg-stroke" x1="127.78" y1="136.43" x2="127.78" y2="152.5"/><line class="hkbiconsvg-stroke" x1="159.16" y1="136.43" x2="159.16" y2="152.5"/><path class="hkbiconsvg-stroke" d="M143.47,76.73a101.35,101.35,0,0,1-36.41-6.36v31.82a36.41,36.41,0,0,0,36.41,36.41h0a36.41,36.41,0,0,0,36.41-36.41V70.37A101.35,101.35,0,0,1,143.47,76.73Z"/><path class="hkbiconsvg-stroke" d="M168.67,150.26l-6.88,0-13,11.81a8.53,8.53,0,0,1-11.44.05l-13.09-11.7-3.68,0a42.26,42.26,0,0,0-42.08,42.44h0A8.39,8.39,0,0,0,87,201.27l113.55-.5a8.39,8.39,0,0,0,8.36-8.43v-2.26A40,40,0,0,0,168.67,150.26Z"/><line class="hkbiconsvg-stroke" x1="143.12" y1="164.32" x2="143.12" y2="175.69"/><line class="hkbiconsvg-stroke" x1="143.09" y1="184.51" x2="143.09" y2="187.76"/></g></svg>