<svg id="hkbicon-dns-settings" class="hkbiconset" xmlns="http://www.w3.org/2000/svg" viewBox="0 0 230 230"><g fill="none" stroke-width="5" stroke-linecap="round" stroke-linejoin="round"><circle class="hkbiconsvg-stroke" cx="115.92" cy="115.16" r="85"/><path class="hkbiconsvg-stroke" d="M146.16 130.91c-2.38 40.31-15 69.26-30.26 69.26s-27.72-29.52-30.2-69.46M85.74 100.22c2.48-39.94 15-69.72 30.16-69.72s27.8 29.44 30.26 69.5"/><path class="hkbiconsvg-stroke" d="M185.11 65.78C166.93 77.65 142.66 84.9 116 84.9a147 147 0 0 1-15.4-.81C80 81.87 61.41 75.29 46.79 65.7M46.79 162.77c18.17-11.87 42.44-19.13 69.1-19.13s51 7.28 69.22 19.2M30.92 115.16h21.97M180.28 115.16h20.64M112.82 130.45H61.76a8.87 8.87 0 0 1-8.87-8.86v-12.51a8.87 8.87 0 0 1 8.87-8.86H170a8.87 8.87 0 0 1 8.87 8.86v12.51a8.87 8.87 0 0 1-8.87 8.86h-42.51"/></g></svg>