<svg id="hkbicon-user" class="hkbiconset" xmlns="http://www.w3.org/2000/svg" viewBox="0 0 230 230"><g><path class="hkbiconsvg-stroke" d="M79,90.41h0a9.59,9.59,0,0,1-9.59-9.59V77.54a46.79,46.79,0,0,1,46.79-46.8h0A46.8,46.8,0,0,1,163,77.54v3.9a9,9,0,0,1-9,9h0"/><path class="hkbiconsvg-stroke" d="M148.58,150.24H134.7l-13,11.76a8.53,8.53,0,0,1-11.43,0l-13-11.76H86.5A42.26,42.26,0,0,0,44.24,192.5h0a8.39,8.39,0,0,0,8.4,8.39H180.19a8.38,8.38,0,0,0,8.39-8.39v-2.26A40,40,0,0,0,148.58,150.24Z"/><line class="hkbiconsvg-stroke" x1="100.7" y1="136.3" x2="100.7" y2="152.37"/><line class="hkbiconsvg-stroke" x1="131.13" y1="136.3" x2="131.13" y2="152.37"/><line class="hkbiconsvg-stroke" x1="115.91" y1="164.2" x2="115.91" y2="175.57"/><path class="hkbiconsvg-stroke" d="M116,76.6a101.57,101.57,0,0,1-36.41-6.35v31.81A36.41,36.41,0,0,0,116,138.47h0a36.41,36.41,0,0,0,36.41-36.41V70.25A101.57,101.57,0,0,1,116,76.6Z"/><path class="hkbiconsvg-stroke" d="M75.47,90.23h4.15a0,0,0,0,1,0,0v13.95a0,0,0,0,1,0,0H75.47a7,7,0,0,1-7-7v0A7,7,0,0,1,75.47,90.23Z"/><path class="hkbiconsvg-stroke" d="M159,90.6H163a0,0,0,0,1,0,0v13.21a0,0,0,0,1,0,0H159a6.6,6.6,0,0,1-6.6-6.6v0a6.6,6.6,0,0,1,6.6-6.6Z" transform="translate(315.41 194.4) rotate(-180)"/><line class="hkbiconsvg-stroke" x1="115.89" y1="184.38" x2="115.89" y2="187.63"/></g></svg>