<svg id="hkbicon-contact" class="hkbiconset" xmlns="http://www.w3.org/2000/svg" viewBox="0 0 230 230"><g fill="none" stroke-width="5" stroke-linecap="round" stroke-linejoin="round"><line class="hkbiconsvg-stroke" x1="184.26" y1="91.62" x2="195.23" y2="101.43"/><polyline class="hkbiconsvg-stroke" points="91.27 53.27 116.31 30.87 141.17 53.1"/><line class="hkbiconsvg-stroke" x1="37.44" y1="101.43" x2="48.39" y2="91.63"/><path class="hkbiconsvg-stroke" d="M194.3,100.63a20,20,0,0,1,7.09,15.28V181a20,20,0,0,1-20,20H51.23a20,20,0,0,1-20-20V115.91A20,20,0,0,1,40,99.38"/><line class="hkbiconsvg-stroke" x1="37.44" y1="101.43" x2="116.34" y2="153.7"/><line class="hkbiconsvg-stroke" x1="195.23" y1="101.43" x2="126.13" y2="147.22"/><line class="hkbiconsvg-stroke" x1="37.44" y1="194.8" x2="93.6" y2="138.64"/><line class="hkbiconsvg-stroke" x1="139.07" y1="138.64" x2="195.23" y2="195.41"/><path class="hkbiconsvg-stroke" d="M49.06,107.68V61.8A7.78,7.78,0,0,1,56.84,54H175.78a7.78,7.78,0,0,1,7.78,7.78v45.88"/><line class="hkbiconsvg-stroke" x1="76.59" y1="78.11" x2="156.03" y2="78.11"/><line class="hkbiconsvg-stroke" x1="83.24" y1="95.64" x2="149.38" y2="95.64"/><line class="hkbiconsvg-stroke" x1="93.55" y1="113.17" x2="139.07" y2="113.17"/></g></svg>