<svg id="hkbicon-edit-page" class="hkbiconset" xmlns="http://www.w3.org/2000/svg" viewBox="0 0 230 230"><g fill="none" stroke-width="5" stroke-linecap="round" stroke-linejoin="round"><path class="hkbiconsvg-stroke" d="M187.93 110.64v70.07a20 20 0 0 1-20 20H50.78a20 20 0 0 1-20-20V50.55a20 20 0 0 1 20-20h117.15a20 20 0 0 1 20 20v22.76M54.77 63.86h132.8"/><circle class="hkbiconsvg-fill" cx="55.5" cy="47.65" r="3.73"/><circle class="hkbiconsvg-fill" cx="76.31" cy="47.65" r="3.73"/><circle class="hkbiconsvg-fill" cx="97.13" cy="47.65" r="3.73"/><path class="hkbiconsvg-stroke" d="M176.59 85.73l-44.56 54.22-3.87 23.37 22.18-8.33 44.55-54.22-18.3-15.04z"/><path class="hkbiconsvg-stroke" d="M192.25 75.05A11.84 11.84 0 0 1 204.1 86.9v8.68h-23.69V86.9a11.84 11.84 0 0 1 11.84-11.85z" transform="rotate(39.41 192.24 85.308)"/><path class="hkbiconsvg-stroke" d="M54.77 109.82h73.39M54.77 133.25h81.25M54.77 156.69h42.36"/></g></svg>