<svg id="hkbicon-mobile-app" class="hkbiconset" xmlns="http://www.w3.org/2000/svg" viewBox="0 0 230 230"><g fill="none" stroke-width="5" stroke-linecap="round" stroke-linejoin="round"><path class="hkbiconsvg-stroke" d="M145.33 163v17.83a20 20 0 0 1-20 20H71a20 20 0 0 1-20-20V50.69a20 20 0 0 1 20-20h54.35a20 20 0 0 1 20 20v17.83M52.16 55.35h92M52.09 174.35h92.13M91.31 43.1h14"/><circle class="hkbiconsvg-fill" cx="98.39" cy="187.43" r="5.5"/><rect class="hkbiconsvg-stroke" x="68.98" y="77.99" width="131.39" height="75.59" rx="7.58" ry="7.58"/><path class="hkbiconsvg-stroke" d="M115.31 77.99v75.59M82.24 94.46h21.02M82.24 108.79h21.02M82.24 123.13h21.02M82.24 137.46h21.02M138.78 96.32h38.13v38.13h-38.13z"/></g></svg>