<svg id="hkbicon-glossary" class="hkbiconset" xmlns="http://www.w3.org/2000/svg" viewBox="0 0 230 230"><g fill="none" stroke-width="5" stroke-linecap="round" stroke-linejoin="round"><path class="hkbiconsvg-stroke" d="M71.19 33.22v114.03M56.52 175.5h117.55v18.21a7 7 0 0 1-7 7H56.52a12.61 12.61 0 0 1-12.61-12.61 12.61 12.61 0 0 1 12.61-12.6zM71.19 175.45v-14.28"/><path class="hkbiconsvg-stroke" d="M167.07 30.56H63.91a20 20 0 0 0-20 20v137.55a12.61 12.61 0 0 1 12.61-12.61h117.55V37.56a7 7 0 0 0-7-7zM58.87 188.11h96.81M174.07 68.82V40.57l8.65 3.2a8.12 8.12 0 0 1 5.3 7.62V58a8.1 8.1 0 0 1-5.3 7.61zM174.07 97.07V68.82l8.65 3.18a8.1 8.1 0 0 1 5.3 7.61v6.61a8.12 8.12 0 0 1-5.3 7.62zM174.07 125.33V97.07l8.65 3.21a8.11 8.11 0 0 1 5.3 7.61v6.62a8.11 8.11 0 0 1-5.3 7.61zM174.07 153.58v-28.25l8.65 3.2a8.12 8.12 0 0 1 5.3 7.62v6.61a8.12 8.12 0 0 1-5.3 7.62zM174.07 181.84v-28.26l8.65 3.21a8.1 8.1 0 0 1 5.3 7.61v6.6a8.11 8.11 0 0 1-5.3 7.61z"/></g></svg>