<svg id="hkbicon-widgets" class="hkbiconset" xmlns="http://www.w3.org/2000/svg" viewBox="0 0 230 230"><g id="Widgets"><path class="hkbiconsvg-stroke" d="M162.86,88.44v61.63l26.64,9.48a20,20,0,0,0,10.57-17.64V50.24a20,20,0,0,0-20-20H88.4a20,20,0,0,0-20,20v18.2h74.46A20,20,0,0,1,162.86,88.44Z"/><path class="hkbiconsvg-stroke" d="M146.39,149.7a3.31,3.31,0,0,1,4.05-4l12.42,4.42V88.44a20,20,0,0,0-20-20H51.19a20,20,0,0,0-20,20v91.67a20,20,0,0,0,20,20h91.67a20,20,0,0,0,17.68-10.65Z"/><polyline class="hkbiconsvg-stroke" points="32.69 163.37 65.27 130.78 97.2 162.71 148.84 111.08"/><path class="hkbiconsvg-stroke" d="M198.09,162.6l-47.65-16.95a3.31,3.31,0,0,0-4.05,4l17,47.64a3.3,3.3,0,0,0,6.16.59l6.19-15.47,18.7,18.7a5.31,5.31,0,0,0,7.51-7.52l-18.7-18.7,15.47-6.18A3.3,3.3,0,0,0,198.09,162.6Z"/></g></svg>