<svg id="hkbicon-search-engine" class="hkbiconset" xmlns="http://www.w3.org/2000/svg" viewBox="0 0 230 230"><path class="hkbiconsvg-stroke" d="M186.38,198.83a20,20,0,0,1-7.08,1.28H49.15a20,20,0,0,1-20-20V50a20,20,0,0,1,20-20H179.3a20,20,0,0,1,20,20V180.11a20,20,0,0,1-1.05,6.42"/><line class="hkbiconsvg-stroke" x1="53.14" y1="63.27" x2="198.94" y2="63.27"/><circle class="hkbiconsvg-fill" cx="53.87" cy="47.05" r="3.73"/><circle class="hkbiconsvg-fill" cx="74.68" cy="47.05" r="3.73"/><circle class="hkbiconsvg-fill" cx="95.5" cy="47.05" r="3.73"/><circle class="hkbiconsvg-stroke" cx="126.99" cy="127.32" r="40.52"/><path class="hkbiconsvg-stroke" d="M183.92,155.51h0a8.35,8.35,0,0,1,8.35,8.35V213.2a0,0,0,0,1,0,0h-16.7a0,0,0,0,1,0,0V163.86A8.35,8.35,0,0,1,183.92,155.51Z" transform="translate(-76.49 184.04) rotate(-45)"/><line class="hkbiconsvg-stroke" x1="163.6" y1="163.87" x2="156.79" y2="157.07"/><path class="hkbiconsvg-stroke" d="M80.16,143.22h-24a3,3,0,0,1-3-3V106.88a3,3,0,0,1,3-3h25.8"/><path class="hkbiconsvg-stroke" d="M172.9,143.22h6a3,3,0,0,0,3-3V106.88a3,3,0,0,0-3-3h-9.33"/></svg>