<svg id="hkbicon-documents" class="hkbiconset" xmlns="http://www.w3.org/2000/svg" viewBox="0 0 230 230"><g fill="none" stroke-width="5" stroke-linecap="round" stroke-linejoin="round"><path class="hkbiconsvg-stroke" d="M184 50.53a20 20 0 0 1 16 19.6v110.32a20 20 0 0 1-20 20H77.12a19.91 19.91 0 0 1-15.42-7.28"/><path class="hkbiconsvg-stroke" d="M174.11 55.75v104.74a20 20 0 0 1-20 20H49.88a20 20 0 0 1-20-20V50.23a20 20 0 0 1 20-20l98.76.05"/><path class="hkbiconsvg-stroke" d="M174.11 55.75h-25.47V30.29l25.47 25.46zM59.8 77.16h73M59.8 96.42h73M59.8 115.68h73M59.8 134.93h42.19"/></g></svg>