<svg id="hkbicon-extras" class="hkbiconset" xmlns="http://www.w3.org/2000/svg" viewBox="0 0 230 230"><g><circle class="hkbiconsvg-stroke" cx="116" cy="132.24" r="41.64"/><path class="hkbiconsvg-stroke" d="M133.4,126.14h-8.75a2.57,2.57,0,0,1-2.57-2.57v-8.75a2.57,2.57,0,0,0-2.58-2.57h-7a2.58,2.58,0,0,0-2.58,2.57v8.75a2.57,2.57,0,0,1-2.57,2.57H98.6A2.58,2.58,0,0,0,96,128.72v7a2.57,2.57,0,0,0,2.57,2.57h8.75a2.57,2.57,0,0,1,2.57,2.57v8.75a2.59,2.59,0,0,0,2.58,2.58h7a2.58,2.58,0,0,0,2.58-2.58v-8.75a2.57,2.57,0,0,1,2.57-2.57h8.75a2.57,2.57,0,0,0,2.57-2.57v-7A2.58,2.58,0,0,0,133.4,126.14Z"/><rect class="hkbiconsvg-stroke" x="30.92" y="30.56" width="170.15" height="170.15" rx="20" ry="20"/><line class="hkbiconsvg-stroke" x1="54.92" y1="63.87" x2="200.72" y2="63.87"/><circle class="hkbiconsvg-fill" cx="55.65" cy="47.65" r="3.73"/><circle class="hkbiconsvg-fill" cx="76.46" cy="47.65" r="3.73"/><circle class="hkbiconsvg-fill" cx="97.27" cy="47.65" r="3.73"/></g></svg>