<svg id="hkbicon-support-center" class="hkbiconset" xmlns="http://www.w3.org/2000/svg" viewBox="0 0 230 230"><g><path class="hkbiconsvg-stroke" d="M163.09,121.89a47.64,47.64,0,1,1-.37-14.8"/><path class="hkbiconsvg-stroke" d="M42.9,159.34A85.05,85.05,0,0,1,43,71.84"/><path class="hkbiconsvg-stroke" d="M159.48,188.64a85.08,85.08,0,0,1-87.35,0"/><path class="hkbiconsvg-stroke" d="M189,72.34a85.1,85.1,0,0,1-.28,87.14"/><path class="hkbiconsvg-stroke" d="M72.22,42.71a85.13,85.13,0,0,1,87.56.18"/><path class="hkbiconsvg-stroke" d="M71,95.6,44,71.89a10,10,0,0,1-.47-14.59L57.47,43.39a10,10,0,0,1,14.58.47l23.72,27"/><path class="hkbiconsvg-stroke" d="M160.67,95.6l27-23.71a10,10,0,0,0,.47-14.59L174.22,43.39a10,10,0,0,0-14.58.47l-23.72,27"/><path class="hkbiconsvg-stroke" d="M160.67,135.75l27,23.72a10,10,0,0,1,.47,14.58L174.22,188a10,10,0,0,1-14.58-.47l-23.72-27"/><path class="hkbiconsvg-stroke" d="M71,135.75,44,159.47a10,10,0,0,0-.47,14.58L57.47,188a10,10,0,0,0,14.58-.47l23.72-27"/></g></svg>