<svg id="hkbicon-integrations" class="hkbiconset" xmlns="http://www.w3.org/2000/svg" viewBox="0 0 230 230"><g><path class="hkbiconsvg-stroke" d="M100.43,78.76V61H50.87a20,20,0,0,0-20,20v49.55H48.62a17,17,0,0,1,34.06,0h17.75V112.83a17,17,0,0,0,0-34.07Z"/><path class="hkbiconsvg-stroke" d="M83.4,161.55a17,17,0,0,1,17-17V130.65H82.68v-.11a17,17,0,0,0-34.06,0v.11H30.87v49.56a20,20,0,0,0,20,20h49.56V178.58A17,17,0,0,1,83.4,161.55Z"/><path class="hkbiconsvg-stroke" d="M170,150.16V130.68H152.24a17,17,0,0,1-34.06,0H100.43v13.84a17,17,0,0,0,0,34.06v21.66H150a20,20,0,0,0,20-20V165.46"/><path class="hkbiconsvg-stroke" d="M200.89,50.09a20,20,0,0,0-20-20H131.34V47.83a17,17,0,0,1,0,34.07V99.65h17.75s0,.07,0,.1a17,17,0,1,0,34.07,0s0-.07,0-.1h17.75Z"/></g></svg>