<svg id="hkbicon-rating" class="hkbiconset" xmlns="http://www.w3.org/2000/svg" viewBox="0 0 230 230"><g fill="none" stroke-width="5" stroke-linecap="round" stroke-linejoin="round"><path class="hkbiconsvg-stroke" d="M176 88.74l19.38 3a5.29 5.29 0 0 1 3.05 8.84L164 137.48a5.3 5.3 0 0 0-1.35 4.51l8.92 51.95a5.29 5.29 0 0 1-7.68 5.58l-46.52-24.46a5.3 5.3 0 0 0-4.93 0l-46.51 24.46a5.29 5.29 0 0 1-7.68-5.58L67.16 142a5.3 5.3 0 0 0-1.35-4.51l-34.45-36.9a5.29 5.29 0 0 1 3-8.84L83 84.21a5.29 5.29 0 0 0 3.93-2.89l23.28-47.16a5.29 5.29 0 0 1 9.49 0l23.27 47.16a5.31 5.31 0 0 0 3.94 2.89l15.6 2.46" /></g></svg>