<svg id="hkbicon-premium-support" class="hkbiconset" xmlns="http://www.w3.org/2000/svg" viewBox="0 0 230 230"><g fill="none" stroke-width="5" stroke-linecap="round" stroke-linejoin="round"><path class="hkbiconsvg-stroke" d="M180.5 189.1c-.1-15.6-9.2-29.7-23.4-36.2h-7.9c0 13.4-15.1 24.3-33.8 24.3s-33.8-10.9-33.8-24.3h-5.7C60.2 159.6 50.1 175 50.2 192c0 4.6 3.8 8.4 8.4 8.4l113.6-.5c4.6 0 8.4-3.8 8.4-8.4l-.1-2.4zM115.2 75.8c-12.4.1-24.8-2-36.4-6.4v31.8c0 20.1 16.3 36.4 36.4 36.4 20.1 0 36.4-16.3 36.4-36.4V69.4c-11.7 4.4-24 6.5-36.4 6.4z"/><path class="hkbiconsvg-stroke" d="M162.1 105.8v47.1h-31.8M68.5 76.7c0-25.8 20.9-46.8 46.8-46.8 25.8 0 46.8 20.9 46.8 46.8M99.8 152.9H68.5v-47.1M99.8 135.5v17.4M130.3 135.5v17.4"/><path class="hkbiconsvg-stroke" d="M115.2 75.8c-12.4.1-24.8-2-36.4-6.4v31.8c0 20.1 16.3 36.4 36.4 36.4 20.1 0 36.4-16.3 36.4-36.4V69.4c-11.7 4.4-24 6.5-36.4 6.4zM82.7 199.7v-10.5M148.1 199.7v-10.5M71.7 77h7.1v28.8h-7.1c-3.5 0-6.4-2.9-6.4-6.4v-16c0-3.5 2.8-6.4 6.4-6.4-.1 0-.1 0 0 0z"/><path class="hkbiconsvg-stroke" d="M158.6 105.9h-7.1V77.1h7.1c3.5 0 6.4 2.9 6.4 6.4v16c.1 3.4-2.7 6.3-6.4 6.4.1 0 .1 0 0 0zM155.4 106.9v7c0 4.8-3.9 8.6-8.6 8.6h-31.5"/></g></svg>