<svg id="hkbicon-feedback" class="hkbiconset" xmlns="http://www.w3.org/2000/svg" viewBox="0 0 230 230"><g><path class="hkbiconsvg-stroke" d="M140.28,87.56v-38c0-16.79-15.2-19.62-24.64-19.76A7.2,7.2,0,0,0,108.33,37V68.22c0,12-12.08,21.24-21.19,26.47A19.9,19.9,0,0,0,77.21,112v68a20,20,0,0,0,20,20h70A20,20,0,0,0,187,183l9.52-61c.08-.48.14-1,.19-1.45,2-17.78-12.5-33.13-30.38-33.08Z"/><path class="hkbiconsvg-stroke" d="M30,136.9V103.6a7,7,0,0,1,7-7H70.17a7,7,0,0,1,7,7v89.32a7,7,0,0,1-7,7H50a20,20,0,0,1-20-20V152.63"/><circle class="hkbiconsvg-fill" cx="53.58" cy="175" r="5.5"/></g></svg>