<svg id="hkbicon-getting-started2" class="hkbiconset" xmlns="http://www.w3.org/2000/svg" viewBox="0 0 230 230"><g fill="none" stroke-width="10" stroke-linecap="round" stroke-linejoin="round"><path class="hkbiconsvg-stroke" d="M198.93 50.39a20 20 0 0 0-20.06-20.07c-17.6.07-43.64 3.44-60.57 20.36-27.6 27.61-62.45 70.05-62.45 70.05l52.66 52.66s42.44-34.85 70-62.45C195.48 94 198.86 68 198.93 50.39zM110.64 118.63l5.17-5.18"/><circle class="hkbiconsvg-stroke" cx="148.82" cy="80.45" r="21.79"/><path class="hkbiconsvg-stroke" d="M82.19 147.07l21.66-21.66M97.81 72.27s-24-3.26-35.88 2.44c-9.47 4.52-24.66 30.82-30.49 41.4a3 3 0 0 0 2.61 4.44l21.8.18M158.22 132.69s3.26 24-2.43 35.88c-4.53 9.47-30.84 24.67-41.41 30.49a3 3 0 0 1-4.43-2.61l-.18-21.8M77.93 171.07l-19.46-19.46 10.28-17.99 27.17 27.17-17.99 10.28zM50.68 167.69l-10 4.58a10.08 10.08 0 0 0-5.88 9.29L35 195l13.44.16a10.08 10.08 0 0 0 9.28-5.88l4.58-10"/></g></svg>