<svg id="hkbicon-reporting" class="hkbiconset" xmlns="http://www.w3.org/2000/svg" viewBox="0 0 230 230"><g><path class="hkbiconsvg-stroke" d="M147.29,56.72h26.38a10,10,0,0,1,10,10v92.91"/><path class="hkbiconsvg-stroke" d="M158.21,185.09H55.82a10,10,0,0,1-10-10V66.72a10,10,0,0,1,10-10H83"/><path class="hkbiconsvg-stroke" d="M199.73,98.67v81.4a20,20,0,0,1-20,20H49.7a20,20,0,0,1-20-20V61.74a20,20,0,0,1,20-20h33"/><path class="hkbiconsvg-stroke" d="M146.74,41.74h33a20,20,0,0,1,20,20V83.33"/><rect class="hkbiconsvg-stroke" x="83.69" y="29.7" width="62.05" height="41.37"/><path class="hkbiconsvg-stroke" d="M110.05,97.15a33.67,33.67,0,1,0,33.51,36.77H110.05Z"/><path class="hkbiconsvg-stroke" d="M119.39,87.81v36.77H152.9c.1-1,.15-2.06.15-3.1A33.66,33.66,0,0,0,119.39,87.81Z"/><polygon class="hkbiconsvg-stroke" points="158.21 185.09 158.21 159.63 183.67 159.63 158.21 185.09"/></g></svg>