<svg id="hkbicon-download" class="hkbiconset" xmlns="http://www.w3.org/2000/svg" viewBox="0 0 230 230"><g><path class="hkbiconsvg-stroke" d="M154,134.83h46.33V180a20,20,0,0,1-20,20H50.16a20,20,0,0,1-20-20V134.83H77.48"/><path class="hkbiconsvg-stroke" d="M30.16,119.33V49.8a20,20,0,0,1,20-20H180.31a20,20,0,0,1,20,20v69.53"/><polygon class="hkbiconsvg-stroke" points="79.12 96.03 115.26 152.63 151.41 96.03 131.26 96.03 131.26 47.53 99.27 47.53 99.27 96.03 79.12 96.03"/><line class="hkbiconsvg-stroke" x1="50.99" y1="175" x2="179.49" y2="175"/></g></svg>