<svg id="hkbicon-manage-account" class="hkbiconset" xmlns="http://www.w3.org/2000/svg" viewBox="0 0 230 230"><g fill="none" stroke-width="5" stroke-linecap="round" stroke-linejoin="round"><path class="hkbiconsvg-stroke" d="M77.56 89.72A9.59 9.59 0 0 1 68 80.13V60.05a30 30 0 0 1 30-30h33.6a30 30 0 0 1 30 30v20.7a9 9 0 0 1-9 9M144.26 149.55h-11l-13 11.76a8.54 8.54 0 0 1-11.44 0l-13-11.76H85.09a42.26 42.26 0 0 0-42.26 42.26 8.39 8.39 0 0 0 8.39 8.39H144"/><path opacity=".25" fill="none" shkbiconsvg-fill="#004fdd" shkbiconsvg-fill-linecap="round" shkbiconsvg-fill-linejoin="round" shkbiconsvg-fill-width="5" d="M152.92 149.55z"/><path class="hkbiconsvg-stroke" d="M99.28 135.61v16.07M129.72 135.61v16.07M114.5 163.51v11.37M114.62 75.91a101.57 101.57 0 0 1-36.41-6.35v31.81a36.41 36.41 0 0 0 36.41 36.41A36.41 36.41 0 0 0 151 101.37V69.56a101.57 101.57 0 0 1-36.38 6.35zM74.06 89.54h4.15v13.95h-4.15a7 7 0 0 1-7-7 7 7 0 0 1 7-6.95z"/><path class="hkbiconsvg-stroke" d="M157.63 89.91h3.93v13.21h-3.93a6.6 6.6 0 0 1-6.6-6.6 6.6 6.6 0 0 1 6.6-6.6z" transform="rotate(-180 156.29 96.51)"/><path class="hkbiconsvg-stroke" d="M114.47 183.69v3.25M199.4 202.55a4.51 4.51 0 0 0 .28-6.07l-1-1.22a4.49 4.49 0 0 1-.5-5 28.73 28.73 0 0 0 2.67-6.55 4.49 4.49 0 0 1 3.93-3.28l1.64-.15a4.5 4.5 0 0 0 4.09-4.49 4.5 4.5 0 0 0-4.09-4.48l-1.73-.16a4.5 4.5 0 0 1-3.92-3.23 28.79 28.79 0 0 0-2.68-6.43 4.48 4.48 0 0 1 .48-5.06l1.13-1.35a4.51 4.51 0 0 0-.28-6.07 4.51 4.51 0 0 0-6.07-.28l-1.35 1.1a4.5 4.5 0 0 1-5.06.48 28.79 28.79 0 0 0-6.43-2.68 4.5 4.5 0 0 1-3.23-3.92l-.18-1.71a4.51 4.51 0 0 0-4.49-4.1 4.5 4.5 0 0 0-4.48 4.1l-.15 1.64a4.5 4.5 0 0 1-3.28 3.93 28.73 28.73 0 0 0-6.55 2.67 4.49 4.49 0 0 1-5-.5l-1.22-1a4.51 4.51 0 0 0-6.07.28 4.51 4.51 0 0 0-.28 6.07l.93 1.11a4.48 4.48 0 0 1 .47 5.09 29 29 0 0 0-2.81 6.67 4.47 4.47 0 0 1-3.91 3.23l-1.4.13a4.51 4.51 0 0 0-4.1 4.48 4.51 4.51 0 0 0 4.1 4.49l1.3.12a4.49 4.49 0 0 1 3.93 3.27 29.29 29.29 0 0 0 2.8 6.8 4.48 4.48 0 0 1-.49 5.06l-.82 1a4.51 4.51 0 0 0 .28 6.07 4.51 4.51 0 0 0 6.07.28l1-.82a4.48 4.48 0 0 1 5.06-.49 29.29 29.29 0 0 0 6.8 2.8 4.48 4.48 0 0 1 3.27 3.93l.12 1.3a4.5 4.5 0 0 0 4.48 4.1 4.51 4.51 0 0 0 4.49-4.1l.13-1.4a4.47 4.47 0 0 1 3.23-3.91 29 29 0 0 0 6.67-2.81 4.46 4.46 0 0 1 5.08.47l1.12.93a4.51 4.51 0 0 0 6.02-.34z"/><path class="hkbiconsvg-stroke" d="M199.4 202.55a4.51 4.51 0 0 0 .28-6.07l-1-1.22a4.49 4.49 0 0 1-.5-5 28.73 28.73 0 0 0 2.67-6.55 4.49 4.49 0 0 1 3.93-3.28l1.64-.15a4.5 4.5 0 0 0 4.09-4.49 4.5 4.5 0 0 0-4.09-4.48l-1.73-.16a4.5 4.5 0 0 1-3.92-3.23 28.79 28.79 0 0 0-2.68-6.43 4.48 4.48 0 0 1 .48-5.06l1.13-1.35a4.51 4.51 0 0 0-.28-6.07 4.51 4.51 0 0 0-6.07-.28l-1.35 1.1a4.5 4.5 0 0 1-5.06.48 28.79 28.79 0 0 0-6.43-2.68 4.5 4.5 0 0 1-3.23-3.92l-.18-1.71a4.51 4.51 0 0 0-4.49-4.1 4.5 4.5 0 0 0-4.48 4.1l-.15 1.64a4.5 4.5 0 0 1-3.28 3.93 28.73 28.73 0 0 0-6.55 2.67 4.49 4.49 0 0 1-5-.5l-1.22-1a4.51 4.51 0 0 0-6.07.28 4.51 4.51 0 0 0-.28 6.07l.93 1.11a4.48 4.48 0 0 1 .47 5.09 29 29 0 0 0-2.81 6.67 4.47 4.47 0 0 1-3.91 3.23l-1.4.13a4.51 4.51 0 0 0-4.1 4.48 4.51 4.51 0 0 0 4.1 4.49l1.3.12a4.49 4.49 0 0 1 3.93 3.27 29.29 29.29 0 0 0 2.8 6.8 4.48 4.48 0 0 1-.49 5.06l-.82 1a4.51 4.51 0 0 0 .28 6.07 4.51 4.51 0 0 0 6.07.28l1-.82a4.48 4.48 0 0 1 5.06-.49 29.29 29.29 0 0 0 6.8 2.8 4.48 4.48 0 0 1 3.27 3.93l.12 1.3a4.5 4.5 0 0 0 4.48 4.1 4.51 4.51 0 0 0 4.49-4.1l.13-1.4a4.47 4.47 0 0 1 3.23-3.91 29 29 0 0 0 6.67-2.81 4.46 4.46 0 0 1 5.08.47l1.12.93a4.51 4.51 0 0 0 6.02-.34zM163.79 159.75a18.48 18.48 0 1 1-6.45 5.83"/></g></svg>