<svg id="hkbicon-sample-pages" class="hkbiconset" xmlns="http://www.w3.org/2000/svg" viewBox="0 0 230 230"><g><path class="hkbiconsvg-stroke" d="M186.57,70.75a17.21,17.21,0,0,1,13.74,16.86v94.93a17.21,17.21,0,0,1-17.21,17.21H94.6a17.14,17.14,0,0,1-13.27-6.26"/><path class="hkbiconsvg-stroke" d="M162.74,47.49a17.21,17.21,0,0,1,13.74,16.86v94.93a17.21,17.21,0,0,1-17.21,17.21H70.78a17.19,17.19,0,0,1-13.28-6.26"/><rect class="hkbiconsvg-stroke" x="30.12" y="29.93" width="124.11" height="129.39" rx="20" ry="20"/><line class="hkbiconsvg-stroke" x1="60.77" y1="85.12" x2="123.59" y2="85.12"/><line class="hkbiconsvg-stroke" x1="60.77" y1="66.1" x2="123.59" y2="66.1"/><line class="hkbiconsvg-stroke" x1="60.77" y1="104.14" x2="123.59" y2="104.14"/><line class="hkbiconsvg-stroke" x1="60.77" y1="123.15" x2="123.59" y2="123.15"/><rect class="hkbiconsvg-stroke" x="30.12" y="29.93" width="124.11" height="129.39" rx="20" ry="20"/></g></svg>