<svg id="hkbicon-apps" class="hkbiconset" xmlns="http://www.w3.org/2000/svg" viewBox="0 0 230 230"><g><path class="hkbiconsvg-stroke" d="M124,157.65v22.83a20,20,0,0,1-20,20H49.62a20,20,0,0,1-20-20V50.32a20,20,0,0,1,20-20H104a20,20,0,0,1,20,20V71.14"/><line class="hkbiconsvg-stroke" x1="123.97" y1="125.53" x2="123.97" y2="148.26"/><line class="hkbiconsvg-stroke" x1="123.97" y1="82.57" x2="123.97" y2="105.2"/><line class="hkbiconsvg-stroke" x1="30.79" y1="54.98" x2="122.79" y2="54.98"/><line class="hkbiconsvg-stroke" x1="30.73" y1="173.98" x2="122.85" y2="173.98"/><circle class="hkbiconsvg-stroke" cx="76.87" cy="115.4" r="22.58"/><path class="hkbiconsvg-stroke" d="M152.61,30.32h27.19a20,20,0,0,1,20,20V77.52a0,0,0,0,1,0,0H152.61a0,0,0,0,1,0,0V30.32A0,0,0,0,1,152.61,30.32Z"/><rect class="hkbiconsvg-stroke" x="152.61" y="91.77" width="47.19" height="47.19"/><path class="hkbiconsvg-stroke" d="M152.61,153.31h47.19a0,0,0,0,1,0,0v27.19a20,20,0,0,1-20,20H152.61a0,0,0,0,1,0,0V153.31A0,0,0,0,1,152.61,153.31Z"/><line class="hkbiconsvg-stroke" x1="99.35" y1="107.18" x2="152.61" y2="53.92"/><line class="hkbiconsvg-stroke" x1="98.23" y1="122.53" x2="152.61" y2="176.91"/><line class="hkbiconsvg-stroke" x1="69.94" y1="42.73" x2="83.95" y2="42.73"/><circle class="hkbiconsvg-fill" cx="77.02" cy="187.06" r="5.5"/><line class="hkbiconsvg-stroke" x1="99.35" y1="115.36" x2="151.13" y2="115.36"/></g></svg>