<svg id="hkbicon-authentication" class="hkbiconset" xmlns="http://www.w3.org/2000/svg" viewBox="0 0 230 230"><g><path class="hkbiconsvg-stroke" d="M30.9,105.11V88.44a20,20,0,0,1,20-20h45"/><path class="hkbiconsvg-stroke" d="M135.94,68.44h45a20,20,0,0,1,20,20v91.67a20,20,0,0,1-20,20H50.9a20,20,0,0,1-20-20V119.44"/><rect class="hkbiconsvg-stroke" x="95.94" y="30.11" width="40" height="53.5" rx="6.35" ry="6.35"/><circle class="hkbiconsvg-stroke" cx="115.92" cy="56.86" r="10.13"/><rect class="hkbiconsvg-stroke" x="50.89" y="105.86" width="50.36" height="66.41" rx="5" ry="5"/><line class="hkbiconsvg-stroke" x1="120.59" y1="115.04" x2="161.59" y2="115.04"/><line class="hkbiconsvg-stroke" x1="120.59" y1="132.44" x2="177.92" y2="132.44"/><line class="hkbiconsvg-stroke" x1="120.59" y1="149.85" x2="177.92" y2="149.85"/><line class="hkbiconsvg-stroke" x1="120.59" y1="167.26" x2="138.92" y2="167.26"/><line class="hkbiconsvg-stroke" x1="149.25" y1="167.26" x2="177.92" y2="167.26"/></g></svg>