<svg id="hkbicon-forms" class="hkbiconset" xmlns="http://www.w3.org/2000/svg" viewBox="0 0 230 230"><g><path class="hkbiconsvg-stroke" d="M147.06,56.83H174.3a10,10,0,0,1,10,10V175.21a10,10,0,0,1-10,10H56.45a10,10,0,0,1-10-10V66.83a10,10,0,0,1,10-10H83.39"/><path class="hkbiconsvg-stroke" d="M147.39,41.85h33a20,20,0,0,1,20,20V180.19a20,20,0,0,1-20,20h-130a20,20,0,0,1-20-20V61.85a20,20,0,0,1,20-20h33"/><rect class="hkbiconsvg-stroke" x="84.32" y="29.81" width="62.05" height="41.37"/><circle class="hkbiconsvg-stroke" cx="74.3" cy="103.07" r="8"/><rect class="hkbiconsvg-stroke" x="96.68" y="97.16" width="67.58" height="11.82" rx="5.91" ry="5.91"/><circle class="hkbiconsvg-stroke" cx="74.3" cy="130.27" r="8"/><path class="hkbiconsvg-stroke" d="M153.67,124.35h4.67a5.91,5.91,0,0,1,5.91,5.92h0a5.91,5.91,0,0,1-5.91,5.91H102.59a5.91,5.91,0,0,1-5.91-5.91h0a5.91,5.91,0,0,1,5.91-5.92h36.74"/><circle class="hkbiconsvg-stroke" cx="74.3" cy="157.46" r="8"/><rect class="hkbiconsvg-stroke" x="96.68" y="151.55" width="67.58" height="11.82" rx="5.91" ry="5.91"/></g></svg>