<svg id="hkbicon-news" class="hkbiconset" xmlns="http://www.w3.org/2000/svg" viewBox="0 0 230 230"><g><path class="hkbiconsvg-stroke" d="M56.23,180.43V30.9h124a20,20,0,0,1,20,20V181.06a20,20,0,0,1-20,20h-124"/><path class="hkbiconsvg-stroke" d="M56.23,201.1l-6,0a20,20,0,0,1-20-20V65.84l25.42,0"/><rect class="hkbiconsvg-stroke" x="83.2" y="62.23" width="90.09" height="21.64"/><line class="hkbiconsvg-stroke" x1="83.2" y1="100.9" x2="173.29" y2="100.9"/><line class="hkbiconsvg-stroke" x1="83.2" y1="118.86" x2="120.92" y2="118.86"/><line class="hkbiconsvg-stroke" x1="83.2" y1="136.81" x2="120.92" y2="136.81"/><line class="hkbiconsvg-stroke" x1="83.2" y1="154.76" x2="120.92" y2="154.76"/><line class="hkbiconsvg-stroke" x1="83.2" y1="172.71" x2="173.29" y2="172.71"/><rect class="hkbiconsvg-stroke" x="137.39" y="118.86" width="35.9" height="35.9"/></g></svg>