<svg id="hkbicon-forums" class="hkbiconset" xmlns="http://www.w3.org/2000/svg" viewBox="0 0 230 230"><g fill="none" stroke-width="5" stroke-linecap="round" stroke-linejoin="round"><path class="hkbiconsvg-stroke" d="M104.42 177a19.92 19.92 0 0 0 14.14 5.86h13.82l17.35 16.66 17.34-16.66h13.82a20 20 0 0 0 20-20v-56.4a20 20 0 0 0-10.84-17.78 19.35 19.35 0 0 0-2.85-1.21"/><path class="hkbiconsvg-stroke" d="M42.18 91.54a20 20 0 0 0-11.32 18V146a20 20 0 0 0 20 20h13.83L82 182.61 99.38 166h13.82a20 20 0 0 0 20-20v-10.91"/><path class="hkbiconsvg-stroke" d="M157 30.15H74.62a20 20 0 0 0-20 20v51.39a20 20 0 0 0 20 20h23.82l17.34 16.66 17.35-16.66H157a20 20 0 0 0 20-20V50.15a20 20 0 0 0-20-20zM83.99 56.61h63.59M83.99 74.07h63.59M83.99 91.54h63.59"/></g></svg>