<svg id="hkbicon-lock" class="hkbiconset" xmlns="http://www.w3.org/2000/svg" viewBox="0 0 230 230"><g fill="none" stroke-width="5" stroke-linecap="round" stroke-linejoin="round"><path class="hkbiconsvg-stroke" d="M175 144.25v47.86a8 8 0 0 1-8 8H63a8 8 0 0 1-8-8v-76a8 8 0 0 1 8-8h104a8 8 0 0 1 8 8v11.1"/><path class="hkbiconsvg-stroke" d="M115 30a38.24 38.24 0 0 1 38.22 38.2v39.95H76.74V68.2A38.24 38.24 0 0 1 115 30zM128.38 144.87a13.38 13.38 0 1 0-19.76 11.76v16.74a6.38 6.38 0 0 0 12.76 0v-16.74a13.36 13.36 0 0 0 7-11.76z"/></g></svg>