<svg id="hkbicon-resources" class="hkbiconset" xmlns="http://www.w3.org/2000/svg" viewBox="0 0 230 230"><g><path class="hkbiconsvg-stroke" d="M114.87,29.8h62.22a5,5,0,0,1,5,5V170.9a0,0,0,0,1,0,0H114.87a0,0,0,0,1,0,0V29.8A0,0,0,0,1,114.87,29.8Z"/><path class="hkbiconsvg-stroke" d="M52.78,29.8H115a0,0,0,0,1,0,0V170.9a0,0,0,0,1,0,0H47.78a0,0,0,0,1,0,0V34.8A5,5,0,0,1,52.78,29.8Z"/><path class="hkbiconsvg-stroke" d="M47.78,142.82h45.6A21.62,21.62,0,0,1,115,164.44v6.46a0,0,0,0,1,0,0H47.78a0,0,0,0,1,0,0V142.82A0,0,0,0,1,47.78,142.82Z"/><path class="hkbiconsvg-stroke" d="M114.87,142.82h67.22a0,0,0,0,1,0,0v6.46a21.62,21.62,0,0,1-21.62,21.62h-45.6a0,0,0,0,1,0,0V142.82a0,0,0,0,1,0,0Z" transform="translate(296.96 313.72) rotate(-180)"/><line class="hkbiconsvg-stroke" x1="47.78" y1="156.86" x2="97.76" y2="156.86"/><line class="hkbiconsvg-stroke" x1="132.11" y1="156.86" x2="182.09" y2="156.86"/><path class="hkbiconsvg-stroke" d="M200,78V53.8a5,5,0,0,0-5-5H182.92"/><path class="hkbiconsvg-stroke" d="M47.42,48.8H34.76a5,5,0,0,0-5,5V183.92a5,5,0,0,0,5,5H99a17.08,17.08,0,0,0,32,0h64a5,5,0,0,0,5-5V93.67"/></g></svg>