<svg id="hkbicon-upload" class="hkbiconset" xmlns="http://www.w3.org/2000/svg" viewBox="0 0 230 230"><g><path class="hkbiconsvg-stroke" d="M154,135.67h46.34v45.12a20,20,0,0,1-20,20H50.19a20,20,0,0,1-20-20V135.67H77.5"/><path class="hkbiconsvg-stroke" d="M30.19,120.17V50.64a20,20,0,0,1,20-20H180.34a20,20,0,0,1,20,20v69.53"/><polygon class="hkbiconsvg-stroke" points="151.44 104.98 115.29 48.38 79.14 104.98 99.29 104.98 99.29 153.47 131.29 153.47 131.29 104.98 151.44 104.98"/><line class="hkbiconsvg-stroke" x1="51.01" y1="175.84" x2="179.52" y2="175.84"/></g></svg>