<svg id="hkbicon-tips" class="hkbiconset" xmlns="http://www.w3.org/2000/svg" viewBox="0 0 230 230"><g><path class="hkbiconsvg-stroke" d="M173.14,97.83a57.26,57.26,0,0,0-114.51,0c0,20.55,10.84,38.08,27.1,48.18v32.63a12,12,0,0,0,12,12h36.32a12,12,0,0,0,12-12V146.49A57.22,57.22,0,0,0,173.14,97.83Z"/><path class="hkbiconsvg-stroke" d="M99.62,190.64a17.24,17.24,0,0,0,31.53,0Z"/><line class="hkbiconsvg-stroke" x1="85.73" y1="175.26" x2="146.05" y2="175.26"/><line class="hkbiconsvg-stroke" x1="85.73" y1="160.82" x2="134" y2="160.82"/><line class="hkbiconsvg-stroke" x1="85.73" y1="146.39" x2="146.05" y2="146.39"/><line class="hkbiconsvg-stroke" x1="115.36" y1="146.01" x2="115.36" y2="109.29"/><path class="hkbiconsvg-stroke" d="M108,82.44a14.33,14.33,0,1,1-6,6.94"/></g></svg>