<svg id="hkbicon-api-access" class="hkbiconset" xmlns="http://www.w3.org/2000/svg" viewBox="0 0 230 230"><g><path class="hkbiconsvg-stroke" d="M200.29,200.41h0a5.07,5.07,0,0,0,.31-6.81l-1.14-1.37a5,5,0,0,1-.56-5.64,33.16,33.16,0,0,0,3-7.36,5,5,0,0,1,4.41-3.67l1.84-.17a5.06,5.06,0,0,0,4.59-5h0a5.05,5.05,0,0,0-4.59-5l-1.94-.18a5,5,0,0,1-4.4-3.62,32.62,32.62,0,0,0-3-7.22,5,5,0,0,1,.53-5.67l1.27-1.52a5.07,5.07,0,0,0-.31-6.81h0a5.06,5.06,0,0,0-6.81-.31L192,141.25a5,5,0,0,1-5.68.54,33.06,33.06,0,0,0-7.21-3,5,5,0,0,1-3.63-4.39l-.17-1.94a5.06,5.06,0,0,0-5-4.6h0a5,5,0,0,0-5,4.6l-.17,1.84a5,5,0,0,1-3.68,4.4,32.46,32.46,0,0,0-7.35,3,5,5,0,0,1-5.64-.56L147,140a5.06,5.06,0,0,0-6.81.31h0a5,5,0,0,0-.31,6.81l1,1.25a5,5,0,0,1,.52,5.71,32.91,32.91,0,0,0-3.15,7.49,5,5,0,0,1-4.39,3.62l-1.57.14a5.05,5.05,0,0,0-4.59,5h0a5.06,5.06,0,0,0,4.59,5l1.47.13a5,5,0,0,1,4.4,3.67,32.4,32.4,0,0,0,3.14,7.63,5,5,0,0,1-.54,5.67l-.92,1.11a5,5,0,0,0,.31,6.81h0a5.06,5.06,0,0,0,6.81.31l1.1-.92a5,5,0,0,1,5.67-.54,33,33,0,0,0,7.63,3.13,5,5,0,0,1,3.67,4.41l.14,1.46a5,5,0,0,0,5,4.6h0a5.06,5.06,0,0,0,5-4.6l.14-1.56a5,5,0,0,1,3.62-4.39,32.5,32.5,0,0,0,7.49-3.16,5,5,0,0,1,5.7.53l1.26,1A5.06,5.06,0,0,0,200.29,200.41Z"/><path class="hkbiconsvg-stroke" d="M200.29,200.41h0a5.07,5.07,0,0,0,.31-6.81l-1.14-1.37a5,5,0,0,1-.56-5.64,33.16,33.16,0,0,0,3-7.36,5,5,0,0,1,4.41-3.67l1.84-.17a5.06,5.06,0,0,0,4.59-5h0a5.05,5.05,0,0,0-4.59-5l-1.94-.18a5,5,0,0,1-4.4-3.62,32.62,32.62,0,0,0-3-7.22,5,5,0,0,1,.53-5.67l1.27-1.52a5.07,5.07,0,0,0-.31-6.81h0a5.06,5.06,0,0,0-6.81-.31L192,141.25a5,5,0,0,1-5.68.54,33.06,33.06,0,0,0-7.21-3,5,5,0,0,1-3.63-4.39l-.17-1.94a5.06,5.06,0,0,0-5-4.6h0a5,5,0,0,0-5,4.6l-.17,1.84a5,5,0,0,1-3.68,4.4,32.46,32.46,0,0,0-7.35,3,5,5,0,0,1-5.64-.56L147,140a5.06,5.06,0,0,0-6.81.31h0a5,5,0,0,0-.31,6.81l1,1.25a5,5,0,0,1,.52,5.71,32.91,32.91,0,0,0-3.15,7.49,5,5,0,0,1-4.39,3.62l-1.57.14a5.05,5.05,0,0,0-4.59,5h0a5.06,5.06,0,0,0,4.59,5l1.47.13a5,5,0,0,1,4.4,3.67,32.4,32.4,0,0,0,3.14,7.63,5,5,0,0,1-.54,5.67l-.92,1.11a5,5,0,0,0,.31,6.81h0a5.06,5.06,0,0,0,6.81.31l1.1-.92a5,5,0,0,1,5.67-.54,33,33,0,0,0,7.63,3.13,5,5,0,0,1,3.67,4.41l.14,1.46a5,5,0,0,0,5,4.6h0a5.06,5.06,0,0,0,5-4.6l.14-1.56a5,5,0,0,1,3.62-4.39,32.5,32.5,0,0,0,7.49-3.16,5,5,0,0,1,5.7.53l1.26,1A5.06,5.06,0,0,0,200.29,200.41Z"/><path class="hkbiconsvg-stroke" d="M160.33,152.39a20.75,20.75,0,1,1-7.24,6.54"/><path class="hkbiconsvg-stroke" d="M129.8,200.86h-79a20,20,0,0,1-20-20V50.71a20,20,0,0,1,20-20H181a20,20,0,0,1,20,20v79.43"/><line class="hkbiconsvg-stroke" x1="54.83" y1="64.02" x2="200.62" y2="64.02"/><circle class="hkbiconsvg-fill" cx="55.56" cy="47.8" r="3.73"/><circle class="hkbiconsvg-fill" cx="76.37" cy="47.8" r="3.73"/><circle class="hkbiconsvg-fill" cx="97.18" cy="47.8" r="3.73"/><polyline class="hkbiconsvg-stroke" points="54.83 96.64 74.08 115.88 55.91 134.05"/><line class="hkbiconsvg-stroke" x1="88.63" y1="115.82" x2="116" y2="115.82"/></g></svg>