<svg id="hkbicon-productivity" class="hkbiconset" xmlns="http://www.w3.org/2000/svg" viewBox="0 0 230 230"><g><path class="hkbiconsvg-stroke" d="M97,198.39a72.52,72.52,0,1,0,0-140"/><path class="hkbiconsvg-stroke" d="M119.74,131.54l25.6-34.33L111.15,123a6.16,6.16,0,0,0-1.22,1,6.25,6.25,0,1,0,8.86,8.82A6.08,6.08,0,0,0,119.74,131.54Z"/><line class="hkbiconsvg-stroke" x1="71.64" y1="72.13" x2="87.97" y2="72.13"/><line class="hkbiconsvg-stroke" x1="71.64" y1="184.63" x2="87.97" y2="184.63"/><line class="hkbiconsvg-stroke" x1="57.8" y1="90.88" x2="87.97" y2="90.88"/><line class="hkbiconsvg-stroke" x1="57.8" y1="165.88" x2="87.97" y2="165.88"/><line class="hkbiconsvg-stroke" x1="43.3" y1="109.63" x2="87.97" y2="109.63"/><line class="hkbiconsvg-stroke" x1="43.3" y1="147.13" x2="87.97" y2="147.13"/><line class="hkbiconsvg-stroke" x1="30.84" y1="128.38" x2="87.97" y2="128.38"/><path class="hkbiconsvg-stroke" d="M127,30.89H102.08a6.63,6.63,0,1,0,0,13.25h7.31V56h10.26V44.14H127a6.63,6.63,0,1,0,0-13.25Z"/><path class="hkbiconsvg-stroke" d="M97,198.39a72.52,72.52,0,1,0,0-140"/></g></svg>