<svg id="hkbicon-flow-chart" class="hkbiconset" xmlns="http://www.w3.org/2000/svg" viewBox="0 0 230 230"><g><rect class="hkbiconsvg-stroke" x="77.12" y="30.3" width="75.59" height="75.59" rx="8" ry="8"/><line class="hkbiconsvg-stroke" x1="114.92" y1="105.89" x2="114.92" y2="153.07"/><polyline class="hkbiconsvg-stroke" points="176.57 153.07 176.57 130.56 53.08 130.56 53.08 153.07"/><rect class="hkbiconsvg-stroke" x="88.92" y="153.07" width="52" height="47" rx="2" ry="2"/><path class="hkbiconsvg-stroke" d="M152.72,200.07h27.15a20,20,0,0,0,20-20v-25a2,2,0,0,0-2-2H152.72v35.75"/><circle class="hkbiconsvg-stroke" cx="114.89" cy="68.1" r="16.36"/><path class="hkbiconsvg-stroke" d="M76.68,200.07H49.52a20,20,0,0,1-20-20v-25a2,2,0,0,1,2-2h45.2v35.75"/></g></svg>