<?xml version="1.0" encoding="utf-8"?>
<!-- Generator: Adobe Illustrator 24.3.0, SVG Export Plug-In . SVG Version: 6.00 Build 0)  -->
<svg version="1.1" id="Layer_1" xmlns="http://www.w3.org/2000/svg" xmlns:xlink="http://www.w3.org/1999/xlink" x="0px" y="0px"
	 width="306.6px" height="40px" viewBox="0 0 306.6 40" style="enable-background:new 0 0 306.6 40;" xml:space="preserve">
<style type="text/css">
	.st1{fill:#FFCB39;}
</style>
	<path class="st1" d="M68.6,25.3c-0.4,0.9-1.2,1-2,1c-0.9,0.4-2.1,0.6-3.1,0.1c-14,2.5-28,3.4-41.1,7.4c-0.8,0-0.5-0.6-1.4-0.2
		c-3.6,2.2-7.6,2.7-11.3,3.3C8.3,38.5,6.3,39.5,5,40c-4-5.5-3.7-13.7-4.8-20.6c0,0,0,0-0.2-0.5c8.4-6.1,17.7-5.7,26.5-8.6
		c18.3-2.1,35.9-5.9,54.7-6.6c0.9-0.3,2-0.2,2.9-1.4c1.9,0.8,3.6,1.2,5.7-0.1c1.3,0.6,2.5,0.4,3.4,0.8c6.6-2,13.4-1.2,20.2-1.2
		c1.2-1,2.1-0.6,3.1-0.9c6.5-0.1,13,1.3,19.3-0.9c7.3,1.4,14.6-1.4,21.1,1.1c8.2-2.4,16.2,0,23.9-1.1c24.6,0.8,49.2,1.5,74.3,3.6
		c0.4-0.9,1.1,0.1,1.8-0.7c14,1.7,27.8,2.2,41.2,1.7c0.2-1.4,0.7-0.8,1.6-1.2c1.4,0.2,2.7,0.8,4.1,1.1c0.8,1.5,0.6,2.9,2.2,3.6
		c-1.1,4.1,0.7,6-0.8,10.2c1.4,0.2,1.1,0.9,1.5,1.8c-1.2,1-0.1,1.1-0.8,1.9c-1.2,1.8-1.6,1.9-3.4,4.2c-1.7,0.4-4,0.5-6,1.5
		c-13.6-0.8-27.1-1.1-40.9-2.3c0.1-0.3-0.2-0.5,0,0c-6.2,0.3-12.4-1-18.6-0.7c-0.9-0.4,0.1-1.1-0.8-1.5c-0.7,0.8-1.8,0.7-2.3,0.9
		c-5.1-0.4-10.2,0-15.2-0.7c-2.6,0-5.6-1-8.2-1c-1.1-0.1-2,1-2.7,1c-8,0.2-16.1-1.1-23.8-0.8c-3.3-0.3-7-1.2-9.6-1.3
		c-0.5,0.2-0.4,0.9-0.9,1.1c-4.2,0-7.9-0.9-11.8-0.7c-9.6-0.5-18.8,0.7-28.6,0.5c-1.5,0.1-4-0.3-5.4-0.5c-1.1-0.1-2,1-2.7,1
		c-2.8,0.3-7.6,0-10.7,0.2c-10.2,0-20.2,1.2-30.8,2.2c-1.5,0.1,0.1-1.1-0.8-1.5c-2.2,2.4-6.6,2-9.5,1c-0.2-0.5-0.6-0.3,0,0
		C74.2,26.3,70.3,26.4,68.6,25.3z M59.6,25.8 M83.3,23.5 M86.2,22.9c-0.3-0.1-0.5,0.2-0.9,0.3C85.7,23.4,86.1,23.3,86.2,22.9z
		 M104,22.2 M145.3,20.1 M160.8,20.2 M175.3,20.7 M222.2,22.3 M224.8,22.3 M268.4,0.9"/>
</svg>
