<?xml version="1.0" encoding="utf-8"?>
<!-- Generator: Adobe Illustrator 24.3.0, SVG Export Plug-In . SVG Version: 6.00 Build 0)  -->
<svg version="1.1" id="Layer_1" xmlns="http://www.w3.org/2000/svg"
	 viewBox="0 0 136.3 331.1" preserveAspectRatio="none"
	>
<style type="text/css">
	.st0{fill:#1F1F34;}
</style>
<path id="Paper_texture-2" class="st0" d="M0,2.4l0,322.1c0.9,0.2,2.3,0.4,2.3,1.2c0-1.6,3.1,1.3,3.1-0.1c0-0.1,3.1,1.4,3,0.2
	c0-1.3,2.9-2.7,2.9-2.5c0,0,3.1,1.6,3.1,1.2c0,1.2,3,2,3,0.6c0-0.2,2.6,1.1,2.6,1.5c0,0.1,3.2-2.4,3.2-1c0-0.7,2.5,3.6,2.5,2.3
	c0,1.1,3-1.6,3-1.2c0-0.5,3.7,1.2,3.7,1.2c0,0.4,2.9-2.6,2.9-2.7c0-0.1,3.8-0.4,3.8,0.2c0,1,2.9-2.2,2.9-2.4c0-0.9,3.4,0.2,3.4,0.5
	c0,0.5,3.1-0.5,3.1-0.7c0,0.7,3.2-1.2,3.2-1.3c0,0.2,3.3-0.2,3.3,0.1c0,1.4,3.2,1,3.2,1.1c0-0.2,3.2-0.4,3.2,0.7
	c0-0.3,3.3,0.5,3.3,0.1c0-0.8,2.8,1.4,2.8,2.3c0,0.2,3.2,0.1,3.2,0.4c0-0.8,3.4,1.7,3.3,0.1c0-0.5,3.3,0.3,3.3,0
	c0-0.2,3.3-1.4,3.3,0c0-0.5,3,2.1,3,1.8c0,0.1,3.3,1.9,3.3,0.6c0-0.1,3.2-1.9,3.2-1.9c0-1,3.4,1.7,3.4,1.5c0-0.9,2.7-0.4,2.7-1.1
	c0-0.4,2.9,0.8,2.8-0.1c0,0.6,2.7,1.1,2.7,0.8c0-0.8,3.2,0.3,3.2-0.5c0-0.3,2.6,2.2,2.5,2.1c0,0.4,3.3-1.1,3.3-0.5
	c0-1.1,3.1,0.4,3.1-0.9c0,0.8,3.2-0.7,3.2-0.6c0,1.5,3.4,2.3,3.4,0.1c0-0.3,3-1.2,3-0.8c0-1.7,3,3.7,3,1.5c0,0,2.8,2.4,2.8,1.8
	c0,0.6,4.1-0.3,4.1-0.3c0,1.2,2.4,1.3,2.9,1.1L136.1,0L0,2.4z"/>
</svg>
