<?xml version="1.0" encoding="utf-8"?>
<!-- Generator: Adobe Illustrator 24.3.0, SVG Export Plug-In . SVG Version: 6.00 Build 0)  -->
<svg version="1.1" id="Layer_1" xmlns="http://www.w3.org/2000/svg" preserveAspectRatio="none"
	 viewBox="0 0 876.5 806.3"
	>
<style type="text/css">
	.st0{fill:#1F1F34;}
</style>
<path id="Path_385-2" class="st0" d="M0,806.3l833.4-39c1.3-4.8,2.1-13,6.1-13c-7.5,0,6.3-17.3-0.1-17.3c-0.6,0,6.9-17.2,1.1-17.2
	c-6.3,0-12.6-16.8-11.7-16.8c0.2,0,7.8-17.2,5.8-17.2c5.8,0,10-16.7,3.2-16.7c-0.9,0,5.6-14.3,7.4-14.3c0.4,0-11.1-18.4-4.5-18.4
	c-3.5,0,17.6-13.7,11.1-13.7c5.3,0-7.2-17.2-5.4-17.2c-2.6,0,5.8-21,6.2-21c1.9,0-12.1-16.5-12.6-16.5c-0.7,0-1.8-21.4,1.5-21.4
	c4.8,0-10.5-16.3-11.3-16.3c-4.1,0,1.4-19.3,2.8-19.3c2.3,0-2.1-17.7-3-17.7c3.2,0-5.4-18.4-6.1-18.4c0.9,0-0.5-18.7,0.7-18.7
	c6.9,0,5.2-17.7,5.7-17.7c-1.2,0-1.6-17.9,3.6-17.9c-1.3,0,2.7-18.7,0.8-18.7c-3.8,0,7-15.5,11.5-15.5c1,0,1-18.3,2.3-18.3
	c-3.7,0,8.7-18.7,0.9-18.7c-2.2,0,1.6-18.8,0.1-18.8c-0.9,0-6.3-18.5,0.2-18.5c-2.6,0,10.5-16.9,9-16.9c0.6,0,9.5-18.3,3.4-18.3
	c-0.5,0-8.7-18.3-8.9-18.3c-4.7,0,8.3-19.2,7.4-19.2c-4.1,0-1.9-15.4-5.2-15.4c-2.1,0,4.2-16-0.4-16c2.9,0,5.3-14.9,4-14.9
	c-4,0,1.8-17.8-2.3-17.8c-1.3,0,10.6-14.2,10.2-14.2c2.1,0-4.8-18.8-2.2-18.8c-5.3,0,2.3-17.4-4-17.4c3.7,0-2.9-17.9-2.4-17.9
	c7.1,0,11.4-18.9,0.8-18.9c-1.6,0-5.4-17.2-3.4-17.2c-8,0,18-16.5,7.4-16.5c-0.2,0,11.6-15.7,8.7-15.7c2.9,0-1.1-23-1.1-23
	c5.9,0,6.3-13.5,5.5-16L0,39V806.3z"/>
</svg>
