<?xml version="1.0" encoding="utf-8"?>
<!-- Generator: Adobe Illustrator 24.3.0, SVG Export Plug-In . SVG Version: 6.00 Build 0)  -->
<svg version="1.1" id="Layer_1" xmlns="http://www.w3.org/2000/svg" preserveAspectRatio="none"
	 viewBox="0 0 764.9 708.7"
	>
<style type="text/css">
	.st0{fill:#1F1F34;}
</style>
<path id="Path_378-2" class="st0" d="M19.4,0L0,646.9c4.7,1.3,12.6,2.3,12.5,5.9c0.2-6.9,16.6,6.3,16.8,0.4c0-0.5,16.5,6.8,16.6,1.5
	c0.2-5.7,16.7-11,16.6-10.2c0,0.2,16.5,7.7,16.5,5.8c-0.2,5.3,16,9.6,16.2,3.4c0-0.8,13.8,5.6,13.7,7.2c0,0.3,18.2-9.6,18-3.6
	c0.1-3.2,12.8,16.6,13,10.6c-0.1,4.9,16.9-6.1,16.9-4.4c0.1-2.3,20.2,6,20.2,6.2c-0.1,1.7,16.4-10.6,16.4-11.1c0-0.6,20.9-1,20.8,2
	c-0.1,4.4,16.1-9.1,16.2-9.8c0.1-3.8,18.7,1.9,18.6,3.1c-0.1,2.1,17.2-1.4,17.3-2.2c-0.1,3,18-4.4,18.1-5c0,0.8,18.2,0.1,18.1,1.1
	c-0.2,6.3,17.1,5.3,17.1,5.7c0-1.1,17.4-0.9,17.3,3.8c0-1.2,18,3,18.1,1.3c0.1-3.5,14.9,6.9,14.8,10.9c0,0.9,17.7,1.4,17.7,2.6
	c0.1-3.4,17.9,8.5,18.2,1.3c0.1-2,18.2,2,18.2,0.7c0-0.8,18.1-5.2,17.9,0.8c0.1-2.4,16.1,10.1,16.2,8.7c0,0.6,17.6,9.2,17.7,3.6
	c0-0.5,18-7.4,18-7.6c0.1-4.3,18.4,8.1,18.4,7.4c0.1-3.8,15-1.3,15.1-4.3c0.1-2,15.5,4.3,15.6,0.1c-0.1,2.7,14.3,5.3,14.3,4.1
	c0.1-3.7,17.3,2.1,17.4-1.6c0-1.2,13.5,10.1,13.5,9.7c-0.1,2,18.4-3.9,18.3-1.4c0.1-4.8,16.8,2.6,17-3.2c-0.1,3.4,17.5-2.1,17.5-1.7
	c-0.2,6.5,18.1,11,18.4,1.3c0-1.4,16.8-4.5,16.8-2.6c0.2-7.3,15.6,17,15.9,7.3c0-0.2,14.9,11,15,8.5c-0.1,2.7,22.4-0.4,22.4-0.3
	c-0.2,5.4,13,6.2,15.3,5.5l20.6-686.1L19.4,0z"/>
</svg>
