<?xml version="1.0" encoding="utf-8"?>
<!-- Generator: Adobe Illustrator 24.3.0, SVG Export Plug-In . SVG Version: 6.00 Build 0)  -->
<svg version="1.1" id="Layer_1" xmlns="http://www.w3.org/2000/svg"
	 preserveAspectRatio="none" viewBox="0 0 815.4 745.5"
	>
<style type="text/css">
	.st0{fill:#1F1F34;}
</style>
<path id="Path_386-2" class="st0" d="M815.4,0H39.5c-1.2,4.7-2,12.6-5.6,12.6c6.9,0-5.8,16.8,0.1,16.8c0.5,0-6.3,16.7-1,16.7
	c5.7,0,11.5,16.3,10.7,16.3c-0.2,0-7.2,16.7-5.3,16.7c-5.3,0-9.1,16.3-2.9,16.3c0.8,0-5.2,13.9-6.8,13.9c-0.3,0,10.1,17.8,4.1,17.8
	c3.2,0-16.2,13.3-10.2,13.3c-4.9,0,6.6,16.7,4.9,16.7c2.3,0-5.3,20.4-5.6,20.4c-1.7,0,11.1,16.1,11.5,16.1c0.6,0,1.7,20.8-1.3,20.8
	c-4.4,0,9.6,15.9,10.3,15.9c3.8,0-1.3,18.7-2.6,18.7c-2.1,0,1.9,17.2,2.8,17.2c-3,0,5,17.9,5.6,17.9c-0.8,0,0.5,18.2-0.6,18.2
	c-6.3,0-4.8,17.2-5.2,17.2c1.1,0,1.5,17.4-3.3,17.4c1.2,0-2.4,18.1-0.8,18.1c3.5,0-6.4,15.1-10.5,15.1c-0.9,0-0.9,17.7-2.1,17.7
	c3.4,0-7.9,18.2-0.8,18.2c2,0-1.4,18.2-0.1,18.2c0.8,0,5.8,17.9-0.2,17.9c2.4,0-9.6,16.4-8.2,16.4c-0.6,0-8.7,17.8-3.1,17.8
	c0.5,0,8,17.8,8.2,17.8c4.3,0-7.6,18.6-6.8,18.6c3.8,0,1.7,15,4.8,15c2,0-3.9,15.6,0.4,15.6c-2.7,0-4.8,14.4-3.6,14.4
	c3.7,0-1.6,17.3,2.1,17.3c1.2,0-9.7,13.8-9.3,13.8c-2,0,4.4,18.3,2,18.3c4.8,0-2.1,16.9,3.7,16.9c-3.4,0,2.6,17.4,2.2,17.4
	c-6.5,0-10.4,18.4-0.8,18.4c1.4,0,5,16.7,3.1,16.7c7.3,0-16.5,16.1-6.8,16.1c0.2,0-10.6,15.2-8,15.2c-2.7,0,1,22.3,1,22.3
	c-5.4,0-5.8,13.1-5,15.5h815.1V0z"/>
</svg>
