<?xml version="1.0" encoding="utf-8"?>
<svg version="1.1" id="Layer_1" viewBox="0 0 745 513.6" preserveAspectRatio="none" xmlns="http://www.w3.org/2000/svg">
  <style type="text/css">
	.st0{fill:#1F1F34;}
</style>
  <path id="Paper_texture-2" class="st0" d="M 720.1 513.9 L 745.3 39 L 0.8 0 C -0.2 1.5 -0.2 9.9 5.7 10.2 C 5.8 10.2 1 24.2 3.9 24.4 C 1.1 24.2 12.3 34.5 12.1 34.5 C 1.5 33.9 26.8 45.5 18.9 45.1 C 20.9 45.2 16.6 55.6 15 55.5 C 4.5 55 8.1 66.9 15.2 67.3 C 15.6 67.4 8.5 78.1 12.2 78.3 C 5.9 77.9 12.9 89.1 7.7 88.8 C 10.3 88.9 2.8 100.2 4.9 100.3 C 4.4 100.3 15.8 109.7 14.5 109.6 C 10.4 109.4 15.6 120.7 11.6 120.5 C 10.3 120.4 12.2 129.7 15.1 129.9 C 10.5 129.7 16.3 139.9 14.2 139.8 C 10.9 139.7 12.6 149.3 8.5 149.1 C 7.7 149 20 161.5 15.3 161.3 C 15 161.3 6.3 172.2 5.8 172.2 C -0.2 171.9 8 183.7 8.6 183.7 C 7.2 183.6 19.6 194.7 17 194.6 C 23.5 194.9 17.5 206 16.6 206 C 15.2 205.9 18.3 217.7 16.1 217.6 C 8.3 217.2 20 229.4 16.3 229.2 C 17.6 229.3 17 240.5 18 240.6 C 22.4 240.8 32.7 251 28.9 250.8 C 27.1 250.7 30.4 262.5 29.1 262.4 C 34.3 262.7 33.3 273.8 32.1 273.7 C 32.6 273.8 30.3 284.6 37.2 285 C 38.3 285.1 36.3 296.6 37.2 296.6 C 36.6 296.6 27.4 307.5 30.6 307.7 C 29.6 307.7 24.7 318.4 27 318.5 C 28.3 318.6 33.2 330.8 29.1 330.6 C 28.3 330.6 12.6 339.8 17.4 340.1 C 20.7 340.2 18.9 353.4 18.2 353.4 C 17.7 353.4 3.2 362.9 5.1 363 C 5.4 363 13.1 376.4 10.5 376.3 C 12.3 376.4 -0.7 386.4 4.6 386.7 C -1.9 386.3 18.6 395.9 15.2 395.7 C 21.7 396 9.7 406.8 10.1 406.8 C 11.9 406.9 17.9 416.1 17 416.1 C 10.2 415.7 13.9 426.3 19.6 426.6 C 17.6 426.5 24.6 437.5 24.8 437.5 C 25.8 437.6 18.9 447.6 12.7 447.3 C 6.9 447 13.8 458 13.2 458 C 6.8 457.7 20 469.1 12.5 468.7 C 16.4 468.9 17 474 18.1 477.1 L 720.1 513.9 Z" transform="matrix(-1, 0, 0, -1, 745.601803, 513.900024)"/>
</svg>