<?xml version="1.0" encoding="utf-8"?>
<!-- Generator: Adobe Illustrator 24.3.0, SVG Export Plug-In . SVG Version: 6.00 Build 0)  -->
<svg version="1.1" id="Layer_1" xmlns="http://www.w3.org/2000/svg"
	  viewBox="0 0 745 513.6" preserveAspectRatio="none">
<style type="text/css">
	.st0{fill:#1F1F34;}
</style>
<path id="Paper_texture-2" class="st0" d="M720.1,0l-702,36.8c-1.1,3.1-1.7,8.2-5.6,8.4c7.5-0.4-5.7,11,0.7,10.7
	c0.6,0-6.3,11-0.5,10.7c6.2-0.3,13.1,9.7,12.1,9.8c-0.2,0-7.2,11-5.2,10.9c-5.7,0.3-9.4,10.9-2.6,10.5c0.9,0-5.1,9.2-6.9,9.3
	c-0.4,0,11.6,10.8,5.1,11.1c3.4-0.2-17.1,9.4-10.6,9c-5.3,0.3,7.7,10.3,5.9,10.4c2.6-0.1-5.1,13.3-5.4,13.3
	c-1.9,0.1,12.6,9.6,13.1,9.6c0.7,0,2.5,13.2-0.8,13.3c-4.8,0.3,10.9,9.5,11.7,9.5c4.1-0.2-0.8,12-2.1,12.1
	c-2.3,0.1,2.6,10.8,3.6,10.8c-3.2,0.2,6,11.1,6.6,11.1c-0.9,0,1.1,11.5,0,11.6c-6.9,0.4-4.6,11.2-5.1,11.3c1.2-0.1,2.2,11-3,11.3
	c1.3-0.1-2,11.7-0.2,11.6c3.8-0.2-6.5,10-10.9,10.2c-1,0.1-0.4,11.3-1.7,11.4c3.7-0.2-8,12-0.2,11.6c2.2-0.1-0.9,11.7,0.5,11.6
	c0.9,0,6.9,11.1,0.4,11.4c2.6-0.1-9.8,11-8.4,10.9c-0.6,0-8.8,11.8-2.8,11.5c0.5,0,9.2,10.9,9.5,10.9c4.7-0.2-7.6,12.3-6.8,12.2
	c4.1-0.2,2.4,9.4,5.7,9.3c2.1-0.1-3.7,10.1,0.9,9.9c-2.9,0.2-4.8,9.5-3.5,9.4c4-0.2-1.2,11.1,2.9,10.9c1.3-0.1-10.1,9.3-9.6,9.3
	c-2.1,0.1,5.4,11.4,2.8,11.5c5.2-0.3-1.8,10.9,4.5,10.5c-3.7,0.2,3.4,10.9,3,11c-7.1,0.4-10.7,12.3-0.2,11.8
	c1.6-0.1,5.9,10.3,3.9,10.4c7.9-0.4-17.4,11.2-6.8,10.6c0.2,0-11,10.3-8.2,10.1c-2.9,0.2,1.9,14.2,1.8,14.2
	c-5.9,0.3-5.9,8.7-4.9,10.2l744.5-39L720.1,0z"/>
</svg>
