<?xml version="1.0" encoding="utf-8"?>
<!-- Generator: Adobe Illustrator 24.3.0, SVG Export Plug-In . SVG Version: 6.00 Build 0)  -->
<svg version="1.1" id="Layer_1" xmlns="http://www.w3.org/2000/svg"
	 preserveAspectRatio="none" viewBox="0 0 464.9 262.7"
	>
<style type="text/css">
	.st0{fill:#FFFFFF;}
</style>
<g transform="matrix(1, 0, 0, 1, 0, 0)">
	<path id="Path_393-2" class="st0" d="M459.1,0l5.7,255.3c-2.9,0.6-7.7,0.9-7.9,3.2c0.2-4.5-10.4,3.3-10.2-0.6
		c0-0.4-10.3,3.6-10.2,0.1c0.2-3.8-9.5-8.1-9.6-7.5c0,0.1-10.4,4.2-10.3,3c-0.2,3.4-10.2,5.5-10,1.4c0-0.5-8.6,2.9-8.7,4
		c0,0.2-10.5-7.2-10.7-3.3c0.1-2.1-8.6,10.1-8.4,6.2c-0.2,3.2-9.9-4.8-10-3.7c0.1-1.5-12.6,2.8-12.6,3c-0.1,1.1-9.4-7.8-9.4-8.1
		c0-0.4-12.6-1.7-12.7,0.2c-0.2,2.9-9.3-6.8-9.3-7.2c0.1-2.5-11.4,0.3-11.5,1.1c-0.1,1.4-10.4-1.8-10.3-2.3
		c-0.1,1.9-10.7-3.8-10.7-4.2c0,0.5-11-0.9-11.1-0.2c-0.2,4.1-10.6,2.6-10.6,2.9c0-0.7-10.5-1.5-10.7,1.6c0-0.8-11.1,1-11-0.1
		c0.1-2.3-9.4,3.7-9.5,6.4c0,0.6-10.8,0-10.9,0.8c0.1-2.2-11.3,4.6-11.1-0.1c0.1-1.3-11.1,0.4-11.1-0.5c0-0.5-10.7-4.3-10.9-0.4
		c0.1-1.5-10.3,5.7-10.3,4.9c0,0.4-11.1,5.1-10.9,1.4c0-0.3-10.5-5.8-10.5-5.9c0.1-2.8-11.6,4.3-11.6,3.9c0.1-2.5-9-1.6-8.9-3.6
		c0.1-1.3-9.6,2-9.4-0.7c-0.1,1.8-8.9,2.7-8.9,1.9c0.1-2.4-10.6,0.5-10.4-1.9c0-0.8-8.7,5.9-8.7,5.6c-0.1,1.3-10.9-3.5-11-1.9
		c0.2-3.1-10.3,0.9-10.1-2.9c-0.1,2.2-10.5-2.3-10.5-2c-0.2,4.3-11.5,6.2-11.2-0.1c0-0.9-10-3.8-10-2.6c0.2-4.8-10.3,10.3-10,3.9
		c0-0.1-9.6,6.4-9.5,4.8c-0.1,1.8-13.5-1.4-13.5-1.4c-0.2,3.5-8.2,3.4-9.6,2.8L0,18.8L459.1,0z"/>
</g>
</svg>
