<svg xmlns="http://www.w3.org/2000/svg" width="218" height="188" fill="none"><path fill="#FFBA00" d="M152.769 123.577a.52.52 0 0 1-.479-.32.505.505 0 0 1 .29-.654c.742-.291 1.468-.581 2.195-.886a.52.52 0 0 1 .668.276.52.52 0 0 1-.276.668c-.726.305-1.468.596-2.209.887-.072.014-.131.029-.189.029m4.389-1.802a.49.49 0 0 1-.465-.305.513.513 0 0 1 .262-.669 94 94 0 0 0 2.165-.945.5.5 0 0 1 .669.262.5.5 0 0 1-.262.668c-.726.32-1.453.64-2.18.945a.45.45 0 0 1-.189.044m4.331-1.933a.53.53 0 0 1-.465-.291.506.506 0 0 1 .247-.668c.712-.335 1.439-.669 2.137-1.003a.527.527 0 0 1 .683.232.527.527 0 0 1-.233.683c-.712.335-1.439.683-2.151 1.018-.072.014-.145.029-.218.029m4.288-2.049a.5.5 0 0 1-.451-.277c-.131-.247-.014-.552.233-.683.712-.348 1.409-.712 2.107-1.061a.508.508 0 0 1 .465.902c-.698.363-1.41.712-2.122 1.075a.7.7 0 0 1-.232.044m4.229-2.166a.5.5 0 0 1-.451-.276.503.503 0 0 1 .204-.683c.697-.378 1.395-.741 2.078-1.119a.524.524 0 0 1 .698.203.525.525 0 0 1-.204.698l-2.093 1.134a.7.7 0 0 1-.232.043m4.156-2.282a.48.48 0 0 1-.436-.261.507.507 0 0 1 .189-.698c.683-.392 1.366-.785 2.05-1.192a.513.513 0 0 1 .697.175.514.514 0 0 1-.174.697c-.683.407-1.366.8-2.064 1.192a.47.47 0 0 1-.262.087m4.084-2.412a.51.51 0 0 1-.436-.247.505.505 0 0 1 .175-.698 66 66 0 0 0 2.005-1.25.514.514 0 0 1 .698.16.513.513 0 0 1-.16.698c-.669.421-1.337.843-2.02 1.264a.6.6 0 0 1-.262.073m4.011-2.543a.5.5 0 0 1-.421-.233.497.497 0 0 1 .145-.698 66 66 0 0 0 1.962-1.322.512.512 0 0 1 .582.843c-.654.45-1.308.886-1.977 1.322a.6.6 0 0 1-.291.088m3.924-2.675a.51.51 0 0 1-.421-.218.523.523 0 0 1 .116-.712c.654-.465 1.294-.915 1.919-1.38a.523.523 0 0 1 .712.101.523.523 0 0 1-.102.712c-.639.466-1.279.931-1.933 1.396a.45.45 0 0 1-.291.101m3.823-2.819a.51.51 0 0 1-.407-.204.497.497 0 0 1 .102-.712 94 94 0 0 0 1.86-1.453.51.51 0 0 1 .712.087.51.51 0 0 1-.087.712c-.611.494-1.25.974-1.875 1.468a.48.48 0 0 1-.305.102m3.72-2.95a.49.49 0 0 1-.392-.19.506.506 0 0 1 .073-.711c.61-.495 1.206-1.018 1.802-1.526a.493.493 0 0 1 .712.058.493.493 0 0 1-.058.712c-.596.508-1.207 1.032-1.817 1.54a.5.5 0 0 1-.32.117m3.59-3.096a.49.49 0 0 1-.378-.174.493.493 0 0 1 .044-.713 94 94 0 0 0 1.729-1.598.504.504 0 0 1 .698.727 63 63 0 0 1-1.759 1.613.44.44 0 0 1-.334.145m3.444-3.27a.5.5 0 0 1-.363-.145.49.49 0 0 1 0-.712 60 60 0 0 0 1.657-1.686.505.505 0 0 1 .727.697c-.538.567-1.105 1.134-1.672 1.7a.45.45 0 0 1-.349.146m3.285-3.43a.49.49 0 0 1-.334-.13.504.504 0 0 1-.029-.713c.523-.581 1.061-1.177 1.555-1.773a.507.507 0 0 1 .712-.058.51.51 0 0 1 .058.712 61 61 0 0 1-1.584 1.788.47.47 0 0 1-.378.174m3.081-3.604a.46.46 0 0 1-.32-.116.506.506 0 0 1-.072-.713c.494-.624.988-1.25 1.438-1.86a.51.51 0 0 1 .814.61 55 55 0 0 1-1.468 1.89.49.49 0 0 1-.392.189m2.834-3.808a.53.53 0 0 1-.291-.087.514.514 0 0 1-.131-.712c.451-.654.887-1.308 1.294-1.962a.513.513 0 0 1 .698-.16.513.513 0 0 1 .159.698c-.421.654-.857 1.337-1.322 1.99a.45.45 0 0 1-.407.233m2.543-3.996a.5.5 0 0 1-.247-.073.506.506 0 0 1-.189-.698c.393-.683.771-1.38 1.119-2.064a.508.508 0 0 1 .901.466c-.363.697-.741 1.41-1.148 2.107a.51.51 0 0 1-.436.261m2.151-4.23a.5.5 0 0 1-.203-.043.505.505 0 0 1-.262-.669c.32-.727.625-1.453.887-2.165a.524.524 0 0 1 .654-.306.525.525 0 0 1 .305.655 35 35 0 0 1-.916 2.223.52.52 0 0 1-.465.305m1.643-4.447c-.044 0-.102 0-.146-.014a.52.52 0 0 1-.349-.64c.233-.756.422-1.511.582-2.252a.514.514 0 0 1 1.002.218c-.159.77-.363 1.554-.595 2.325a.53.53 0 0 1-.494.363m1.002-4.621h-.072a.497.497 0 0 1-.436-.567 22 22 0 0 0 .189-2.311c.014-.276.261-.509.523-.494a.525.525 0 0 1 .494.523 28 28 0 0 1-.204 2.412c-.014.248-.232.436-.494.436m.175-4.738a.51.51 0 0 1-.509-.48 24 24 0 0 0-.276-2.296.52.52 0 0 1 .407-.596.52.52 0 0 1 .596.407c.145.785.232 1.599.29 2.412a.506.506 0 0 1-.479.538c-.015.015-.029.015-.029.015m-.843-4.666a.5.5 0 0 1-.48-.363q-.24-.828-.567-1.613a6 6 0 0 0-.232-.552.51.51 0 0 1 .261-.669.513.513 0 0 1 .669.262c.087.189.16.392.247.581.218.552.422 1.134.596 1.7a.52.52 0 0 1-.334.64c-.058.014-.102.014-.16.014m-1.875-4.345a.48.48 0 0 1-.436-.262 23 23 0 0 0-1.264-1.932.523.523 0 0 1 .101-.713.523.523 0 0 1 .712.102c.48.654.931 1.337 1.337 2.035a.505.505 0 0 1-.188.697.6.6 0 0 1-.262.073m-2.805-3.808a.55.55 0 0 1-.378-.16 25 25 0 0 0-1.657-1.627.506.506 0 0 1-.043-.712.506.506 0 0 1 .712-.044c.61.538 1.192 1.119 1.729 1.7a.504.504 0 0 1-.029.713.46.46 0 0 1-.334.13m-88.334-.988a.52.52 0 0 1-.479-.32.504.504 0 0 1 .291-.654c.741-.29 1.482-.566 2.223-.843a.5.5 0 0 1 .654.306.5.5 0 0 1-.305.654c-.741.276-1.468.552-2.209.843-.044 0-.116.014-.175.014m4.448-1.657a.52.52 0 0 1-.48-.334.51.51 0 0 1 .305-.654c.756-.262 1.497-.538 2.253-.785a.5.5 0 0 1 .639.32.497.497 0 0 1-.319.64c-.742.26-1.483.508-2.238.784a.5.5 0 0 1-.16.03m80.369-.523a.48.48 0 0 1-.305-.102c-.611-.45-1.25-.9-1.919-1.322a.513.513 0 0 1-.159-.698.51.51 0 0 1 .697-.16c.698.436 1.366.887 1.991 1.366.233.175.276.48.102.713a.53.53 0 0 1-.407.203m-75.879-1.017a.5.5 0 0 1-.479-.35.51.51 0 0 1 .32-.639c.755-.247 1.511-.494 2.267-.726a.51.51 0 0 1 .639.334.52.52 0 0 1-.334.64c-.756.232-1.497.48-2.253.726-.058 0-.116.015-.16.015m4.535-1.41a.53.53 0 0 1-.494-.363.5.5 0 0 1 .349-.625c.77-.233 1.526-.45 2.281-.654a.51.51 0 0 1 .625.349.51.51 0 0 1-.349.624l-2.267.654c-.058 0-.102.015-.145.015m67.333-.102a.43.43 0 0 1-.233-.058 31 31 0 0 0-2.093-1.032.5.5 0 0 1-.247-.668.5.5 0 0 1 .669-.247c.741.334 1.468.697 2.151 1.06.247.131.334.437.203.684a.55.55 0 0 1-.45.261M141.651 41a.51.51 0 0 1-.13-1.003c.77-.204 1.54-.407 2.31-.596a.495.495 0 0 1 .611.378.495.495 0 0 1-.378.61c-.756.189-1.526.393-2.296.596-.029.014-.073.014-.117.014m58.453-.77c-.058 0-.116-.015-.189-.03a44 44 0 0 0-2.209-.785.51.51 0 0 1-.319-.64.51.51 0 0 1 .639-.319c.77.247 1.526.523 2.253.814a.504.504 0 0 1 .29.654.51.51 0 0 1-.465.305m-53.846-.379a.51.51 0 0 1-.494-.392.506.506 0 0 1 .378-.61c.77-.175 1.555-.35 2.325-.524a.515.515 0 0 1 .611.393.514.514 0 0 1-.393.61q-1.155.24-2.31.523zm4.637-1.003a.5.5 0 0 1-.495-.406.5.5 0 0 1 .393-.596c.785-.16 1.555-.306 2.34-.45a.52.52 0 0 1 .596.406.51.51 0 0 1-.407.596c-.771.145-1.541.29-2.326.45zm44.704-.116c-.044 0-.087 0-.131-.014a52 52 0 0 0-2.281-.582.505.505 0 0 1-.378-.61.505.505 0 0 1 .61-.378c.785.19 1.57.378 2.325.596a.5.5 0 0 1 .349.625.53.53 0 0 1-.494.363m-40.039-.74a.49.49 0 0 1-.494-.422.51.51 0 0 1 .421-.582c.785-.13 1.57-.261 2.354-.378a.51.51 0 0 1 .582.422.51.51 0 0 1-.422.581c-.77.116-1.555.233-2.34.363-.043.015-.072.015-.101.015m35.417-.35c-.029 0-.058 0-.101-.014a55 55 0 0 0-2.326-.407.508.508 0 0 1 .16-1.003c.785.13 1.584.262 2.355.422.276.058.45.32.407.595a.49.49 0 0 1-.495.407m-30.723-.349a.53.53 0 0 1-.509-.436.5.5 0 0 1 .436-.566c.8-.102 1.584-.204 2.369-.291a.52.52 0 0 1 .567.45.52.52 0 0 1-.45.567c-.785.087-1.556.19-2.34.291-.029-.015-.044-.015-.073-.015m26.044-.392h-.058a61 61 0 0 0-2.34-.261.527.527 0 0 1-.465-.553.527.527 0 0 1 .552-.465c.799.073 1.599.16 2.369.262.276.029.479.29.436.566a.5.5 0 0 1-.494.451m-21.321-.13a.52.52 0 0 1-.508-.466.506.506 0 0 1 .465-.552c.785-.073 1.584-.145 2.369-.204.29-.029.523.19.537.465a.504.504 0 0 1-.465.538c-.784.058-1.569.131-2.354.204-.015.014-.029.014-.044.014m16.597-.306h-.029a116 116 0 0 0-2.354-.116.525.525 0 0 1-.494-.523.525.525 0 0 1 .523-.495c.799.03 1.613.073 2.383.131a.515.515 0 0 1 .48.538.53.53 0 0 1-.509.465m-11.859-.044a.509.509 0 0 1-.029-1.017c.785-.044 1.599-.072 2.384-.102.29 0 .508.218.523.494.014.277-.218.51-.494.524-.785.029-1.57.058-2.355.101zm7.107-.145a65 65 0 0 0-2.369 0 .506.506 0 0 1-.509-.508c0-.277.218-.51.509-.51.799-.014 1.599 0 2.384 0 .276 0 .508.233.494.51a.515.515 0 0 1-.509.508"/><path fill="#5BA8D3" d="M88.707 64.194s-39.182 14.242-60.415 43.004c-7.47 10.115-5.262 22.381 3.735 24.75 16 4.2 2.616-5.697 3.27-8.982.654-3.299 9.62 8.139 12.019 7.267 2.398-.857-4.23-3.706-3.445-5.828s6.758 5.407 8.197 4.68-1.715-2.645-1.22-3.924c.493-1.279 6.728 4.156 9.838 3.488l1.599 31.683s-18.879 14.286-21.262 11.205c-2.384-3.081 4.897-4.113 4.33-6.642-.566-2.529-14.402 7.398-16.407 5.159s3.88-2.528 3.226-4.389c-.654-1.86-23.108.117-30.796-18.254-6.802-16.262 10.086-57.915 85.18-86.545 27.09-10.334 2.15 3.328 2.15 3.328" opacity=".5"/><path fill="#5BA8D3" d="M19.935 128.155c6.06 18.806 44.268 2.819 44.268 2.819l.407 4.709 1.105 12.775 2.456 6.002c-21.96 8.052-39.56 5.828-48.28 2.515-8.88-3.372-15.07-11.555-14.984-20.318.436-39.85 77.783-74.265 77.783-74.265l-.567 4.069c-29.168 9.68-68.248 42.888-62.188 61.694" opacity=".5"/><path fill="url(#a)" d="m71.674 69.135-.087.044-.16.087-.32.174-.64.349-1.278.712-2.558 1.453c-1.7.989-3.372 1.977-5.043 3.009a220 220 0 0 0-4.97 3.125 190 190 0 0 0-4.87 3.284c-6.437 4.462-12.687 9.214-18.427 14.519-2.878 2.645-5.625 5.421-8.183 8.357a72 72 0 0 0-3.648 4.534c-1.148 1.57-2.238 3.154-3.182 4.84-.945 1.671-1.759 3.429-2.355 5.232-.145.45-.29.901-.407 1.351-.116.465-.218.916-.305 1.381-.174.915-.334 1.831-.378 2.747-.058.915-.058 1.831.015 2.717.072.887.218 1.759.421 2.602.393 1.686 1.061 3.241 1.875 4.65a16 16 0 0 0 1.38 2.035c.495.64 1.018 1.279 1.585 1.875.276.305.581.596.887.872l.828.77a9.8 9.8 0 0 0 1.599 1.163c1.148.668 2.5 1.148 3.982 1.468 1.482.334 3.095.479 4.767.537 3.342.102 6.918-.276 10.493-.915 3.59-.654 7.194-1.57 10.783-2.631a164 164 0 0 0 10.74-3.633c.146-.058.277-.116.422-.16l1.105 12.775a171 171 0 0 1-9.186 2.514c-3.982.959-8.022 1.773-12.193 2.311-4.171.523-8.458.814-12.95.363a31 31 0 0 1-3.386-.508 28 28 0 0 1-3.43-.916c-2.267-.77-4.563-1.875-6.612-3.459a19 19 0 0 1-2.834-2.689 14 14 0 0 1-.61-.755c-.16-.233-.32-.465-.466-.712a31 31 0 0 1-.886-1.468c-.567-1.003-1.09-2.02-1.511-3.11a24 24 0 0 1-1.047-3.299 22.3 22.3 0 0 1-.552-6.773c.072-1.105.247-2.195.465-3.255a23.5 23.5 0 0 1 .843-3.082c.349-1.002.697-1.976 1.119-2.921q.304-.698.654-1.395c.218-.465.45-.916.683-1.366.48-.901.945-1.788 1.468-2.645.494-.872 1.046-1.701 1.57-2.543 2.15-3.343 4.621-6.468 7.295-9.36 2.674-2.907 5.537-5.624 8.502-8.197 5.959-5.144 12.266-9.839 18.792-14.199a259 259 0 0 1 4.927-3.212 357 357 0 0 1 4.985-3.124 289 289 0 0 1 5.057-3.009L69 70.196l1.293-.712.64-.349.32-.174.16-.088.087-.043c-.044-.117.014-.058.072.043l-.043-.101c.058-.073.29.625.145.363"/><path fill="#5BA8D3" d="M39.293 169.299s-8.269 10.013-9.97 8.574c-2.833-2.369 3.518-5.13 9.97-8.574M46.982 122.458s-7.165-5.13-6.264-6.351c1.468-2.035 3.634 2.136 6.264 6.351M27.201 166.813s-8.807 5.639-10.071 3.721c-1.352-2.049 4.156-2.936 10.071-3.721M55.978 123.286s-5.726-3.066-5.072-4.331c.698-1.351 2.849 1.366 5.072 4.331M58.201 167.075s-4.345 8.749-6.278 7.819c-2.064-.988 1.918-4.345 6.278-7.819M36.576 130.059s-8.532-4.753-7.514-6.642c1.09-2.006 4.258 2.122 7.513 6.642" opacity=".5"/><path fill="url(#b)" d="M131.625 150.028c35.34 0 63.99-28.65 63.99-63.99s-28.65-63.99-63.99-63.99-63.99 28.649-63.99 63.99 28.649 63.99 63.99 63.99"/><g opacity=".5"><path fill="url(#c)" d="M191.618 99.96c0 3.982-.567 3.416-1.134 5.697-.334 1.352.131 3.11.8 3.59a63.4 63.4 0 0 0 3.706-14.17c-1.134.494-3.372 1.89-3.372 4.883" opacity=".5"/><path fill="url(#d)" d="M90.262 122.167c.567-1.715-.567-3.415 0-4.549.567-1.133.567.567 2.282 1.134s1.133-2.849 2.848-5.697c1.715-2.849 2.282-7.398 4.549-7.398s7.397.567 7.397-2.848 0-7.964 1.715-9.68c1.715-1.714 3.983-3.981 4.549-5.696s-5.13-.567-8.545-3.416c-3.416-2.848-3.982-2.848-5.697-2.281s-3.416-5.13-8.546-7.398-8.545-2.282-11.96-3.415c-2.995-1.003-6.86-1.555-9.302-.538a63.9 63.9 0 0 0-1.933 15.652c0 1.061.029 2.122.073 3.169.857 1.322 1.99 2.456 4.33 4.49 4.55 3.983 6.264 1.715 5.13 8.546-.682 4.099-.755 10.232-1.554 14.737a65 65 0 0 0 6.365 9.418c.335-.582.8-1.061 1.454-1.381 2.296-1.148 6.278-1.148 6.845-2.849" opacity=".5"/><path fill="url(#e)" d="M190.469 69.775c-6.264 0-5.697-2.282-6.831-8.546-1.133-6.264-4.549-9.112-10.246-11.961s-6.264-.567-10.246-.567-1.715-.567-5.697-3.415c-3.982-2.849-2.282-2.282-5.13-2.849-2.849-.566-9.112 2.282-9.679.567s2.848-3.982 5.697-7.964c2.848-3.982 4.549-1.715 6.83-1.715 2.282 0 8.546 1.134 11.395 5.13 1.962 2.747 4.985 1.177 6.511-1.177a63.6 63.6 0 0 0-26.538-13.487c-2.82 3.372-3.183 6.744-5.596 10.115-2.848 3.982-2.848 2.282-2.281 5.13.566 2.85 3.415 5.698 2.848 6.264-.567.567-3.415 2.849-6.264 5.13-2.848 2.282-3.982 11.395-4.549 15.377-.566 3.982 3.416 6.264 6.264 9.68s.567 2.28 3.416 1.133c2.848-1.134 3.415 0 6.83 0h5.697s3.416-.567 3.416 1.133-2.282 2.282-2.849 3.416 1.715 2.281 5.13 3.982c3.416 1.715 2.849 9.679 1.715 11.394-1.133 1.715-.567 6.831 2.849 12.528 3.415 5.697 1.715 9.679 2.282 10.246.566.567 1.133-2.849 6.83-2.849s5.13-2.282 6.264-6.831c1.134-4.548 3.415-3.982 1.715-7.964-1.715-3.982 5.13-5.13 6.831-6.264 1.715-1.133 1.38-10.304 6.511-13.72 1.366-.915.494-4.083 1.366-5.028a64 64 0 0 0-1.425-6.961c-.915.044-1.918.073-3.066.073" opacity=".5"/></g><path fill="#fff" d="M82.996 96.385c0-35.345 28.645-63.99 63.99-63.99 9.926 0 19.315 2.252 27.701 6.293-11.365-10.348-26.48-16.655-43.048-16.655-35.345 0-63.99 28.645-63.99 63.99 0 25.419 14.824 47.378 36.289 57.697-12.862-11.699-20.942-28.572-20.942-47.335" opacity=".05"/><path fill="url(#f)" d="M99.506 97.14c26.824 0 48.57-21.745 48.57-48.57S126.33 0 99.506 0s-48.57 21.746-48.57 48.57 21.745 48.57 48.57 48.57"/><path fill="#fff" d="M62.576 44.617c-.19 0-.393-.014-.582-.043a3.4 3.4 0 0 1-2.776-3.939c1.541-8.923 5.93-16.699 12.383-21.902a3.414 3.414 0 0 1 4.796.51 3.414 3.414 0 0 1-.509 4.795c-5.086 4.099-8.705 10.58-9.94 17.76-.291 1.657-1.745 2.82-3.372 2.82m1.584 17.31a3.4 3.4 0 0 0 2.412-4.172 35.4 35.4 0 0 1-1.046-6.016 3.415 3.415 0 0 0-3.691-3.096 3.415 3.415 0 0 0-3.096 3.691 43 43 0 0 0 1.25 7.15 3.41 3.41 0 0 0 3.284 2.53c.305.029.596 0 .887-.088"/><path fill="url(#g)" d="m86.192 111.587-1.642 1.046-13.283 8.473-7.427-6.351-4.011-3.43-2.122-1.773-3.808-3.255-5.42-4.636-1.905-1.628c-.93-.8-.421-2.34.814-2.398l9.476-.48c6.438-.32 13.08 1.817 18.632 6.119z"/><path fill="url(#h)" d="m70.903 120.816 12.267-7.834-8.59-6.787c-3.822-3.023-8.443-4.563-12.949-4.375l-12.353.524z"/><path fill="#FFDE8A" d="M67.835 107.532c.059.465-.087.916-.363 1.235a1.58 1.58 0 0 1-1.177.538l-8.59.247-3.807-3.255 12.005-.407c.959-.029 1.816.697 1.932 1.642M71.412 112.837c.058.494-.087.944-.363 1.279-.277.334-.698.537-1.192.552l-6.017.116-4.011-3.43 9.592-.247c.96-.014 1.86.741 1.99 1.73"/><path fill="url(#i)" d="m157.972 127.835-5.058 20.231a29 29 0 0 1-.915 2.95c-.117.32-.248.654-.378.959a26.72 26.72 0 0 1-12.732 13.531l-38.062 18.893 5.682-9.883c3.895-6.772 3.488-15.231-1.148-21.509-.668-.916-1.148-1.41-1.148-1.41l4.549-2.005 7.034-3.11z"/><path fill="#F87C38" d="m157.971 127.835-5.057 20.231a29 29 0 0 1-.916 2.95c-.145.218-5.101 7.354-17.585 12.499-12.484 5.159-21.597 9.272-21.873 9.403.174-.262 3.517-5.479 2.122-15.26 0 0 .509-10.639 1.104-11.162z" opacity=".5"/><path fill="url(#j)" d="M98.734 159.155C96.32 177.51 79.768 184.079 70 186.375c-4.215.989-7.165 1.192-7.165 1.192l14.214-34.226 5.624 1.512z"/><path fill="url(#k)" d="m82.674 154.853-12.673 31.522c-4.215.989-7.165 1.192-7.165 1.192l14.214-34.226z"/><path fill="url(#l)" d="M211.193 81.285c-.116.218-.218.45-.334.668-5.654 11.424-14.461 22.018-24.939 31.61a192 192 0 0 1-5.988 5.247c-11.467 9.563-24.416 18.007-37.205 25.099a302 302 0 0 1-12.078 6.366c-1.002.494-1.991.988-2.979 1.467-.073.03-.145.073-.218.102-1.569.77-3.125 1.497-4.665 2.209-2.006.93-3.982 1.831-5.93 2.674-.741.32-1.468.64-2.194.945-.262.116-.523.233-.785.334-18.181 7.747-32.686 11.743-36.958 11.162l-8.095-6.264-2.82-36.537-.421-5.421a296 296 0 0 1 7.95-5.159c26.843-16.757 52.944-26.45 75.05-31.77.625-.145 1.249-.29 1.86-.436a228 228 0 0 1 8.691-1.846c3.255-.61 6.38-1.148 9.403-1.57 3.444-.493 6.729-.871 9.824-1.162 3.154-.29 6.119-.48 8.88-.581 15.464-.552 23.951 2.863 23.951 2.863"/><path fill="url(#m)" d="M210.859 81.939c-5.653 11.423-14.46 22.018-24.939 31.61a191 191 0 0 1-6.002 5.246c-11.467 9.563-24.416 18.007-37.205 25.099l2.092-11.757c.015 0 49.167-23.602 66.054-50.198" opacity=".3"/><path fill="#585858" d="M122.786 154.039c-2.005.93-3.982 1.831-5.929 2.674-.741.32-1.468.639-2.195.945l-10.478-6.032-32.41 3.721.35-7.877.116-2.645 32.54-2.878z"/><path fill="url(#n)" d="m130.65 150.26-25.84-16.437-34.154-.625 1.585 11.641-.117 2.645-.348 7.877 32.409-3.72 10.478 6.031c.727-.305 1.454-.625 2.195-.945a334 334 0 0 0 5.93-2.674z"/><path fill="url(#o)" d="M122.786 154.039c-2.005.93-3.982 1.831-5.929 2.674-.741.32-1.468.639-2.195.945l-10.478-6.032-32.41 3.721.35-7.877.116-2.645 32.54-2.878z"/><path fill="url(#p)" d="m76.92 169.168-8.095-6.264-3.227-41.943a291 291 0 0 1 7.95-5.159z"/><path fill="#5B5B5B" d="m68.62 160.143-8.69 4.781-1.933-38.179 7.819-2.877.465 6.031.087 1.133.029.262.087 1.134.247 3.313.087 1.148.03.247.087 1.163.247 3.27.087 1.177.029.233.087 1.177.247 3.256.102 1.191.014.204.088 1.206.247 3.241.101 1.206v.189l.102 1.221z"/><path fill="url(#q)" d="m68.62 160.143-8.69 4.781-1.933-38.179 7.819-2.877.465 6.031.087 1.133.029.262.087 1.134.247 3.313.087 1.148.03.247.087 1.163.247 3.27.087 1.177.029.233.087 1.177.247 3.256.102 1.191.014.204.088 1.206.247 3.241.101 1.206v.189l.102 1.221z"/><path fill="url(#r)" d="m66.399 131.294-7.965 3.953-.072-1.424 7.92-3.924.088 1.133z"/><path fill="url(#s)" d="m66.848 137.137-8.124 4.025-.073-1.424 8.08-3.997.088 1.148z"/><path fill="url(#t)" d="m67.3 142.979-8.27 4.098-.072-1.424 8.226-4.084.087 1.177z"/><path fill="url(#u)" d="m67.75 148.807-8.429 4.171-.072-1.41 8.386-4.156.101 1.191z"/><path fill="url(#v)" d="m68.186 154.649-8.56 4.244-.072-1.41 8.53-4.229.102 1.206z"/><path fill="url(#w)" d="M129.53 155.899c9.278 0 16.8-7.522 16.8-16.8s-7.522-16.801-16.8-16.801-16.801 7.522-16.801 16.801 7.522 16.8 16.801 16.8"/><path fill="url(#x)" d="M129.53 150.362c6.221 0 11.263-5.043 11.263-11.264s-5.042-11.263-11.263-11.263-11.263 5.043-11.263 11.263c0 6.221 5.042 11.264 11.263 11.264"/><path fill="#fff" d="m131.522 144.36-3.517-7.732-1.308 1.947-.93-2.02 1.322-1.933 1.875-.857 4.433 9.737z"/><path fill="url(#y)" d="M185.935 113.549a191 191 0 0 1-6.003 5.246c-15.725-15.681-12.702-33.47-11.379-38.615 3.444-.494 6.729-.886 9.824-1.162-7.179 13.516 1.337 27.163 7.558 34.531"/><path fill="#5BA8D3" d="M159.468 104.16c-.683 1.497-2.122 2.398-3.662 2.486a4.3 4.3 0 0 1-1.977-.378 4.26 4.26 0 0 1-2.107-5.639c3.284-7.194 1.061-13.284-1.264-17.033a228 228 0 0 1 8.69-1.846l.131.261c3.445 7.224 3.503 14.883.189 22.149" opacity=".5"/><path fill="#fff" d="M211.194 81.285C143.919 70.952 66.645 125.902 66.02 126.382l-.421-5.421a291 291 0 0 1 7.95-5.159c26.842-16.757 52.944-26.451 75.049-31.77.625-.146 1.25-.291 1.861-.436a228 228 0 0 1 8.691-1.846c3.255-.61 6.38-1.148 9.403-1.57 3.444-.494 6.729-.872 9.824-1.162 3.154-.291 6.119-.48 8.88-.582 15.449-.567 23.937 2.849 23.937 2.849" opacity=".1"/><path fill="url(#z)" d="m94.973 89.729 22.294 3.488-8.124-12.31-19.315-.668z"/><path fill="url(#A)" d="M110.088 47.059c-1.832 2.79-4.128 5.755-7.02 8.909l-12.542-1.744 11.205-24.576 4.912-9.984 2.413-4.913c.014 0 15.405 10.42 1.032 32.308"/><path fill="url(#B)" d="M127.339 72.143c.072 1.308-.189 2.834-.843 4.506-1.962 4.985-11.947 7.819-11.947 7.819a36.8 36.8 0 0 1-12.862 1.816c-14.49-.552-24.605-9.432-24.605-9.432 2.238-.174 4.157-1.22 5.596-2.34 1.773-1.366 2.82-2.834 2.82-2.834-3.184.088-7.82-.014-7.82-.014 11.758-7.834 12.688-35.302 12.426-48.6-.087-4.461-.32-7.324-.32-7.324q2.42 1.242 4.36 2.615c9.985 7.05 10.755 16.38 9.316 23.56-.581 2.906-1.54 5.464-2.398 7.368-.988 2.209-1.846 3.531-1.846 3.531 6.105-1.046 12.412 2.34 14.33 4.912 1.904 2.573 7.209 8.415 10.261 9.374a4.78 4.78 0 0 1 2.601 1.948c.524.828.872 1.875.931 3.095"/><path fill="#F15A24" d="M101.048 49.283c-.988 2.209-1.846 3.531-1.846 3.531s-1.613.29-2.79.858c0 .014 3.662-2.427 4.636-4.39" opacity=".5"/><path fill="#FFCA83" d="M103.446 41.914c-.233-12.542-9.883-17.47-13.356-18.85-.088-4.462-.32-7.325-.32-7.325 14.097 7.209 15.303 18.065 13.676 26.175M110.087 47.059c6.628-11.307 0-24.503-3.43-27.395l2.413-4.913s15.391 10.42 1.017 32.308" opacity=".5"/><path fill="#F87C38" d="M99.39 63.787s6.147-1.933 10.842 1.046c.319.204.683.363 1.06.407.611.087 1.643.145 1.817-.523.422-1.686-6.453-6.715-13.72-.93"/><path fill="url(#C)" d="M110.347 66.214h-.247c-2.398.16-4.054 1.264-4.011 2.064.044.871 1.105 1.148 1.105 1.148a3.07 3.07 0 0 0 3.212 2.906 3.07 3.07 0 0 0 2.906-3.212 3.045 3.045 0 0 0-2.965-2.906"/><path fill="#EDEDED" d="M111.612 69.615a.654.654 0 1 0 0-1.309.654.654 0 0 0 0 1.309"/><path fill="#F87C38" d="M116.437 80.18c-2.035 0-3.401-.784-3.488-.828-.16-.102-.218-.305-.117-.465.102-.16.306-.218.465-.116.044.029 2.922 1.656 6.526-.058a.323.323 0 0 1 .45.16.323.323 0 0 1-.159.45c-1.352.64-2.616.857-3.677.857M127.338 72.143l-.13.146a1.58 1.58 0 0 1-1.977.334l-1.947-1.12a1.29 1.29 0 0 1-.625-1.016 1.26 1.26 0 0 1 1.177-1.308l2.558-.131c.537.828.886 1.874.944 3.095"/><path fill="#FFCA83" d="M108.42 77.69c2.733-.138 4.901-1.205 4.841-2.384s-2.324-2.021-5.057-1.883-4.901 1.206-4.842 2.384 2.324 2.022 5.058 1.883" opacity=".5"/><path fill="url(#D)" d="M120.594 85.412a1.015 1.015 0 0 1-.901 1.12c-.916.101-1.788.16-2.645.203-5.319.276-9.577-.436-12.339-1.134a8.7 8.7 0 0 1-6.206-5.813l-.508-1.57-1.38-4.33a1.02 1.02 0 0 1 .668-1.28c.392-.13.814 0 1.09.306l1.686 5.014.058.189.334 1.06c.712 2.224 2.485 3.881 4.752 4.462 3.052.77 7.994 1.54 14.272.872a1.003 1.003 0 0 1 1.119.901"/><path fill="url(#E)" d="M116.961 87.476a75 75 0 0 1-4.026.102c-.944 0-1.715-.77-1.715-1.715s.771-1.715 1.715-1.715c2.675 0 5.407-.145 8.125-.436a1.715 1.715 0 0 1 1.889 1.526 1.715 1.715 0 0 1-1.526 1.89 77 77 0 0 1-4.462.348"/><path fill="url(#F)" d="m100.102 78.117-4.65.232a3.07 3.07 0 0 1-2.965-1.846l-1.38-3.197 7.033-1.017.204.61 1.686 5.014z"/><path fill="url(#G)" d="M87.488 64.6 78.71 41.87l1.453-.072a2.5 2.5 0 0 1 2.296 1.279l11.976 21.625z"/><path fill="url(#H)" d="m100.248 73.19-8.69.436a3.19 3.19 0 0 1-3.155-2.078l-2.107-5.64-.872-2.31 7.165-.364a5.38 5.38 0 0 1 5.334 3.547z"/><path fill="url(#I)" d="m97.646 73.32-6.09.306a3.19 3.19 0 0 1-3.153-2.079l-.233-.639-.407-1.09-.276-.741-.407-1.09-.784-2.093 4.374-.218a5.59 5.59 0 0 1 5.552 3.692z"/><path fill="#5BA8D3" d="M93.069 68.248a.553.553 0 0 1-.523.582l-5.058.261-.407-1.09 5.421-.276a.55.55 0 0 1 .567.523M93.155 70.109a.553.553 0 0 1-.523.581l-4.476.233-.407-1.09 4.825-.247a.553.553 0 0 1 .581.523"/><path fill="#FFCA83" d="M101.687 86.27c-14.49-.552-24.605-9.432-24.605-9.432 2.238-.175 4.157-1.221 5.596-2.34 1.816 2.98 7.659 10.769 19.009 11.772" opacity=".5"/><path fill="#5BA8D3" d="M117.978 120.703c17.959-8.187 30.747-18.708 28.563-23.499-2.184-4.79-18.514-2.038-36.472 6.149-17.96 8.187-30.747 18.708-28.563 23.499s18.513 2.038 36.472-6.149" opacity=".5"/><path fill="#002649" d="M116.411 117.273c15.644-7.131 27.003-15.814 25.372-19.392-1.632-3.579-15.636-.699-31.28 6.433S83.5 120.128 85.132 123.707c1.631 3.578 15.635.698 31.279-6.434"/><path fill="url(#J)" d="M140.214 102.024c-1.032 1.206-2.5 2.558-4.331 3.982-1.962 1.526-4.331 3.139-7.034 4.767a116 116 0 0 1-5.654 3.183c-2.238-3.706-5.45-9.185-7.106-12.034a376 376 0 0 0-1.09-1.86l1.918-5.915z"/><path fill="url(#K)" d="M135.883 106.006c-1.962 1.526-4.331 3.139-7.034 4.767-1.497-.61-2.572-1.046-2.572-1.046l-1.25-5.944s4.2 1.889 10.856 2.223" opacity=".2"/><path fill="url(#L)" d="M132.207 108.622c-.96.64-1.977 1.294-3.053 1.933-.392.233-.784.48-1.191.712-.146.087-.276.16-.422.247-.407.233-.828.48-1.235.712-.189.102-.378.218-.567.32-.407.218-.814.451-1.235.683-.364.204-.741.393-1.119.596-.393.218-.8.422-1.206.64-.204.101-.407.218-.625.319a142 142 0 0 1-5.145 2.486c-.393.174-.77.348-1.148.523-8.778 3.909-16.96 6.453-22.6 7.208l-3.88-7.557-5.174-10.101a8.3 8.3 0 0 1 1.279-9.403l3.415-3.691.654-.712 2.689-2.675 27.453 6.482 2.776 2.384 2.965 2.543z"/><path fill="url(#M)" d="M132.206 108.622a100 100 0 0 1-4.244 2.66c-.145.087-.276.16-.421.247-.407.232-.829.479-1.236.712-.189.102-.378.218-.566.32-.407.218-.814.45-1.236.683-.363.203-.741.392-1.119.596-.407.218-.799.421-1.206.639-.204.102-.407.218-.625.32a142 142 0 0 1-5.145 2.485c-.392.174-.77.349-1.148.523-2.689-1.686-4.898-3.095-4.912-3.197-.029-.233-.48-9.432-.48-9.432l14.955-2.863z"/><path fill="url(#N)" d="M132.207 108.622a69 69 0 0 1-3.052 1.933c-7.994-12.368-33.529-15.609-40.853-16.292l.653-.712 2.69-2.674 27.453 6.482 2.776 2.383 2.964 2.544z" opacity=".2"/><path fill="url(#O)" d="m119.445 93.987-.363 3.372-3.444-.436-.771-.102-4.578-.581-.77-.102-4.433-.567-.77-.102-4.113-.523-.77-.102-4.055-.508-.77-.102-5.639-.712-.843-3.677c-.378-1.628 1.032-3.125 2.674-2.849l1.032.16.785.131 4.127.683.785.131 4.186.683.785.13 4.505.742.785.13 4.665.771.785.131 4.287.698c1.206.232 2.064 1.366 1.918 2.601"/><path fill="url(#P)" d="m95.365 94.365-.77-.102-2.776-7.078.77.131z"/><path fill="url(#Q)" d="m100.189 94.976-.77-.102L96.716 88l.784.13z"/><path fill="url(#R)" d="m105.074 95.586-.77-.087-2.616-6.686.784.131z"/><path fill="url(#S)" d="m110.29 96.254-.77-.101-2.544-6.468.785.131z"/><path fill="url(#T)" d="m115.639 96.923-.771-.087-2.441-6.264.77.13z"/><path fill="url(#U)" d="M119.562 115.787c-1.018.494-2.078.988-3.139 1.483-1.367.624-2.733 1.22-4.07 1.773-5.115 2.121-9.926 3.764-14.053 4.825-.48-.901-1.134-2.108-1.89-3.503-1.017-1.86-2.209-4.055-3.4-6.249-.538-.988-1.12-2.02-1.716-3.052-3.051-5.261-.45-11.99 5.349-13.821l.014-.015a9.5 9.5 0 0 1 10.086 2.907l3.59 4.229z"/><path fill="url(#V)" d="m102.47 112.415-2.325 1.759-4.128-4.549a2.01 2.01 0 0 1 .276-2.95 2.024 2.024 0 0 1 2.922.523z"/><path fill="url(#W)" d="m103.211 112.009 2.747-.974-1.541-5.944c-.291-1.134-1.511-1.788-2.616-1.381a2.01 2.01 0 0 0-1.148 2.732z"/><path fill="url(#X)" d="M103.807 119.014a5.029 5.029 0 1 0 0-10.058 5.029 5.029 0 0 0 0 10.058"/><path fill="#223C6A" d="M102.538 116.383c.247-.134.305-.505.129-.83-.175-.325-.518-.48-.765-.347-.247.134-.305.505-.13.83.176.325.518.48.766.347M106.496 114.252c.248-.133.306-.505.13-.83-.175-.325-.518-.48-.765-.346-.247.133-.305.505-.13.83.176.325.518.48.765.346"/><path fill="#002649" d="M86.382 104.887a1.933 1.933 0 1 0 0-3.865 1.933 1.933 0 0 0 0 3.865"/><path fill="url(#Y)" d="M167.798 49.312a7.046 7.046 0 0 0-7.049-7.05 7.045 7.045 0 0 0-7.048 7.05c0 4.214 4.287 8.051 6.176 9.548a1.4 1.4 0 0 0 1.744 0c1.89-1.497 6.177-5.348 6.177-9.548"/><path fill="url(#Z)" d="M160.749 53.38a4.07 4.07 0 1 0 0-8.138 4.07 4.07 0 0 0 0 8.139"/><path fill="url(#aa)" d="M178.902 25.913a7.53 7.53 0 0 0-7.529-7.528 7.53 7.53 0 0 0-7.528 7.528c0 4.505 4.578 8.618 6.598 10.202a1.486 1.486 0 0 0 1.86 0c2.02-1.584 6.599-5.697 6.599-10.202"/><path fill="url(#ab)" d="M171.374 30.258a4.345 4.345 0 1 0 0-8.69 4.345 4.345 0 0 0 0 8.69"/><path fill="url(#ac)" d="M185.834 66.243a7.046 7.046 0 0 0-7.049-7.049 7.046 7.046 0 0 0-7.049 7.049c0 4.215 4.288 8.051 6.177 9.548a1.4 1.4 0 0 0 1.744 0c1.889-1.482 6.177-5.334 6.177-9.548"/><path fill="url(#ad)" d="M178.785 70.312a4.069 4.069 0 1 0 0-8.137 4.069 4.069 0 0 0 0 8.137"/><defs><linearGradient id="a" x1="113.31" x2="-37.545" y1="178.048" y2="25.861" gradientUnits="userSpaceOnUse"><stop stop-color="#fff"/><stop offset="1" stop-color="#B5E0F7"/></linearGradient><linearGradient id="b" x1="131.627" x2="131.627" y1="133.773" y2="-49.713" gradientUnits="userSpaceOnUse"><stop stop-color="#03192E"/><stop offset=".5" stop-color="#223C6A"/><stop offset="1" stop-color="#4A74A2"/></linearGradient><linearGradient id="c" x1="192.668" x2="192.668" y1="208.489" y2="-59.617" gradientUnits="userSpaceOnUse"><stop stop-color="#223C6A"/><stop offset="1" stop-color="#5A8AB7"/></linearGradient><linearGradient id="d" x1="90.642" x2="90.642" y1="208.489" y2="-59.617" gradientUnits="userSpaceOnUse"><stop stop-color="#223C6A"/><stop offset="1" stop-color="#5A8AB7"/></linearGradient><linearGradient id="e" x1="162.78" x2="162.78" y1="208.489" y2="-59.617" gradientUnits="userSpaceOnUse"><stop stop-color="#223C6A"/><stop offset="1" stop-color="#5A8AB7"/></linearGradient><linearGradient id="f" x1="99.507" x2="99.507" y1="-73.034" y2="118.388" gradientUnits="userSpaceOnUse"><stop stop-color="#fff"/><stop offset="1" stop-color="#B5E0F7" stop-opacity="0"/></linearGradient><linearGradient id="g" x1="86.527" x2="40.349" y1="122.436" y2="86.471" gradientUnits="userSpaceOnUse"><stop stop-color="#FF2A64"/><stop offset=".031" stop-color="#FF3462"/><stop offset=".169" stop-color="#FF595A"/><stop offset=".313" stop-color="#FF7854"/><stop offset=".463" stop-color="#FF904E"/><stop offset=".62" stop-color="#FFA24B"/><stop offset=".791" stop-color="#FFAC49"/><stop offset="1" stop-color="#FFAF48"/></linearGradient><linearGradient id="h" x1="91.292" x2="54.661" y1="136.837" y2="94.212" gradientUnits="userSpaceOnUse"><stop stop-color="#FF2A64"/><stop offset=".031" stop-color="#FF3462"/><stop offset=".169" stop-color="#FF595A"/><stop offset=".313" stop-color="#FF7854"/><stop offset=".463" stop-color="#FF904E"/><stop offset=".62" stop-color="#FFA24B"/><stop offset=".791" stop-color="#FFAC49"/><stop offset="1" stop-color="#FFAF48"/></linearGradient><linearGradient id="i" x1="134.747" x2="122.093" y1="115.388" y2="199.529" gradientUnits="userSpaceOnUse"><stop stop-color="#FF2A64"/><stop offset=".031" stop-color="#FF3462"/><stop offset=".169" stop-color="#FF595A"/><stop offset=".313" stop-color="#FF7854"/><stop offset=".463" stop-color="#FF904E"/><stop offset=".62" stop-color="#FFA24B"/><stop offset=".791" stop-color="#FFAC49"/><stop offset="1" stop-color="#FFAF48"/></linearGradient><linearGradient id="j" x1="73.758" x2="87.966" y1="197.888" y2="149.713" gradientUnits="userSpaceOnUse"><stop stop-color="#223C6A"/><stop offset="1" stop-color="#5A8AB7"/></linearGradient><linearGradient id="k" x1="93.858" x2="64.553" y1="118.471" y2="191.734" gradientUnits="userSpaceOnUse"><stop stop-color="#223C6A"/><stop offset="1" stop-color="#5A8AB7"/></linearGradient><linearGradient id="l" x1="292.475" x2="56.259" y1="9.667" y2="164.185" gradientUnits="userSpaceOnUse"><stop stop-color="#fff"/><stop offset="1" stop-color="#B5E0F7"/></linearGradient><linearGradient id="m" x1="140.108" x2="214.509" y1="140.227" y2="87.047" gradientUnits="userSpaceOnUse"><stop stop-color="#386E9F"/><stop offset="1" stop-color="#fff"/></linearGradient><linearGradient id="n" x1="190.061" x2="87.938" y1="225.42" y2="141.945" gradientUnits="userSpaceOnUse"><stop stop-color="#223C6A"/><stop offset="1" stop-color="#5A8AB7"/></linearGradient><linearGradient id="o" x1="137.751" x2="66.819" y1="183.95" y2="132.666" gradientUnits="userSpaceOnUse"><stop stop-color="#223C6A"/><stop offset="1" stop-color="#5A8AB7"/></linearGradient><linearGradient id="p" x1="75.788" x2="67.13" y1="196.47" y2="88.907" gradientUnits="userSpaceOnUse"><stop stop-color="#002649"/><stop offset=".321" stop-color="#042A4F"/><stop offset=".748" stop-color="#0F3460"/><stop offset="1" stop-color="#183D6D"/></linearGradient><linearGradient id="q" x1="68.866" x2="61.207" y1="216.025" y2="124.447" gradientUnits="userSpaceOnUse"><stop stop-color="#223C6A"/><stop offset="1" stop-color="#5A8AB7"/></linearGradient><linearGradient id="r" x1="78.13" x2="23.738" y1="126.906" y2="146.442" gradientUnits="userSpaceOnUse"><stop stop-color="#223C6A"/><stop offset="1" stop-color="#5A8AB7"/></linearGradient><linearGradient id="s" x1="80.041" x2="25.649" y1="132.23" y2="151.767" gradientUnits="userSpaceOnUse"><stop stop-color="#223C6A"/><stop offset="1" stop-color="#5A8AB7"/></linearGradient><linearGradient id="t" x1="81.955" x2="27.563" y1="137.554" y2="157.09" gradientUnits="userSpaceOnUse"><stop stop-color="#223C6A"/><stop offset="1" stop-color="#5A8AB7"/></linearGradient><linearGradient id="u" x1="83.866" x2="29.474" y1="142.875" y2="162.412" gradientUnits="userSpaceOnUse"><stop stop-color="#223C6A"/><stop offset="1" stop-color="#5A8AB7"/></linearGradient><linearGradient id="v" x1="85.778" x2="31.387" y1="148.2" y2="167.737" gradientUnits="userSpaceOnUse"><stop stop-color="#223C6A"/><stop offset="1" stop-color="#5A8AB7"/></linearGradient><linearGradient id="w" x1="152.995" x2="106.818" y1="178.813" y2="100.666" gradientUnits="userSpaceOnUse"><stop stop-color="#03192E"/><stop offset=".5" stop-color="#223C6A"/><stop offset="1" stop-color="#4A74A2"/></linearGradient><linearGradient id="x" x1="139.559" x2="112.697" y1="160.321" y2="103.487" gradientUnits="userSpaceOnUse"><stop stop-color="#FF2A64"/><stop offset=".031" stop-color="#FF3462"/><stop offset=".169" stop-color="#FF595A"/><stop offset=".313" stop-color="#FF7854"/><stop offset=".463" stop-color="#FF904E"/><stop offset=".62" stop-color="#FFA24B"/><stop offset=".791" stop-color="#FFAC49"/><stop offset="1" stop-color="#FFAF48"/></linearGradient><linearGradient id="y" x1="206.526" x2="167.601" y1="159.168" y2="77.765" gradientUnits="userSpaceOnUse"><stop stop-color="#223C6A"/><stop offset="1" stop-color="#5A8AB7"/></linearGradient><linearGradient id="z" x1="100.188" x2="114.84" y1="78.11" y2="115.703" gradientUnits="userSpaceOnUse"><stop stop-color="#FF2A64"/><stop offset=".031" stop-color="#FF3462"/><stop offset=".169" stop-color="#FF595A"/><stop offset=".313" stop-color="#FF7854"/><stop offset=".463" stop-color="#FF904E"/><stop offset=".62" stop-color="#FFA24B"/><stop offset=".791" stop-color="#FFAC49"/><stop offset="1" stop-color="#FFAF48"/></linearGradient><linearGradient id="A" x1="96.037" x2="120.235" y1="67.191" y2="-10.29" gradientUnits="userSpaceOnUse"><stop stop-color="#FF2A64"/><stop offset=".031" stop-color="#FF3462"/><stop offset=".169" stop-color="#FF595A"/><stop offset=".313" stop-color="#FF7854"/><stop offset=".463" stop-color="#FF904E"/><stop offset=".62" stop-color="#FFA24B"/><stop offset=".791" stop-color="#FFAC49"/><stop offset="1" stop-color="#FFAF48"/></linearGradient><linearGradient id="B" x1="113.598" x2="91.397" y1="137.885" y2="14.005" gradientUnits="userSpaceOnUse"><stop stop-color="#FF2A64"/><stop offset=".031" stop-color="#FF3462"/><stop offset=".169" stop-color="#FF595A"/><stop offset=".313" stop-color="#FF7854"/><stop offset=".463" stop-color="#FF904E"/><stop offset=".62" stop-color="#FFA24B"/><stop offset=".791" stop-color="#FFAC49"/><stop offset="1" stop-color="#FFAF48"/></linearGradient><linearGradient id="C" x1="115.349" x2="104.36" y1="76.213" y2="61.227" gradientUnits="userSpaceOnUse"><stop stop-color="#03192E"/><stop offset=".5" stop-color="#223C6A"/><stop offset="1" stop-color="#4A74A2"/></linearGradient><linearGradient id="D" x1="96.563" x2="120.594" y1="79.681" y2="79.681" gradientUnits="userSpaceOnUse"><stop stop-color="#002649"/><stop offset=".321" stop-color="#042A4F"/><stop offset=".748" stop-color="#0F3460"/><stop offset="1" stop-color="#183D6D"/></linearGradient><linearGradient id="E" x1="92.391" x2="128.729" y1="85.64" y2="85.64" gradientUnits="userSpaceOnUse"><stop stop-color="#223C6A"/><stop offset="1" stop-color="#5A8AB7"/></linearGradient><linearGradient id="F" x1="85.878" x2="115.06" y1="75.324" y2="75.324" gradientUnits="userSpaceOnUse"><stop stop-color="#223C6A"/><stop offset="1" stop-color="#5A8AB7"/></linearGradient><linearGradient id="G" x1="96.791" x2="63.342" y1="76.162" y2="10.152" gradientUnits="userSpaceOnUse"><stop stop-color="#386E9F"/><stop offset="1" stop-color="#fff"/></linearGradient><linearGradient id="H" x1="96.339" x2="85.572" y1="77.705" y2="48.844" gradientUnits="userSpaceOnUse"><stop stop-color="#223C6A"/><stop offset="1" stop-color="#5A8AB7"/></linearGradient><linearGradient id="I" x1="100.799" x2="87.922" y1="93.555" y2="58.625" gradientUnits="userSpaceOnUse"><stop stop-color="#223C6A"/><stop offset="1" stop-color="#5A8AB7"/></linearGradient><linearGradient id="J" x1="91.892" x2="164.267" y1="84.781" y2="126.962" gradientUnits="userSpaceOnUse"><stop stop-color="#223C6A"/><stop offset="1" stop-color="#5A8AB7"/></linearGradient><linearGradient id="K" x1="125.025" x2="135.877" y1="107.272" y2="107.272" gradientUnits="userSpaceOnUse"><stop stop-color="#386E9F"/><stop offset="1" stop-color="#fff"/></linearGradient><linearGradient id="L" x1="120.615" x2="90.2" y1="132.573" y2="73.963" gradientUnits="userSpaceOnUse"><stop stop-color="#223C6A"/><stop offset="1" stop-color="#5A8AB7"/></linearGradient><linearGradient id="M" x1="127.44" x2="100.799" y1="119.772" y2="84.473" gradientUnits="userSpaceOnUse"><stop stop-color="#03192E"/><stop offset=".5" stop-color="#223C6A"/><stop offset="1" stop-color="#4A74A2"/></linearGradient><linearGradient id="N" x1="88.302" x2="132.21" y1="100.722" y2="100.722" gradientUnits="userSpaceOnUse"><stop stop-color="#386E9F"/><stop offset="1" stop-color="#fff"/></linearGradient><linearGradient id="O" x1="103.757" x2="103.757" y1="112.688" y2="75.639" gradientUnits="userSpaceOnUse"><stop stop-color="#386E9F"/><stop offset="1" stop-color="#fff"/></linearGradient><linearGradient id="P" x1="98.575" x2="86.142" y1="108.822" y2="63.829" gradientUnits="userSpaceOnUse"><stop stop-color="#386E9F"/><stop offset="1" stop-color="#fff"/></linearGradient><linearGradient id="Q" x1="102.913" x2="90.48" y1="107.623" y2="62.63" gradientUnits="userSpaceOnUse"><stop stop-color="#386E9F"/><stop offset="1" stop-color="#fff"/></linearGradient><linearGradient id="R" x1="107.306" x2="94.874" y1="106.41" y2="61.416" gradientUnits="userSpaceOnUse"><stop stop-color="#386E9F"/><stop offset="1" stop-color="#fff"/></linearGradient><linearGradient id="S" x1="111.988" x2="99.555" y1="105.116" y2="60.122" gradientUnits="userSpaceOnUse"><stop stop-color="#386E9F"/><stop offset="1" stop-color="#fff"/></linearGradient><linearGradient id="T" x1="116.804" x2="104.372" y1="103.785" y2="58.791" gradientUnits="userSpaceOnUse"><stop stop-color="#386E9F"/><stop offset="1" stop-color="#fff"/></linearGradient><linearGradient id="U" x1="93.382" x2="165.756" y1="106.362" y2="148.544" gradientUnits="userSpaceOnUse"><stop stop-color="#223C6A"/><stop offset="1" stop-color="#5A8AB7"/></linearGradient><linearGradient id="V" x1="95.894" x2="99.335" y1="104.811" y2="111.249" gradientUnits="userSpaceOnUse"><stop stop-color="#fff"/><stop offset="1" stop-color="#F9E4CE"/></linearGradient><linearGradient id="W" x1="100.526" x2="103.968" y1="102.334" y2="108.773" gradientUnits="userSpaceOnUse"><stop stop-color="#fff"/><stop offset="1" stop-color="#F9E4CE"/></linearGradient><linearGradient id="X" x1="99.576" x2="106.68" y1="107.02" y2="118.731" gradientUnits="userSpaceOnUse"><stop stop-color="#fff"/><stop offset="1" stop-color="#F9E4CE"/></linearGradient><linearGradient id="Y" x1="160.753" x2="160.753" y1="68.291" y2="36.209" gradientUnits="userSpaceOnUse"><stop stop-color="#FF2A64"/><stop offset=".031" stop-color="#FF3462"/><stop offset=".169" stop-color="#FF595A"/><stop offset=".313" stop-color="#FF7854"/><stop offset=".463" stop-color="#FF904E"/><stop offset=".62" stop-color="#FFA24B"/><stop offset=".791" stop-color="#FFAC49"/><stop offset="1" stop-color="#FFAF48"/></linearGradient><linearGradient id="Z" x1="160.753" x2="160.753" y1="82.61" y2="3.336" gradientUnits="userSpaceOnUse"><stop stop-color="#03192E"/><stop offset=".5" stop-color="#223C6A"/><stop offset="1" stop-color="#4A74A2"/></linearGradient><linearGradient id="aa" x1="171.372" x2="171.372" y1="51.307" y2="6.684" gradientUnits="userSpaceOnUse"><stop stop-color="#FF2A64"/><stop offset=".031" stop-color="#FF3462"/><stop offset=".169" stop-color="#FF595A"/><stop offset=".313" stop-color="#FF7854"/><stop offset=".463" stop-color="#FF904E"/><stop offset=".62" stop-color="#FFA24B"/><stop offset=".791" stop-color="#FFAC49"/><stop offset="1" stop-color="#FFAF48"/></linearGradient><linearGradient id="ab" x1="171.373" x2="171.373" y1="82.61" y2="3.336" gradientUnits="userSpaceOnUse"><stop stop-color="#03192E"/><stop offset=".5" stop-color="#223C6A"/><stop offset="1" stop-color="#4A74A2"/></linearGradient><linearGradient id="ac" x1="178.784" x2="178.784" y1="82.436" y2="50.354" gradientUnits="userSpaceOnUse"><stop stop-color="#FF2A64"/><stop offset=".031" stop-color="#FF3462"/><stop offset=".169" stop-color="#FF595A"/><stop offset=".313" stop-color="#FF7854"/><stop offset=".463" stop-color="#FF904E"/><stop offset=".62" stop-color="#FFA24B"/><stop offset=".791" stop-color="#FFAC49"/><stop offset="1" stop-color="#FFAF48"/></linearGradient><linearGradient id="ad" x1="178.784" x2="178.784" y1="82.611" y2="3.336" gradientUnits="userSpaceOnUse"><stop stop-color="#03192E"/><stop offset=".5" stop-color="#223C6A"/><stop offset="1" stop-color="#4A74A2"/></linearGradient></defs></svg>