<svg xmlns="http://www.w3.org/2000/svg" width="216" height="220" fill="none" viewBox="0 0 787 800"><path fill="url(#a)" d="M440.88 773.813c190.537 0 344.998-150.706 344.998-336.611s-154.461-336.61-344.998-336.61S95.883 251.297 95.883 437.202s154.46 336.611 344.997 336.611"/><path fill="url(#b)" d="M440.885 692.657c-84.256-.057-165.578-30.192-228.63-84.722S108.78 478.251 98.609 396.645a337 337 0 0 0-2.556 40.557c-.27 46.077 9.16 91.716 27.704 134.093s45.808 80.586 80.102 112.264 74.89 56.15 119.271 71.898 91.605 22.439 138.744 19.657 93.191-14.977 135.303-35.83c42.113-20.853 79.389-49.92 109.52-85.4s52.476-76.618 65.65-120.866 16.896-90.664 10.938-136.373c-10.157 81.633-50.593 156.815-113.674 211.351-63.082 54.535-144.444 84.651-228.726 84.661"/><path stroke="url(#c)" stroke-linecap="round" stroke-linejoin="round" stroke-width="4.916" d="M419.812 208.461s167.345-101.555 256.79-61.52c89.445 40.034 37.815 135.835-28.578 177.318"/><path stroke="url(#d)" stroke-linecap="round" stroke-linejoin="round" stroke-width="4.916" d="M454.163 189.554s121.611-80.471 227.511-68.642c99.59 11.105 166.436 153.901-66.847 227.17S91.103 519.324 42.979 640.554c-33.61 84.494 97.528 130.041 187.509 63.451"/><path fill="url(#e)" d="M217.828 354.76s21.856 30.337 88.538 28.487 67.342 2.414 77.156 12.07 12.619 28.165-12.371 63.291-52.373 39.712-76.744 68.883-44.579 39.833-88.538 21.888c-43.96-17.945-9.568-186.894-9.568-186.894z"/><path fill="url(#f)" d="M167.143 166.413s50.187 15.008 76.868-19.474c0 0 0 17.664-21.362 29.372 9.347-6.606 20.144-10.995 31.533-12.818a76 76 0 0 1 34.077 2.317c38.104 11.387 28.248 47.679 28.248 47.679-4.726-6.542-11.572-11.341-19.433-13.625a37.4 37.4 0 0 0-23.908 1.031c-28.867 9.617-35.96 44.702-61.857 48.283a48.9 48.9 0 0 0 20.19-3.827 47.8 47.8 0 0 0 16.677-11.744c16.289-17.422 30.433-12.916 30.433-12.916s-10.144-3.581-23.67 17.985c-13.526 21.567-39.547 33.597-68.744 30.901L112.75 208.46z"/><path fill="url(#g)" d="M242.853 225.323c-21.196 4.708-49.486-4.868-48.496-25.63a62.1 62.1 0 0 0-4.948-29.935 96.2 96.2 0 0 1-22.269-3.219l-16.165 12.473-15.959 36.212 76.372 33.838c13.774-1.971 22.228-12.755 31.465-23.739"/><path fill="url(#h)" d="m211.594 249.222 13.938 6.156 10.516-12.433a47.8 47.8 0 0 1-24.454 6.277"/><path fill="url(#i)" d="M76.09 288.605s-6.599-25.429 13.402-38.666 61.857-33.959 68.661-37.097c6.804-3.139 24.413 8.449 24.413 8.449s-30.846 52.95-106.476 67.314"/><path fill="url(#j)" d="M173.951 232.924c-17.237-.442-38.351-.563-56.413.644-6.722 3.661-13.444 7.403-19.3 10.904 11.011 1.891 23.176 5.391 25.155 12.07 2.351 7.565-26.02 16.899-48.33 23.015a45 45 0 0 0 1.03 9.214c38.314-6.866 72.945-26.629 97.858-55.847"/><path fill="url(#k)" d="M.006 450.636s-1.856-64.015 61.32-75.683c0 0-45.361 21.164-35.258 75.603 0 .08-11.3-19.555-26.062.08"/><path fill="url(#l)" d="M155.848 378.575s-88.084-23.216-129.364 12.071c37.907-9.792 77.974-8.066 114.848 4.949z"/><path fill="url(#m)" d="M54.64 542.458s-17.073-101.917 58.104-152.171c0 0-87.63 33.677-102.806 169.714 0 0 2.268-20.118 19.794-17.704s24.908.161 24.908.161"/><path fill="url(#n)" d="M150.522 370.367S76.789 381.512 39.18 462.909c0 0 27.67-53.513 125.858-83.489z"/><path fill="url(#o)" d="M245.538 247.689s12.371 1.892 11.753 10.784-7.093 32.188-11.176 36.815c-4.082 4.627-11.34 3.299-17.278-1.73-5.939-5.029 16.701-45.869 16.701-45.869"/><path fill="url(#p)" d="M181.453 219.125s25.237 9.898 41.238 14.243c16 4.346 25.485 8.53 25.155 17.986-.33 9.455-6.392 32.188-13.485 37.902s-22.021-.524-28.166-3.581-50.351-30.217-50.351-30.217z"/><path fill="url(#q)" d="m287.637 462.711 34.392 2.293s-12.371 10.784-21.815 63.854c-9.443 53.071-12.371 98.376-12.371 98.376l25.526 1.489s60.538-144.245 72.208-178.726c11.67-34.482 8.907-56.089-57.733-57.859l-66.641-1.851z"/><path fill="url(#r)" d="m327.891 392.257-20.042-.564-4.536 4.426-20.001 23.095 20.62 44.702 7.01.443c10.31-16.094 40.372-56.33 79.136-47.76-4.206-14.565-20.99-23.256-62.187-24.342"/><path fill="url(#s)" d="M213.497 364.658s-7.299 14.405 54.146 14.163 99.672-2.857 115.879 16.416c0 0-29.816-15.289-57.156 28.809-27.341 44.098-38.104 110.929-65.981 129.558-20.867 14.002-32.743 4.024-32.743 4.024s-61.404-135.715-67.548-178.284z"/><path fill="url(#t)" d="M194.359 505.596s17.815 42.57 33.486 51.864 38.887-7.323 27.835-23.095c-11.051-15.773-47.96-39.713-47.96-39.713z"/><path fill="url(#u)" d="M150.523 524.786s40.579 49.932 43.836 58.02c3.258 8.087 5.361 58.019 40.95 102.118a682 682 0 0 0 60.908 67.474l21.444-15.732s-66.764-112.659-85.61-220.41c0 0-52.908-9.013-81.528 8.53"/><path fill="url(#v)" d="M150.523 524.786s19.753 24.141 32.991 41.724c9.815-4.345 29.568-10.26 58.764-6.558a434 434 0 0 1-10.021-43.696c-.206 0-53.114-9.013-81.734 8.53"/><path fill="url(#w)" d="m176.052 575.61-1.031-66.348-22.392 13.519-4.371 43.615z"/><path fill="url(#x)" d="M140.212 373.95s-25.031 122.798 22.681 181.663c0 0 17.691 16.577 12.372 21.647-5.32 5.069-60.125 12.754-74.229-54.721s33.279-150.682 33.279-150.682z"/><path fill="url(#y)" d="M160.097 379.341s35.341 87.391 95.589 155.027a87.2 87.2 0 0 0-31.655-12.12 88 88 0 0 0-33.996.814c-38.557 8.329-27.258 32.39-27.258 32.39s-26.681-23.619-33.403-94.473c-5.361-56.733 3.423-81.799 3.423-81.799z"/><path fill="url(#z)" d="M217.828 339.592s2.021 7.081 5.237 16.657-17.609 19.675-33.361 23.136c-15.753 3.46-45.362 8.53-57.734 4.506-9.196-2.977-3.175-21.486-3.175-21.486z"/><path fill="url(#A)" d="M175.885 231.107s24.495 14.485 32.743 26.033c8.247 11.547 10.969 59.146 14.474 72.424 3.506 13.277-5.69 22.491-41.65 33.959-35.96 11.467-54.187 11.024-56.249 7.644S84.625 284.58 84.625 284.58s74.229-20.6 91.26-53.473"/><path fill="url(#B)" d="M215.023 298.584s-9.774-28.164-10.681-32.51 5.773-5.673 8.247 0 6.764 18.307 6.764 18.307z"/><path fill="url(#C)" d="M217.624 306.112s-6.145-18.629-6.516-20.439c-.371-1.811 6.598-18.589 7.382-20.802s6.35 2.374 5.031 6.88c-1.32 4.507-2.64 12.675-2.64 12.675l3.671 11.145z"/><path fill="url(#D)" d="M224.547 294.765s7.753-10.461 11.505-11.346 4.619 4.023 2.103 8.57-4.123 6.156-2.845 10.421 3.217 14.887-1.196 18.83z"/><path fill="url(#E)" d="M106.977 358.34s6.433-13.037 39.423-26.516 66.27-20.842 68.785-24.463 2.681-15.37 2.681-17.824 10.763-15.249 12.577-16.094 4.372 4.345 1.485 9.173-5.072 8.047-5.072 8.047a22.1 22.1 0 0 0 4.123 13.399c4.578 6.277 8.743 16.617-5.072 25.469s-63.506 38.264-85.775 44.259-33.155-15.45-33.155-15.45"/><path fill="url(#F)" d="m148.091 331.145-1.691.684c-32.99 13.478-39.423 26.515-39.423 26.515s8.247 16.376 25.237 16.617c1.031-10.381 4.454-30.619 15.877-43.816"/><path fill="url(#G)" d="M385.949 228.86c-1.526-2.534-1.484-5.311 0-6.156l116.622-61.761s.453-.242.824.402 0 .885 0 .885l-111.92 69.568c-1.526.925-4.124-.403-5.526-2.938"/><path fill="url(#H)" d="M246.109 294.039s11.258-23.417 10.764-37.661l16.289 7.725s22.433-9.173 51.052-22.129c29.815-13.479 35.176-17.462 42.31-24.785s20.62-19.675 25.816-20.118 38.969 1.811 40.825 2.253-3.34 6.88-11.299 6.961c-7.959.08-23.176-.322-25.609 0s-6.763 12.071-6.309 12.835 11.299-1.006 21.196-3.5c9.897-2.495 7.588 7.524-.825 12.07s-11.753 4.024-19.464 10.14c-7.712 6.115-16.825 2.695-21.32 6.075s-52.249 41.443-59.919 48.082a47.3 47.3 0 0 1-17.208 8.952 48 48 0 0 1-19.453 1.348 272 272 0 0 1-26.846-8.248"/><path fill="url(#I)" d="M270.275 292.842c-9.237-8.047-7.423-24.825-5.856-32.872l-7.546-3.581c.494 14.243-10.764 37.66-10.764 37.66a272 272 0 0 0 26.846 8.047 47.5 47.5 0 0 0 26.888-4.023c-8.083 1.327-21.321 1.931-29.568-5.231"/><path fill="url(#J)" d="M76.59 287.72a78.3 78.3 0 0 0 3.995 34.275c3.867 11.006 10.145 21.058 18.397 29.458 0 0 20.289-15.612 44.043-18.187 0 0 3.67-42.408-24.743-63.33z"/><path fill="url(#K)" d="M75.137 281.648s77.033-17.301 101.446-64.377a9.3 9.3 0 0 1 4.74.554 9.06 9.06 0 0 1 3.796 2.826s-16.908 51.743-109.982 72.142a10.6 10.6 0 0 1-1.59-5.572c0-1.964.55-3.891 1.59-5.573"/><path fill="url(#L)" d="M106.977 358.336c10.242-10.512 22.447-19.02 35.959-25.067 0 0-26.969-1.166-43.96 18.187a12.3 12.3 0 0 0 3.219 4.305 12.7 12.7 0 0 0 4.782 2.575"/><path fill="url(#M)" d="M143.188 132.538 260.964 35.65s12.866 33.275-19.464 68.964c-26.269 29.05-75.631 38.546-93.322 41.081a7.03 7.03 0 0 1-5.043-1.011 6.72 6.72 0 0 1-2.916-4.14 8.1 8.1 0 0 1 .35-4.403 8.3 8.3 0 0 1 2.619-3.603"/><path fill="url(#N)" d="M238.939 107.429c-26.764 26.958-73.651 35.931-90.724 38.385a7.1 7.1 0 0 1-3.656-.381 6.9 6.9 0 0 1-2.942-2.154l119.879-74.556v.724q.022.442 0 .885c-.206.724-.412 1.489-.66 2.253-.247.765 0 .322 0 .523s-.494 1.53-.783 2.294q-.127.456-.33.885l-.742 2.012-.33.724c-.33.885-.742 1.77-1.155 2.696q-.14.372-.33.724c-.33.684-.701 1.408-1.031 2.133l-.453.844-1.485 2.736-1.691 2.817-.536.805c-.495.764-.989 1.569-1.526 2.333l-.494.684a64 64 0 0 1-2.104 2.897l-.536.684-1.855 2.374c-.248.282-.454.563-.701.805a67 67 0 0 1-2.598 3.018l-2.475 2.615z"/><path fill="url(#O)" d="m235.891 56.326 25.073-20.64s12.867 33.234-19.464 68.923a103.3 103.3 0 0 1-18.805 16.094c11.85-19.342 16.51-42.076 13.196-64.377"/><path fill="#FFCA83" d="M140.219 139.015a8.2 8.2 0 0 1 .798-3.579 8.36 8.36 0 0 1 2.295-2.898l28-23.055 89.652-73.833s0 .523.495 1.57c0 .241 0 .482.206.804l.247.886v.24c0 .282.001.604.207.967.206.362 0 .2 0 .321v1.006z" opacity=".6"/><path fill="url(#P)" d="M92.133 177.036s-11.217-9.133-14.887 1.529c-3.67 10.663 8.247 40.517 43.341 44.259 42.31 4.627 59.3-17.623 58.847-32.55-.454-14.928-4.619-16.497-5.073-20.118-.453-3.621 2.598-37.54-19.547-49.087-22.144-11.548-80.579-8.41-62.681 55.967"/><path fill="url(#Q)" d="M95.886 184.719a36 36 0 0 1 0-9.013c.7-1.69 24.742-20.399 15.917-37.781 0 0 16.496 4.547 18.228 18.589 0 0 6.928-14.767 1.361-26.676 0 0 16.495 5.633 19.381 21.365a30.55 30.55 0 0 0 0-23.377s21.321 5.029 23.424 33.596c0 0 10.598-26.072-4.124-44.259-22.97-28.687-77.486-24.14-93.61 1.57 0 0-31.094 15.128-28.372 62.324 2.639 43.254 33.774 65.262 83.878 67.516 50.104 2.253 45.65 48.604 24.743 62.083 0 0 42.929-20.118 30.887-60.353-10.846-36.212-53.032-30.096-72.703-34.563-19.67-4.466-35.794-27.159-33.939-36.212 1.856-9.053 14.929 5.191 14.929 5.191"/><path fill="#fff" d="M92.421 203.997c2.528 0 4.578-2 4.578-4.466s-2.05-4.467-4.578-4.467-4.577 2-4.577 4.467 2.05 4.466 4.577 4.466"/><path fill="#fff" d="M92.42 213.247a5.7 5.7 0 0 1-3.115-.922 5.5 5.5 0 0 1-2.066-2.456 5.35 5.35 0 0 1-.319-3.162 5.44 5.44 0 0 1 1.535-2.802 5.65 5.65 0 0 1 2.872-1.497 5.74 5.74 0 0 1 3.24.311 5.6 5.6 0 0 1 2.517 2.016c.616.9.945 1.957.945 3.04 0 1.451-.59 2.843-1.642 3.869a5.68 5.68 0 0 1-3.966 1.603m0-8.932c-.7 0-1.386.202-1.97.583a3.5 3.5 0 0 0-1.306 1.553 3.4 3.4 0 0 0-.202 1.999c.137.671.475 1.288.971 1.772a3.6 3.6 0 0 0 1.816.947 3.63 3.63 0 0 0 2.05-.197 3.53 3.53 0 0 0 1.59-1.275 3.4 3.4 0 0 0 .598-1.922c0-.918-.373-1.798-1.038-2.447a3.6 3.6 0 0 0-2.508-1.013"/><path fill="url(#R)" d="m90.726 105.58-7.546 51.341s38.021-32.873 45.898-59.428c-13.323-1.069-26.671 1.746-38.352 8.087"/><path fill="url(#S)" d="M71.224 149.797 83.925 0s33.28 14.565 36.455 62.204c2.598 38.666-25.361 79.506-36 93.548a6.95 6.95 0 0 1-4.347 2.703 7.07 7.07 0 0 1-5.056-.973 8.1 8.1 0 0 1-3.003-3.319 7.87 7.87 0 0 1-.75-4.366"/><path fill="url(#T)" d="M120.539 65.872c.701 37.54-25.857 76.448-36.166 89.886a6.9 6.9 0 0 1-2.854 2.233 7.1 7.1 0 0 1-3.62.503l30.433-135.472.413.603.453.765c.413.683.825 1.367 1.196 2.052l.247.482c.413.684.784 1.449 1.155 2.173q.181.434.412.845l.908 1.931q.139.373.33.724l1.113 2.696c0 .242 0 .483.289.765.288.281.536 1.448.824 2.213l.289.885c.33 1.006.66 1.971.949 3.018q.453 1.529.866 3.138c0 .282 0 .604.206.925l.618 2.696a6 6 0 0 0 0 .805l.619 3.54v.805l.371 2.978v1.086c0 1.288.248 2.575.33 4.024s0 2.374 0 3.58z"/><path fill="url(#U)" d="M81.242 31.907 83.922 0s33.28 14.565 36.455 62.204c.512 8.17.013 16.37-1.484 24.423-5.704-21.932-19.006-41.265-37.65-54.72"/><path fill="#FFCA83" d="M73.739 156.516a8.35 8.35 0 0 1-2.03-3.084 8.2 8.2 0 0 1-.486-3.635l3.01-35.649L83.926 0s.577.241 1.525.764l.743.403.825.483h.206l1.03.764.29.201.865.564z" opacity=".6"/><path fill="url(#V)" d="M274.563 648.035a200 200 0 0 1 14.104-27.963s10.763 3.259 17.938-.483c7.176-3.742 10.475-3.098 15.258 9.254 4.784 12.352 11.3 18.388 23.3 26.193a19.4 19.4 0 0 1 6.94 8.332 18.9 18.9 0 0 1 1.308 10.66 3.4 3.4 0 0 1-.447 1.324 3.5 3.5 0 0 1-.951 1.04 3.58 3.58 0 0 1-2.726.613c-12.372-2.293-54.847-10.904-73.61-25.027a3.3 3.3 0 0 1-1.259-1.782 3.23 3.23 0 0 1 .145-2.161"/><path fill="url(#W)" d="M351.605 670.078c-12.619-2.294-55.836-11.105-74.971-25.469a5 5 0 0 1-.412-.443c-.66 1.489-1.237 2.857-1.65 4.024a3.23 3.23 0 0 0-.213 2.189c.187.732.627 1.38 1.244 1.834 18.764 14.123 61.197 22.733 73.61 25.027.473.085.96.075 1.429-.03.469-.106.91-.304 1.297-.584s.711-.633.951-1.04c.241-.407.393-.857.447-1.324a26.5 26.5 0 0 0 0-4.023 3.6 3.6 0 0 1-1.732-.161"/><path fill="url(#X)" d="M312.389 798.276s-17.897-22.009-17.897-47.519c0 0 11.134-7.644 12.825-14.685s4.578-8.249 7.835-5.996c3.258 2.254 12.124 10.341 19.506 2.374s12-20.962 28.289-23.537c16.289-2.576 20.619 8.409 20.619 8.409z"/><path fill="url(#Y)" d="M333.413 789.302c-8.247 14.847-22.887 13.037-24.124 1.932s18.763-28.769 31.506-46.472 27.423-38.747 40.949-30.257c25.486 16.053-40.165 59.95-48.331 74.797"/><path fill="url(#Z)" d="M333.413 789.302c-8.247 14.847-22.887 13.037-24.124 1.932s18.763-28.769 31.506-46.472 27.423-38.747 40.949-30.257c25.486 16.053-40.165 59.95-48.331 74.797"/><path fill="url(#aa)" d="M332.511 787.607c-6.68 12.07-18.763 10.702-19.753 1.609s21.609-31.182 32.042-45.667 22.475-31.746 33.527-24.785c20.866 13.157-39.135 56.692-45.816 68.843"/><path fill="url(#ab)" d="M154.528 156.921a13.2 13.2 0 0 1 4.944-1.726 13.4 13.4 0 0 1 5.241.318c6.104 1.449 5.073-2.977 1.361-4.788a13 13 0 0 0-6.866-1.465c-2.385.149-4.678.95-6.619 2.31-3.34 3.38-.618 6.639 1.939 5.351"/><path fill="url(#ac)" d="M139.519 154.507c3.216 2.414 2.474 6.237-3.588 5.03a32.67 32.67 0 0 0-19.671 3.621c-5.443 2.897-4.123-4.909.908-7.766 7.752-4.385 17.155-4.828 22.351-.885"/><path fill="#FFCA83" d="M168.798 186.162c4.71-.932 8.135-3.577 7.65-5.907s-4.695-3.463-9.405-2.531-8.135 3.577-7.65 5.907 4.695 3.464 9.405 2.531m-46.378 5.093c4.76-.641 8.349-3.07 8.016-5.426-.333-2.355-4.462-3.744-9.223-3.103-4.76.641-8.349 3.07-8.016 5.425s4.463 3.745 9.223 3.104" opacity=".6"/><path fill="url(#ad)" d="M165.367 164.963a7.6 7.6 0 0 0 2.804-2.494 1 1 0 0 0 .175-.799 1 1 0 0 0-.173-.382 1.04 1.04 0 0 0-1.775.175 4.75 4.75 0 0 1-1.77 1.613 4.9 4.9 0 0 1-2.354.559 1 1 0 0 0-.398.049.94.94 0 0 0-.566.531.9.9 0 0 0-.067.386.96.96 0 0 0 .601.929q.186.077.389.077a6.4 6.4 0 0 0 3.134-.644"/><path fill="url(#ae)" d="M167.514 168.466a6.87 6.87 0 0 0 2.762-2.494.98.98 0 0 0 .103-.759 1.006 1.006 0 0 0-1.835-.247 4.8 4.8 0 0 1-1.685 1.555 4.95 4.95 0 0 1-2.232.617 1.05 1.05 0 0 0-.741.266 1 1 0 0 0-.331.7 1 1 0 0 0 .287.698c.184.187.436.298.702.308a6.7 6.7 0 0 0 2.97-.644"/><path fill="url(#af)" d="M160.112 181.183c4.023-.262 6.996-4.68 6.642-9.868s-3.902-9.182-7.924-8.921-6.996 4.679-6.642 9.867 3.902 9.183 7.924 8.922"/><path fill="#fff" d="M161.661 169.629c1.275 0 2.309-1.008 2.309-2.253 0-1.244-1.034-2.253-2.309-2.253s-2.309 1.009-2.309 2.253 1.033 2.253 2.309 2.253"/><path fill="url(#ag)" d="M120.338 169.226a7.4 7.4 0 0 0 3.753.644q.203-.022.382-.121a.97.97 0 0 0 .472-.614 1 1 0 0 0-.373-1.029 1.05 1.05 0 0 0-.728-.207 4.8 4.8 0 0 1-2.282-.336 4.7 4.7 0 0 1-1.842-1.354 1 1 0 0 0-.677-.41 1 1 0 0 0-.767.209.96.96 0 0 0-.377 1.023 1 1 0 0 0 .171.345 6 6 0 0 0 2.268 1.85"/><path fill="url(#ah)" d="M118.771 173.017a7.4 7.4 0 0 0 3.753.644c.267-.04.507-.18.669-.391a1 1 0 0 0 .076-1.098.995.995 0 0 0-.993-.483 4.85 4.85 0 0 1-2.285-.359 4.7 4.7 0 0 1-1.838-1.371 1.03 1.03 0 0 0-.679-.392 1.05 1.05 0 0 0-.765.191 1 1 0 0 0-.402.662 1 1 0 0 0 .196.746 6.4 6.4 0 0 0 2.268 1.851"/><path fill="url(#ai)" d="M129.776 184.591c4.023-.262 6.996-4.679 6.642-9.868-.354-5.188-3.902-9.182-7.924-8.921s-6.996 4.679-6.642 9.868c.354 5.188 3.902 9.182 7.924 8.921"/><path fill="#fff" d="M131.395 173.059c1.276 0 2.31-1.009 2.31-2.253s-1.034-2.253-2.31-2.253c-1.275 0-2.309 1.009-2.309 2.253s1.034 2.253 2.309 2.253"/><path fill="url(#aj)" d="M152.212 188.426a.76.76 0 0 0 .66 0c.948-.765 4.123-3.34 3.01-5.191s-8.248-.885-8.495.805c-.454 2.575 3.588 4.023 4.825 4.386"/><path fill="url(#ak)" d="M132.959 196.797c.155-.254.403-.44.694-.522a1.22 1.22 0 0 1 .873.079 25.8 25.8 0 0 0 8.248 2.736 15.36 15.36 0 0 0 8.247-.724.98.98 0 0 1 .756-.009.94.94 0 0 1 .523.532.95.95 0 0 1-.008.665.98.98 0 0 1-.446.502 16.27 16.27 0 0 1-9.897 1.086 29.3 29.3 0 0 1-8.577-2.856 1.17 1.17 0 0 1-.495-.669 1.14 1.14 0 0 1 .082-.82"/><path fill="url(#al)" d="M325.34 636.733c1.513-.414 2.398-1.938 1.977-3.403s-1.989-2.319-3.502-1.905l-9.371 2.563c-1.513.414-2.398 1.938-1.977 3.404s1.989 2.318 3.502 1.904z"/><path fill="url(#am)" d="M331.1 734.977c-.389-1.486-1.929-2.385-3.441-2.008s-2.422 1.886-2.033 3.371l1.264 4.835c.389 1.485 1.93 2.384 3.441 2.008 1.512-.377 2.422-1.886 2.033-3.372z"/><path fill="url(#an)" d="M338.889 727.588c-.389-1.485-1.929-2.384-3.441-2.008-1.512.377-2.422 1.886-2.033 3.372l1.264 4.834c.389 1.486 1.93 2.385 3.441 2.008 1.512-.376 2.422-1.886 2.034-3.372z"/><path fill="url(#ao)" d="M345.733 719.459c-.389-1.485-1.93-2.384-3.441-2.008-1.512.377-2.422 1.886-2.034 3.372l1.265 4.834c.389 1.486 1.929 2.385 3.441 2.008s2.422-1.886 2.033-3.371z"/><path fill="url(#ap)" d="M331.23 644.641c1.514-.414 2.399-1.938 1.978-3.403s-1.989-2.319-3.503-1.905l-9.37 2.564c-1.514.413-2.399 1.937-1.978 3.403s1.989 2.318 3.503 1.904z"/><path fill="url(#aq)" d="M337.816 650.934c1.514-.414 2.399-1.938 1.978-3.403s-1.989-2.319-3.503-1.905l-9.37 2.563c-1.514.414-2.399 1.938-1.978 3.404s1.989 2.318 3.503 1.904z"/><path fill="url(#ar)" d="M707.73 274.49H476.096c-15.646 0-28.33 12.376-28.33 27.642v385.175c0 15.266 12.684 27.642 28.33 27.642H707.73c15.647 0 28.331-12.376 28.331-27.642V302.132c0-15.266-12.684-27.642-28.331-27.642"/><path fill="url(#as)" d="M679.156 274.49H504.678c-13.802 0-24.99 10.917-24.99 24.383v391.693c0 13.466 11.188 24.383 24.99 24.383h174.478c13.802 0 24.99-10.917 24.99-24.383V298.873c0-13.466-11.188-24.383-24.99-24.383"/><path fill="url(#at)" d="M705.838 217.592h-227.84c-7.744 0-14.021 6.125-14.021 13.68v94.231c0 7.556 6.277 13.681 14.021 13.681h227.84c7.743 0 14.021-6.125 14.021-13.681v-94.231c0-7.555-6.278-13.68-14.021-13.68"/><path fill="url(#au)" d="M737.799 240.408H446.04c-9.907 0-17.938 7.836-17.938 17.503v120.706c0 9.667 8.031 17.503 17.938 17.503h291.759c9.908 0 17.939-7.836 17.939-17.503V257.911c0-9.667-8.031-17.503-17.939-17.503"/><path fill="url(#av)" d="M627.235 270.789H479.686c-6.195 0-11.217 4.9-11.217 10.944s5.022 10.944 11.217 10.944h147.549c6.195 0 11.217-4.9 11.217-10.944s-5.022-10.944-11.217-10.944"/><path fill="url(#aw)" d="M704.146 292.677c6.195 0 11.217-4.9 11.217-10.944s-5.022-10.944-11.217-10.944c-6.194 0-11.216 4.9-11.216 10.944s5.022 10.944 11.216 10.944"/><path fill="url(#ax)" d="M627.235 307.326H479.686c-6.195 0-11.217 4.9-11.217 10.944s5.022 10.944 11.217 10.944h147.549c6.195 0 11.217-4.9 11.217-10.944s-5.022-10.944-11.217-10.944"/><path fill="url(#ay)" d="M704.146 329.214c6.195 0 11.217-4.9 11.217-10.944s-5.022-10.944-11.217-10.944c-6.194 0-11.216 4.9-11.216 10.944s5.022 10.944 11.216 10.944"/><path fill="url(#az)" d="M627.235 343.812H479.686c-6.195 0-11.217 4.9-11.217 10.945 0 6.044 5.022 10.944 11.217 10.944h147.549c6.195 0 11.217-4.9 11.217-10.944s-5.022-10.945-11.217-10.945"/><path fill="url(#aA)" d="M704.146 365.701c6.195 0 11.217-4.9 11.217-10.944s-5.022-10.945-11.217-10.945c-6.194 0-11.216 4.9-11.216 10.945 0 6.044 5.022 10.944 11.216 10.944"/><path fill="url(#aB)" d="M737.799 420.502H446.04c-9.907 0-17.938 7.836-17.938 17.502v120.707c0 9.666 8.031 17.502 17.938 17.502h291.759c9.908 0 17.939-7.836 17.939-17.502V438.004c0-9.666-8.031-17.502-17.939-17.502"/><path fill="url(#aC)" d="M627.235 450.881H479.686c-6.195 0-11.217 4.9-11.217 10.944s5.022 10.944 11.217 10.944h147.549c6.195 0 11.217-4.9 11.217-10.944s-5.022-10.944-11.217-10.944"/><path fill="url(#aD)" d="M704.146 472.769c6.195 0 11.217-4.9 11.217-10.944s-5.022-10.944-11.217-10.944c-6.194 0-11.216 4.9-11.216 10.944s5.022 10.944 11.216 10.944"/><path fill="url(#aE)" d="M627.235 487.375H479.686c-6.195 0-11.217 4.9-11.217 10.944s5.022 10.944 11.217 10.944h147.549c6.195 0 11.217-4.9 11.217-10.944s-5.022-10.944-11.217-10.944"/><path fill="url(#aF)" d="M704.146 509.3c6.195 0 11.217-4.9 11.217-10.944s-5.022-10.944-11.217-10.944c-6.194 0-11.216 4.9-11.216 10.944s5.022 10.944 11.216 10.944"/><path fill="url(#aG)" d="M627.235 523.914H479.686c-6.195 0-11.217 4.9-11.217 10.944s5.022 10.944 11.217 10.944h147.549c6.195 0 11.217-4.9 11.217-10.944s-5.022-10.944-11.217-10.944"/><path fill="url(#aH)" d="M704.146 545.802c6.195 0 11.217-4.9 11.217-10.944s-5.022-10.944-11.217-10.944c-6.194 0-11.216 4.9-11.216 10.944s5.022 10.944 11.216 10.944"/><path fill="url(#aI)" d="M737.799 600.594H446.04c-9.907 0-17.938 7.836-17.938 17.502v120.707c0 9.666 8.031 17.502 17.938 17.502h291.759c9.908 0 17.939-7.836 17.939-17.502V618.096c0-9.666-8.031-17.502-17.939-17.502"/><path fill="url(#aJ)" d="M627.235 630.975H479.686c-6.195 0-11.217 4.899-11.217 10.944 0 6.044 5.022 10.944 11.217 10.944h147.549c6.195 0 11.217-4.9 11.217-10.944s-5.022-10.944-11.217-10.944"/><path fill="url(#aK)" d="M704.146 652.863c6.195 0 11.217-4.9 11.217-10.944s-5.022-10.944-11.217-10.944c-6.194 0-11.216 4.899-11.216 10.944 0 6.044 5.022 10.944 11.216 10.944"/><path fill="url(#aL)" d="M627.235 667.467H479.686c-6.195 0-11.217 4.9-11.217 10.944s5.022 10.944 11.217 10.944h147.549c6.195 0 11.217-4.9 11.217-10.944s-5.022-10.944-11.217-10.944"/><path fill="url(#aM)" d="M704.146 689.355c6.195 0 11.217-4.9 11.217-10.944s-5.022-10.944-11.217-10.944c-6.194 0-11.216 4.9-11.216 10.944s5.022 10.944 11.216 10.944"/><path fill="url(#aN)" d="M627.235 704.006H479.686c-6.195 0-11.217 4.9-11.217 10.944s5.022 10.944 11.217 10.944h147.549c6.195 0 11.217-4.9 11.217-10.944s-5.022-10.944-11.217-10.944"/><path fill="url(#aO)" d="M704.146 725.894c6.195 0 11.217-4.9 11.217-10.944s-5.022-10.944-11.217-10.944c-6.194 0-11.216 4.9-11.216 10.944s5.022 10.944 11.216 10.944"/><path fill="url(#aP)" d="M40.33 291.102s.907 25.066-30.392 30.78c0 0 30.474 1.488 30.474 29.372 0 0 3.176-30.137 29.444-30.137 0 .121-29.526-2.132-29.526-30.015"/><path fill="#fff" d="M362.451 292.676s.783 26.797-32.537 33.234c0 0 32.578 1.61 32.578 31.424 0 0 3.382-32.188 31.506-32.188 0-.242-31.547-2.656-31.547-32.47M423.6 139.018s.453 14.605-17.733 18.025c0 0 17.774.885 17.774 17.14 0 0 1.856-17.583 17.196-17.583 0 0-17.237-1.327-17.237-17.582"/><defs><linearGradient id="a" x1="440.88" x2="440.88" y1="830.947" y2="-3.377" gradientUnits="userSpaceOnUse"><stop stop-color="#fff"/><stop offset=".55" stop-color="#94DBF9"/><stop offset="1" stop-color="#08B3C9"/></linearGradient><linearGradient id="b" x1="435.153" x2="442.18" y1="987.101" y2="276.94" gradientUnits="userSpaceOnUse"><stop stop-color="#fff"/><stop offset=".55" stop-color="#94DBF9"/><stop offset="1" stop-color="#08B3C9"/></linearGradient><linearGradient id="c" x1="572.105" x2="572.105" y1="326.27" y2="135.554" gradientUnits="userSpaceOnUse"><stop stop-color="#03192E"/><stop offset=".5" stop-color="#223C6A"/><stop offset="1" stop-color="#4A74A2"/></linearGradient><linearGradient id="d" x1="405.337" x2="405.337" y1="737.924" y2="117.733" gradientUnits="userSpaceOnUse"><stop stop-color="#03192E"/><stop offset=".5" stop-color="#223C6A"/><stop offset="1" stop-color="#4A74A2"/></linearGradient><linearGradient id="e" x1="275.808" x2="340.647" y1="395.921" y2="755.714" gradientUnits="userSpaceOnUse"><stop stop-color="#03192E"/><stop offset=".5" stop-color="#223C6A"/><stop offset="1" stop-color="#4A74A2"/></linearGradient><linearGradient id="f" x1="93.409" x2="522.27" y1="196.188" y2="240.882" gradientUnits="userSpaceOnUse"><stop stop-color="#44262A"/><stop offset=".11" stop-color="#4A282B"/><stop offset=".25" stop-color="#5B302C"/><stop offset=".41" stop-color="#763B2E"/><stop offset=".5" stop-color="#894330"/><stop offset="1" stop-color="#EE7D61"/></linearGradient><linearGradient id="g" x1="222.11" x2="479.853" y1="228.22" y2="389.821" gradientUnits="userSpaceOnUse"><stop stop-color="#44262A"/><stop offset=".11" stop-color="#4A282B"/><stop offset=".25" stop-color="#5B302C"/><stop offset=".41" stop-color="#763B2E"/><stop offset=".5" stop-color="#894330"/><stop offset="1" stop-color="#EE7D61"/></linearGradient><linearGradient id="h" x1="214.439" x2="472.141" y1="240.491" y2="402.091" gradientUnits="userSpaceOnUse"><stop stop-color="#44262A"/><stop offset=".11" stop-color="#4A282B"/><stop offset=".25" stop-color="#5B302C"/><stop offset=".41" stop-color="#763B2E"/><stop offset=".5" stop-color="#894330"/><stop offset="1" stop-color="#EE7D61"/></linearGradient><linearGradient id="i" x1="137.163" x2="126.169" y1="114.023" y2="301.191" gradientUnits="userSpaceOnUse"><stop stop-color="#FF2A64"/><stop offset="1" stop-color="#FFAF48"/></linearGradient><linearGradient id="j" x1="123.435" x2="126.065" y1="213.008" y2="324.584" gradientUnits="userSpaceOnUse"><stop stop-color="#FF2A64"/><stop offset="1" stop-color="#FFAF48"/></linearGradient><linearGradient id="k" x1="40.048" x2="20.69" y1="367.027" y2="456.551" gradientUnits="userSpaceOnUse"><stop stop-color="#03192E"/><stop offset=".5" stop-color="#223C6A"/><stop offset="1" stop-color="#4A74A2"/></linearGradient><linearGradient id="l" x1="140.343" x2="47.186" y1="383.202" y2="383.498" gradientUnits="userSpaceOnUse"><stop stop-color="#03192E"/><stop offset=".5" stop-color="#223C6A"/><stop offset="1" stop-color="#4A74A2"/></linearGradient><linearGradient id="m" x1="57.444" x2="65.021" y1="391.414" y2="563.558" gradientUnits="userSpaceOnUse"><stop stop-color="#03192E"/><stop offset=".5" stop-color="#223C6A"/><stop offset="1" stop-color="#4A74A2"/></linearGradient><linearGradient id="n" x1="74.768" x2="106.234" y1="362.521" y2="433.837" gradientUnits="userSpaceOnUse"><stop stop-color="#03192E"/><stop offset=".5" stop-color="#223C6A"/><stop offset="1" stop-color="#4A74A2"/></linearGradient><linearGradient id="o" x1="241.043" x2="252.9" y1="244.994" y2="480.723" gradientUnits="userSpaceOnUse"><stop stop-color="#03192E"/><stop offset=".5" stop-color="#223C6A"/><stop offset="1" stop-color="#4A74A2"/></linearGradient><linearGradient id="p" x1="197.082" x2="318.955" y1="263.304" y2="155.523" gradientUnits="userSpaceOnUse"><stop stop-color="#386E9F"/><stop offset="1" stop-color="#fff"/></linearGradient><linearGradient id="q" x1="337.576" x2="320.695" y1="-6.918" y2="634.539" gradientUnits="userSpaceOnUse"><stop stop-color="#FF2A64"/><stop offset="1" stop-color="#FFAF48"/></linearGradient><linearGradient id="r" x1="258.982" x2="420.716" y1="371.616" y2="498.418" gradientUnits="userSpaceOnUse"><stop stop-color="#FF2A64"/><stop offset="1" stop-color="#FFAF48"/></linearGradient><linearGradient id="s" x1="160.094" x2="383.522" y1="462.833" y2="462.833" gradientUnits="userSpaceOnUse"><stop stop-color="#03192E"/><stop offset=".5" stop-color="#223C6A"/><stop offset="1" stop-color="#4A74A2"/></linearGradient><linearGradient id="t" x1="223.762" x2="245.899" y1="509.379" y2="632.211" gradientUnits="userSpaceOnUse"><stop stop-color="#03192E"/><stop offset=".5" stop-color="#223C6A"/><stop offset="1" stop-color="#4A74A2"/></linearGradient><linearGradient id="u" x1="843.859" x2="251.588" y1="-848.654" y2="660.816" gradientUnits="userSpaceOnUse"><stop stop-color="#FF2A64"/><stop offset="1" stop-color="#FFAF48"/></linearGradient><linearGradient id="v" x1="119.1" x2="303.304" y1="475.296" y2="619.651" gradientUnits="userSpaceOnUse"><stop stop-color="#FF2A64"/><stop offset="1" stop-color="#FFAF48"/></linearGradient><linearGradient id="w" x1="159.846" x2="180.528" y1="528.454" y2="643.106" gradientUnits="userSpaceOnUse"><stop stop-color="#03192E"/><stop offset=".5" stop-color="#223C6A"/><stop offset="1" stop-color="#4A74A2"/></linearGradient><linearGradient id="x" x1="98.315" x2="176.048" y1="476.148" y2="476.148" gradientUnits="userSpaceOnUse"><stop stop-color="#03192E"/><stop offset=".5" stop-color="#223C6A"/><stop offset="1" stop-color="#4A74A2"/></linearGradient><linearGradient id="y" x1="127.642" x2="255.686" y1="467.456" y2="467.456" gradientUnits="userSpaceOnUse"><stop stop-color="#03192E"/><stop offset=".5" stop-color="#223C6A"/><stop offset="1" stop-color="#4A74A2"/></linearGradient><linearGradient id="z" x1="156.754" x2="188.007" y1="292.959" y2="426.006" gradientUnits="userSpaceOnUse"><stop stop-color="#03192E"/><stop offset=".5" stop-color="#223C6A"/><stop offset="1" stop-color="#4A74A2"/></linearGradient><linearGradient id="A" x1="117.492" x2="198.474" y1="237.022" y2="369.741" gradientUnits="userSpaceOnUse"><stop stop-color="#386E9F"/><stop offset="1" stop-color="#fff"/></linearGradient><linearGradient id="B" x1="214.115" x2="206.95" y1="284.301" y2="255.448" gradientUnits="userSpaceOnUse"><stop stop-color="#FF2A64"/><stop offset="1" stop-color="#FFAF48"/></linearGradient><linearGradient id="C" x1="217.83" x2="217.83" y1="305.268" y2="251.473" gradientUnits="userSpaceOnUse"><stop stop-color="#FF2A64"/><stop offset="1" stop-color="#FFAF48"/></linearGradient><linearGradient id="D" x1="221.248" x2="251.831" y1="321.24" y2="269.514" gradientUnits="userSpaceOnUse"><stop stop-color="#FF2A64"/><stop offset="1" stop-color="#FFAF48"/></linearGradient><linearGradient id="E" x1="171.143" x2="171.143" y1="160.743" y2="370.772" gradientUnits="userSpaceOnUse"><stop stop-color="#FF2A64"/><stop offset="1" stop-color="#FFAF48"/></linearGradient><linearGradient id="F" x1="122.4" x2="130.607" y1="287.328" y2="383.928" gradientUnits="userSpaceOnUse"><stop stop-color="#FF2A64"/><stop offset="1" stop-color="#FFAF48"/></linearGradient><linearGradient id="G" x1="434.067" x2="552.617" y1="185.665" y2="241.425" gradientUnits="userSpaceOnUse"><stop stop-color="#44262A"/><stop offset=".11" stop-color="#4A282B"/><stop offset=".25" stop-color="#5B302C"/><stop offset=".41" stop-color="#763B2E"/><stop offset=".5" stop-color="#894330"/><stop offset="1" stop-color="#EE7D61"/></linearGradient><linearGradient id="H" x1="432.34" x2="330.817" y1="-9.418" y2="281.421" gradientUnits="userSpaceOnUse"><stop stop-color="#FF2A64"/><stop offset="1" stop-color="#FFAF48"/></linearGradient><linearGradient id="I" x1="264.708" x2="274.054" y1="203.238" y2="313.482" gradientUnits="userSpaceOnUse"><stop stop-color="#FF2A64"/><stop offset="1" stop-color="#FFAF48"/></linearGradient><linearGradient id="J" x1="141.581" x2="68.443" y1="276.776" y2="358.196" gradientUnits="userSpaceOnUse"><stop stop-color="#386E9F"/><stop offset="1" stop-color="#fff"/></linearGradient><linearGradient id="K" x1="22.971" x2="178.461" y1="324.258" y2="225.921" gradientUnits="userSpaceOnUse"><stop stop-color="#03192E"/><stop offset=".5" stop-color="#223C6A"/><stop offset="1" stop-color="#4A74A2"/></linearGradient><linearGradient id="L" x1="126.73" x2="92.424" y1="316.25" y2="478.547" gradientUnits="userSpaceOnUse"><stop stop-color="#03192E"/><stop offset=".5" stop-color="#223C6A"/><stop offset="1" stop-color="#4A74A2"/></linearGradient><linearGradient id="M" x1="-79.365" x2="230.695" y1="281.747" y2="204.592" gradientUnits="userSpaceOnUse"><stop stop-color="#FF2A64"/><stop offset="1" stop-color="#FFAF48"/></linearGradient><linearGradient id="N" x1="25.991" x2="219.187" y1="138.119" y2="62.703" gradientUnits="userSpaceOnUse"><stop stop-color="#FF2A64"/><stop offset="1" stop-color="#FFAF48"/></linearGradient><linearGradient id="O" x1="162.976" x2="281.859" y1="184.315" y2="220.216" gradientUnits="userSpaceOnUse"><stop stop-color="#FF2A64"/><stop offset="1" stop-color="#FFAF48"/></linearGradient><linearGradient id="P" x1="128.01" x2="128.01" y1="-38.827" y2="211.88" gradientUnits="userSpaceOnUse"><stop stop-color="#FF2A64"/><stop offset="1" stop-color="#FFAF48"/></linearGradient><linearGradient id="Q" x1="119.02" x2="119.02" y1="59.345" y2="402.715" gradientUnits="userSpaceOnUse"><stop stop-color="#44262A"/><stop offset=".11" stop-color="#4A282B"/><stop offset=".25" stop-color="#5B302C"/><stop offset=".41" stop-color="#763B2E"/><stop offset=".5" stop-color="#894330"/><stop offset="1" stop-color="#EE7D61"/></linearGradient><linearGradient id="R" x1="107.098" x2="219.951" y1="128.394" y2="266.962" gradientUnits="userSpaceOnUse"><stop stop-color="#44262A"/><stop offset=".11" stop-color="#4A282B"/><stop offset=".25" stop-color="#5B302C"/><stop offset=".41" stop-color="#763B2E"/><stop offset=".5" stop-color="#894330"/><stop offset="1" stop-color="#EE7D61"/></linearGradient><linearGradient id="S" x1="17.833" x2="177.533" y1="265.053" y2="-7.669" gradientUnits="userSpaceOnUse"><stop stop-color="#FF2A64"/><stop offset="1" stop-color="#FFAF48"/></linearGradient><linearGradient id="T" x1="26.923" x2="108.667" y1="317.058" y2="131.093" gradientUnits="userSpaceOnUse"><stop stop-color="#FF2A64"/><stop offset="1" stop-color="#FFAF48"/></linearGradient><linearGradient id="U" x1="117.509" x2="225.775" y1="26.894" y2="-34.48" gradientUnits="userSpaceOnUse"><stop stop-color="#FF2A64"/><stop offset="1" stop-color="#FFAF48"/></linearGradient><linearGradient id="V" x1="322.07" x2="311.545" y1="568.128" y2="693.546" gradientUnits="userSpaceOnUse"><stop stop-color="#386E9F"/><stop offset="1" stop-color="#fff"/></linearGradient><linearGradient id="W" x1="280.923" x2="325.173" y1="588.802" y2="689.202" gradientUnits="userSpaceOnUse"><stop stop-color="#03192E"/><stop offset=".5" stop-color="#223C6A"/><stop offset="1" stop-color="#4A74A2"/></linearGradient><linearGradient id="X" x1="330.081" x2="344.101" y1="833.079" y2="669.743" gradientUnits="userSpaceOnUse"><stop stop-color="#386E9F"/><stop offset="1" stop-color="#fff"/></linearGradient><linearGradient id="Y" x1="348.836" x2="348.248" y1="869.814" y2="700.704" gradientUnits="userSpaceOnUse"><stop stop-color="#03192E"/><stop offset=".5" stop-color="#223C6A"/><stop offset="1" stop-color="#4A74A2"/></linearGradient><linearGradient id="Z" x1="348.836" x2="348.248" y1="869.814" y2="700.704" gradientUnits="userSpaceOnUse"><stop stop-color="#03192E"/><stop offset=".5" stop-color="#223C6A"/><stop offset="1" stop-color="#4A74A2"/></linearGradient><linearGradient id="aa" x1="289.046" x2="437.892" y1="706.331" y2="842.224" gradientUnits="userSpaceOnUse"><stop stop-color="#03192E"/><stop offset=".5" stop-color="#223C6A"/><stop offset="1" stop-color="#4A74A2"/></linearGradient><linearGradient id="ab" x1="125.714" x2="200.461" y1="89.799" y2="248.317" gradientUnits="userSpaceOnUse"><stop stop-color="#FF2A64"/><stop offset="1" stop-color="#FFAF48"/></linearGradient><linearGradient id="ac" x1="96.975" x2="171.777" y1="103.348" y2="261.885" gradientUnits="userSpaceOnUse"><stop stop-color="#FF2A64"/><stop offset="1" stop-color="#FFAF48"/></linearGradient><linearGradient id="ad" x1="165.986" x2="162.849" y1="181.48" y2="149.141" gradientUnits="userSpaceOnUse"><stop stop-color="#03192E"/><stop offset=".5" stop-color="#223C6A"/><stop offset="1" stop-color="#4A74A2"/></linearGradient><linearGradient id="ae" x1="167.734" x2="164.615" y1="181.295" y2="148.993" gradientUnits="userSpaceOnUse"><stop stop-color="#03192E"/><stop offset=".5" stop-color="#223C6A"/><stop offset="1" stop-color="#4A74A2"/></linearGradient><linearGradient id="af" x1="159.851" x2="156.729" y1="179.488" y2="147.084" gradientUnits="userSpaceOnUse"><stop stop-color="#03192E"/><stop offset=".5" stop-color="#223C6A"/><stop offset="1" stop-color="#4A74A2"/></linearGradient><linearGradient id="ag" x1="118.853" x2="142.517" y1="148.683" y2="125.813" gradientUnits="userSpaceOnUse"><stop stop-color="#03192E"/><stop offset=".5" stop-color="#223C6A"/><stop offset="1" stop-color="#4A74A2"/></linearGradient><linearGradient id="ah" x1="120.035" x2="143.698" y1="149.909" y2="127.04" gradientUnits="userSpaceOnUse"><stop stop-color="#03192E"/><stop offset=".5" stop-color="#223C6A"/><stop offset="1" stop-color="#4A74A2"/></linearGradient><linearGradient id="ai" x1="129.562" x2="126.44" y1="182.936" y2="150.532" gradientUnits="userSpaceOnUse"><stop stop-color="#03192E"/><stop offset=".5" stop-color="#223C6A"/><stop offset="1" stop-color="#4A74A2"/></linearGradient><linearGradient id="aj" x1="107.153" x2="181.9" y1="98.547" y2="257.066" gradientUnits="userSpaceOnUse"><stop stop-color="#FF2A64"/><stop offset="1" stop-color="#FFAF48"/></linearGradient><linearGradient id="ak" x1="94.128" x2="168.912" y1="104.708" y2="263.21" gradientUnits="userSpaceOnUse"><stop stop-color="#FF2A64"/><stop offset="1" stop-color="#FFAF48"/></linearGradient><linearGradient id="al" x1="317.652" x2="316.955" y1="630.538" y2="672.666" gradientUnits="userSpaceOnUse"><stop stop-color="#03192E"/><stop offset=".5" stop-color="#223C6A"/><stop offset="1" stop-color="#4A74A2"/></linearGradient><linearGradient id="am" x1="324.013" x2="362.701" y1="736.975" y2="743.078" gradientUnits="userSpaceOnUse"><stop stop-color="#03192E"/><stop offset=".5" stop-color="#223C6A"/><stop offset="1" stop-color="#4A74A2"/></linearGradient><linearGradient id="an" x1="331.873" x2="370.561" y1="729.582" y2="735.685" gradientUnits="userSpaceOnUse"><stop stop-color="#03192E"/><stop offset=".5" stop-color="#223C6A"/><stop offset="1" stop-color="#4A74A2"/></linearGradient><linearGradient id="ao" x1="338.784" x2="377.472" y1="721.474" y2="727.578" gradientUnits="userSpaceOnUse"><stop stop-color="#03192E"/><stop offset=".5" stop-color="#223C6A"/><stop offset="1" stop-color="#4A74A2"/></linearGradient><linearGradient id="ap" x1="323.533" x2="322.836" y1="638.456" y2="680.618" gradientUnits="userSpaceOnUse"><stop stop-color="#03192E"/><stop offset=".5" stop-color="#223C6A"/><stop offset="1" stop-color="#4A74A2"/></linearGradient><linearGradient id="aq" x1="330.026" x2="329.328" y1="644.837" y2="686.999" gradientUnits="userSpaceOnUse"><stop stop-color="#03192E"/><stop offset=".5" stop-color="#223C6A"/><stop offset="1" stop-color="#4A74A2"/></linearGradient><linearGradient id="ar" x1="591.934" x2="591.934" y1="526.123" y2="-266.476" gradientUnits="userSpaceOnUse"><stop stop-color="#03192E"/><stop offset=".5" stop-color="#223C6A"/><stop offset="1" stop-color="#4A74A2"/></linearGradient><linearGradient id="as" x1="591.938" x2="591.938" y1="152.738" y2="1025.24" gradientUnits="userSpaceOnUse"><stop stop-color="#03192E"/><stop offset=".5" stop-color="#223C6A"/><stop offset="1" stop-color="#4A74A2"/></linearGradient><linearGradient id="at" x1="591.938" x2="591.938" y1="489.503" y2="187.576" gradientUnits="userSpaceOnUse"><stop stop-color="#03192E"/><stop offset=".5" stop-color="#223C6A"/><stop offset="1" stop-color="#4A74A2"/></linearGradient><linearGradient id="au" x1="846.09" x2="423.02" y1="70.292" y2="503.863" gradientUnits="userSpaceOnUse"><stop stop-color="#386E9F"/><stop offset="1" stop-color="#fff"/></linearGradient><linearGradient id="av" x1="748.516" x2="477.25" y1="91.419" y2="369.404" gradientUnits="userSpaceOnUse"><stop stop-color="#FF2A64"/><stop offset="1" stop-color="#FFAF48"/></linearGradient><linearGradient id="aw" x1="823.861" x2="552.636" y1="164.93" y2="442.954" gradientUnits="userSpaceOnUse"><stop stop-color="#FF2A64"/><stop offset="1" stop-color="#FFAF48"/></linearGradient><linearGradient id="ax" x1="553.46" x2="553.46" y1="259.808" y2="582.256" gradientUnits="userSpaceOnUse"><stop stop-color="#03192E"/><stop offset=".5" stop-color="#223C6A"/><stop offset="1" stop-color="#4A74A2"/></linearGradient><linearGradient id="ay" x1="704.146" x2="704.146" y1="259.808" y2="582.256" gradientUnits="userSpaceOnUse"><stop stop-color="#03192E"/><stop offset=".5" stop-color="#223C6A"/><stop offset="1" stop-color="#4A74A2"/></linearGradient><linearGradient id="az" x1="553.46" x2="553.46" y1="259.801" y2="582.248" gradientUnits="userSpaceOnUse"><stop stop-color="#03192E"/><stop offset=".5" stop-color="#223C6A"/><stop offset="1" stop-color="#4A74A2"/></linearGradient><linearGradient id="aA" x1="704.146" x2="704.146" y1="259.801" y2="582.248" gradientUnits="userSpaceOnUse"><stop stop-color="#03192E"/><stop offset=".5" stop-color="#223C6A"/><stop offset="1" stop-color="#4A74A2"/></linearGradient><linearGradient id="aB" x1="878.009" x2="577.621" y1="777.472" y2="469.599" gradientUnits="userSpaceOnUse"><stop stop-color="#03192E"/><stop offset=".5" stop-color="#223C6A"/><stop offset="1" stop-color="#4A74A2"/></linearGradient><linearGradient id="aC" x1="51.964" x2="590.905" y1="954.549" y2="398.306" gradientUnits="userSpaceOnUse"><stop stop-color="#FF2A64"/><stop offset="1" stop-color="#FFAF48"/></linearGradient><linearGradient id="aD" x1="412.47" x2="697.855" y1="746.411" y2="453.956" gradientUnits="userSpaceOnUse"><stop stop-color="#FF2A64"/><stop offset="1" stop-color="#FFAF48"/></linearGradient><linearGradient id="aE" x1="553.46" x2="553.46" y1="439.897" y2="762.345" gradientUnits="userSpaceOnUse"><stop stop-color="#03192E"/><stop offset=".5" stop-color="#223C6A"/><stop offset="1" stop-color="#4A74A2"/></linearGradient><linearGradient id="aF" x1="704.146" x2="704.146" y1="439.894" y2="762.342" gradientUnits="userSpaceOnUse"><stop stop-color="#03192E"/><stop offset=".5" stop-color="#223C6A"/><stop offset="1" stop-color="#4A74A2"/></linearGradient><linearGradient id="aG" x1="553.46" x2="553.46" y1="439.902" y2="762.349" gradientUnits="userSpaceOnUse"><stop stop-color="#03192E"/><stop offset=".5" stop-color="#223C6A"/><stop offset="1" stop-color="#4A74A2"/></linearGradient><linearGradient id="aH" x1="704.146" x2="704.146" y1="439.902" y2="762.349" gradientUnits="userSpaceOnUse"><stop stop-color="#03192E"/><stop offset=".5" stop-color="#223C6A"/><stop offset="1" stop-color="#4A74A2"/></linearGradient><linearGradient id="aI" x1="878.009" x2="577.621" y1="957.563" y2="649.691" gradientUnits="userSpaceOnUse"><stop stop-color="#03192E"/><stop offset=".5" stop-color="#223C6A"/><stop offset="1" stop-color="#4A74A2"/></linearGradient><linearGradient id="aJ" x1="144.255" x2="683.193" y1="1043.99" y2="487.708" gradientUnits="userSpaceOnUse"><stop stop-color="#FF2A64"/><stop offset="1" stop-color="#FFAF48"/></linearGradient><linearGradient id="aK" x1="504.76" x2="790.104" y1="836.457" y2="544.003" gradientUnits="userSpaceOnUse"><stop stop-color="#FF2A64"/><stop offset="1" stop-color="#FFAF48"/></linearGradient><linearGradient id="aL" x1="553.46" x2="553.46" y1="619.989" y2="942.436" gradientUnits="userSpaceOnUse"><stop stop-color="#03192E"/><stop offset=".5" stop-color="#223C6A"/><stop offset="1" stop-color="#4A74A2"/></linearGradient><linearGradient id="aM" x1="704.146" x2="704.146" y1="619.989" y2="942.436" gradientUnits="userSpaceOnUse"><stop stop-color="#03192E"/><stop offset=".5" stop-color="#223C6A"/><stop offset="1" stop-color="#4A74A2"/></linearGradient><linearGradient id="aN" x1="553.46" x2="553.46" y1="619.994" y2="942.442" gradientUnits="userSpaceOnUse"><stop stop-color="#03192E"/><stop offset=".5" stop-color="#223C6A"/><stop offset="1" stop-color="#4A74A2"/></linearGradient><linearGradient id="aO" x1="704.146" x2="704.146" y1="619.994" y2="942.442" gradientUnits="userSpaceOnUse"><stop stop-color="#03192E"/><stop offset=".5" stop-color="#223C6A"/><stop offset="1" stop-color="#4A74A2"/></linearGradient><linearGradient id="aP" x1="39.876" x2="39.876" y1="412.452" y2="197.031" gradientUnits="userSpaceOnUse"><stop stop-color="#fff"/><stop offset=".55" stop-color="#94DBF9"/><stop offset="1" stop-color="#08B3C9"/></linearGradient></defs></svg>