<svg xmlns="http://www.w3.org/2000/svg" width="225" height="220" fill="none"><path fill="url(#a)" d="M200.305 97.867H34.063a4.416 4.416 0 0 1-4.422-4.422V8.1a4.416 4.416 0 0 1 4.422-4.422h166.242a4.416 4.416 0 0 1 4.421 4.422V93.46c0 2.43-1.991 4.406-4.421 4.406"/><path fill="url(#b)" d="M204.726 14.769v-6.67a4.416 4.416 0 0 0-4.421-4.422H34.063a4.416 4.416 0 0 0-4.422 4.422v6.67z"/><path fill="url(#c)" d="M131.9 83.994h-91a4.11 4.11 0 0 1-4.117-4.118V27.32a4.11 4.11 0 0 1 4.118-4.118h90.984a4.11 4.11 0 0 1 4.118 4.118v52.542a4.11 4.11 0 0 1-4.103 4.133"/><path fill="url(#d)" d="M51.035 78.342h-9.42a.85.85 0 0 1-.851-.851c0-.471.38-.851.85-.851h9.421a.85.85 0 1 1 0 1.702m16.881-.851a.85.85 0 0 0-.85-.851H57.66a.85.85 0 0 0-.851.85c0 .472.38.852.85.852h9.406a.85.85 0 0 0 .851-.851m16.03 0a.85.85 0 0 0-.85-.851h-9.421a.85.85 0 0 0-.851.85c0 .472.38.852.85.852h9.421a.85.85 0 0 0 .851-.851m16.03 0a.85.85 0 0 0-.85-.851H89.72a.85.85 0 0 0-.85.85c0 .472.379.852.85.852h9.405a.85.85 0 0 0 .851-.851m16.03 0a.85.85 0 0 0-.851-.851h-9.42a.85.85 0 0 0-.851.85c0 .472.38.852.851.852h9.405c.486 0 .866-.38.866-.851m16.03 0a.85.85 0 0 0-.851-.851h-9.405a.85.85 0 0 0-.851.85c0 .472.38.852.851.852h9.405a.85.85 0 0 0 .851-.851"/><path fill="url(#e)" d="M114.304 36.573h-6.092a2.21 2.21 0 0 0-2.219 2.218v31.467c0 1.231.988 2.219 2.219 2.219h6.092a2.21 2.21 0 0 0 2.219-2.219V38.791a2.22 2.22 0 0 0-2.219-2.218"/><path fill="url(#f)" d="M80.998 33.336h-22.7a.817.817 0 0 1-.82-.82c0-.456.364-.821.82-.821h22.7c.456 0 .82.364.82.82s-.364.82-.82.82m.82 3.008a.817.817 0 0 0-.82-.82h-22.7a.817.817 0 0 0-.82.82c0 .456.364.82.82.82h22.7c.456-.014.82-.38.82-.82m-6.806 3.814a.817.817 0 0 0-.82-.82H58.297a.817.817 0 0 0-.82.82c0 .456.364.82.82.82h15.893c.456 0 .82-.364.82-.82"/><path fill="url(#g)" d="M48.984 42.438a6.093 6.093 0 1 0 0-12.186 6.093 6.093 0 0 0 0 12.186"/><path fill="url(#h)" d="m48.907 36.877-1.368.304-.896-2.811a.98.98 0 0 1 .714-1.246.976.976 0 0 1 1.17.82z"/><path fill="url(#i)" d="m49.09 36.892 1.367.289.881-2.826a.966.966 0 0 0-.73-1.231.97.97 0 0 0-1.17.835z"/><path fill="url(#j)" d="M48.998 39.596a2.294 2.294 0 1 0 0-4.589 2.294 2.294 0 0 0 0 4.589"/><path fill="url(#k)" d="M131.991 45.279v1.823c-9.163-4.984-13.143-.38-17.367 4.498-2.827 3.266-5.744 6.64-10.226 6.64-5.516 0-8.25-2.599-10.895-5.106-2.522-2.4-4.907-4.665-9.785-4.665-4.604 0-7.597 3.997-10.514 7.856-2.69 3.57-5.227 6.944-8.89 6.944-3.92 0-6.168-2.097-8.158-3.95-1.87-1.733-3.495-3.252-6.276-3.252-4.254 0-7.567 2.476-9.086 3.86v-2.113c1.945-1.52 5.12-3.358 9.086-3.358 3.419 0 5.425 1.869 7.37 3.677 1.944 1.808 3.783 3.51 7.065 3.51 2.872 0 5.166-3.054 7.597-6.29 2.993-3.981 6.397-8.51 11.791-8.51 5.515 0 8.25 2.599 10.894 5.106 2.538 2.4 4.908 4.665 9.786 4.665 3.737 0 6.29-2.963 8.995-6.078 4.163-4.771 8.843-10.165 18.613-5.257"/><path fill="#FC0" d="M37.497 11.35a1.884 1.884 0 1 0 0-3.768 1.884 1.884 0 0 0 0 3.768M44.41 11.35a1.884 1.884 0 1 0 0-3.768 1.884 1.884 0 0 0 0 3.768M51.338 11.35a1.884 1.884 0 1 0 0-3.768 1.884 1.884 0 0 0 0 3.768"/><path fill="url(#l)" d="M190.746 83.994h-44.655a2.814 2.814 0 0 1-2.811-2.811V25.435a2.814 2.814 0 0 1 2.811-2.811h44.655a2.815 2.815 0 0 1 2.812 2.81v55.749a2.815 2.815 0 0 1-2.812 2.811"/><path fill="url(#m)" d="M168.411 66.004c10.397 0 18.826-8.428 18.826-18.826s-8.429-18.825-18.826-18.825-18.826 8.428-18.826 18.825c0 10.398 8.429 18.826 18.826 18.826"/><path fill="url(#n)" d="M168.412 62.19c8.291 0 15.013-6.721 15.013-15.012 0-8.29-6.722-15.012-15.013-15.012S153.4 38.887 153.4 47.178c0 8.29 6.721 15.012 15.012 15.012"/><path fill="url(#o)" d="M181.174 47.193v.03a12.74 12.74 0 0 1-3.494 8.737 12.7 12.7 0 0 1-9.268 3.981 12.7 12.7 0 0 1-9.147-3.875 12.7 12.7 0 0 1-3.617-8.858v-.03c0-7.05 5.713-12.764 12.764-12.764 7.049 0 12.762 5.729 12.762 12.779"/><path fill="url(#p)" d="M181.174 47.194v.03h-25.526v-.03c0-7.05 5.713-12.764 12.764-12.764 7.049-.015 12.762 5.713 12.762 12.764"/><path fill="url(#q)" d="M181.174 47.224v-.03c0-3.693-1.564-7.02-4.071-9.345l-8.57 9.375z"/><path fill="url(#r)" d="M168.412 54.654a7.476 7.476 0 1 0 0-14.952 7.476 7.476 0 0 0 0 14.952"/><path fill="url(#s)" d="M168.412 52.815a5.637 5.637 0 1 0 0-11.275 5.637 5.637 0 0 0 0 11.275"/><path fill="url(#t)" d="M170.751 49.898c-2.066 1.261-4.177.73-5.151-.896-.987-1.626-.486-3.723 1.597-4.984 1.519-.927 5.864-1.763 8.249-2.02.989-.107 1.642.987 1.095 1.807-1.338 1.99-4.271 5.166-5.79 6.093"/><path fill="url(#u)" d="M168.533 48.789a1.565 1.565 0 1 0 .001-3.13 1.565 1.565 0 0 0-.001 3.13"/><path fill="url(#v)" d="M172.97 57.024h-9.01a.513.513 0 0 1-.518-.517c0-.288.228-.516.518-.516h9.01c.289 0 .517.228.517.516a.52.52 0 0 1-.517.517"/><path fill="url(#w)" d="M152.261 77.05a2.644 2.644 0 1 0-.002-5.288 2.644 2.644 0 0 0 .002 5.288"/><path fill="url(#x)" d="M186.752 73.556h-27.563a.46.46 0 0 1-.456-.456v-.881c0-.259.213-.456.456-.456h27.563c.258 0 .455.212.455.456v.88c.016.259-.197.457-.455.457"/><path fill="url(#y)" d="M180.902 77.05h-21.713a.457.457 0 0 1-.456-.455v-.882c0-.258.213-.455.456-.455h21.713c.258 0 .456.212.456.455v.882a.45.45 0 0 1-.456.455"/><path fill="url(#z)" d="M60.776 97.867h-1.292v22.199h1.292z"/><path fill="url(#A)" d="M169.84 97.867h-1.291v22.199h1.291z"/><path fill="url(#B)" d="M169.187 105.631a7.765 7.765 0 1 0 0-15.53 7.765 7.765 0 0 0 0 15.53"/><path fill="url(#C)" d="M169.187 101.574a3.707 3.707 0 1 0 0-7.415 3.707 3.707 0 0 0 0 7.415"/><path fill="url(#D)" d="M60.122 105.631a7.764 7.764 0 1 0 0-15.528 7.764 7.764 0 0 0 0 15.528"/><path fill="url(#E)" d="M60.122 101.574a3.707 3.707 0 1 0 0-7.414 3.707 3.707 0 0 0 0 7.414"/><path fill="url(#F)" d="M126.187 149.392h-24.751v6.275h24.751z"/><path fill="url(#G)" d="M126.187 173.642h-24.751v6.275h24.751z"/><path fill="url(#H)" d="M126.187 199.594h-24.751v6.275h24.751z"/><path fill="url(#I)" d="M108.82 112.803H8.082v11.305H108.82z"/><path fill="url(#J)" d="M8.082 119.808v12.702l9.329 5.637h82.065l9.344-5.637v-12.702z"/><path fill="url(#K)" d="M90.906 131.628h-64.91a3.093 3.093 0 0 1-3.1-3.1 3.093 3.093 0 0 1 3.1-3.099h64.91c1.717 0 3.1 1.383 3.1 3.099-.015 1.703-1.398 3.1-3.1 3.1"/><path fill="url(#L)" d="M17.411 138.147h82.065l2.34 6.945H15.071z"/><path fill="url(#M)" d="M102.652 159.967H14.235v5.378h88.417z"/><path fill="url(#N)" d="M106.739 159.967H10.163a2.076 2.076 0 0 1-2.081-2.083v-10.711c0-1.156.926-2.081 2.081-2.081h96.576c1.155 0 2.081.925 2.081 2.081v10.711c0 1.14-.942 2.083-2.081 2.083"/><path fill="url(#O)" d="M87.807 155.879H29.08c-.607 0-1.109-.501-1.109-1.11v-4.511c0-.609.502-1.11 1.11-1.11h58.726c.607 0 1.109.501 1.109 1.11v4.511c0 .624-.502 1.11-1.11 1.11m-63.71 0h.243a1.09 1.09 0 0 0 1.094-1.095v-4.526a1.09 1.09 0 0 0-1.094-1.095h-.243a1.09 1.09 0 0 0-1.094 1.095v4.526a1.09 1.09 0 0 0 1.094 1.095m-4.392 0h.244a1.09 1.09 0 0 0 1.093-1.095v-4.526a1.09 1.09 0 0 0-1.094-1.095h-.243a1.09 1.09 0 0 0-1.094 1.095v4.526a1.1 1.1 0 0 0 1.094 1.095m-4.376 0h.243a1.09 1.09 0 0 0 1.094-1.095v-4.526a1.09 1.09 0 0 0-1.094-1.095h-.243a1.09 1.09 0 0 0-1.094 1.095v4.526a1.09 1.09 0 0 0 1.094 1.095m85.985 0h.244a1.09 1.09 0 0 0 1.094-1.095v-4.526a1.09 1.09 0 0 0-1.094-1.095h-.244a1.09 1.09 0 0 0-1.094 1.095v4.526a1.09 1.09 0 0 0 1.094 1.095m-4.39 0h.242a1.09 1.09 0 0 0 1.094-1.095v-4.526a1.09 1.09 0 0 0-1.094-1.095h-.243a1.09 1.09 0 0 0-1.094 1.095v4.526c.015.609.502 1.095 1.094 1.095m-4.377 0h.243a1.09 1.09 0 0 0 1.094-1.095v-4.526a1.09 1.09 0 0 0-1.094-1.095h-.243a1.09 1.09 0 0 0-1.094 1.095v4.526a1.09 1.09 0 0 0 1.094 1.095"/><path fill="url(#P)" d="M14.235 192.604h88.417v-5.38H14.235z"/><path fill="url(#Q)" d="M8.082 212.873H108.82v7.111H8.082z"/><path fill="url(#R)" d="M106.739 187.224H10.163a2.074 2.074 0 0 1-2.081-2.081v-17.717c0-1.154.926-2.081 2.081-2.081h96.576c1.155 0 2.081.927 2.081 2.081v17.717a2.083 2.083 0 0 1-2.081 2.081"/><path fill="url(#S)" d="M87.685 182.88H29.202c-.684 0-1.23-.547-1.23-1.231v-10.711c0-.685.546-1.232 1.23-1.232h58.483c.684 0 1.23.547 1.23 1.232v10.711c0 .684-.546 1.231-1.23 1.231m-63.467 0a1.22 1.22 0 0 0 1.216-1.215v-10.744a1.22 1.22 0 0 0-1.216-1.215c-.669 0-1.215.547-1.215 1.215v10.744c0 .668.546 1.215 1.215 1.215m-4.376 0c.669 0 1.216-.547 1.216-1.215v-10.744c0-.668-.547-1.215-1.216-1.215s-1.215.547-1.215 1.215v10.744c-.016.668.531 1.215 1.215 1.215m-4.391 0c.668 0 1.215-.547 1.215-1.215v-10.744c0-.668-.547-1.215-1.215-1.215-.669 0-1.216.547-1.216 1.215v10.744c0 .668.547 1.215 1.216 1.215m85.985 0a1.22 1.22 0 0 0 1.216-1.215v-10.744a1.22 1.22 0 0 0-1.216-1.215 1.22 1.22 0 0 0-1.216 1.215v10.744a1.22 1.22 0 0 0 1.216 1.215m-4.376 0a1.22 1.22 0 0 0 1.216-1.215v-10.744a1.22 1.22 0 0 0-1.216-1.215c-.669 0-1.216.547-1.216 1.215v10.744a1.21 1.21 0 0 0 1.216 1.215m-4.391 0c.668 0 1.215-.547 1.215-1.215v-10.744c0-.668-.547-1.215-1.215-1.215-.669 0-1.216.547-1.216 1.215v10.744c0 .668.547 1.215 1.216 1.215"/><path fill="url(#T)" d="M79.267 178.565H37.62a2.276 2.276 0 0 1-2.28-2.28 2.276 2.276 0 0 1 2.28-2.279h41.647a2.276 2.276 0 0 1 2.28 2.279 2.276 2.276 0 0 1-2.28 2.28"/><path fill="url(#U)" d="M59.196 191.388c8.45 0 15.3-6.851 15.3-15.301s-6.85-15.3-15.3-15.3-15.301 6.851-15.301 15.3 6.85 15.301 15.3 15.301"/><path fill="url(#V)" d="M59.196 186.298c5.639 0 10.21-4.571 10.21-10.211 0-5.639-4.571-10.21-10.21-10.21s-10.211 4.571-10.211 10.21 4.571 10.211 10.21 10.211"/><path fill="url(#W)" fill-rule="evenodd" d="m60.183 171.195 3.328 1.808-3.085-4.118c-.486.668-.593 1.566-.243 2.31" clip-rule="evenodd"/><path fill="url(#X)" fill-rule="evenodd" d="M58.679 177.91c.425 0 .76.35.76.76 0 .425-.35.759-.76.759a.76.76 0 0 1-.76-.759c-.015-.41.334-.76.76-.76" clip-rule="evenodd"/><path fill="url(#Y)" fill-rule="evenodd" d="m56.354 169.492 9.33 5.061a.455.455 0 0 1 0 .82 7 7 0 0 1-2.28.882l-1.945 3.981s-.608 1.397-2.31.865c.715-.714 1.566-1.352 1.566-2.43a2.063 2.063 0 0 0-2.052-2.052 2.063 2.063 0 0 0-2.05 2.052c0 1.428 1.412 2.02 2.187 3.008.35.501.304 1.169-.106 1.611-.957-.958-2.841-2.568-3.616-3.632a3 3 0 0 1-.654-1.868 3.52 3.52 0 0 1 2.492-3.191 3.8 3.8 0 0 1 1.307-.152 4.1 4.1 0 0 1 1.747.531c.836.487 1.231.35 1.793-.121.334-.274.714-1.171.137-1.382a3.6 3.6 0 0 0-.562-.137c-1.064-.214-2.918-.396-3.586-.791-1.079-.623-1.808-1.853-1.398-3.055" clip-rule="evenodd"/><path fill="url(#Z)" fill-rule="evenodd" d="M60.7 178.671c.425-2.265-1.87-4.437-3.647-4.103l.121-.015c-.106.015-.182.046-.273.061a3.52 3.52 0 0 0-2.492 3.19c.015.685.243 1.338.669 1.87.76 1.063 2.643 2.673 3.616 3.631.425-.44.471-1.125.106-1.611-.79-.988-2.203-1.58-2.203-3.008 0-1.125.927-2.052 2.051-2.052a2.02 2.02 0 0 1 2.052 2.037" clip-rule="evenodd"/><path fill="url(#aa)" fill-rule="evenodd" d="m56.354 169.492 7.096 3.86.197.106c.168.138.335.395.122.881-.334.715-1.686 1.429-3.252.883.487.136.82-.016 1.246-.38.335-.274.714-1.17.137-1.384a4 4 0 0 0-.562-.135c-1.064-.214-2.917-.395-3.586-.791-1.079-.608-1.808-1.838-1.398-3.04" clip-rule="evenodd"/><path fill="url(#ab)" fill-rule="evenodd" d="M56.354 169.492c.73 2.705 5.181 2.918 7.415 4.042z" clip-rule="evenodd"/><path fill="url(#ac)" fill-rule="evenodd" d="M58.8 181.679c-.774-.988-2.188-1.58-2.188-3.008 0-1.034.775-1.9 1.793-2.022a2.987 2.987 0 0 0-2.963 2.964c0 .197.016.395.061.592.638.729 1.58 1.58 2.355 2.309.304.29.593.547.82.791.183-.229.305-.516.335-.791a1.16 1.16 0 0 0-.213-.835" clip-rule="evenodd"/><path fill="url(#ad)" fill-rule="evenodd" d="M60.685 178.914c.015-.076.015-.167.015-.243.426-2.265-1.884-4.437-3.646-4.103a3.7 3.7 0 0 1 1.154-.106c2.325.076 2.963 2.552 2.477 4.452" clip-rule="evenodd"/><path fill="url(#ae)" fill-rule="evenodd" d="M53.847 173.884c.426 0 .76.349.76.759v.761h-.76a.763.763 0 0 1-.76-.761c0-.41.35-.744.76-.759" clip-rule="evenodd"/><path fill="url(#af)" d="M108.82 212.873H8.082v-17.838a2.44 2.44 0 0 1 2.43-2.431h95.877a2.44 2.44 0 0 1 2.431 2.431z"/><path fill="url(#ag)" d="M87.807 206.097H29.08c-.607 0-1.109-.501-1.109-1.109v-4.514c0-.608.502-1.109 1.11-1.109h58.726c.607 0 1.109.501 1.109 1.109v4.514c0 .623-.502 1.109-1.11 1.109m-63.71 0h.243a1.09 1.09 0 0 0 1.094-1.095v-4.528a1.09 1.09 0 0 0-1.094-1.094h-.243a1.09 1.09 0 0 0-1.094 1.094v4.528a1.09 1.09 0 0 0 1.094 1.095m-4.392 0h.244a1.09 1.09 0 0 0 1.093-1.095v-4.528a1.09 1.09 0 0 0-1.094-1.094h-.243a1.09 1.09 0 0 0-1.094 1.094v4.528a1.1 1.1 0 0 0 1.094 1.095m-4.376 0h.243a1.09 1.09 0 0 0 1.094-1.095v-4.528a1.09 1.09 0 0 0-1.094-1.094h-.243a1.09 1.09 0 0 0-1.094 1.094v4.528a1.09 1.09 0 0 0 1.094 1.095m85.985 0h.244a1.09 1.09 0 0 0 1.094-1.095v-4.528a1.09 1.09 0 0 0-1.094-1.094h-.244a1.09 1.09 0 0 0-1.094 1.094v4.528a1.09 1.09 0 0 0 1.094 1.095m-4.39 0h.242a1.09 1.09 0 0 0 1.094-1.095v-4.528a1.09 1.09 0 0 0-1.094-1.094h-.243a1.09 1.09 0 0 0-1.094 1.094v4.528c.015.609.502 1.095 1.094 1.095m-4.377 0h.243a1.09 1.09 0 0 0 1.094-1.095v-4.528a1.09 1.09 0 0 0-1.094-1.094h-.243a1.09 1.09 0 0 0-1.094 1.094v4.528a1.09 1.09 0 0 0 1.094 1.095"/><path fill="url(#ah)" d="M217.869 112.803H117.131v11.305h100.738z"/><path fill="url(#ai)" d="M117.131 119.808v12.702l9.33 5.637h82.08l9.328-5.637v-12.702z"/><path fill="url(#aj)" d="M199.956 131.628h-64.91a3.093 3.093 0 0 1-3.1-3.1 3.094 3.094 0 0 1 3.1-3.099h64.91c1.718 0 3.1 1.383 3.1 3.099 0 1.703-1.382 3.1-3.1 3.1"/><path fill="url(#ak)" d="M126.462 138.147h82.079l2.341 6.945h-86.745z"/><path fill="url(#al)" d="M211.716 159.967h-88.415v5.378h88.415z"/><path fill="url(#am)" d="M215.788 159.967h-96.575a2.076 2.076 0 0 1-2.082-2.083v-10.711c0-1.156.927-2.081 2.082-2.081h96.575c1.156 0 2.081.925 2.081 2.081v10.711c0 1.14-.925 2.083-2.081 2.083"/><path fill="url(#an)" d="M196.872 155.879h-58.726c-.608 0-1.11-.501-1.11-1.11v-4.511c0-.609.502-1.11 1.11-1.11h58.726c.607 0 1.11.501 1.11 1.11v4.511c0 .624-.503 1.11-1.11 1.11m-63.725 0h.243a1.09 1.09 0 0 0 1.094-1.095v-4.526a1.09 1.09 0 0 0-1.094-1.095h-.243a1.09 1.09 0 0 0-1.094 1.095v4.526c.015.609.501 1.095 1.094 1.095m-4.376 0h.243a1.09 1.09 0 0 0 1.094-1.095v-4.526a1.09 1.09 0 0 0-1.094-1.095h-.243a1.09 1.09 0 0 0-1.094 1.095v4.526a1.09 1.09 0 0 0 1.094 1.095m-4.376 0h.243a1.09 1.09 0 0 0 1.094-1.095v-4.526a1.09 1.09 0 0 0-1.094-1.095h-.243a1.09 1.09 0 0 0-1.094 1.095v4.526a1.09 1.09 0 0 0 1.094 1.095m85.969 0h.243a1.09 1.09 0 0 0 1.094-1.095v-4.526a1.09 1.09 0 0 0-1.094-1.095h-.243a1.09 1.09 0 0 0-1.093 1.095v4.526c.015.609.501 1.095 1.093 1.095m-4.376 0h.243a1.09 1.09 0 0 0 1.095-1.095v-4.526a1.09 1.09 0 0 0-1.095-1.095h-.243a1.09 1.09 0 0 0-1.093 1.095v4.526a1.09 1.09 0 0 0 1.093 1.095m-4.376 0h.243a1.09 1.09 0 0 0 1.095-1.095v-4.526a1.09 1.09 0 0 0-1.095-1.095h-.243a1.09 1.09 0 0 0-1.093 1.095v4.526a1.09 1.09 0 0 0 1.093 1.095"/><path fill="url(#ao)" d="M123.301 192.604h88.415v-5.38h-88.415z"/><path fill="url(#ap)" d="M117.131 212.873h100.738v7.111H117.131z"/><path fill="url(#aq)" d="M215.788 187.224h-96.575a2.074 2.074 0 0 1-2.082-2.081v-17.717c0-1.154.927-2.081 2.082-2.081h96.575c1.156 0 2.081.927 2.081 2.081v17.717a2.07 2.07 0 0 1-2.081 2.081"/><path fill="url(#ar)" d="M196.75 182.88h-58.483a1.226 1.226 0 0 1-1.231-1.231v-10.711c0-.685.547-1.232 1.231-1.232h58.483c.685 0 1.232.547 1.232 1.232v10.711c0 .684-.562 1.231-1.232 1.231m-63.467 0a1.22 1.22 0 0 0 1.216-1.215v-10.744a1.22 1.22 0 0 0-1.216-1.215c-.668 0-1.215.547-1.215 1.215v10.744a1.21 1.21 0 0 0 1.215 1.215m-4.391 0a1.22 1.22 0 0 0 1.216-1.215v-10.744a1.22 1.22 0 0 0-1.216-1.215c-.668 0-1.215.547-1.215 1.215v10.744c0 .668.547 1.215 1.215 1.215m-4.376 0a1.22 1.22 0 0 0 1.216-1.215v-10.744a1.22 1.22 0 0 0-1.216-1.215c-.668 0-1.215.547-1.215 1.215v10.744c0 .668.547 1.215 1.215 1.215m85.985 0c.668 0 1.215-.547 1.215-1.215v-10.744c0-.668-.547-1.215-1.215-1.215s-1.215.547-1.215 1.215v10.744c0 .668.531 1.215 1.215 1.215m-4.391 0a1.22 1.22 0 0 0 1.216-1.215v-10.744a1.22 1.22 0 0 0-1.216-1.215c-.669 0-1.215.547-1.215 1.215v10.744c0 .668.546 1.215 1.215 1.215m-4.376 0a1.22 1.22 0 0 0 1.216-1.215v-10.744a1.22 1.22 0 0 0-1.216-1.215c-.669 0-1.215.547-1.215 1.215v10.744c0 .668.546 1.215 1.215 1.215"/><path fill="url(#as)" d="M188.332 178.565h-41.648a2.276 2.276 0 0 1-2.279-2.28 2.276 2.276 0 0 1 2.279-2.279h41.648a2.276 2.276 0 0 1 2.28 2.279 2.276 2.276 0 0 1-2.28 2.28"/><path fill="url(#at)" d="M168.245 191.388c8.451 0 15.302-6.851 15.302-15.301s-6.851-15.3-15.302-15.3-15.3 6.851-15.3 15.3 6.849 15.301 15.3 15.301"/><path fill="url(#au)" d="M168.245 186.298c5.64 0 10.212-4.571 10.212-10.211 0-5.639-4.572-10.21-10.212-10.21s-10.21 4.571-10.21 10.21 4.571 10.211 10.21 10.211"/><path fill="url(#av)" fill-rule="evenodd" d="m169.233 171.195 3.328 1.808-3.085-4.118a2.34 2.34 0 0 0-.243 2.31" clip-rule="evenodd"/><path fill="url(#aw)" fill-rule="evenodd" d="M167.729 177.91c.425 0 .759.35.759.76a.76.76 0 0 1-.759.759.75.75 0 0 1-.76-.759c0-.41.349-.76.76-.76" clip-rule="evenodd"/><path fill="url(#ax)" fill-rule="evenodd" d="m165.42 169.492 9.329 5.061a.456.456 0 0 1 0 .82 7 7 0 0 1-2.28.882l-1.944 3.981s-.608 1.397-2.309.865c.714-.714 1.565-1.352 1.565-2.43a2.063 2.063 0 0 0-2.051-2.052 2.063 2.063 0 0 0-2.052 2.052c0 1.428 1.413 2.02 2.189 3.008a1.284 1.284 0 0 1-.108 1.611c-.957-.958-2.841-2.568-3.615-3.632a3 3 0 0 1-.655-1.868 3.52 3.52 0 0 1 2.493-3.191 3.8 3.8 0 0 1 1.306-.152 4.1 4.1 0 0 1 1.748.531c.836.487 1.231.35 1.793-.121.334-.274.714-1.171.136-1.382a3.6 3.6 0 0 0-.562-.137c-1.063-.214-2.917-.396-3.586-.791-1.093-.623-1.823-1.853-1.397-3.055" clip-rule="evenodd"/><path fill="url(#ay)" fill-rule="evenodd" d="M169.764 178.671c.426-2.265-1.868-4.437-3.645-4.103l.12-.015c-.106.015-.182.046-.272.061a3.52 3.52 0 0 0-2.493 3.19c.016.685.243 1.338.669 1.87.759 1.063 2.644 2.673 3.616 3.631.426-.44.471-1.125.107-1.611-.79-.988-2.204-1.58-2.204-3.008 0-1.125.926-2.052 2.052-2.052a2.03 2.03 0 0 1 2.05 2.037" clip-rule="evenodd"/><path fill="url(#az)" fill-rule="evenodd" d="m165.42 169.492 7.095 3.86.197.106c.168.138.335.395.122.881-.334.715-1.686 1.429-3.251.883.486.136.82-.016 1.246-.38.334-.274.714-1.17.136-1.384a4 4 0 0 0-.562-.135c-1.064-.214-2.917-.395-3.586-.791-1.093-.608-1.824-1.838-1.397-3.04" clip-rule="evenodd"/><path fill="url(#aA)" fill-rule="evenodd" d="M165.42 169.492c.729 2.705 5.181 2.918 7.414 4.042z" clip-rule="evenodd"/><path fill="url(#aB)" fill-rule="evenodd" d="M167.85 181.679c-.775-.988-2.189-1.58-2.189-3.008 0-1.034.775-1.9 1.794-2.022a2.99 2.99 0 0 0-2.963 2.964c0 .197.015.395.061.592.638.729 1.579 1.58 2.355 2.309.304.29.593.547.82.791.183-.229.304-.516.335-.791.06-.304-.031-.592-.213-.835" clip-rule="evenodd"/><path fill="url(#aC)" fill-rule="evenodd" d="M169.75 178.914c.016-.076.016-.167.016-.243.425-2.265-1.885-4.437-3.647-4.103.38-.091.759-.136 1.154-.106 2.326.076 2.964 2.552 2.477 4.452" clip-rule="evenodd"/><path fill="url(#aD)" fill-rule="evenodd" d="M162.912 173.884c.425 0 .761.349.761.759v.761h-.761a.763.763 0 0 1-.759-.761c0-.41.349-.744.759-.759" clip-rule="evenodd"/><path fill="url(#aE)" d="M217.869 212.873H117.131v-17.838a2.44 2.44 0 0 1 2.431-2.431h95.877a2.437 2.437 0 0 1 2.43 2.431z"/><path fill="url(#aF)" d="M196.872 206.097h-58.726c-.608 0-1.11-.501-1.11-1.109v-4.514c0-.608.502-1.109 1.11-1.109h58.726c.607 0 1.11.501 1.11 1.109v4.514c0 .623-.503 1.109-1.11 1.109m-63.725 0h.243a1.09 1.09 0 0 0 1.094-1.095v-4.528a1.09 1.09 0 0 0-1.094-1.094h-.243a1.09 1.09 0 0 0-1.094 1.094v4.528c.015.609.501 1.095 1.094 1.095m-4.376 0h.243a1.09 1.09 0 0 0 1.094-1.095v-4.528a1.09 1.09 0 0 0-1.094-1.094h-.243a1.09 1.09 0 0 0-1.094 1.094v4.528a1.09 1.09 0 0 0 1.094 1.095m-4.376 0h.243a1.09 1.09 0 0 0 1.094-1.095v-4.528a1.09 1.09 0 0 0-1.094-1.094h-.243a1.09 1.09 0 0 0-1.094 1.094v4.528a1.09 1.09 0 0 0 1.094 1.095m85.969 0h.243a1.09 1.09 0 0 0 1.094-1.095v-4.528a1.09 1.09 0 0 0-1.094-1.094h-.243c-.607 0-1.093.486-1.093 1.094v4.528c.015.609.501 1.095 1.093 1.095m-4.376 0h.243a1.09 1.09 0 0 0 1.095-1.095v-4.528a1.09 1.09 0 0 0-1.095-1.094h-.243c-.607 0-1.093.486-1.093 1.094v4.528a1.09 1.09 0 0 0 1.093 1.095m-4.376 0h.243a1.09 1.09 0 0 0 1.095-1.095v-4.528a1.09 1.09 0 0 0-1.095-1.094h-.243c-.607 0-1.093.486-1.093 1.094v4.528a1.09 1.09 0 0 0 1.093 1.095"/><path fill="url(#aG)" d="M150.087 219.983H84.144l2.324-15.649h61.294z"/><path fill="url(#aH)" d="M153.429 203.422c-20.633 15.955-51.964 15.955-72.613 0 0 0 2.492-.957 3.935-5.439.547-1.732.942-3.966.988-6.884v-.501c0-1.534.015-3.541.045-5.865.016-1.003.03-2.066.046-3.161.091-6.107.228-13.599.365-20.269.182-9.39.364-17.139.364-17.139l.912-13.083 6.944-.486 7.156-.501 15.559-1.063 15.56 1.063 5.226.349 8.95.608.836 13.098s.182 7.764.364 17.139a3817 3817 0 0 1 .41 23.43c.031 2.325.046 4.33.046 5.866v.5c.031 2.751.395 4.909.897 6.58 1.397 4.771 4.01 5.758 4.01 5.758"/><path fill="url(#aI)" d="M148.416 181.572H85.83c.091-6.107.228-13.599.365-20.269h61.856c.137 6.67.274 14.177.365 20.269"/><path fill="url(#aJ)" d="M137.917 130.46c-4.878 12.929-20.786 17.822-20.786 17.822-12.004-1.352-20.148-13.341-22.716-17.687l7.157-.501 15.559-1.063 15.559 1.063z"/><path fill="url(#aK)" d="M185.765 196.266V220h-14.421v-23.734c0-12.718-10.347-23.065-23.064-23.065h-21.682v-14.419h21.682c20.664 0 37.485 16.804 37.485 37.484"/><path fill="url(#aL)" d="M178.896 199.016v20.967h-7.552v-23.732c0-12.718-10.347-23.065-23.064-23.065h-21.682v-7.309h19.16c18.279 0 33.138 14.86 33.138 33.139"/><path fill="url(#aM)" d="M119.015 175.449h17.899a3.92 3.92 0 0 0 3.92-3.92V157.55a3.92 3.92 0 0 0-3.92-3.92h-17.899z"/><path fill="url(#aN)" d="M119.41 177.606h2.568c1.2 0 2.173-.972 2.173-2.172V153.63c0-1.2-.973-2.172-2.173-2.172h-2.568c-1.2 0-2.173.972-2.173 2.172v21.804c0 1.2.973 2.172 2.173 2.172"/><path fill="url(#aO)" d="M180.857 149.208s9.481 6.55 11.364 13.66c0 0-19.266-.273-19.266 0 0 .274-.38-11.471-.258-11.503.106-.044 8.16-2.157 8.16-2.157"/><path fill="url(#aP)" d="M146.851 131.067v25.45l11.366.761v-.015l13.02-13.479-5.696-4.908a31.3 31.3 0 0 0-14.74-7.08z"/><path fill="url(#aQ)" d="M146.851 131.067v2.856c17.154 4.847 11.502 22.883 11.366 23.34l13.02-13.479-5.696-4.908a31.3 31.3 0 0 0-14.74-7.08z"/><path fill="url(#aR)" d="m158.445 158.446 4.816 4.817a2.514 2.514 0 0 0 3.541 0l14.527-14.526a2.513 2.513 0 0 0 0-3.54l-4.818-4.817a2.51 2.51 0 0 0-3.539 0l-14.527 14.526a2.484 2.484 0 0 0 0 3.54"/><path fill="url(#aS)" d="M125.625 157.049c0 .214.061.425.182.624.289.454.851.653 1.353.471l3.221-1.11-2.948 1.976a1.174 1.174 0 0 0-.456 1.336l.107.304a1.13 1.13 0 0 0 1.276.76l3.677-.593-3.13 1.293a1.14 1.14 0 0 0-.684 1.335l.107.442c.091.41.41.729.82.851l15.665 4.209 32.562 8.736c3.677.988 7.613.122 10.529-2.31l.486-.41a11.4 11.4 0 0 0 2.584-3.039 11.8 11.8 0 0 0 1.414-3.737 11.67 11.67 0 0 0-1.596-8.433l-.259-.425-.774-1.232a11.69 11.69 0 0 0-9.193-5.439l-40.28-2.431a16.18 16.18 0 0 0-10.834 3.313l-3.388 2.597a1.18 1.18 0 0 0-.441.912"/><path fill="url(#aT)" d="m144.861 168.947 32.561 8.735c3.678.989 7.613.122 10.53-2.309l.486-.41a11.5 11.5 0 0 0 2.583-3.039 11.664 11.664 0 0 0-.182-12.17l-.258-.425c-.837 3.721-3.48 10.529-11.594 10.148-11.137-.53-9.922-6.138-21.438-4.618-7.34.957-9.3 2.993-12.688 4.088"/><path fill="url(#aU)" d="M133.025 130.124c-3.936 5.76-15.879 12.703-15.879 12.703-7.475-3.1-12.17-7.917-14.404-10.636-1.033-1.262-1.534-2.082-1.534-2.082 3.236-4.042 2.735-12.823 2.735-12.823l26.362-2.022c-.441 1.884-.441 3.86-.198 5.728.608 5.09 2.918 9.132 2.918 9.132"/><path fill="url(#aV)" d="M63.008 219.983H48.604V196.25c0-20.664 16.82-37.485 37.485-37.485h21.682v14.42H86.073c-12.717 0-23.065 10.348-23.065 23.065z"/><path fill="url(#aW)" d="M55.457 199.016v20.967h7.551v-23.732c0-12.718 10.348-23.065 23.065-23.065h21.683v-7.309h-19.16c-18.264 0-33.14 14.86-33.14 33.139"/><path fill="url(#aX)" d="M115.338 175.449h-17.9a3.92 3.92 0 0 1-3.92-3.92V157.55a3.92 3.92 0 0 1 3.92-3.92h17.9z"/><path fill="url(#aY)" d="M115.049 177.606h-2.659a2.19 2.19 0 0 1-2.188-2.187v-21.774c0-1.2.972-2.187 2.188-2.187h2.659c1.2 0 2.188.972 2.188 2.187v21.774a2.18 2.18 0 0 1-2.188 2.187"/><path fill="#F87C38" d="M130.092 120.992c-2.629 3.541-10.97 12.521-27.35 11.199-1.033-1.262-1.534-2.082-1.534-2.082 3.236-4.042 2.735-12.823 2.735-12.823l26.362-2.022c-.441 1.87-.441 3.845-.213 5.728"/><path fill="url(#aZ)" d="m112.709 64.333-14.268 3.661a1.71 1.71 0 0 1-1.853-.698c-7.46-11.153-10.241-21.668-10.424-30.982-.258-13.675 5.075-24.767 9.406-31.452A63 63 0 0 1 98.517.683c.912-1.17 2.781-.729 3.054.745l1.748 9.45 7.202 38.777 1.185 6.412c.015.091.046.182.076.273l2.097 5.729a1.72 1.72 0 0 1-1.17 2.264"/><path fill="url(#ba)" d="M103.334 10.864c-8.798 5.986-14.435 18.187-17.155 25.45C85.86 19.22 94.278 6.17 98.532.684c.912-1.17 2.781-.73 3.054.744z"/><path fill="#FFCA83" d="M110.536 49.64 95.57 4.862A63 63 0 0 1 98.518.683c.911-1.17 2.78-.729 3.054.745l1.747 9.45z" opacity=".6"/><path fill="url(#bb)" d="m120.368 64.333 14.267 3.661a1.71 1.71 0 0 0 1.854-.698c7.46-11.153 10.241-21.668 10.423-30.982.259-13.675-5.075-24.767-9.405-31.452a63 63 0 0 0-2.948-4.179c-.911-1.17-2.78-.729-3.054.745l-1.762 9.436-7.203 38.776-1.185 6.412a2 2 0 0 1-.076.273l-2.097 5.728a1.746 1.746 0 0 0 1.186 2.28"/><path fill="url(#bc)" d="M129.743 10.864c8.797 5.986 14.434 18.187 17.154 25.45.319-17.094-8.098-30.145-12.353-35.63-.912-1.17-2.78-.73-3.054.744z"/><path fill="#FFCA83" d="m122.54 49.64 14.951-44.793a63 63 0 0 0-2.948-4.179c-.912-1.17-2.78-.73-3.054.745l-1.747 9.45z" opacity=".6"/><path fill="url(#bd)" d="M139.314 107.758c1.9 2.416 4.999 2.28 4.999 2.28-6.67 8.174-13.021 5.53-13.021 5.53-1.337 2.28-3.1 3.966-4.923 5.198-5.911 3.995-13.782 3.995-19.677 0-1.839-1.232-3.586-2.918-4.923-5.198 0 0-6.366 2.644-13.022-5.53 0 0 3.1.152 5-2.28 0 0-6.504.988-8.555-3.631 0 0 7.719.76 7.643-12.718-.015-3.555-.03-7.718-.03-11.912v-.015c0-8.114 4.071-15.27 10.271-19.556a23.3 23.3 0 0 1 6.427-3.114 28 28 0 0 1 2.279-.593 23.637 23.637 0 0 1 9.542 0c.775.152 1.535.35 2.264.593a23.7 23.7 0 0 1 6.427 3.114c6.215 4.285 10.287 11.457 10.272 19.571 0 4.194-.015 8.357-.031 11.912-.076 13.478 7.658 12.718 7.658 12.718-2.081 4.619-8.6 3.631-8.6 3.631"/><path fill="url(#be)" d="m96.618 87.656-.957 2.385a.93.93 0 0 1-1.2.517l-6.337-2.537a.93.93 0 0 1-.516-1.2l.957-2.386a.93.93 0 0 1 1.2-.517l6.336 2.538a.93.93 0 0 1 .517 1.2"/><path fill="url(#bf)" d="m94.218 92.99-.958 2.385a.93.93 0 0 1-1.2.517l-6.336-2.538a.93.93 0 0 1-.517-1.2l.958-2.386a.93.93 0 0 1 1.2-.516l6.336 2.537c.486.198.714.73.517 1.2"/><path fill="url(#bg)" d="m137.871 87.656.958 2.385a.93.93 0 0 0 1.2.517l6.336-2.537a.93.93 0 0 0 .517-1.2l-.958-2.386a.93.93 0 0 0-1.2-.517l-6.336 2.538a.907.907 0 0 0-.517 1.2"/><path fill="url(#bh)" d="m140.257 92.99.957 2.385a.93.93 0 0 0 1.201.517l6.336-2.538a.93.93 0 0 0 .516-1.2l-.957-2.386a.93.93 0 0 0-1.2-.516l-6.336 2.537a.91.91 0 0 0-.517 1.2"/><path fill="url(#bi)" d="M132.128 82.84c-5.683 0-10.363 4.254-11.047 9.754h-7.719c-.683-5.5-5.363-9.755-11.046-9.755-6.138 0-11.122 4.984-11.122 11.123s4.984 11.122 11.122 11.122c5.44 0 9.968-3.905 10.94-9.071h7.932a11.115 11.115 0 0 0 10.94 9.071c6.138 0 11.122-4.984 11.122-11.122.015-6.139-4.969-11.123-11.122-11.123"/><path fill="url(#bj)" d="M110.081 93.962c0 .912-.152 1.778-.441 2.583a7.7 7.7 0 0 1-3.039 3.874 7 7 0 0 1-1.291.684 7.6 7.6 0 0 1-2.948.593c-.167 0-.319 0-.486-.015-4.042-.259-7.248-3.617-7.248-7.72 0-.561.06-1.108.167-1.625a7.5 7.5 0 0 1 1.474-3.145c.304-.38.653-.745 1.018-1.064a7.7 7.7 0 0 1 4.558-1.884c.167-.015.35-.015.532-.015 4.239 0 7.704 3.464 7.704 7.734"/><path fill="#fff" d="M109.625 96.56a7.7 7.7 0 0 1-3.039 3.875l-9.33-12.292a7.7 7.7 0 0 1 4.559-1.885zM105.295 101.118a7.6 7.6 0 0 1-2.948.593c-.167 0-.319 0-.486-.015l-7.08-9.345a7.5 7.5 0 0 1 1.473-3.145z" opacity=".5"/><path fill="#F87C38" d="M100.25 75.774c2.568-.122 4.999.577 7.019 1.701 2.037 1.125 3.708 2.66 5.015 4.422.303.395.212.972-.183 1.276a.89.89 0 0 1-1.109-.03l-.015-.015c-1.504-1.23-3.236-2.112-4.984-2.568s-3.525-.44-5.014.046a2.45 2.45 0 0 1-3.1-1.596 2.45 2.45 0 0 1 1.596-3.1 3 3 0 0 1 .638-.121z"/><path fill="url(#bk)" d="M124.394 93.962a7.685 7.685 0 0 0 3.479 6.457c.41.274.836.502 1.292.684.911.38 1.899.593 2.947.593.167 0 .319 0 .487-.015 4.041-.259 7.247-3.617 7.247-7.72 0-.561-.06-1.108-.167-1.625a7.5 7.5 0 0 0-1.474-3.145 8.4 8.4 0 0 0-1.018-1.064 7.7 7.7 0 0 0-4.558-1.884c-.167-.015-.35-.015-.532-.015-4.239 0-7.703 3.464-7.703 7.734"/><path fill="#fff" d="M124.85 96.56a7.7 7.7 0 0 0 3.038 3.875l9.33-12.292a7.7 7.7 0 0 0-4.559-1.885zM129.18 101.118c.911.38 1.899.593 2.947.593.167 0 .319 0 .486-.015l7.081-9.345a7.5 7.5 0 0 0-1.474-3.145z" opacity=".5"/><path fill="#F87C38" d="M134.224 75.774c-2.568-.122-4.999.577-7.02 1.701-2.036 1.125-3.707 2.66-5.014 4.422-.304.395-.213.972.183 1.276a.89.89 0 0 0 1.109-.03l.015-.015c1.504-1.23 3.236-2.112 4.984-2.568s3.525-.44 5.014.046a2.45 2.45 0 0 0 3.1-1.596 2.45 2.45 0 0 0-1.596-3.1 3 3 0 0 0-.638-.121z"/><path fill="#FFCA83" d="M121.294 56.402v14.145a4.77 4.77 0 0 1-4.771 4.772 4.76 4.76 0 0 1-4.771-4.772V56.204a23.637 23.637 0 0 1 9.542 0zM109.473 56.782v11.243a2.9 2.9 0 0 1-2.902 2.902h-.623a2.89 2.89 0 0 1-2.902-2.902v-8.113a23.6 23.6 0 0 1 6.427-3.13M129.97 59.912v8.113a2.9 2.9 0 0 1-2.902 2.902h-.623a2.893 2.893 0 0 1-2.903-2.902V56.781a23.2 23.2 0 0 1 6.428 3.13" opacity=".6"/><path fill="#F87C38" d="M119.03 99.34h-3.586c-1.003 0-1.823.821-1.823 1.824v.228c0 .699.41 1.337 1.033 1.641l1.808.851a1.8 1.8 0 0 0 1.535 0l1.808-.851a1.81 1.81 0 0 0 1.033-1.641v-.228a1.806 1.806 0 0 0-1.808-1.823"/><path fill="url(#bl)" d="M126.916 107.15v.973c0 .714-.076 1.428-.228 2.097a9.6 9.6 0 0 1-2.097 4.194 9.65 9.65 0 0 1-7.339 3.372 9.63 9.63 0 0 1-7.521-3.601 9.6 9.6 0 0 1-1.914-3.98 9.5 9.5 0 0 1-.228-2.097v-.973h19.327z"/><path fill="#fff" d="M126.916 107.151v.972c0 .714-.076 1.428-.228 2.097h-18.886a9.5 9.5 0 0 1-.228-2.097v-.972z"/><path fill="url(#bm)" d="M124.576 114.414a9.65 9.65 0 0 1-7.339 3.372 9.63 9.63 0 0 1-7.521-3.6c1.535-1.657 4.24-2.751 7.339-2.751 3.221 0 6.032 1.201 7.521 2.979"/><path fill="url(#bn)" d="M53.512 149.208s-9.482 6.55-11.365 13.66c0 0 19.266-.273 19.266 0 0 .274.38-11.471.258-11.503-.106-.044-8.16-2.157-8.16-2.157"/><path fill="url(#bo)" d="M87.502 131.067v25.45l-11.366.761v-.015l-13.021-13.479 5.698-4.908a31.27 31.27 0 0 1 14.738-7.08z"/><path fill="url(#bp)" d="M87.502 131.067v2.856C70.347 138.77 76 156.806 76.136 157.263l-13.021-13.479 5.698-4.908a31.27 31.27 0 0 1 14.738-7.08z"/><path fill="url(#bq)" d="m75.924 158.446-4.817 4.817a2.513 2.513 0 0 1-3.54 0L53.04 148.737a2.513 2.513 0 0 1 0-3.54l4.817-4.817a2.513 2.513 0 0 1 3.54 0l14.526 14.526a2.513 2.513 0 0 1 0 3.54"/><path fill="url(#br)" d="M108.728 157.049c0 .214-.061.425-.183.624-.288.454-.85.653-1.352.471l-3.221-1.11 2.948 1.976c.425.288.623.835.455 1.336l-.106.304a1.13 1.13 0 0 1-1.276.76l-3.677-.593 3.13 1.293c.532.211.82.788.683 1.335l-.106.442c-.091.41-.41.729-.82.851l-15.666 4.209-32.561 8.736a11.71 11.71 0 0 1-10.53-2.31l-.486-.41a11.5 11.5 0 0 1-2.583-3.039 11.664 11.664 0 0 1 .182-12.17l.258-.425.775-1.232a11.68 11.68 0 0 1 9.193-5.439l40.28-2.431a16.18 16.18 0 0 1 10.834 3.313l3.388 2.597c.289.213.441.563.441.912"/><path fill="url(#bs)" d="m89.507 168.947-32.562 8.735a11.71 11.71 0 0 1-10.53-2.309l-.486-.41a11.5 11.5 0 0 1-2.583-3.039 11.662 11.662 0 0 1 .182-12.17l.259-.425c.836 3.721 3.48 10.529 11.593 10.148 11.138-.53 9.922-6.138 21.44-4.618 7.323.957 9.283 2.993 12.687 4.088"/><path fill="url(#bt)" d="M153.429 203.422c-20.633 15.954-51.964 15.954-72.613 0 0 0 2.492-.957 3.935-5.439 3.313 3.009 14.04 11.304 32.379 11.79 14.526.395 25.998-6.898 32.273-12.094 1.413 4.756 4.026 5.743 4.026 5.743"/><path fill="url(#bu)" d="M148.507 191.099H85.739v-.501c0-1.534.015-3.541.046-5.865h62.677c.03 2.324.045 4.331.045 5.865a3 3 0 0 0 0 .501"/><path fill="url(#bv)" d="M63.16 94.676H3.66a2.766 2.766 0 0 1-2.765-2.765V55.64c0-1.519 1.23-2.764 2.765-2.764H63.16c1.52 0 2.766 1.23 2.766 2.765v36.284a2.77 2.77 0 0 1-2.766 2.75"/><path fill="url(#bw)" d="M35.127 62.6H7.959a1.53 1.53 0 0 1-1.535-1.534c0-.85.684-1.535 1.535-1.535h27.168c.85 0 1.534.684 1.534 1.535a1.53 1.53 0 0 1-1.534 1.535"/><path fill="url(#bx)" d="M31.024 66.886H7.078a.65.65 0 0 1-.654-.654c0-.364.289-.653.654-.653h23.946c.365 0 .653.289.653.653a.65.65 0 0 1-.653.653"/><path fill="url(#by)" d="M31.024 70.76H7.078a.65.65 0 0 1-.654-.653c0-.364.289-.653.654-.653h23.946c.365 0 .653.289.653.653a.65.65 0 0 1-.653.654"/><path fill="url(#bz)" d="M59.726 88.75H7.078a.65.65 0 0 1-.654-.653c0-.364.289-.653.654-.653h52.648c.365 0 .654.288.654.653a.65.65 0 0 1-.654.654"/><path fill="url(#bA)" d="M56.353 84.025H10.451a4.024 4.024 0 0 1-4.027-4.027 4.024 4.024 0 0 1 4.027-4.026h45.902a4.024 4.024 0 0 1 4.027 4.026 4.024 4.024 0 0 1-4.027 4.027"/><path fill="url(#bB)" d="M35.096 82.475H10.982a2.477 2.477 0 0 1 0-4.953h24.114a2.477 2.477 0 0 1 0 4.953"/><path fill="url(#bC)" d="M49.789 72.37a6.777 6.777 0 1 0 0-13.553 6.777 6.777 0 0 0 0 13.554"/><path fill="#fff" d="M49.758 67.479a.6.6 0 0 1-.38-.153L47.6 65.55a.53.53 0 0 1 0-.76.53.53 0 0 1 .76 0l1.398 1.398 2.158-2.158a.53.53 0 0 1 .76 0 .53.53 0 0 1 0 .76l-2.523 2.522a.5.5 0 0 1-.395.167"/><path fill="url(#bD)" d="M224.536 58.09v52.781a2.175 2.175 0 0 1-2.175 2.175h-41.213a2.176 2.176 0 0 1-2.175-2.175v-52.78c0-1.195.967-2.176 2.175-2.176h41.213c1.207 0 2.175.981 2.175 2.175"/><path fill="url(#bE)" d="M188.616 100.511h-4.313a1.036 1.036 0 0 1-1.031-1.031V74.837c0-.566.466-1.03 1.031-1.03h4.313c.565 0 1.03.464 1.03 1.03V99.48c0 .578-.451 1.031-1.03 1.031"/><path fill="url(#bF)" d="M198.322 100.511h-4.313c-.565 0-1.03-.465-1.03-1.031v-9.87c0-.566.465-1.03 1.03-1.03h4.313c.565 0 1.03.465 1.03 1.03v9.87c0 .578-.465 1.031-1.03 1.031"/><path fill="url(#bG)" d="M208.016 100.511h-4.313a1.036 1.036 0 0 1-1.031-1.03V79.765c0-.566.466-1.031 1.031-1.031h4.313c.565 0 1.03.465 1.03 1.03V99.48c0 .578-.465 1.031-1.03 1.031"/><path fill="url(#bH)" d="M217.722 100.511h-4.313a1.036 1.036 0 0 1-1.031-1.031V74.837c0-.566.466-1.03 1.031-1.03h4.313c.565 0 1.03.464 1.03 1.03V99.48a1.035 1.035 0 0 1-1.03 1.031"/><path fill="url(#bI)" d="M210.794 68.601h-25.938a1.585 1.585 0 0 1-1.584-1.584V60.58c0-.868.704-1.584 1.584-1.584h25.938c.868 0 1.585.704 1.585 1.584v6.437c0 .88-.717 1.584-1.585 1.584"/><path fill="url(#bJ)" d="M209.095 62.566h-14.723a.337.337 0 0 1-.338-.34c0-.188.15-.338.338-.338h14.723c.19 0 .34.15.34.339 0 .176-.15.34-.34.34"/><path fill="url(#bK)" d="M209.095 64.15h-14.723a.337.337 0 0 1-.338-.339c0-.188.15-.34.338-.34h14.723c.19 0 .34.152.34.34s-.15.34-.34.34"/><path fill="url(#bL)" d="M206.279 65.735h-11.907a.337.337 0 0 1-.338-.34c0-.188.15-.34.338-.34h11.907c.189 0 .34.151.34.34s-.151.34-.34.34"/><path fill="url(#bM)" d="M189.519 67.118a3.306 3.306 0 1 0 .001-6.613 3.306 3.306 0 0 0-.001 6.613"/><path fill="url(#bN)" d="m189.468 64.138-.854.188-.566-1.76a.596.596 0 0 1 .441-.767.613.613 0 0 1 .729.503z"/><path fill="url(#bO)" d="m189.582 64.15.854.176.542-1.76a.606.606 0 1 0-1.183-.252z"/><path fill="url(#bP)" d="M189.519 65.823a1.42 1.42 0 1 0 .002-2.84 1.42 1.42 0 0 0-.002 2.84"/><path fill="url(#bQ)" d="M224.536 104.409v6.462a2.175 2.175 0 0 1-2.175 2.175h-41.213a2.176 2.176 0 0 1-2.175-2.175v-6.462z"/><path fill="url(#bR)" d="M189.771 109.576h-5.117a.856.856 0 0 1 0-1.71h5.117a.856.856 0 0 1 0 1.71m10.548-.855a.855.855 0 0 0-.854-.855h-5.117a.857.857 0 0 0-.856.855c0 .478.391.855.856.855h5.117a.847.847 0 0 0 .854-.855m9.707 0a.856.856 0 0 0-.855-.855h-5.13a.856.856 0 0 0 0 1.71h5.118a.86.86 0 0 0 .867-.855m9.694 0a.855.855 0 0 0-.855-.855h-5.117a.856.856 0 0 0 0 1.71h5.117a.85.85 0 0 0 .855-.855"/><defs><linearGradient id="a" x1="117.179" x2="117.179" y1="73.996" y2="-94.982" gradientUnits="userSpaceOnUse"><stop stop-color="#03192E"/><stop offset=".5" stop-color="#223C6A"/><stop offset="1" stop-color="#4A74A2"/></linearGradient><linearGradient id="b" x1="117.179" x2="117.179" y1="18.118" y2="-39.009" gradientUnits="userSpaceOnUse"><stop stop-color="#03192E"/><stop offset=".5" stop-color="#223C6A"/><stop offset="1" stop-color="#4A74A2"/></linearGradient><linearGradient id="c" x1="86.4" x2="86.4" y1="163.627" y2="4.023" gradientUnits="userSpaceOnUse"><stop stop-color="#03192E"/><stop offset=".5" stop-color="#223C6A"/><stop offset="1" stop-color="#4A74A2"/></linearGradient><linearGradient id="d" x1="86.4" x2="86.4" y1="96.779" y2="71.612" gradientUnits="userSpaceOnUse"><stop stop-color="#03192E"/><stop offset=".5" stop-color="#223C6A"/><stop offset="1" stop-color="#4A74A2"/></linearGradient><linearGradient id="e" x1="111.255" x2="111.255" y1="114.63" y2="4.3" gradientUnits="userSpaceOnUse"><stop stop-color="#03192E"/><stop offset=".5" stop-color="#223C6A"/><stop offset="1" stop-color="#4A74A2"/></linearGradient><linearGradient id="f" x1="69.649" x2="69.649" y1="75.044" y2="36.769" gradientUnits="userSpaceOnUse"><stop stop-color="#03192E"/><stop offset=".5" stop-color="#223C6A"/><stop offset="1" stop-color="#4A74A2"/></linearGradient><linearGradient id="g" x1="48.986" x2="48.986" y1="44.701" y2="21.712" gradientUnits="userSpaceOnUse"><stop stop-color="#03192E"/><stop offset=".5" stop-color="#223C6A"/><stop offset="1" stop-color="#4A74A2"/></linearGradient><linearGradient id="h" x1="47.753" x2="47.753" y1="53.609" y2="34.535" gradientUnits="userSpaceOnUse"><stop stop-color="#FF2A64"/><stop offset="1" stop-color="#FFAF48"/></linearGradient><linearGradient id="i" x1="50.234" x2="50.234" y1="53.609" y2="34.535" gradientUnits="userSpaceOnUse"><stop stop-color="#FF2A64"/><stop offset="1" stop-color="#FFAF48"/></linearGradient><linearGradient id="j" x1="48.995" x2="48.995" y1="53.608" y2="34.535" gradientUnits="userSpaceOnUse"><stop stop-color="#FF2A64"/><stop offset="1" stop-color="#FFAF48"/></linearGradient><linearGradient id="k" x1="86.4" x2="86.4" y1="102.31" y2="41.035" gradientUnits="userSpaceOnUse"><stop stop-color="#FF2A64"/><stop offset="1" stop-color="#FFAF48"/></linearGradient><linearGradient id="l" x1="168.415" x2="168.415" y1="216.295" y2="43.665" gradientUnits="userSpaceOnUse"><stop stop-color="#03192E"/><stop offset=".5" stop-color="#223C6A"/><stop offset="1" stop-color="#4A74A2"/></linearGradient><linearGradient id="m" x1="168.415" x2="168.415" y1="80.794" y2="11.158" gradientUnits="userSpaceOnUse"><stop stop-color="#386E9F"/><stop offset="1" stop-color="#fff"/></linearGradient><linearGradient id="n" x1="168.415" x2="168.415" y1="74.311" y2="-26.775" gradientUnits="userSpaceOnUse"><stop stop-color="#386E9F"/><stop offset="1" stop-color="#fff"/></linearGradient><linearGradient id="o" x1="168.415" x2="168.415" y1="61.688" y2="28.625" gradientUnits="userSpaceOnUse"><stop stop-color="#03192E"/><stop offset=".5" stop-color="#223C6A"/><stop offset="1" stop-color="#4A74A2"/></linearGradient><linearGradient id="p" x1="168.415" x2="168.415" y1="73.127" y2="29.887" gradientUnits="userSpaceOnUse"><stop stop-color="#03192E"/><stop offset=".5" stop-color="#223C6A"/><stop offset="1" stop-color="#4A74A2"/></linearGradient><linearGradient id="q" x1="134.277" x2="188.412" y1="72.296" y2="36.384" gradientUnits="userSpaceOnUse"><stop stop-color="#FF2A64"/><stop offset="1" stop-color="#FFAF48"/></linearGradient><linearGradient id="r" x1="168.417" x2="168.417" y1="80.737" y2="39.498" gradientUnits="userSpaceOnUse"><stop stop-color="#03192E"/><stop offset=".5" stop-color="#223C6A"/><stop offset="1" stop-color="#4A74A2"/></linearGradient><linearGradient id="s" x1="168.415" x2="168.415" y1="59.572" y2="27.465" gradientUnits="userSpaceOnUse"><stop stop-color="#03192E"/><stop offset=".5" stop-color="#223C6A"/><stop offset="1" stop-color="#4A74A2"/></linearGradient><linearGradient id="t" x1="138.374" x2="173.134" y1="67.173" y2="44.207" gradientUnits="userSpaceOnUse"><stop stop-color="#386E9F"/><stop offset="1" stop-color="#fff"/></linearGradient><linearGradient id="u" x1="150.895" x2="170.314" y1="57.854" y2="46.15" gradientUnits="userSpaceOnUse"><stop stop-color="#108BB4"/><stop offset="1" stop-color="#40C67C"/></linearGradient><linearGradient id="v" x1="168.471" x2="168.471" y1="65.635" y2="51.726" gradientUnits="userSpaceOnUse"><stop stop-color="#03192E"/><stop offset=".5" stop-color="#223C6A"/><stop offset="1" stop-color="#4A74A2"/></linearGradient><linearGradient id="w" x1="152.264" x2="152.264" y1="106.351" y2="38.11" gradientUnits="userSpaceOnUse"><stop stop-color="#03192E"/><stop offset=".5" stop-color="#223C6A"/><stop offset="1" stop-color="#4A74A2"/></linearGradient><linearGradient id="x" x1="172.971" x2="172.971" y1="103.826" y2="37.828" gradientUnits="userSpaceOnUse"><stop stop-color="#386E9F"/><stop offset="1" stop-color="#fff"/></linearGradient><linearGradient id="y" x1="170.045" x2="170.045" y1="103.826" y2="37.828" gradientUnits="userSpaceOnUse"><stop stop-color="#386E9F"/><stop offset="1" stop-color="#fff"/></linearGradient><linearGradient id="z" x1="60.129" x2="60.129" y1="98.241" y2="138.924" gradientUnits="userSpaceOnUse"><stop stop-color="#03192E"/><stop offset=".5" stop-color="#223C6A"/><stop offset="1" stop-color="#4A74A2"/></linearGradient><linearGradient id="A" x1="169.19" x2="169.19" y1="98.241" y2="138.924" gradientUnits="userSpaceOnUse"><stop stop-color="#03192E"/><stop offset=".5" stop-color="#223C6A"/><stop offset="1" stop-color="#4A74A2"/></linearGradient><linearGradient id="B" x1="169.19" x2="169.19" y1="119.488" y2="94.532" gradientUnits="userSpaceOnUse"><stop stop-color="#03192E"/><stop offset=".5" stop-color="#223C6A"/><stop offset="1" stop-color="#4A74A2"/></linearGradient><linearGradient id="C" x1="169.19" x2="169.19" y1="110.573" y2="97.218" gradientUnits="userSpaceOnUse"><stop stop-color="#FF2A64"/><stop offset="1" stop-color="#FFAF48"/></linearGradient><linearGradient id="D" x1="60.128" x2="60.128" y1="119.488" y2="94.532" gradientUnits="userSpaceOnUse"><stop stop-color="#03192E"/><stop offset=".5" stop-color="#223C6A"/><stop offset="1" stop-color="#4A74A2"/></linearGradient><linearGradient id="E" x1="60.128" x2="60.128" y1="110.573" y2="97.218" gradientUnits="userSpaceOnUse"><stop stop-color="#FF2A64"/><stop offset="1" stop-color="#FFAF48"/></linearGradient><linearGradient id="F" x1="41.312" x2="184.907" y1="152.524" y2="152.524" gradientUnits="userSpaceOnUse"><stop stop-color="#386E9F"/><stop offset="1" stop-color="#fff"/></linearGradient><linearGradient id="G" x1="41.312" x2="184.907" y1="176.782" y2="176.782" gradientUnits="userSpaceOnUse"><stop stop-color="#386E9F"/><stop offset="1" stop-color="#fff"/></linearGradient><linearGradient id="H" x1="41.312" x2="184.907" y1="202.741" y2="202.741" gradientUnits="userSpaceOnUse"><stop stop-color="#386E9F"/><stop offset="1" stop-color="#fff"/></linearGradient><linearGradient id="I" x1="58.445" x2="58.445" y1="130.476" y2="103.071" gradientUnits="userSpaceOnUse"><stop stop-color="#386E9F"/><stop offset="1" stop-color="#fff"/></linearGradient><linearGradient id="J" x1="58.445" x2="58.445" y1="259.082" y2="63.059" gradientUnits="userSpaceOnUse"><stop stop-color="#03192E"/><stop offset=".5" stop-color="#223C6A"/><stop offset="1" stop-color="#4A74A2"/></linearGradient><linearGradient id="K" x1="58.445" x2="58.445" y1="146.961" y2="103.663" gradientUnits="userSpaceOnUse"><stop stop-color="#03192E"/><stop offset=".5" stop-color="#223C6A"/><stop offset="1" stop-color="#4A74A2"/></linearGradient><linearGradient id="L" x1="58.445" x2="58.445" y1="148.928" y2="130.935" gradientUnits="userSpaceOnUse"><stop stop-color="#386E9F"/><stop offset="1" stop-color="#fff"/></linearGradient><linearGradient id="M" x1="58.445" x2="58.445" y1="239.694" y2="101.541" gradientUnits="userSpaceOnUse"><stop stop-color="#386E9F"/><stop offset="1" stop-color="#fff"/></linearGradient><linearGradient id="N" x1="58.445" x2="58.445" y1="259.082" y2="63.059" gradientUnits="userSpaceOnUse"><stop stop-color="#03192E"/><stop offset=".5" stop-color="#223C6A"/><stop offset="1" stop-color="#4A74A2"/></linearGradient><linearGradient id="O" x1="58.445" x2="58.445" y1="175.769" y2="144.269" gradientUnits="userSpaceOnUse"><stop stop-color="#FF2A64"/><stop offset="1" stop-color="#FFAF48"/></linearGradient><linearGradient id="P" x1="58.445" x2="58.445" y1="239.694" y2="101.541" gradientUnits="userSpaceOnUse"><stop stop-color="#386E9F"/><stop offset="1" stop-color="#fff"/></linearGradient><linearGradient id="Q" x1="58.445" x2="58.445" y1="225.783" y2="193.324" gradientUnits="userSpaceOnUse"><stop stop-color="#386E9F"/><stop offset="1" stop-color="#fff"/></linearGradient><linearGradient id="R" x1="58.445" x2="58.445" y1="259.082" y2="63.059" gradientUnits="userSpaceOnUse"><stop stop-color="#03192E"/><stop offset=".5" stop-color="#223C6A"/><stop offset="1" stop-color="#4A74A2"/></linearGradient><linearGradient id="S" x1="58.445" x2="58.445" y1="235.856" y2="163.63" gradientUnits="userSpaceOnUse"><stop stop-color="#03192E"/><stop offset=".5" stop-color="#223C6A"/><stop offset="1" stop-color="#4A74A2"/></linearGradient><linearGradient id="T" x1="58.445" x2="58.445" y1="185.739" y2="158.131" gradientUnits="userSpaceOnUse"><stop stop-color="#03192E"/><stop offset=".5" stop-color="#223C6A"/><stop offset="1" stop-color="#4A74A2"/></linearGradient><linearGradient id="U" x1="59.191" x2="59.191" y1="222.255" y2="163.652" gradientUnits="userSpaceOnUse"><stop stop-color="#03192E"/><stop offset=".5" stop-color="#223C6A"/><stop offset="1" stop-color="#4A74A2"/></linearGradient><linearGradient id="V" x1="59.19" x2="59.19" y1="187.145" y2="149.459" gradientUnits="userSpaceOnUse"><stop stop-color="#03192E"/><stop offset=".5" stop-color="#223C6A"/><stop offset="1" stop-color="#4A74A2"/></linearGradient><linearGradient id="W" x1="58.777" x2="65.403" y1="170.943" y2="170.943" gradientUnits="userSpaceOnUse"><stop stop-color="#FBAA19"/><stop offset="1" stop-color="#EF3E23"/></linearGradient><linearGradient id="X" x1="58.418" x2="58.937" y1="179.374" y2="177.955" gradientUnits="userSpaceOnUse"><stop stop-color="#F78D1E"/><stop offset="1" stop-color="#F37121"/></linearGradient><linearGradient id="Y" x1="54.297" x2="62.37" y1="179.866" y2="171.211" gradientUnits="userSpaceOnUse"><stop stop-color="#FEBE2D"/><stop offset="1" stop-color="#F04E23"/></linearGradient><linearGradient id="Z" x1="60.006" x2="55.539" y1="174.809" y2="181.685" gradientUnits="userSpaceOnUse"><stop stop-color="#EA4425"/><stop offset="1" stop-color="#FDBB27"/></linearGradient><linearGradient id="aa" x1="53.173" x2="67.276" y1="172.449" y2="172.449" gradientUnits="userSpaceOnUse"><stop stop-color="#F47920"/><stop offset="1" stop-color="#E93825"/></linearGradient><linearGradient id="ab" x1="45.724" x2="74.418" y1="171.514" y2="171.514" gradientUnits="userSpaceOnUse"><stop stop-color="#FDCA0B"/><stop offset="1" stop-color="#F5841F"/></linearGradient><linearGradient id="ac" x1="55.973" x2="58.959" y1="174.984" y2="185.399" gradientUnits="userSpaceOnUse"><stop stop-color="#E73C25"/><stop offset="1" stop-color="#FAA21B"/></linearGradient><linearGradient id="ad" x1="35.762" x2="78.356" y1="176.673" y2="176.673" gradientUnits="userSpaceOnUse"><stop stop-color="#FDBA12"/><stop offset="1" stop-color="#F7921E"/></linearGradient><linearGradient id="ae" x1="53.12" x2="54.716" y1="174.522" y2="174.806" gradientUnits="userSpaceOnUse"><stop stop-color="#FEBE2D"/><stop offset="1" stop-color="#F04E23"/></linearGradient><linearGradient id="af" x1="58.445" x2="58.445" y1="259.082" y2="63.059" gradientUnits="userSpaceOnUse"><stop stop-color="#03192E"/><stop offset=".5" stop-color="#223C6A"/><stop offset="1" stop-color="#4A74A2"/></linearGradient><linearGradient id="ag" x1="58.445" x2="58.445" y1="225.986" y2="194.485" gradientUnits="userSpaceOnUse"><stop stop-color="#FF2A64"/><stop offset="1" stop-color="#FFAF48"/></linearGradient><linearGradient id="ah" x1="167.505" x2="167.505" y1="130.476" y2="103.071" gradientUnits="userSpaceOnUse"><stop stop-color="#386E9F"/><stop offset="1" stop-color="#fff"/></linearGradient><linearGradient id="ai" x1="167.505" x2="167.505" y1="259.082" y2="63.059" gradientUnits="userSpaceOnUse"><stop stop-color="#03192E"/><stop offset=".5" stop-color="#223C6A"/><stop offset="1" stop-color="#4A74A2"/></linearGradient><linearGradient id="aj" x1="167.506" x2="167.506" y1="146.961" y2="103.663" gradientUnits="userSpaceOnUse"><stop stop-color="#03192E"/><stop offset=".5" stop-color="#223C6A"/><stop offset="1" stop-color="#4A74A2"/></linearGradient><linearGradient id="ak" x1="167.507" x2="167.507" y1="148.928" y2="130.935" gradientUnits="userSpaceOnUse"><stop stop-color="#386E9F"/><stop offset="1" stop-color="#fff"/></linearGradient><linearGradient id="al" x1="167.507" x2="167.507" y1="239.694" y2="101.541" gradientUnits="userSpaceOnUse"><stop stop-color="#386E9F"/><stop offset="1" stop-color="#fff"/></linearGradient><linearGradient id="am" x1="167.505" x2="167.505" y1="259.082" y2="63.059" gradientUnits="userSpaceOnUse"><stop stop-color="#03192E"/><stop offset=".5" stop-color="#223C6A"/><stop offset="1" stop-color="#4A74A2"/></linearGradient><linearGradient id="an" x1="167.507" x2="167.507" y1="175.769" y2="144.269" gradientUnits="userSpaceOnUse"><stop stop-color="#FF2A64"/><stop offset="1" stop-color="#FFAF48"/></linearGradient><linearGradient id="ao" x1="167.507" x2="167.507" y1="239.694" y2="101.541" gradientUnits="userSpaceOnUse"><stop stop-color="#386E9F"/><stop offset="1" stop-color="#fff"/></linearGradient><linearGradient id="ap" x1="167.505" x2="167.505" y1="225.783" y2="193.324" gradientUnits="userSpaceOnUse"><stop stop-color="#386E9F"/><stop offset="1" stop-color="#fff"/></linearGradient><linearGradient id="aq" x1="167.505" x2="167.505" y1="259.082" y2="63.059" gradientUnits="userSpaceOnUse"><stop stop-color="#03192E"/><stop offset=".5" stop-color="#223C6A"/><stop offset="1" stop-color="#4A74A2"/></linearGradient><linearGradient id="ar" x1="167.507" x2="167.507" y1="235.856" y2="163.63" gradientUnits="userSpaceOnUse"><stop stop-color="#03192E"/><stop offset=".5" stop-color="#223C6A"/><stop offset="1" stop-color="#4A74A2"/></linearGradient><linearGradient id="as" x1="167.505" x2="167.505" y1="185.739" y2="158.131" gradientUnits="userSpaceOnUse"><stop stop-color="#03192E"/><stop offset=".5" stop-color="#223C6A"/><stop offset="1" stop-color="#4A74A2"/></linearGradient><linearGradient id="at" x1="168.251" x2="168.251" y1="222.255" y2="163.652" gradientUnits="userSpaceOnUse"><stop stop-color="#03192E"/><stop offset=".5" stop-color="#223C6A"/><stop offset="1" stop-color="#4A74A2"/></linearGradient><linearGradient id="au" x1="168.251" x2="168.251" y1="187.145" y2="149.459" gradientUnits="userSpaceOnUse"><stop stop-color="#03192E"/><stop offset=".5" stop-color="#223C6A"/><stop offset="1" stop-color="#4A74A2"/></linearGradient><linearGradient id="av" x1="167.838" x2="174.465" y1="170.943" y2="170.943" gradientUnits="userSpaceOnUse"><stop stop-color="#FBAA19"/><stop offset="1" stop-color="#EF3E23"/></linearGradient><linearGradient id="aw" x1="167.479" x2="167.999" y1="179.374" y2="177.955" gradientUnits="userSpaceOnUse"><stop stop-color="#F78D1E"/><stop offset="1" stop-color="#F37121"/></linearGradient><linearGradient id="ax" x1="163.358" x2="171.432" y1="179.866" y2="171.211" gradientUnits="userSpaceOnUse"><stop stop-color="#FEBE2D"/><stop offset="1" stop-color="#F04E23"/></linearGradient><linearGradient id="ay" x1="169.066" x2="164.599" y1="174.809" y2="181.685" gradientUnits="userSpaceOnUse"><stop stop-color="#EA4425"/><stop offset="1" stop-color="#FDBB27"/></linearGradient><linearGradient id="az" x1="162.235" x2="176.336" y1="172.449" y2="172.449" gradientUnits="userSpaceOnUse"><stop stop-color="#F47920"/><stop offset="1" stop-color="#E93825"/></linearGradient><linearGradient id="aA" x1="154.785" x2="183.48" y1="171.514" y2="171.514" gradientUnits="userSpaceOnUse"><stop stop-color="#FDCA0B"/><stop offset="1" stop-color="#F5841F"/></linearGradient><linearGradient id="aB" x1="165.033" x2="168.018" y1="174.984" y2="185.399" gradientUnits="userSpaceOnUse"><stop stop-color="#E73C25"/><stop offset="1" stop-color="#FAA21B"/></linearGradient><linearGradient id="aC" x1="144.823" x2="187.417" y1="176.673" y2="176.673" gradientUnits="userSpaceOnUse"><stop stop-color="#FDBA12"/><stop offset="1" stop-color="#F7921E"/></linearGradient><linearGradient id="aD" x1="162.182" x2="163.777" y1="174.522" y2="174.806" gradientUnits="userSpaceOnUse"><stop stop-color="#FEBE2D"/><stop offset="1" stop-color="#F04E23"/></linearGradient><linearGradient id="aE" x1="167.505" x2="167.505" y1="259.082" y2="63.059" gradientUnits="userSpaceOnUse"><stop stop-color="#03192E"/><stop offset=".5" stop-color="#223C6A"/><stop offset="1" stop-color="#4A74A2"/></linearGradient><linearGradient id="aF" x1="167.507" x2="167.507" y1="225.986" y2="194.485" gradientUnits="userSpaceOnUse"><stop stop-color="#FF2A64"/><stop offset="1" stop-color="#FFAF48"/></linearGradient><linearGradient id="aG" x1="117.12" x2="117.12" y1="204.336" y2="311.608" gradientUnits="userSpaceOnUse"><stop stop-color="#03192E"/><stop offset=".5" stop-color="#223C6A"/><stop offset="1" stop-color="#4A74A2"/></linearGradient><linearGradient id="aH" x1="117.12" x2="117.12" y1="192.602" y2="78.518" gradientUnits="userSpaceOnUse"><stop stop-color="#386E9F"/><stop offset="1" stop-color="#fff"/></linearGradient><linearGradient id="aI" x1="117.12" x2="117.12" y1="203.734" y2="101.06" gradientUnits="userSpaceOnUse"><stop stop-color="#386E9F"/><stop offset="1" stop-color="#fff"/></linearGradient><linearGradient id="aJ" x1="116.155" x2="116.155" y1="190.008" y2="109.55" gradientUnits="userSpaceOnUse"><stop stop-color="#386E9F"/><stop offset="1" stop-color="#fff"/></linearGradient><linearGradient id="aK" x1="156.179" x2="156.179" y1="103.461" y2="265.013" gradientUnits="userSpaceOnUse"><stop stop-color="#03192E"/><stop offset=".5" stop-color="#223C6A"/><stop offset="1" stop-color="#4A74A2"/></linearGradient><linearGradient id="aL" x1="152.745" x2="152.745" y1="156.9" y2="308.796" gradientUnits="userSpaceOnUse"><stop stop-color="#03192E"/><stop offset=".5" stop-color="#223C6A"/><stop offset="1" stop-color="#4A74A2"/></linearGradient><linearGradient id="aM" x1="129.928" x2="129.928" y1="180.017" y2="133.184" gradientUnits="userSpaceOnUse"><stop stop-color="#03192E"/><stop offset=".5" stop-color="#223C6A"/><stop offset="1" stop-color="#4A74A2"/></linearGradient><linearGradient id="aN" x1="120.694" x2="120.694" y1="193.525" y2="154.243" gradientUnits="userSpaceOnUse"><stop stop-color="#03192E"/><stop offset=".5" stop-color="#223C6A"/><stop offset="1" stop-color="#4A74A2"/></linearGradient><linearGradient id="aO" x1="182.437" x2="182.437" y1="172.662" y2="132.36" gradientUnits="userSpaceOnUse"><stop stop-color="#FF2A64"/><stop offset="1" stop-color="#FFAF48"/></linearGradient><linearGradient id="aP" x1="159.052" x2="159.052" y1="176.114" y2="113.366" gradientUnits="userSpaceOnUse"><stop stop-color="#03192E"/><stop offset=".5" stop-color="#223C6A"/><stop offset="1" stop-color="#4A74A2"/></linearGradient><linearGradient id="aQ" x1="159.052" x2="159.052" y1="161.103" y2="97.422" gradientUnits="userSpaceOnUse"><stop stop-color="#03192E"/><stop offset=".5" stop-color="#223C6A"/><stop offset="1" stop-color="#4A74A2"/></linearGradient><linearGradient id="aR" x1="169.883" x2="169.883" y1="202.533" y2="103.014" gradientUnits="userSpaceOnUse"><stop stop-color="#386E9F"/><stop offset="1" stop-color="#fff"/></linearGradient><linearGradient id="aS" x1="278.692" x2="136.688" y1="221.753" y2="148.8" gradientUnits="userSpaceOnUse"><stop stop-color="#FF2A64"/><stop offset="1" stop-color="#FFAF48"/></linearGradient><linearGradient id="aT" x1="253.544" x2="155.973" y1="250.494" y2="152.323" gradientUnits="userSpaceOnUse"><stop stop-color="#FF2A64"/><stop offset="1" stop-color="#FFAF48"/></linearGradient><linearGradient id="aU" x1="117.121" x2="117.121" y1="189.623" y2="116.897" gradientUnits="userSpaceOnUse"><stop stop-color="#FF2A64"/><stop offset="1" stop-color="#FFAF48"/></linearGradient><linearGradient id="aV" x1="78.182" x2="78.182" y1="103.461" y2="265.013" gradientUnits="userSpaceOnUse"><stop stop-color="#03192E"/><stop offset=".5" stop-color="#223C6A"/><stop offset="1" stop-color="#4A74A2"/></linearGradient><linearGradient id="aW" x1="81.615" x2="81.615" y1="156.9" y2="308.796" gradientUnits="userSpaceOnUse"><stop stop-color="#03192E"/><stop offset=".5" stop-color="#223C6A"/><stop offset="1" stop-color="#4A74A2"/></linearGradient><linearGradient id="aX" x1="104.431" x2="104.431" y1="180.017" y2="133.184" gradientUnits="userSpaceOnUse"><stop stop-color="#03192E"/><stop offset=".5" stop-color="#223C6A"/><stop offset="1" stop-color="#4A74A2"/></linearGradient><linearGradient id="aY" x1="113.724" x2="113.724" y1="188.082" y2="148.8" gradientUnits="userSpaceOnUse"><stop stop-color="#03192E"/><stop offset=".5" stop-color="#223C6A"/><stop offset="1" stop-color="#4A74A2"/></linearGradient><linearGradient id="aZ" x1="100.08" x2="100.08" y1="163.505" y2="4.655" gradientUnits="userSpaceOnUse"><stop stop-color="#FF2A64"/><stop offset="1" stop-color="#FFAF48"/></linearGradient><linearGradient id="ba" x1="94.745" x2="94.745" y1="99.859" y2="-11.197" gradientUnits="userSpaceOnUse"><stop stop-color="#FF2A64"/><stop offset="1" stop-color="#FFAF48"/></linearGradient><linearGradient id="bb" x1="132.999" x2="132.999" y1="163.505" y2="4.655" gradientUnits="userSpaceOnUse"><stop stop-color="#FF2A64"/><stop offset="1" stop-color="#FFAF48"/></linearGradient><linearGradient id="bc" x1="138.334" x2="138.334" y1="99.859" y2="-11.197" gradientUnits="userSpaceOnUse"><stop stop-color="#FF2A64"/><stop offset="1" stop-color="#FFAF48"/></linearGradient><linearGradient id="bd" x1="116.516" x2="116.516" y1="289.541" y2="56.236" gradientUnits="userSpaceOnUse"><stop stop-color="#FF2A64"/><stop offset="1" stop-color="#FFAF48"/></linearGradient><linearGradient id="be" x1="111.123" x2="83.052" y1="95.976" y2="83.067" gradientUnits="userSpaceOnUse"><stop stop-color="#03192E"/><stop offset=".5" stop-color="#223C6A"/><stop offset="1" stop-color="#4A74A2"/></linearGradient><linearGradient id="bf" x1="108.68" x2="80.609" y1="101.289" y2="88.38" gradientUnits="userSpaceOnUse"><stop stop-color="#03192E"/><stop offset=".5" stop-color="#223C6A"/><stop offset="1" stop-color="#4A74A2"/></linearGradient><linearGradient id="bg" x1="131.931" x2="149.644" y1="90.858" y2="84.704" gradientUnits="userSpaceOnUse"><stop stop-color="#03192E"/><stop offset=".5" stop-color="#223C6A"/><stop offset="1" stop-color="#4A74A2"/></linearGradient><linearGradient id="bh" x1="133.843" x2="151.555" y1="96.362" y2="90.208" gradientUnits="userSpaceOnUse"><stop stop-color="#03192E"/><stop offset=".5" stop-color="#223C6A"/><stop offset="1" stop-color="#4A74A2"/></linearGradient><linearGradient id="bi" x1="117.238" x2="117.238" y1="110.844" y2="51.063" gradientUnits="userSpaceOnUse"><stop stop-color="#03192E"/><stop offset=".5" stop-color="#223C6A"/><stop offset="1" stop-color="#4A74A2"/></linearGradient><linearGradient id="bj" x1="102.341" x2="102.341" y1="113.669" y2="90.063" gradientUnits="userSpaceOnUse"><stop stop-color="#fff"/><stop offset="1" stop-color="#B5E0F7"/></linearGradient><linearGradient id="bk" x1="132.136" x2="132.136" y1="113.669" y2="90.063" gradientUnits="userSpaceOnUse"><stop stop-color="#fff"/><stop offset="1" stop-color="#B5E0F7"/></linearGradient><linearGradient id="bl" x1="117.239" x2="117.239" y1="117.572" y2="94.903" gradientUnits="userSpaceOnUse"><stop stop-color="#03192E"/><stop offset=".5" stop-color="#223C6A"/><stop offset="1" stop-color="#4A74A2"/></linearGradient><linearGradient id="bm" x1="117.149" x2="117.149" y1="122.675" y2="105.11" gradientUnits="userSpaceOnUse"><stop stop-color="#FF2A64"/><stop offset="1" stop-color="#FFAF48"/></linearGradient><linearGradient id="bn" x1="51.922" x2="51.922" y1="172.662" y2="132.36" gradientUnits="userSpaceOnUse"><stop stop-color="#FF2A64"/><stop offset="1" stop-color="#FFAF48"/></linearGradient><linearGradient id="bo" x1="75.308" x2="75.308" y1="176.114" y2="113.366" gradientUnits="userSpaceOnUse"><stop stop-color="#03192E"/><stop offset=".5" stop-color="#223C6A"/><stop offset="1" stop-color="#4A74A2"/></linearGradient><linearGradient id="bp" x1="75.308" x2="75.308" y1="161.103" y2="97.422" gradientUnits="userSpaceOnUse"><stop stop-color="#03192E"/><stop offset=".5" stop-color="#223C6A"/><stop offset="1" stop-color="#4A74A2"/></linearGradient><linearGradient id="bq" x1="64.477" x2="64.477" y1="202.533" y2="103.014" gradientUnits="userSpaceOnUse"><stop stop-color="#386E9F"/><stop offset="1" stop-color="#fff"/></linearGradient><linearGradient id="br" x1="-29.71" x2="95.18" y1="195.483" y2="153.152" gradientUnits="userSpaceOnUse"><stop stop-color="#FF2A64"/><stop offset="1" stop-color="#FFAF48"/></linearGradient><linearGradient id="bs" x1="-3.501" x2="74.256" y1="275.448" y2="152.059" gradientUnits="userSpaceOnUse"><stop stop-color="#FF2A64"/><stop offset="1" stop-color="#FFAF48"/></linearGradient><linearGradient id="bt" x1="117.12" x2="117.12" y1="231.805" y2="133.999" gradientUnits="userSpaceOnUse"><stop stop-color="#386E9F"/><stop offset="1" stop-color="#fff"/></linearGradient><linearGradient id="bu" x1="117.121" x2="117.121" y1="203.733" y2="101.059" gradientUnits="userSpaceOnUse"><stop stop-color="#386E9F"/><stop offset="1" stop-color="#fff"/></linearGradient><linearGradient id="bv" x1="33.406" x2="33.406" y1="184.693" y2="52.048" gradientUnits="userSpaceOnUse"><stop stop-color="#03192E"/><stop offset=".5" stop-color="#223C6A"/><stop offset="1" stop-color="#4A74A2"/></linearGradient><linearGradient id="bw" x1="21.549" x2="21.549" y1="81.499" y2="48.325" gradientUnits="userSpaceOnUse"><stop stop-color="#386E9F"/><stop offset="1" stop-color="#fff"/></linearGradient><linearGradient id="bx" x1="19.053" x2="19.053" y1="81.499" y2="48.325" gradientUnits="userSpaceOnUse"><stop stop-color="#386E9F"/><stop offset="1" stop-color="#fff"/></linearGradient><linearGradient id="by" x1="19.053" x2="19.053" y1="81.5" y2="48.326" gradientUnits="userSpaceOnUse"><stop stop-color="#386E9F"/><stop offset="1" stop-color="#fff"/></linearGradient><linearGradient id="bz" x1="33.406" x2="33.406" y1="98.505" y2="67.476" gradientUnits="userSpaceOnUse"><stop stop-color="#386E9F"/><stop offset="1" stop-color="#fff"/></linearGradient><linearGradient id="bA" x1="33.406" x2="33.406" y1="86.328" y2="58.386" gradientUnits="userSpaceOnUse"><stop stop-color="#03192E"/><stop offset=".5" stop-color="#223C6A"/><stop offset="1" stop-color="#4A74A2"/></linearGradient><linearGradient id="bB" x1="-39.428" x2="31.082" y1="79.999" y2="79.999" gradientUnits="userSpaceOnUse"><stop stop-color="#FF2A64"/><stop offset="1" stop-color="#FFAF48"/></linearGradient><linearGradient id="bC" x1="49.792" x2="49.792" y1="89.267" y2="59.233" gradientUnits="userSpaceOnUse"><stop stop-color="#108BB4"/><stop offset="1" stop-color="#40C67C"/></linearGradient><linearGradient id="bD" x1="201.754" x2="201.754" y1="200.762" y2="33.92" gradientUnits="userSpaceOnUse"><stop stop-color="#03192E"/><stop offset=".5" stop-color="#223C6A"/><stop offset="1" stop-color="#4A74A2"/></linearGradient><linearGradient id="bE" x1="186.463" x2="186.463" y1="108.721" y2="57.224" gradientUnits="userSpaceOnUse"><stop stop-color="#386E9F"/><stop offset="1" stop-color="#fff"/></linearGradient><linearGradient id="bF" x1="196.162" x2="196.162" y1="108.721" y2="57.224" gradientUnits="userSpaceOnUse"><stop stop-color="#386E9F"/><stop offset="1" stop-color="#fff"/></linearGradient><linearGradient id="bG" x1="205.862" x2="205.862" y1="108.721" y2="57.224" gradientUnits="userSpaceOnUse"><stop stop-color="#386E9F"/><stop offset="1" stop-color="#fff"/></linearGradient><linearGradient id="bH" x1="215.56" x2="215.56" y1="108.721" y2="57.224" gradientUnits="userSpaceOnUse"><stop stop-color="#386E9F"/><stop offset="1" stop-color="#fff"/></linearGradient><linearGradient id="bI" x1="197.826" x2="197.826" y1="94.298" y2="51.525" gradientUnits="userSpaceOnUse"><stop stop-color="#386E9F"/><stop offset="1" stop-color="#fff"/></linearGradient><linearGradient id="bJ" x1="201.736" x2="201.736" y1="82.271" y2="61.409" gradientUnits="userSpaceOnUse"><stop stop-color="#03192E"/><stop offset=".5" stop-color="#223C6A"/><stop offset="1" stop-color="#4A74A2"/></linearGradient><linearGradient id="bK" x1="201.736" x2="201.736" y1="82.271" y2="61.409" gradientUnits="userSpaceOnUse"><stop stop-color="#03192E"/><stop offset=".5" stop-color="#223C6A"/><stop offset="1" stop-color="#4A74A2"/></linearGradient><linearGradient id="bL" x1="200.324" x2="200.324" y1="82.271" y2="61.408" gradientUnits="userSpaceOnUse"><stop stop-color="#03192E"/><stop offset=".5" stop-color="#223C6A"/><stop offset="1" stop-color="#4A74A2"/></linearGradient><linearGradient id="bM" x1="189.516" x2="189.516" y1="85.76" y2="58.658" gradientUnits="userSpaceOnUse"><stop stop-color="#03192E"/><stop offset=".5" stop-color="#223C6A"/><stop offset="1" stop-color="#4A74A2"/></linearGradient><linearGradient id="bN" x1="188.747" x2="188.747" y1="71.827" y2="60.339" gradientUnits="userSpaceOnUse"><stop stop-color="#386E9F"/><stop offset="1" stop-color="#fff"/></linearGradient><linearGradient id="bO" x1="190.293" x2="190.293" y1="71.827" y2="60.339" gradientUnits="userSpaceOnUse"><stop stop-color="#386E9F"/><stop offset="1" stop-color="#fff"/></linearGradient><linearGradient id="bP" x1="189.521" x2="189.521" y1="71.828" y2="60.34" gradientUnits="userSpaceOnUse"><stop stop-color="#386E9F"/><stop offset="1" stop-color="#fff"/></linearGradient><linearGradient id="bQ" x1="201.754" x2="201.754" y1="131.109" y2="105.887" gradientUnits="userSpaceOnUse"><stop stop-color="#03192E"/><stop offset=".5" stop-color="#223C6A"/><stop offset="1" stop-color="#4A74A2"/></linearGradient><linearGradient id="bR" x1="201.754" x2="201.754" y1="124.521" y2="93.788" gradientUnits="userSpaceOnUse"><stop stop-color="#386E9F"/><stop offset="1" stop-color="#fff"/></linearGradient></defs></svg>