<svg xmlns="http://www.w3.org/2000/svg" width="189" height="220" fill="none"><path fill="url(#a)" d="M48.228 187.854c1.506-9.943 5.967-23.451 18.465-33.417l7.038 12.543 5.837-15.356 8.756 9.002 3.907-22.239-23.325-29.546-6.756-13.073-.753 19.262-24.114-12.943 11.569 21.909-26.245 9.802 23.585 6.107s-14.628 14.202-18.218 36.429c-3.142 19.415 9.391 37.841 28.598 42.113 19.09 4.236 46.581 1.576 74.991-30.699 0 0-39.696 33.511-70.33 22.368-9.074-3.306-14.44-12.72-13.005-22.262"/><path fill="url(#b)" d="m88.371 137.422-2.624 14.885-3.343-3.436-4.342-4.471-2.213 5.824-2.813 7.413-2.883-5.142-2.283-4.071-3.648 2.906c-13.617 10.849-18.348 25.522-19.913 35.924-1.73 11.484 4.813 22.662 15.57 26.58a40.7 40.7 0 0 0 9.203 2.165c-3.872-.094-7.791-.588-11.651-1.435-17.124-3.801-28.34-20.309-25.538-37.594 3.33-20.568 16.935-34.088 17.064-34.218l5.06-4.918-6.825-1.777-11.392-2.942 14.464-5.4 4.225-1.577-2.107-3.989-5.496-10.413 12.651 6.789 5.59 3 .248-6.342.165-4.224.011.035.236.294z"/><path fill="url(#c)" d="m139.778 101.746-7.109 10.649-17.241 25.569-2.53 3.765a12.2 12.2 0 0 1-3.978 3.73c-6.897 3.977-16.418.376-21.278-8.037-3.201-5.53-3.578-11.766-1.507-16.52l.836-2.047 1.553-3.813 10.828-26.545 1-2.46 4.743-11.625.506-1.235z"/><path fill="url(#d)" d="m115.44 137.964-2.531 3.765a12.2 12.2 0 0 1-3.977 3.73c-6.897 3.977-16.418.377-21.279-8.036-3.2-5.531-3.577-11.767-1.506-16.521l2.39-5.86c2.223 8.872 9.402 29.593 26.903 22.922"/><path fill="url(#e)" d="m111.32 90.838-14.652 27.216a1.515 1.515 0 0 1-2.06.612 1.52 1.52 0 0 1-.635-2.012l13.84-27.64a1.973 1.973 0 0 1 3.531 1.765.1.1 0 0 1-.024.059"/><path fill="url(#f)" d="m139.777 101.746-7.108 10.649c-11.227 2.576-20.242-3.189-25.397-8.331-5.014-5-7.073-11.26-7.92-15.58l1-2.458 5.249-12.861z"/><path fill="#fff" d="m108.672 76.812-21.701 42.031 1.565-3.813 10.827-26.545 1.001-2.46 4.742-11.625z" opacity=".3"/><path fill="url(#g)" d="M140.707 75.377c6.403 11.085 4.237 24.322-4.848 29.558-9.074 5.236-21.631.494-28.034-10.59s-4.236-24.321 4.849-29.558 21.631-.494 28.033 10.59"/><path fill="url(#h)" d="M133.869 79.32c3.743 6.483 2.472 14.213-2.836 17.273-5.308 3.059-12.64.294-16.382-6.19-3.742-6.483-2.471-14.214 2.836-17.273 5.308-3.06 12.652-.294 16.382 6.19"/><path fill="url(#i)" d="M129.491 81.848c2.036 3.519 1.342 7.731-1.542 9.39-2.883 1.66-6.873.153-8.909-3.365s-1.341-7.73 1.542-9.39c2.884-1.67 6.873-.153 8.909 3.365"/><path fill="url(#j)" d="m112.662 101.746-7.108 10.649-17.23 25.569-2.53 3.765a12.2 12.2 0 0 1-3.978 3.73c-6.896 3.977-16.417.376-21.278-8.037-3.2-5.53-3.577-11.766-1.506-16.52l.836-2.047 1.553-3.813 10.827-26.545 1-2.46 4.743-11.625.507-1.235z"/><path fill="url(#k)" d="m88.324 137.964-2.53 3.765a12.2 12.2 0 0 1-3.978 3.73c-6.896 3.977-16.417.377-21.278-8.036-3.2-5.531-3.577-11.767-1.506-16.521l2.389-5.86c2.212 8.872 9.392 29.593 26.903 22.922"/><path fill="url(#l)" d="m84.206 90.838-14.652 27.216a1.515 1.515 0 0 1-2.06.612 1.52 1.52 0 0 1-.635-2.012l13.84-27.64a1.974 1.974 0 0 1 3.53 1.765.2.2 0 0 0-.023.059"/><path fill="url(#m)" d="m112.662 101.746-7.108 10.649c-11.228 2.576-20.243-3.189-25.397-8.331-5.014-5-7.073-11.26-7.92-15.58l1-2.458 5.249-12.861z"/><path fill="#fff" d="m81.558 76.812-21.702 42.031 1.553-3.813 10.828-26.545 1-2.46L77.98 74.4z" opacity=".3"/><path fill="url(#n)" d="M113.58 75.377c6.402 11.085 4.237 24.322-4.849 29.558-9.073 5.236-21.63.494-28.033-10.59-6.402-11.084-4.237-24.321 4.849-29.558s21.631-.494 28.033 10.59"/><path fill="url(#o)" d="M106.755 79.32c3.742 6.483 2.471 14.213-2.837 17.273-5.307 3.059-12.64.294-16.382-6.19-3.742-6.483-2.471-14.214 2.837-17.273 5.307-3.06 12.639-.294 16.382 6.19"/><path fill="url(#p)" d="M102.365 81.848c2.036 3.519 1.342 7.731-1.542 9.39-2.883 1.66-6.872.153-8.908-3.365-2.037-3.518-1.342-7.73 1.541-9.39 2.895-1.67 6.885-.153 8.909 3.365"/><path fill="url(#q)" d="M138.589 156.225c-3.754 6.837-10.545 11.426-17.794 14.473-6.932 2.93-14.276 4.424-19.807 5.119a67 67 0 0 1-5.65.482 34 34 0 0 0-4.754.553c-2.389.424-4.884 1.059-7.214 1.73-5.86 1.706-10.768 3.742-10.768 3.742s-7.403 11.731-11.098 11.331c-2.213-.247-2.672-1.812-2.684-3.024 0-.812.189-1.471.189-1.471l2.6-13.579 18.736-11.99 16.736-10.707 10.721.87 9.003.73z"/><path fill="url(#r)" d="M138.589 156.225c-3.754 6.837-10.545 11.426-17.795 14.473-.423-2.518-2.083-5.342-4.295-8.119-2.519-3.165-5.743-6.271-8.697-8.848-4.261-3.73-7.92-6.343-7.92-6.343l3.718-1.094 13.217 8.166z"/><path fill="url(#s)" d="M101 175.816a67 67 0 0 1-5.65.483 34 34 0 0 0-4.754.553c-2.389.423-4.884 1.059-7.214 1.73-.353-2.93-.965-8.872-.965-8.872l7.155-2.836c-.011 0-.706 6.695 11.428 8.942"/><path fill="url(#t)" d="M90.595 176.852c-2.612.47-5.343 1.176-7.85 1.918a114 114 0 0 0-10.12 3.553s-7.403 11.731-11.099 11.331c-3.695-.4-2.495-4.506-2.495-4.506l2.601-13.579 18.736-11.99 7.932-.988.26-.036 1.247-.153-.495 1.612-2.153 6.99c-.012 0 .977 3.436 3.436 5.848"/><path fill="url(#u)" d="M90.596 176.852c-1.483.27-2.99.612-4.484.988a114 114 0 0 0-3.366.93c-2.577-2.777-3.178-6.543-3.178-6.543l8.733-9.636.176-.189.083.153.753 1.459-.883 2.86-1.27 4.13c-.013 0 .976 3.436 3.436 5.848"/><path fill="url(#v)" d="M90.596 176.852c-1.483.271-2.99.612-4.484.988-2.754-3.789-3.295-7.26-3.295-7.26s3.401-2.247 5.614-3.718l-1.271 4.13c-.012.012.976 3.448 3.436 5.86"/><path fill="url(#w)" d="M121.865 157.578c-1.129 1.883-3.001 3.542-5.366 5.001-7.626 4.706-20.337 7.307-29.351 8.413-.212.023-.424.059-.636.094-11.51 1.624-20.501 8.825-20.501 8.825-1.4 3.624-4.331 8.331-7.18 10.708-1.259 1.047-2.506 1.647-3.589 1.494-3.542-.483-2.012-5.625-.965-9.555 1.048-3.941 0-5.624 1.613-7.718s4.695-.883 4.695-.883c7.603-12.108 18.371-14.979 18.371-14.979l10.934-11.602c-.4-4.647 3.377-7.483 3.377-7.483l10.345 6.389 13.216 8.166z"/><path fill="url(#x)" d="M74.025 168.403a.741.741 0 0 1-.294-1.424c.106-.047 10.31-4.506 18.724-14.355-.224-2.6.577-7.33 5.19-8.554.4-.106.8.129.906.529s-.13.8-.53.906c-4.766 1.271-4.095 7.025-4.06 7.272a.8.8 0 0 1-.164.577c-8.697 10.295-19.042 14.814-19.478 15.002a.9.9 0 0 1-.294.047"/><path fill="url(#y)" d="M121.866 157.578c-1.13 1.883-3.001 3.542-5.367 5.001-2.518-3.165-5.743-6.272-8.697-8.849-4.26-3.73-7.92-6.342-7.92-6.342l3.719-1.094 13.216 8.166z"/><path fill="url(#z)" d="M86.524 171.086c-2.824.4-5.496 1.13-7.909 2.012-7.46 2.718-12.58 6.813-12.58 6.813-2.013 5.225-7.226 12.696-10.769 12.214-3.542-.482-2.012-5.624-.965-9.555 1.048-3.941 0-5.624 1.612-7.718s4.696-.883 4.696-.883c3.802-6.048 8.391-9.79 12.028-12.025 3.648-2.236 6.343-2.954 6.343-2.954s.553 8.578 7.544 12.096"/><path fill="url(#A)" d="M86.524 171.086a38.5 38.5 0 0 0-5.25 1.141c-.917.259-1.8.553-2.659.871-5.237-4.177-6.002-8.766-5.99-11.155a33 33 0 0 1 3.036-1.647c2.013-.953 3.295-1.294 3.295-1.294s.577 8.566 7.568 12.084"/><path fill="url(#B)" d="M86.524 171.086a38.5 38.5 0 0 0-5.25 1.141c-4.612-5.165-5.53-9.519-5.613-11.931 2.013-.953 3.295-1.294 3.295-1.294s.577 8.566 7.568 12.084"/><path fill="url(#C)" d="M155.854 159.002c-.494.094-.965.177-1.4.212-2.366.247-3.99-.282-4.92-2.106-.941-1.859.189-3.307.53-3.683l.094-.094-2.495-3.93 13.052-8.508.282-.188s1.342 3.365 2.377 6.895c.554 1.859 1.024 3.777 1.166 5.248.4 4.248-5.544 5.53-8.686 6.154"/><path fill="url(#D)" d="M154.453 159.214c-2.365.247-3.989-.283-4.919-2.106-.942-1.859.188-3.307.529-3.683l.095-.094-2.495-3.93 13.051-8.508c-6.19 6.237-6.579 13.955-6.261 18.321"/><path fill="url(#E)" d="M155.854 159.002c-3.131.612-5.214.271-6.32-1.895-.942-1.859.188-3.306.53-3.682l.094-.095s4.213-4.212 9.615-5.436c2.001-.447 3.989.8 4.425 2.801.165.776.294 1.506.353 2.141.388 4.26-5.555 5.542-8.697 6.166"/><path fill="url(#F)" d="m179.698 129.409-3.178 2.071-9.309 6.083-22.431 14.662s-1.989 4.283-5.39 5.247c-1.448.412-6.885 1.813-14.04 1.471-4.025-.188-8.591-.941-13.299-2.718h-.012a41.7 41.7 0 0 1-8.697-4.542c-3.53-2.412-7.014-5.589-10.25-9.707-.8-1.012-1.166-2.33-.848-3.577.318-1.259 1.295-2.53 3.896-2.612l.106-.659 3.06-19.733 2.353-15.12s4.002-1.059 9.686-2.224a200 200 0 0 1 9.509-1.706c4.366-.659 8.933-1.165 13.075-1.27 10.651-.248 36.319 5.8 47.546 8.589 3.354.824 5.414 1.377 5.414 1.377s5.025 16.014-7.191 24.368"/><path fill="url(#G)" d="m96.233 135.128 3.06-19.733 14.37-1.541s.588 17.261-17.43 21.274"/><path fill="url(#H)" d="m179.698 129.409-3.178 2.071c9.827-12.132 5.108-22.945 5.108-22.945l-.165-4.872a290 290 0 0 1 5.414 1.377s5.037 16.014-7.179 24.369"/><path fill="url(#I)" d="m167.211 137.563-22.431 14.662s-1.989 4.283-5.39 5.248c-1.448.411-6.885 1.812-14.04 1.47 7.426-4.2 34.612-20.391 44.003-37.523l10.345-7.566s.906 9.284-12.487 23.709"/><path fill="url(#J)" d="M128.056 118.207c-.247 13.331-10.827 30.44-16.005 38.018h-.012l-8.697-4.542c25.821-31.676 14.381-47.949 7.991-53.632a200 200 0 0 1 9.509-1.707c3.307 4.048 7.403 11.249 7.214 21.863"/><path fill="url(#K)" d="M129.798 104.064s5.166 21.333 22.208 22.886 24.585-8.743 24.585-8.743z"/><path fill="url(#L)" d="m168.129 51.032-11.933 6.354s-2.978-.259-7.509-1.188c-6.496-1.33-16.158-4.013-24.773-9.214-3.943-2.376-7.662-5.283-10.757-8.836-8.25-9.46-9.285-20.439-8.638-28.181.059-.694.129-1.353.212-1.989.612-4.824 1.777-7.966 1.777-7.966l12.604 10.437 44.098 36.524h.012z"/><path fill="url(#M)" d="m152.606 49.643-3.919 6.542c-6.496-1.33-16.158-4.012-24.773-9.213-3.943-2.377-7.662-5.283-10.757-8.836-8.25-9.46-9.285-20.439-8.638-28.181 7.344 10.201 27.574 35.876 48.087 39.688"/><path fill="url(#N)" d="M123.914 46.972c-3.942-2.377-7.661-5.283-10.756-8.836C98.588 21.427 106.52 0 106.52 0l12.604 10.437c-1.824 4.412-6.108 18.568 4.79 36.535"/><path fill="#FFCA83" d="M163.234 46.972 104.743 7.966C105.355 3.142 106.52 0 106.52 0l12.604 10.437z" opacity=".6"/><path fill="url(#O)" d="M187.795 74.435a43 43 0 0 0-.859-3.436c-2.954-10.166-9.792-19.144-24.338-21.085-33.753-4.507-38.731 25.274-38.731 25.274s-5.685 37.712 24.773 45.125c0 0 33.741 9.778 38.237-15.285 0 0 1.612-6.436 1.989-14.931.047-1.012.07-2.048.082-3.118.024-4.001-.282-8.308-1.153-12.544"/><path fill="url(#P)" d="M179.698 84.837c-.059 13.484-3.625 26.898-6.72 36.006-4.684 1.423-9.792 1.541-14.099 1.212 1.471-3.566 2.777-7.001 3.577-9.79 3.225-11.202 4.708-20.45 5.002-28.099.2-5.283-.153-9.79-.906-13.649-2.566-13.179-9.615-18.685-13.934-20.874 3.012-.235 6.331-.165 10.003.27 1.989.236 3.813.613 5.52 1.107 5.66 5.942 8.85 13.19 10.392 20.874.835 4.224 1.188 8.59 1.165 12.943"/><path fill="url(#Q)" d="M188.948 86.979c-4.519-1.577-11.11-2.895-20.454-2.825-5.438.036-11.816.542-19.254 1.742-.047 0-.082.012-.13.023a6.28 6.28 0 0 1-4.942-1.435 6.24 6.24 0 0 1-2.201-4.765c0-2.6 1.553-4.884 3.966-5.825a37 37 0 0 1 1.459-.541c6.532-2.318 13.146-2.989 19.101-2.836 10.156.247 18.43 2.895 21.301 3.918.871 4.236 1.177 8.543 1.154 12.543"/><path fill="url(#R)" d="M188.948 86.978c0 1.071-.035 2.106-.082 3.118-12.134-4.636-29.646-2.812-39.155-1.282a9.25 9.25 0 0 1-7.473-2.083 9.19 9.19 0 0 1-3.237-7.013c0-3.824 2.295-7.2 5.85-8.59 17.406-6.824 35.118-2.412 42.085-.129.329 1.13.612 2.283.859 3.436-4.672-1.683-23.738-7.66-41.862-.553a6.21 6.21 0 0 0-3.966 5.824 6.26 6.26 0 0 0 7.273 6.178c20.231-3.248 32.565-1.388 39.708 1.094"/><path fill="url(#S)" d="M188.948 86.978c0 1.071-.035 2.106-.082 3.118-12.134-4.636-29.646-2.812-39.155-1.282a9.25 9.25 0 0 1-7.473-2.083 9.19 9.19 0 0 1-3.237-7.013c0-3.824 2.295-7.2 5.85-8.59 17.406-6.824 35.118-2.412 42.085-.129.329 1.13.612 2.283.859 3.436-4.672-1.683-23.738-7.66-41.862-.553a6.21 6.21 0 0 0-3.966 5.824 6.26 6.26 0 0 0 7.273 6.178c20.231-3.248 32.565-1.388 39.708 1.094"/><path fill="#fff" d="M153.218 71.706c4.578-.989 9.086-1.294 13.275-1.189.636 4.13 1.424 9.578 2.001 13.638-3.907.023-8.309.294-13.228.894zm-2.307.553c-1.176.318-2.342.67-3.518 1.082l1.718 12.567c.047 0 .082-.012.129-.023 1.248-.2 2.46-.377 3.66-.542z"/><path fill="url(#T)" d="M144.144 68.917a1.74 1.74 0 0 1-1.718-1.13c-.341-.941.141-2.012 1.094-2.4.212-.094 5.32-2.177 12.004-3.177 1.001-.153 1.907.54 2.001 1.541.106 1-.624 1.941-1.636 2.095-6.202.929-11.074 2.918-11.121 2.941-.212.07-.424.118-.624.13"/><path fill="url(#U)" d="M153.7 121.42c-3.071-.518-5.06-1.095-5.06-1.095-.141-.035-.271-.07-.412-.106-11.628-2.965-17.9-10.39-21.219-18.379a42.4 42.4 0 0 1-1.942-5.883c6.331-.812 28.998-1.8 28.633 25.463"/><path fill="url(#V)" d="M148.24 120.219c-11.628-2.965-17.901-10.39-21.219-18.379 7.861.506 18.7 3.906 21.219 18.379"/><path fill="url(#W)" d="M139.39 62.81c0 7.178-5.119 17.368-15.923 18.415.023-1.73.117-3.165.212-4.2.106-1.166.2-1.825.2-1.825s1.082-8.613 7.614-15.86a27 27 0 0 1 1.907-1.919c2.742-.235 5.99.518 5.99 5.39"/><path fill="url(#X)" d="M136.294 63.363c0 1.836-.494 3.93-1.518 5.93-1.883 3.695-5.543 7.025-11.098 7.72-19.277 4.365-34.635 4.153-46.84 1.282-20.7-4.871-32.352-17.438-38.766-28.393a69 69 0 0 1-2.79-5.283c-3.647-7.742-4.624-13.65-4.624-13.65 6.414 5.331 14.581 9.673 23.478 13.215C87.62 57.48 131.493 59.35 131.493 59.35c2.236-.142 4.79.482 4.801 4.012"/><path fill="url(#Y)" d="M134.765 69.305c-1.883 3.694-5.543 7.024-11.098 7.719-19.278 4.365-34.636 4.153-46.84 1.282-20.69-4.883-32.34-17.45-38.755-28.404 18.536 11.954 56.09 30.675 96.693 19.403"/><path fill="url(#Z)" d="M76.838 78.295c-39.896-9.402-46.18-47.338-46.18-47.338 6.414 5.33 14.581 9.673 23.478 13.214 1.095 5.99 5.532 22.04 22.702 34.124"/><path fill="#FFCA83" d="M131.493 59.339c-32.376 5.294-68.26-1.965-96.21-14.732-3.649-7.743-4.625-13.65-4.625-13.65 6.414 5.33 14.581 9.673 23.478 13.214C87.62 57.48 131.493 59.34 131.493 59.34" opacity=".6"/><path fill="url(#aa)" d="M87.725 107.147s9.697-11.814 20.36-5.319c10.662 6.496 8.038 21.38-5.967 25.11z"/><path fill="url(#ab)" d="m70.095 123.09 17.63-15.943a11.97 11.97 0 0 1 7.144-3.06 11.98 11.98 0 0 1 10.686 5.072l.365.517a11.975 11.975 0 0 1 .235 13.367l-.047.083a12 12 0 0 1-5.143 4.412l-19.419 8.731H73.65l-5.307-9.778z"/><path fill="url(#ac)" d="M94.033 123.997a8.414 8.414 0 1 0 0-16.826 8.413 8.413 0 1 0 0 16.826"/><path fill="url(#ad)" d="M94.033 121.443a5.86 5.86 0 1 0 0-11.719 5.86 5.86 0 1 0 0 11.719"/><path fill="url(#ae)" d="m93.032 116.242-1.483-1.165 2.166-3.318a1.295 1.295 0 1 1 2.024 1.6z"/><path fill="url(#af)" d="m93.397 116.642 1.06 1.553 3.46-1.918c.658-.376.87-1.235.446-1.859-.423-.635-1.306-.753-1.894-.282z"/><path fill="url(#ag)" d="M89.066 114.383a4.5 4.5 0 0 0-.895 1.177c0 1.471.542 2.942 1.636 4.083a5.83 5.83 0 0 0 4.025 1.789c.4-.189.765-.436 1.106-.742a4.31 4.31 0 0 0 .224-6.083c-1.624-1.741-4.354-1.847-6.096-.224"/><path fill="url(#ah)" d="M91.408 116.007c-.235.211-.553.247-.718.07-.165-.176-.106-.494.13-.706.235-.212.553-.247.718-.07.164.176.106.494-.13.706"/><path fill="url(#ai)" d="M94.044 118.842c-.235.212-.553.248-.718.071-.164-.176-.105-.494.13-.706s.553-.247.718-.071c.153.177.106.483-.13.706"/><path fill="url(#aj)" d="M81.558 136.257s-2.118 2.318-6.155 4.612a34 34 0 0 1-8.203 3.319c-1.754.459-3.119 1.023-4.178 1.659-1.106.659-1.895 1.388-2.436 2.118-1.907 2.577-.894 5.212-.894 5.212s4.766 3.695 3.048 7.66c-.518 1.189-1.318 2.177-2.19 2.989a13.6 13.6 0 0 1-2.2 1.659 6.1 6.1 0 0 1-4.366.777l-.93-.188a6.1 6.1 0 0 1-3.354-1.871l-1.295-1.401c-2.8-3.047-3.695-7.401-2.26-11.284 2.602-7.036 8.015-18.085 17.948-25.051a35.8 35.8 0 0 1 5.99-3.4s.918 3.094 3.331 6.448c1.8 2.518 4.437 5.154 8.144 6.742"/><path fill="url(#ak)" d="M81.558 136.257s-2.119 2.318-6.155 4.613a34 34 0 0 1-8.203 3.318c-1.754.459-3.119 1.024-4.178 1.659 6.014-5.648 8.968-11.719 10.404-16.308 1.788 2.494 4.425 5.13 8.132 6.718"/><path fill="url(#al)" d="M60.563 163.838a13.7 13.7 0 0 1-2.201 1.659c.082-.153 1.612-3.212.941-7.284-.011.012 1.519 2.389 1.26 5.625"/><path fill="url(#am)" d="M81.558 136.257s-.93 1.012-2.73 2.377a31.5 31.5 0 0 1-3.425 2.248c-8.074-3.448-10.592-11.226-11.31-14.391a40 40 0 0 1 2.6-1.671 35 35 0 0 1 3.39-1.741c.012.012 2.79 9.437 11.475 13.178"/><path fill="url(#an)" d="M81.558 136.257s-.93 1.012-2.73 2.377c-8.368-3.636-11.204-10.307-12.122-13.814a35 35 0 0 1 3.39-1.741c0 .012 2.777 9.437 11.462 13.178"/><path fill="url(#ao)" d="M144.779 152.224s-1.989 4.283-5.39 5.248c-3.354.941-28.339 7.295-46.31-15.508-.8-1.012-1.165-2.33-.847-3.577.317-1.259 1.294-2.53 3.895-2.613 0 .012 9.285 25.875 48.652 16.45"/><path fill="url(#ap)" d="M138.589 132.457s.212-3.542 1.824-4.436 3.142 1.024 2.495 2.353c0 0 2.919-4.33 5.472-1.4 2.295 2.647-1.765 5.342-1.765 5.342s2.413-.247 2.86 1.424c.459 1.671-2.978 3.977-5.378 3.047z"/><path fill="#fff" d="M140.237 133.351c-.047-.035-.083-.106-.059-.165l.788-2.918a.127.127 0 0 1 .165-.082c.071.023.118.106.094.176l-.788 2.918a.13.13 0 0 1-.165.083c-.012 0-.023-.012-.035-.012M142.155 134.563l-.023-.024a.135.135 0 0 1 0-.2l4.036-3.836a.133.133 0 0 1 .189.012.137.137 0 0 1 0 .2l-4.037 3.836a.13.13 0 0 1-.165.012M143.614 137.21a.3.3 0 0 1-.058-.07c-.024-.071.011-.153.082-.165l2.977-.812c.071-.023.153.024.177.094s-.012.153-.082.165l-2.978.812c-.047.012-.094 0-.118-.024"/><path fill="url(#aq)" d="M140.002 144.306c-.295.164-.577.329-.871.482-3.531 1.848-7.544 2.683-9.204.765-1.012-1.165-.894-3.036-.129-5.06.129-.341.271-.67.424-1 .918-1.953 2.353-3.942 3.919-5.483.235-.235.47-.459.718-.671.2-.176.4-.341.6-.506 3.966-3.13 7.732 1.201 7.732 1.201s3.766 4.33.106 7.813c-.906.882-2.06 1.729-3.295 2.459"/><path fill="url(#ar)" d="m138.424 138.128-.07.071c-.177.153-.483.117-.659-.083l-3.554-4.083c.235-.235.47-.459.718-.67l3.577 4.118c.177.188.177.482-.012.647"/><path fill="url(#as)" d="M140.001 144.306c-.294.164-.576.329-.871.482l-2.848-3.271c-.176-.212-.176-.506.012-.659l.071-.059c.188-.165.482-.118.659.082z"/><path fill="url(#at)" d="m133.199 143.6-.071.059c-.188.164-.482.117-.659-.083l-2.683-3.083c.13-.341.271-.67.424-1l2.989 3.436c.188.224.188.518 0 .671"/><path fill="url(#au)" d="m45.568 89.062 4.143 12.708 3.366-4.236 3.378 10.319-1.436-18.18-2.907 3.919-1.589-10.673z"/><path fill="url(#av)" d="m14.946 151.012 13.193-2.153-3.672-3.977 10.721-1.753-18.194-1.365 3.436 3.471-10.792-.059z"/><path fill="url(#aw)" d="m2.165 109.582 29.587 13.049-1.083-5.318 10.074 4.059-14.84-10.601 1.13 4.753L.647 101.84z"/><defs><linearGradient id="a" x1="75.016" x2="78.737" y1="52.232" y2="246.516" gradientUnits="userSpaceOnUse"><stop stop-color="#1481B4"/><stop offset=".5" stop-color="#1B9CC9" stop-opacity=".5"/><stop offset="1" stop-color="#36C3C9" stop-opacity="0"/></linearGradient><linearGradient id="b" x1="76.507" x2="33.183" y1="96.504" y2="237.086" gradientUnits="userSpaceOnUse"><stop stop-color="#1481B4"/><stop offset=".5" stop-color="#1B9CC9" stop-opacity=".5"/><stop offset="1" stop-color="#36C3C9" stop-opacity="0"/></linearGradient><linearGradient id="c" x1="45.862" x2="119.772" y1="205.906" y2="91.914" gradientUnits="userSpaceOnUse"><stop stop-color="#03192E"/><stop offset=".5" stop-color="#223C6A"/><stop offset="1" stop-color="#4A74A2"/></linearGradient><linearGradient id="d" x1="67.78" x2="104.84" y1="203.99" y2="120" gradientUnits="userSpaceOnUse"><stop stop-color="#03192E"/><stop offset=".5" stop-color="#223C6A"/><stop offset="1" stop-color="#4A74A2"/></linearGradient><linearGradient id="e" x1="81.352" x2="109.629" y1="147.148" y2="89.511" gradientUnits="userSpaceOnUse"><stop stop-color="#1481B4"/><stop offset=".5" stop-color="#1B9CC9"/><stop offset="1" stop-color="#36C3C9"/></linearGradient><linearGradient id="f" x1="104.294" x2="122.449" y1="124.569" y2="87.93" gradientUnits="userSpaceOnUse"><stop stop-color="#386E9F"/><stop offset="1" stop-color="#fff"/></linearGradient><linearGradient id="g" x1="129.457" x2="115.105" y1="105.3" y2="48.737" gradientUnits="userSpaceOnUse"><stop stop-color="#03192E"/><stop offset=".5" stop-color="#223C6A"/><stop offset="1" stop-color="#4A74A2"/></linearGradient><linearGradient id="h" x1="145.266" x2="106.706" y1="129.065" y2="47.86" gradientUnits="userSpaceOnUse"><stop stop-color="#03192E"/><stop offset=".5" stop-color="#223C6A"/><stop offset="1" stop-color="#4A74A2"/></linearGradient><linearGradient id="i" x1="137.692" x2="122.108" y1="118.622" y2="79.413" gradientUnits="userSpaceOnUse"><stop stop-color="#03192E"/><stop offset=".5" stop-color="#223C6A"/><stop offset="1" stop-color="#4A74A2"/></linearGradient><linearGradient id="j" x1="18.741" x2="92.65" y1="205.906" y2="91.914" gradientUnits="userSpaceOnUse"><stop stop-color="#03192E"/><stop offset=".5" stop-color="#223C6A"/><stop offset="1" stop-color="#4A74A2"/></linearGradient><linearGradient id="k" x1="40.659" x2="77.719" y1="203.99" y2="120" gradientUnits="userSpaceOnUse"><stop stop-color="#03192E"/><stop offset=".5" stop-color="#223C6A"/><stop offset="1" stop-color="#4A74A2"/></linearGradient><linearGradient id="l" x1="54.231" x2="82.508" y1="147.148" y2="89.511" gradientUnits="userSpaceOnUse"><stop stop-color="#1481B4"/><stop offset=".5" stop-color="#1B9CC9"/><stop offset="1" stop-color="#36C3C9"/></linearGradient><linearGradient id="m" x1="77.173" x2="95.328" y1="124.569" y2="87.93" gradientUnits="userSpaceOnUse"><stop stop-color="#386E9F"/><stop offset="1" stop-color="#fff"/></linearGradient><linearGradient id="n" x1="102.335" x2="87.983" y1="105.3" y2="48.737" gradientUnits="userSpaceOnUse"><stop stop-color="#03192E"/><stop offset=".5" stop-color="#223C6A"/><stop offset="1" stop-color="#4A74A2"/></linearGradient><linearGradient id="o" x1="118.145" x2="79.585" y1="129.065" y2="47.86" gradientUnits="userSpaceOnUse"><stop stop-color="#03192E"/><stop offset=".5" stop-color="#223C6A"/><stop offset="1" stop-color="#4A74A2"/></linearGradient><linearGradient id="p" x1="110.572" x2="94.987" y1="118.622" y2="79.413" gradientUnits="userSpaceOnUse"><stop stop-color="#03192E"/><stop offset=".5" stop-color="#223C6A"/><stop offset="1" stop-color="#4A74A2"/></linearGradient><linearGradient id="q" x1="82.967" x2="134.867" y1="187.581" y2="122.815" gradientUnits="userSpaceOnUse"><stop stop-color="#386E9F"/><stop offset="1" stop-color="#fff"/></linearGradient><linearGradient id="r" x1="118.576" x2="119.861" y1="179.691" y2="125.7" gradientUnits="userSpaceOnUse"><stop stop-color="#386E9F"/><stop offset="1" stop-color="#fff"/></linearGradient><linearGradient id="s" x1="91.565" x2="92.636" y1="177.99" y2="138.354" gradientUnits="userSpaceOnUse"><stop stop-color="#386E9F"/><stop offset="1" stop-color="#fff"/></linearGradient><linearGradient id="t" x1="91.021" x2="39.065" y1="161.825" y2="211.969" gradientUnits="userSpaceOnUse"><stop stop-color="#03192E"/><stop offset=".5" stop-color="#223C6A"/><stop offset="1" stop-color="#4A74A2"/></linearGradient><linearGradient id="u" x1="93.607" x2="83.646" y1="200.182" y2="165.473" gradientUnits="userSpaceOnUse"><stop stop-color="#03192E"/><stop offset=".5" stop-color="#223C6A"/><stop offset="1" stop-color="#4A74A2"/></linearGradient><linearGradient id="v" x1="79.718" x2="90.536" y1="150.014" y2="184.616" gradientUnits="userSpaceOnUse"><stop stop-color="#FF2A64"/><stop offset="1" stop-color="#FFAF48"/></linearGradient><linearGradient id="w" x1="39.317" x2="153.361" y1="206.078" y2="110.928" gradientUnits="userSpaceOnUse"><stop stop-color="#386E9F"/><stop offset="1" stop-color="#fff"/></linearGradient><linearGradient id="x" x1="39.744" x2="105.144" y1="200.293" y2="139.702" gradientUnits="userSpaceOnUse"><stop stop-color="#386E9F"/><stop offset="1" stop-color="#fff"/></linearGradient><linearGradient id="y" x1="107.481" x2="112.782" y1="176.578" y2="138.978" gradientUnits="userSpaceOnUse"><stop stop-color="#386E9F"/><stop offset="1" stop-color="#fff"/></linearGradient><linearGradient id="z" x1="77.162" x2="14.171" y1="168.124" y2="218.805" gradientUnits="userSpaceOnUse"><stop stop-color="#03192E"/><stop offset=".5" stop-color="#223C6A"/><stop offset="1" stop-color="#4A74A2"/></linearGradient><linearGradient id="A" x1="90.576" x2="70.975" y1="194.543" y2="146.763" gradientUnits="userSpaceOnUse"><stop stop-color="#03192E"/><stop offset=".5" stop-color="#223C6A"/><stop offset="1" stop-color="#4A74A2"/></linearGradient><linearGradient id="B" x1="85.684" x2="79.794" y1="197.705" y2="156.998" gradientUnits="userSpaceOnUse"><stop stop-color="#FF2A64"/><stop offset="1" stop-color="#FFAF48"/></linearGradient><linearGradient id="C" x1="154.002" x2="163.749" y1="143.018" y2="180.512" gradientUnits="userSpaceOnUse"><stop stop-color="#03192E"/><stop offset=".5" stop-color="#223C6A"/><stop offset="1" stop-color="#4A74A2"/></linearGradient><linearGradient id="D" x1="158.139" x2="150.106" y1="164.044" y2="125.586" gradientUnits="userSpaceOnUse"><stop stop-color="#03192E"/><stop offset=".5" stop-color="#223C6A"/><stop offset="1" stop-color="#4A74A2"/></linearGradient><linearGradient id="E" x1="159.846" x2="156.098" y1="184.01" y2="146.838" gradientUnits="userSpaceOnUse"><stop stop-color="#03192E"/><stop offset=".5" stop-color="#223C6A"/><stop offset="1" stop-color="#4A74A2"/></linearGradient><linearGradient id="F" x1="87.602" x2="199.752" y1="201.471" y2="21.485" gradientUnits="userSpaceOnUse"><stop stop-color="#386E9F"/><stop offset="1" stop-color="#fff"/></linearGradient><linearGradient id="G" x1="105.139" x2="104.496" y1="146.598" y2="71.611" gradientUnits="userSpaceOnUse"><stop stop-color="#386E9F"/><stop offset="1" stop-color="#fff"/></linearGradient><linearGradient id="H" x1="184.614" x2="180.329" y1="169.496" y2="84.226" gradientUnits="userSpaceOnUse"><stop stop-color="#FF2A64"/><stop offset="1" stop-color="#FFAF48"/></linearGradient><linearGradient id="I" x1="109.954" x2="167.793" y1="248.713" y2="98.304" gradientUnits="userSpaceOnUse"><stop stop-color="#03192E"/><stop offset=".5" stop-color="#223C6A"/><stop offset="1" stop-color="#4A74A2"/></linearGradient><linearGradient id="J" x1="72.334" x2="130.173" y1="234.246" y2="83.837" gradientUnits="userSpaceOnUse"><stop stop-color="#03192E"/><stop offset=".5" stop-color="#223C6A"/><stop offset="1" stop-color="#4A74A2"/></linearGradient><linearGradient id="K" x1="147.102" x2="153.743" y1="173.581" y2="105.45" gradientUnits="userSpaceOnUse"><stop stop-color="#FF2A64"/><stop offset="1" stop-color="#FFAF48"/></linearGradient><linearGradient id="L" x1="192.048" x2="113.318" y1="119.25" y2="5.149" gradientUnits="userSpaceOnUse"><stop stop-color="#FF2A64"/><stop offset="1" stop-color="#FFAF48"/></linearGradient><linearGradient id="M" x1="201.74" x2="92.156" y1="125.254" y2="-4.279" gradientUnits="userSpaceOnUse"><stop stop-color="#FF2A64"/><stop offset="1" stop-color="#FFAF48"/></linearGradient><linearGradient id="N" x1="125.188" x2="104.945" y1="88.629" y2="-23.852" gradientUnits="userSpaceOnUse"><stop stop-color="#FF2A64"/><stop offset="1" stop-color="#FFAF48"/></linearGradient><linearGradient id="O" x1="151.067" x2="161.028" y1="142.593" y2="30.435" gradientUnits="userSpaceOnUse"><stop stop-color="#03192E"/><stop offset=".5" stop-color="#223C6A"/><stop offset="1" stop-color="#4A74A2"/></linearGradient><linearGradient id="P" x1="154.806" x2="169.265" y1="174.954" y2="40.299" gradientUnits="userSpaceOnUse"><stop stop-color="#03192E"/><stop offset=".5" stop-color="#223C6A"/><stop offset="1" stop-color="#4A74A2"/></linearGradient><linearGradient id="Q" x1="210.011" x2="119.382" y1="44.295" y2="120.798" gradientUnits="userSpaceOnUse"><stop stop-color="#fff"/><stop offset="1" stop-color="#B5E0F7"/></linearGradient><linearGradient id="R" x1="165.05" x2="159.909" y1="94.03" y2="41.861" gradientUnits="userSpaceOnUse"><stop/><stop offset="1" stop-color="#fff"/></linearGradient><linearGradient id="S" x1="127.513" x2="177.319" y1="170.427" y2="52.156" gradientUnits="userSpaceOnUse"><stop stop-color="#FF2A64"/><stop offset="1" stop-color="#FFAF48"/></linearGradient><linearGradient id="T" x1="149.92" x2="149.92" y1="70.81" y2="52.342" gradientUnits="userSpaceOnUse"><stop stop-color="#03192E"/><stop offset=".5" stop-color="#223C6A"/><stop offset="1" stop-color="#4A74A2"/></linearGradient><linearGradient id="U" x1="144.713" x2="135.479" y1="181.636" y2="53.102" gradientUnits="userSpaceOnUse"><stop stop-color="#03192E"/><stop offset=".5" stop-color="#223C6A"/><stop offset="1" stop-color="#4A74A2"/></linearGradient><linearGradient id="V" x1="144.295" x2="107.337" y1="104.493" y2="140.708" gradientUnits="userSpaceOnUse"><stop stop-color="#03192E"/><stop offset=".5" stop-color="#223C6A"/><stop offset="1" stop-color="#4A74A2"/></linearGradient><linearGradient id="W" x1="150.682" x2="105.054" y1="122.378" y2="1.215" gradientUnits="userSpaceOnUse"><stop stop-color="#386E9F"/><stop offset="1" stop-color="#fff"/></linearGradient><linearGradient id="X" x1="223.165" x2="36.758" y1="156.508" y2="22.463" gradientUnits="userSpaceOnUse"><stop stop-color="#FF2A64"/><stop offset="1" stop-color="#FFAF48"/></linearGradient><linearGradient id="Y" x1="121.13" x2="77.735" y1="124.431" y2="43.353" gradientUnits="userSpaceOnUse"><stop stop-color="#FF2A64"/><stop offset="1" stop-color="#FFAF48"/></linearGradient><linearGradient id="Z" x1="89.418" x2="24.51" y1="150.255" y2="-22.008" gradientUnits="userSpaceOnUse"><stop stop-color="#FF2A64"/><stop offset="1" stop-color="#FFAF48"/></linearGradient><linearGradient id="aa" x1="104.372" x2="100.088" y1="173.529" y2="88.258" gradientUnits="userSpaceOnUse"><stop stop-color="#FF2A64"/><stop offset="1" stop-color="#FFAF48"/></linearGradient><linearGradient id="ab" x1="64.228" x2="124.004" y1="145.346" y2="90.273" gradientUnits="userSpaceOnUse"><stop stop-color="#03192E"/><stop offset=".5" stop-color="#223C6A"/><stop offset="1" stop-color="#4A74A2"/></linearGradient><linearGradient id="ac" x1="66.652" x2="96.602" y1="141.936" y2="113.103" gradientUnits="userSpaceOnUse"><stop stop-color="#03192E"/><stop offset=".5" stop-color="#223C6A"/><stop offset="1" stop-color="#4A74A2"/></linearGradient><linearGradient id="ad" x1="88.261" x2="107.222" y1="121.159" y2="102.838" gradientUnits="userSpaceOnUse"><stop stop-color="#03192E"/><stop offset=".5" stop-color="#223C6A"/><stop offset="1" stop-color="#4A74A2"/></linearGradient><linearGradient id="ae" x1="100.747" x2="83.875" y1="107.5" y2="122.326" gradientUnits="userSpaceOnUse"><stop stop-color="#fff"/><stop offset="1" stop-color="#B5E0F7"/></linearGradient><linearGradient id="af" x1="102.985" x2="86.113" y1="110.046" y2="124.873" gradientUnits="userSpaceOnUse"><stop stop-color="#fff"/><stop offset="1" stop-color="#B5E0F7"/></linearGradient><linearGradient id="ag" x1="101.916" x2="85.043" y1="108.83" y2="123.656" gradientUnits="userSpaceOnUse"><stop stop-color="#fff"/><stop offset="1" stop-color="#B5E0F7"/></linearGradient><linearGradient id="ah" x1="87.084" x2="94.1" y1="119.937" y2="112.544" gradientUnits="userSpaceOnUse"><stop stop-color="#03192E"/><stop offset=".5" stop-color="#223C6A"/><stop offset="1" stop-color="#4A74A2"/></linearGradient><linearGradient id="ai" x1="89.883" x2="96.9" y1="122.594" y2="115.202" gradientUnits="userSpaceOnUse"><stop stop-color="#03192E"/><stop offset=".5" stop-color="#223C6A"/><stop offset="1" stop-color="#4A74A2"/></linearGradient><linearGradient id="aj" x1="63.511" x2="63.511" y1="187.665" y2="68.831" gradientUnits="userSpaceOnUse"><stop stop-color="#03192E"/><stop offset=".5" stop-color="#223C6A"/><stop offset="1" stop-color="#4A74A2"/></linearGradient><linearGradient id="ak" x1="72.025" x2="73.149" y1="150.94" y2="108.519" gradientUnits="userSpaceOnUse"><stop stop-color="#03192E"/><stop offset=".5" stop-color="#223C6A"/><stop offset="1" stop-color="#4A74A2"/></linearGradient><linearGradient id="al" x1="60.332" x2="54.066" y1="168.349" y2="135.408" gradientUnits="userSpaceOnUse"><stop stop-color="#03192E"/><stop offset=".5" stop-color="#223C6A"/><stop offset="1" stop-color="#4A74A2"/></linearGradient><linearGradient id="am" x1="80.567" x2="58.287" y1="144.905" y2="109.55" gradientUnits="userSpaceOnUse"><stop stop-color="#386E9F"/><stop offset="1" stop-color="#fff"/></linearGradient><linearGradient id="an" x1="89.834" x2="68.518" y1="156.065" y2="122.639" gradientUnits="userSpaceOnUse"><stop stop-color="#FF2A64"/><stop offset="1" stop-color="#FFAF48"/></linearGradient><linearGradient id="ao" x1="118.681" x2="118.359" y1="195.195" y2="127.225" gradientUnits="userSpaceOnUse"><stop stop-color="#FF2A64"/><stop offset="1" stop-color="#FFAF48"/></linearGradient><linearGradient id="ap" x1="132.768" x2="148.997" y1="144.219" y2="128.469" gradientUnits="userSpaceOnUse"><stop stop-color="#03192E"/><stop offset=".5" stop-color="#223C6A"/><stop offset="1" stop-color="#4A74A2"/></linearGradient><linearGradient id="aq" x1="101.616" x2="144.357" y1="181.151" y2="131.33" gradientUnits="userSpaceOnUse"><stop stop-color="#FF2A64"/><stop offset="1" stop-color="#FFAF48"/></linearGradient><linearGradient id="ar" x1="107.177" x2="155.865" y1="163.824" y2="117.377" gradientUnits="userSpaceOnUse"><stop stop-color="#FF2A64"/><stop offset="1" stop-color="#FFAF48"/></linearGradient><linearGradient id="as" x1="111.318" x2="160.007" y1="168.166" y2="121.719" gradientUnits="userSpaceOnUse"><stop stop-color="#FF2A64"/><stop offset="1" stop-color="#FFAF48"/></linearGradient><linearGradient id="at" x1="107.74" x2="156.428" y1="164.415" y2="117.968" gradientUnits="userSpaceOnUse"><stop stop-color="#FF2A64"/><stop offset="1" stop-color="#FFAF48"/></linearGradient><linearGradient id="au" x1="59.125" x2="43.135" y1="117.913" y2="66.184" gradientUnits="userSpaceOnUse"><stop stop-color="#1481B4"/><stop offset=".5" stop-color="#1B9CC9" stop-opacity=".5"/><stop offset="1" stop-color="#36C3C9" stop-opacity="0"/></linearGradient><linearGradient id="av" x1="45.554" x2="-8.021" y1="142.028" y2="149.936" gradientUnits="userSpaceOnUse"><stop stop-color="#1481B4"/><stop offset=".5" stop-color="#1B9CC9" stop-opacity=".5"/><stop offset="1" stop-color="#36C3C9" stop-opacity="0"/></linearGradient><linearGradient id="aw" x1="57.309" x2="-29.58" y1="128.707" y2="92.054" gradientUnits="userSpaceOnUse"><stop stop-color="#1481B4"/><stop offset=".5" stop-color="#1B9CC9" stop-opacity=".5"/><stop offset="1" stop-color="#36C3C9" stop-opacity="0"/></linearGradient></defs></svg>