<svg xmlns="http://www.w3.org/2000/svg" width="139" height="220" fill="none"><path fill="url(#a)" d="M57.212 185.827v8.981a2.514 2.514 0 0 0 2.516 2.516H83.5c1.801 0 3.049-1.855 2.318-3.502l-.026-.059c-1.631-3.645-4.963-5.873-6.716-6.843-.304-.165-.56-.293-.746-.389-.25-.118-.395-.176-.395-.176l-2.126-.053-1.242-.032z"/><path fill="url(#b)" d="M57.213 193.769v1.039a2.514 2.514 0 0 0 2.515 2.516H83.5c1.802 0 3.049-1.855 2.319-3.502-.011-.021-.016-.037-.027-.058h-28.58z"/><path fill="url(#c)" d="M37.273 188.103v11.619a3.256 3.256 0 0 1-3.257 3.256H3.273c-2.334 0-3.939-2.393-3-4.525.015-.026.02-.048.037-.074 2.11-4.717 6.417-7.595 8.687-8.853.395-.214.72-.379.97-.507.326-.154.507-.229.507-.229l2.745-.075 1.604-.042z"/><path fill="url(#d)" d="M13.362 193.918c-.042.016-.085.016-.133.016a.44.44 0 0 1-.426-.325c-.587-1.988-2.319-3.3-3.811-4.088.394-.214.72-.379.97-.507 1.503.896 3.102 2.281 3.704 4.344a.45.45 0 0 1-.304.56"/><path fill="url(#e)" d="M17.254 192.927c-.043.016-.086.016-.128.016a.45.45 0 0 1-.432-.326c-.538-1.844-2.068-3.102-3.47-3.906l1.604-.043c1.178.874 2.26 2.079 2.735 3.694a.467.467 0 0 1-.31.565"/><path fill="url(#f)" d="M37.273 198.374v1.348a3.257 3.257 0 0 1-3.257 3.257H3.273c-2.334 0-3.939-2.394-3-4.526.015-.026.02-.047.037-.074h36.963z"/><path fill="url(#g)" d="m43.046 133.428-2.601 9.54-2.777 10.191s-9.589 0-11.545-6.625c-2.036-6.897 1.86-8.597 1.86-8.597s-9.52-3.443-4.37-13.981c.735-1.503 2.83-1.684 3.8-.32a36 36 0 0 0 2.686 3.353c3.145 3.454 7.691 6.945 12.947 6.439"/><path fill="url(#h)" d="m43.046 133.428-2.601 9.54-2.585 2.916c-7.43-3.587-5.298-10.202-5.298-10.202-3.417-1.652-2.974-6.246-2.457-8.693 3.139 3.454 7.686 6.945 12.94 6.439"/><path fill="url(#i)" d="M60.064 174.799a2.043 2.043 0 0 0-3.187-.703l-1.296 1.114a5.21 5.21 0 0 0-1.15 6.492c1.822 3.246 5.02 7.558 9.716 9.066l6.822-10.783z"/><path fill="url(#j)" d="M90.85 173.622a14.7 14.7 0 0 1-1.77 5.618c-1.652 2.963-4.194 6.417-7.888 8.869H69.941l-3.56-3.433-2.831-2.729-1.54-3.15-.405-.831-1.546-3.156 3.49-3.421-2.318-4.984s-2.835.682-4.498.778l-7.12 8.928-9.211 11.545-22.493-7.862 6.2-8.112 4.86-6.359a25.5 25.5 0 0 0 2.798-4.621l1.53-3.294 3.411-7.318 1.349-2.894 6.667.677 41.846 4.242 1.38 5.741 2.554 10.622a15 15 0 0 1 .346 5.144"/><path fill="url(#k)" d="M90.85 173.622a14.7 14.7 0 0 1-1.77 5.617c-1.652 2.964-4.194 6.418-7.888 8.869H69.941l-3.56-3.432c13.804.096 21.154-6.652 24.469-11.054"/><path fill="url(#l)" d="m82.423 158.873-6.497 7.82a23 23 0 0 1-2.84 2.851l-11.066 9.248-.405-.832 10.894-9.109a21.3 21.3 0 0 0 2.724-2.734l6.497-7.819z"/><path fill="url(#m)" d="m49.617 176.095-9.215 11.561-22.493-7.862 6.2-8.112c5.787 3.224 15.83 7.371 25.508 4.413"/><path fill="url(#n)" d="m20.612 184.463-.72-.544 12.302-16.224a21.5 21.5 0 0 0 2.046-3.273l4.584-9.071.805.405-4.584 9.071a22 22 0 0 1-2.132 3.411z"/><path fill="url(#o)" d="M49.11 150.351c-4.173 7.212-12.354 7.355-15.808 7.052l4.754-10.213 6.668.677c2.484 1.402 4.387 2.484 4.387 2.484"/><path fill="url(#p)" d="M10.474 188.79s21.714 2.74 26.703 4.696c0 0 5.671-3.385 5.671-5.282.005-3.033-22.69-10.761-26.213-8.997-3.523 1.759-6.161 9.583-6.161 9.583"/><path fill="url(#q)" d="M56.738 167.172s-1.06.197-4.141-.938c0 0 8.714.623 10.958-1.983 0 0-.608 1.348-2.318 2.143-1.711.788-4.499.778-4.499.778"/><path fill="url(#r)" d="M65.255 200.847a98 98 0 0 0-9.796.208c-.885.064-1.807.101-2.665.336-1.892.528-3.102 2.27-2.255 4.195.832 1.876 2.921 2.371 4.755 2.707 4.226.768 8.528.853 12.813.906q6.571.07 13.144.15c1.092.01 2.185.016 3.277.042.95.021 1.914.08 2.815.421 1.268.48 2.276 1.727 1.503 3.054-.837 1.445-2.628 2.223-4.147 2.697-1.897.592-3.907.89-5.879 1.13-8.666 1.056-17.28-.085-25.882-1.162-3.955-.495-7.947-1.044-11.934-1.05-3.56-.005-7.233.475-10.41 2.17-.778.415-1.492.911-2.19 1.455-.474.373-.39 1.188 0 1.577.469.469 1.103.373 1.578 0 2.627-2.057 6.044-2.777 9.306-2.931 3.827-.187 7.67.288 11.465.746 8.517 1.018 17.045 2.383 25.647 1.679a61 61 0 0 0 6.396-.848c1.844-.351 3.705-.868 5.33-1.833 1.557-.922 3.012-2.345 3.214-4.227.197-1.807-1.029-3.448-2.585-4.242-1.833-.938-3.95-.853-5.953-.88-2.191-.026-4.387-.048-6.578-.074-4.296-.048-8.602-.027-12.898-.192-2.063-.08-4.13-.208-6.172-.512-.98-.144-1.978-.298-2.937-.57-.661-.187-1.471-.496-1.706-1.21-.431-1.311 2.356-1.253 3.044-1.301a95 95 0 0 1 9.684-.197c1.45.027 1.45-2.201.016-2.244"/><path fill="url(#s)" d="M82.408 97.51 70.58 139.951l-2.398 8.613-1.919 6.881c-17.28 1.018-28.212-5.623-31.932-8.357-1.151-.848-1.801-2.228-1.674-3.651.32-3.641 3.838-4.605 3.838-4.605.816-.773 1.546-1.669 2.196-2.623 4.488-6.55 5.426-16.379 5.426-16.379v-12.808l22.796-18.042z"/><path fill="url(#t)" d="M61.583 113.233s10.857-1.119 12.03-13.032L52.432 105.6z"/><path fill="url(#u)" d="M59.414 110.813s10.857-1.119 12.03-13.032l-21.182 5.4z"/><path fill="url(#v)" d="m70.58 139.947-2.398 8.613-1.919 6.881c-17.28 1.023-28.212-5.618-31.932-8.352-1.151-.848-1.801-2.228-1.674-3.651.32-3.64 3.838-4.605 3.838-4.605.816-.773 1.546-1.668 2.196-2.623 3.587 3.055 13.88 9.541 31.89 3.737"/><path fill="url(#w)" d="m68.182 148.565-1.919 6.881c-17.28 1.018-28.212-5.623-31.932-8.357-1.151-.848-1.801-2.228-1.674-3.651.32-3.641 3.838-4.605 3.838-4.605s12.675 11.427 31.687 9.732"/><path fill="url(#x)" d="M99.042 42.466S91.004 9.911 103.626 7.71s4.178 35.668 4.178 35.668z"/><path fill="#fff" d="M103.503 41.97a.383.383 0 0 1-.384-.383l-.037-23.442c0-.213.17-.389.384-.389.213 0 .383.17.383.384l.038 23.441a.37.37 0 0 1-.384.39"/><path fill="url(#y)" d="M106.504 38.166S110.347-2.486 125.121.12s-9.311 42.65-9.311 42.65z"/><path fill="#fff" d="M111.77 39.43a.4.4 0 0 1-.15-.027.457.457 0 0 1-.287-.587l9.114-26.932a.46.46 0 0 1 .586-.288c.24.08.373.341.288.586l-9.109 26.933a.47.47 0 0 1-.442.314"/><path fill="url(#z)" d="M113.72 45.388s9.808-32.065 21.773-27.476-14.716 32.758-14.716 32.758z"/><path fill="#fff" d="M118 47.307a.383.383 0 0 1-.33-.581l12.003-20.136a.383.383 0 0 1 .527-.134.383.383 0 0 1 .134.528l-12.003 20.137a.38.38 0 0 1-.331.186"/><path fill="url(#A)" d="M124.034 60.429c-9.162 28.59-26.826 81.937-41.627 116.118-3.044 7.03-5.97 13.25-8.667 18.277-1.364 2.542-2.675 4.775-3.912 6.662-.304.464-.682.81-1.098 1.055-1.972 1.157-4.808-.048-4.962-2.67a124 124 0 0 1-.208-7.019c-.021-5.016.187-11.497.847-19.705.363-4.493.864-9.504 1.53-15.073q.162-1.287.33-2.628c2.042-16.161 5.496-36.814 11.178-62.91q.303-1.407.623-2.83a1197 1197 0 0 1 6.14-26.362q.312-1.297.64-2.617 1.295-5.267 2.702-10.782a18.9 18.9 0 0 1 5.927-9.626c4.44-3.87 10.601-5.618 16.758-4.195 10.819 2.5 17.194 13.724 13.799 24.304"/><path fill="url(#B)" d="m84.843 60.722 16.395 4.893-17.035-2.282zm-6.78 28.984c-.213.949-.421 1.897-.624 2.83l18.303 2.452zm-11.8 65.74c-.113.89-.22 1.764-.331 2.628l16.486 2.201z"/><path fill="url(#C)" d="M107.319 110.706c-.293.843-.586 1.679-.884 2.527l-12.12-3.326-10.522-2.889 10.846 1.7z"/><path fill="url(#D)" d="M96.537 140.874q-.377 1.007-.746 2.015l-9.86-2.708-8.193-2.249 8.448 1.321z"/><path fill="url(#E)" d="M118.587 77.234q-.415 1.254-.831 2.537l-13.922-3.816v-.005l-8.757-2.399 9.045 1.413z"/><path fill="#FFCA83" d="M82.407 176.547c-3.044 7.03-5.97 13.25-8.667 18.277-1.364 2.542-2.675 4.775-3.912 6.662-1.754 2.66-5.873 1.556-6.06-1.615a124 124 0 0 1-.208-7.019c-.021-5.016.187-11.497.847-19.705.688-.544 1.78-1.066 3.193-.688 2.543.682 2.052 4.403 2.052 4.403s1.37-4.403 4.206-3.817c2.75.571 2.1 4.456 2.057 4.691.138-.229 2.457-4.083 4.493-3.705 1.071.187 1.668 1.253 1.999 2.516"/><path fill="url(#F)" d="M73.74 194.824c-1.364 2.542-2.675 4.775-3.912 6.662-1.754 2.66-5.873 1.557-6.06-1.615a124 124 0 0 1-.208-7.019c1.194-.661 3.118-1.338 5.506-.827 2.206.464 3.736 1.727 4.674 2.799"/><path fill="url(#G)" d="M117.675 89.317c-3.166 5.73-5.01 6.722-8.043 6.375-2.073-.234-2.958-1.785-3.054-3.944-.027-.56.005-1.157.08-1.78.08-.699.219-1.429.41-2.175.155-.613.336-1.242.555-1.87a29 29 0 0 1 1.865-4.313c1.85-3.507 4.238-6.342 6.082-6.534 2.366-.245 3.736 1.444 4.482 2.569 0 .005 2.218 3.352-2.377 11.672"/><path fill="#F87C38" d="M109.483 81.616q-.384.72-.736 1.482c1.589-.95 3.513-1.935 5.565-2.607-.203.032-2.319.341-4.829 1.125m-1.86 4.312c-.219.623-.4 1.258-.555 1.87 1.786-1.193 4.344-2.686 7.148-3.603-.256.033-3.395.486-6.593 1.733m-.965 4.04c-.075.623-.107 1.22-.08 1.78 1.796-1.237 4.531-2.883 7.537-3.864-.277.043-3.992.58-7.457 2.084"/><path fill="url(#H)" d="M66.913 133.428c-10.959-.24-18.794-6.034-23.201-11.977-2.884-3.875-4.302-7.819-4.184-10.324.293-6.359 5.084-7.334 5.084-7.334s5.474-3.422 11.316 2.153c5.841 5.576 12.27 8.118 12.27 8.118-1.338 1.61-1.983 4.04-2.223 6.636-.56 5.921.938 12.728.938 12.728"/><path fill="url(#I)" d="M66.913 133.428c-10.958-.24-18.793-6.034-23.201-11.977 13.106 7.015 19.571 2.553 22.263-.746-.56 5.916.938 12.723.938 12.723"/><path fill="url(#J)" d="M107.756 107.823c-.01.586-.048 1.215-.128 1.871a24 24 0 0 1-.261 1.748c-.16.853-.362 1.711-.607 2.542-.15.496-.309.981-.491 1.445-.767 2.004-1.817 3.651-3.091 4.258l-2.569 1.013s-1.429 1.242-3.758 2.969c-5.17 3.827-14.796 10.026-23.094 10.175 0 0-4.787-5.01-3.79-11.54.266-1.753.943-3.613 2.25-5.516 0 0 14.747-.842 22.081-6.567 0 0 5.064-7.605 6.529-7.472 1.466.133 1.104 3.805 1.104 3.805s2.419-2.734 4.765-2.318c.533.096.858.837.996 1.956.054.48.08 1.029.064 1.631"/><path fill="url(#K)" d="M96.851 123.669c-5.17 3.827-14.796 10.026-23.094 10.175 0 0-4.787-5.01-3.79-11.539 3.054 2.707 11.118 7.355 26.884 1.364"/><path fill="url(#L)" d="M70.825 112.641s-4.328-1.247-5.282 3.23c-.917 4.301-3.934 18.436 4.632 20.238 1.018.213 2.105.075 2.984-.485.928-.586 1.807-1.706 1.626-3.832-.368-4.254-1.908-9.461-.767-15.697.506-2.777-3.193-3.454-3.193-3.454"/><path fill="url(#M)" d="M47.533 116.335s-2.03.256-2.718-.565c-.682-.821.245-1.892 1.071-1.674 0 0-2.771-1.194-1.38-2.958 1.252-1.588 3.22.432 3.22.432s-.4-1.343.5-1.78 2.58 1.263 2.308 2.729z"/><path fill="#fff" d="M47.858 115.301a.09.09 0 0 1-.085.053l-1.743-.133c-.043-.005-.07-.043-.064-.085.005-.043.048-.08.09-.075l1.744.133c.042.006.069.043.064.086 0 .005 0 .016-.006.021M48.343 114.086q-.001.009-.01.016a.085.085 0 0 1-.112.027l-2.612-1.881a.08.08 0 0 1-.01-.112.085.085 0 0 1 .111-.027l2.612 1.881c.032.022.037.059.021.096M49.692 112.977a.1.1 0 0 1-.038.043.077.077 0 0 1-.106-.027l-.778-1.604c-.016-.037 0-.085.037-.112a.077.077 0 0 1 .106.027l.779 1.604q.015.03 0 .069"/><path fill="url(#N)" d="M54.105 114.262q.191.217.368.442c1.428 1.807 2.334 3.992 1.423 5.143-.554.699-1.63.837-2.857.619a9 9 0 0 1-.613-.134 11.6 11.6 0 0 1-3.992-1.966q-.183-.144-.352-.288c-2.201-1.919-.149-4.52-.149-4.52s2.052-2.601 4.424-.901c.602.416 1.205.976 1.748 1.605"/><path fill="#F87C38" d="m50.763 115.818.048.037c.107.085.123.256.021.384l-1.94 2.457c-.16-.107-.309-.219-.458-.331l1.95-2.473c.107-.128.272-.16.379-.074M54.105 114.262q.192.217.367.442l-1.55 1.967c-.097.122-.267.154-.38.064l-.042-.032c-.112-.085-.122-.256-.021-.384zM54.44 118.195l.043.032c.112.085.123.256.022.384l-1.46 1.849a9 9 0 0 1-.614-.133l1.631-2.068c.096-.122.267-.149.379-.064M107.756 107.823c-2.425 1.727-5.175 2.601-5.378 2.665 2.207-1.21 4.126-3.033 5.309-4.296.059.48.085 1.029.069 1.631m-5.143 5.868c.186-.058 2.51-.799 4.754-2.249.112-.592.197-1.178.261-1.748-1.188 1.236-2.979 2.878-5.015 3.997m.234 3.203c.15-.042 1.669-.533 3.422-1.465.182-.464.341-.949.491-1.445-1.082 1.008-2.436 2.095-3.913 2.91"/><path fill="url(#O)" d="M68.794 41.491q-.16.384-.33.768c-10.59 24.3-31.095 25.408-31.095 25.408l5.623-15.878 13.192-37.24L59.77 4.415s2.43 1.135 5.154 3.747c5.186 4.967 11.427 15.302 3.87 33.328"/><path fill="url(#P)" d="M68.794 41.491q-.16.384-.33.768c1.524-12.936-2.889-20.563-8.139-24.94a24.4 24.4 0 0 0-4.141-2.77L59.77 4.415s2.43 1.135 5.154 3.747c5.186 4.967 11.427 15.302 3.87 33.328"/><path fill="url(#Q)" d="M94.245 44.359a26 26 0 0 1-2.974 3.027c-.613.539-1.423 1.237-2.367 2.042-4.237 3.613-11.134 9.317-14.764 11.331 0 0 6.359 5.964 5.48 17.845 0 0 1.327-6.764 4.983-5.938 4.195.944.41 8.406-2.09 12.59 1.05-1.38 2.367-2.655 3.412-2.1 2.201 1.178-1.322 15.553-23.766 23.329-8.725 3.022-18.362-.336-22.983-4.962-1.38-1.375-2.308-2.862-2.644-4.323-.016-.085-.037-.165-.048-.245-1.172-6.46 1.274-5.97-.485-13.842-.751-3.353-3.033-12.27 5.474-21.075A374 374 0 0 1 51.786 51.8l.075-.075c14.86-14.215 30.083-26.709 38.877-33.69 4.7-3.732 7.563-5.885 7.563-5.885s1.071 2.015 1.919 5.303c.352 1.38.671 2.996.853 4.776.629 6.108-.352 14.226-6.828 22.13"/><path fill="url(#R)" d="M94.245 44.359a26 26 0 0 1-2.974 3.027c-.613.539-1.423 1.237-2.367 2.042-4.237 3.614-11.134 9.317-14.763 11.331 0 0-5.282-4.504-10.367-4.695 0 0 22.61-12.85 37.299-33.835.629 6.108-.352 14.226-6.828 22.13"/><path fill="url(#S)" d="M94.245 44.359a26 26 0 0 1-2.974 3.027c-.613.539-1.423 1.237-2.367 2.042 8.065-12.558 3.689-26.682 1.834-31.4 4.701-3.73 7.563-5.883 7.563-5.883s8.795 16.538-4.056 32.214"/><path fill="#FFCA83" d="m100.225 17.448-48.433 34.34.074-.074C66.726 37.5 81.95 25.006 90.743 18.024c4.701-3.732 7.563-5.885 7.563-5.885s1.072 2.015 1.919 5.309M64.93 8.163l-4.605 9.157-17.333 34.463 13.192-37.235L59.77 4.416s2.435 1.13 5.16 3.747" opacity=".3"/><path fill="url(#T)" d="M56.7 93.278c1.843 0 3.337-1.921 3.337-4.291s-1.493-4.29-3.336-4.29-3.337 1.92-3.337 4.29 1.494 4.29 3.337 4.29"/><path fill="#fff" d="M56.978 91.342a1.05 1.05 0 1 0 0-2.1 1.05 1.05 0 0 0 0 2.1"/><path fill="url(#U)" d="M44.597 90.857c.197 1.914-.773 3.577-2.165 3.72-1.39.145-2.675-1.29-2.872-3.203s.773-3.576 2.164-3.72c1.39-.144 2.68 1.29 2.873 3.203"/><path fill="#fff" d="M42.485 92.996c.436-.045.751-.461.703-.93-.048-.468-.44-.812-.877-.767-.436.045-.751.46-.703.93.048.468.44.811.877.767"/><path fill="#F87C38" d="M54.009 79.451c1.487-.107 3-.07 4.509.224 1.503.288 3.011.853 4.296 1.79a1.2 1.2 0 0 1 .261 1.674 1.193 1.193 0 0 1-1.54.341l-.022-.01c-1.018-.56-2.18-.837-3.384-.912-1.205-.074-2.447.048-3.672.293a1.725 1.725 0 0 1-2.026-1.343 1.725 1.725 0 0 1 1.343-2.025 1.4 1.4 0 0 1 .208-.027zM42.017 84.829c-1.248.07-2.479.266-3.63.645-1.146.378-2.201.943-3.043 1.737l-.016.016a1.196 1.196 0 0 1-1.749-1.625c1.008-1.231 2.324-2.159 3.705-2.815 1.386-.66 2.846-1.082 4.306-1.353l.016-.006a1.719 1.719 0 0 1 .63 3.38c-.07.01-.15.015-.22.02M51.094 95.377l-1.557.16-1.556.16a1.587 1.587 0 0 0-1.418 1.743l.021.197c.064.608.47 1.13 1.05 1.333l1.642.58c.442.16.933.107 1.338-.138l1.492-.9c.523-.32.821-.912.757-1.52l-.021-.197a1.603 1.603 0 0 0-1.748-1.418"/><path fill="#FFCA83" d="M66.124 97.314c2.806-.879 4.694-2.83 4.215-4.358-.478-1.528-3.14-2.055-5.947-1.176-2.806.878-4.694 2.829-4.215 4.357.478 1.528 3.14 2.055 5.947 1.177M39.181 101.517c-1.38-1.375-2.308-2.862-2.643-4.322.56-.182 1.178-.325 1.822-.421 2.91-.421 5.421.303 5.618 1.615.187 1.3-1.95 2.681-4.797 3.128" opacity=".5"/><path fill="#F87C38" d="M51.824 104.567c-.384 0-.613-.027-.624-.027a.336.336 0 0 1-.298-.373.34.34 0 0 1 .373-.299c.048.006 4.893.507 7.526-3.517a.34.34 0 0 1 .469-.096.34.34 0 0 1 .096.469c-2.276 3.48-6.06 3.843-7.542 3.843"/><defs><linearGradient id="a" x1="71.622" x2="71.622" y1="234.305" y2="177.058" gradientUnits="userSpaceOnUse"><stop stop-color="#FF2A64"/><stop offset="1" stop-color="#FFAF48"/></linearGradient><linearGradient id="b" x1="71.622" x2="71.622" y1="204.815" y2="177.085" gradientUnits="userSpaceOnUse"><stop stop-color="#A42832"/><stop offset=".506" stop-color="#D62F31"/><stop offset="1" stop-color="#EE4035"/></linearGradient><linearGradient id="c" x1="18.637" x2="18.637" y1="234.304" y2="177.058" gradientUnits="userSpaceOnUse"><stop stop-color="#FF2A64"/><stop offset="1" stop-color="#FFAF48"/></linearGradient><linearGradient id="d" x1="13.671" x2="4.721" y1="197.39" y2="174.502" gradientUnits="userSpaceOnUse"><stop stop-color="#03192E"/><stop offset=".5" stop-color="#223C6A"/><stop offset="1" stop-color="#4A74A2"/></linearGradient><linearGradient id="e" x1="17.495" x2="8.546" y1="195.895" y2="173.007" gradientUnits="userSpaceOnUse"><stop stop-color="#03192E"/><stop offset=".5" stop-color="#223C6A"/><stop offset="1" stop-color="#4A74A2"/></linearGradient><linearGradient id="f" x1="18.637" x2="18.637" y1="204.814" y2="177.084" gradientUnits="userSpaceOnUse"><stop stop-color="#A42832"/><stop offset=".506" stop-color="#D62F31"/><stop offset="1" stop-color="#EE4035"/></linearGradient><linearGradient id="g" x1="46.355" x2="28.945" y1="175.164" y2="123.128" gradientUnits="userSpaceOnUse"><stop stop-color="#FF2A64"/><stop offset="1" stop-color="#FFAF48"/></linearGradient><linearGradient id="h" x1="32.906" x2="39.312" y1="150.205" y2="115.273" gradientUnits="userSpaceOnUse"><stop stop-color="#FF2A64"/><stop offset="1" stop-color="#FFAF48"/></linearGradient><linearGradient id="i" x1="65.373" x2="58.94" y1="145.287" y2="218.477" gradientUnits="userSpaceOnUse"><stop stop-color="#386E9F"/><stop offset="1" stop-color="#fff"/></linearGradient><linearGradient id="j" x1="57.808" x2="42.549" y1="152.442" y2="260.621" gradientUnits="userSpaceOnUse"><stop stop-color="#03192E"/><stop offset=".5" stop-color="#223C6A"/><stop offset="1" stop-color="#4A74A2"/></linearGradient><linearGradient id="k" x1="75.788" x2="81.069" y1="218.872" y2="144.731" gradientUnits="userSpaceOnUse"><stop stop-color="#03192E"/><stop offset=".5" stop-color="#223C6A"/><stop offset="1" stop-color="#4A74A2"/></linearGradient><linearGradient id="l" x1="56.825" x2="84.995" y1="211.454" y2="131.64" gradientUnits="userSpaceOnUse"><stop stop-color="#386E9F"/><stop offset="1" stop-color="#fff"/></linearGradient><linearGradient id="m" x1="31.075" x2="36.357" y1="215.687" y2="141.546" gradientUnits="userSpaceOnUse"><stop stop-color="#03192E"/><stop offset=".5" stop-color="#223C6A"/><stop offset="1" stop-color="#4A74A2"/></linearGradient><linearGradient id="n" x1="19.7" x2="47.87" y1="198.352" y2="118.538" gradientUnits="userSpaceOnUse"><stop stop-color="#386E9F"/><stop offset="1" stop-color="#fff"/></linearGradient><linearGradient id="o" x1="38.737" x2="43.041" y1="164.086" y2="146.285" gradientUnits="userSpaceOnUse"><stop stop-color="#03192E"/><stop offset=".5" stop-color="#223C6A"/><stop offset="1" stop-color="#4A74A2"/></linearGradient><linearGradient id="p" x1="24.187" x2="28.407" y1="202.034" y2="179.023" gradientUnits="userSpaceOnUse"><stop stop-color="#386E9F"/><stop offset="1" stop-color="#fff"/></linearGradient><linearGradient id="q" x1="54.362" x2="59.644" y1="217.346" y2="143.204" gradientUnits="userSpaceOnUse"><stop stop-color="#03192E"/><stop offset=".5" stop-color="#223C6A"/><stop offset="1" stop-color="#4A74A2"/></linearGradient><linearGradient id="r" x1="79.752" x2="54.37" y1="185.714" y2="223.861" gradientUnits="userSpaceOnUse"><stop stop-color="#03192E"/><stop offset=".5" stop-color="#223C6A"/><stop offset="1" stop-color="#4A74A2"/></linearGradient><linearGradient id="s" x1="52.976" x2="58.551" y1="221.585" y2="97.756" gradientUnits="userSpaceOnUse"><stop stop-color="#03192E"/><stop offset=".5" stop-color="#223C6A"/><stop offset="1" stop-color="#4A74A2"/></linearGradient><linearGradient id="t" x1="63.3" x2="62.909" y1="131.309" y2="91.402" gradientUnits="userSpaceOnUse"><stop stop-color="#386E9F"/><stop offset="1" stop-color="#fff"/></linearGradient><linearGradient id="u" x1="60.775" x2="60.873" y1="128.127" y2="95.067" gradientUnits="userSpaceOnUse"><stop stop-color="#FF2A64"/><stop offset="1" stop-color="#FFAF48"/></linearGradient><linearGradient id="v" x1="50.216" x2="51.976" y1="171.33" y2="134.064" gradientUnits="userSpaceOnUse"><stop stop-color="#03192E"/><stop offset=".5" stop-color="#223C6A"/><stop offset="1" stop-color="#4A74A2"/></linearGradient><linearGradient id="w" x1="46.818" x2="51.531" y1="165.558" y2="139.863" gradientUnits="userSpaceOnUse"><stop stop-color="#386E9F"/><stop offset="1" stop-color="#fff"/></linearGradient><linearGradient id="x" x1="95.698" x2="112.518" y1="58.257" y2="-12.93" gradientUnits="userSpaceOnUse"><stop stop-color="#03192E"/><stop offset=".5" stop-color="#223C6A"/><stop offset="1" stop-color="#4A74A2"/></linearGradient><linearGradient id="y" x1="106.044" x2="122.865" y1="73.174" y2="1.987" gradientUnits="userSpaceOnUse"><stop stop-color="#03192E"/><stop offset=".5" stop-color="#223C6A"/><stop offset="1" stop-color="#4A74A2"/></linearGradient><linearGradient id="z" x1="119.709" x2="136.53" y1="61.725" y2="-9.462" gradientUnits="userSpaceOnUse"><stop stop-color="#03192E"/><stop offset=".5" stop-color="#223C6A"/><stop offset="1" stop-color="#4A74A2"/></linearGradient><linearGradient id="A" x1="44.402" x2="124.803" y1="310.004" y2="-23.924" gradientUnits="userSpaceOnUse"><stop stop-color="#FF2A64"/><stop offset="1" stop-color="#FFAF48"/></linearGradient><linearGradient id="B" x1="67.537" x2="113.753" y1="163.228" y2="11.816" gradientUnits="userSpaceOnUse"><stop stop-color="#A42832"/><stop offset=".506" stop-color="#D62F31"/><stop offset="1" stop-color="#EE4035"/></linearGradient><linearGradient id="C" x1="77.992" x2="124.208" y1="166.419" y2="15.008" gradientUnits="userSpaceOnUse"><stop stop-color="#A42832"/><stop offset=".506" stop-color="#D62F31"/><stop offset="1" stop-color="#EE4035"/></linearGradient><linearGradient id="D" x1="78.816" x2="125.032" y1="166.671" y2="15.258" gradientUnits="userSpaceOnUse"><stop stop-color="#A42832"/><stop offset=".506" stop-color="#D62F31"/><stop offset="1" stop-color="#EE4035"/></linearGradient><linearGradient id="E" x1="78.957" x2="125.173" y1="166.714" y2="15.302" gradientUnits="userSpaceOnUse"><stop stop-color="#A42832"/><stop offset=".506" stop-color="#D62F31"/><stop offset="1" stop-color="#EE4035"/></linearGradient><linearGradient id="F" x1="69.744" x2="61.821" y1="188.685" y2="225.854" gradientUnits="userSpaceOnUse"><stop stop-color="#03192E"/><stop offset=".5" stop-color="#223C6A"/><stop offset="1" stop-color="#4A74A2"/></linearGradient><linearGradient id="G" x1="156.039" x2="111.584" y1="141.214" y2="83.261" gradientUnits="userSpaceOnUse"><stop stop-color="#FF2A64"/><stop offset="1" stop-color="#FFAF48"/></linearGradient><linearGradient id="H" x1="109.958" x2="-1.84" y1="158.399" y2="75.944" gradientUnits="userSpaceOnUse"><stop stop-color="#03192E"/><stop offset=".5" stop-color="#223C6A"/><stop offset="1" stop-color="#4A74A2"/></linearGradient><linearGradient id="I" x1="78.269" x2=".949" y1="136.484" y2="89.975" gradientUnits="userSpaceOnUse"><stop stop-color="#03192E"/><stop offset=".5" stop-color="#223C6A"/><stop offset="1" stop-color="#4A74A2"/></linearGradient><linearGradient id="J" x1="11.483" x2="97.362" y1="159.021" y2="114.028" gradientUnits="userSpaceOnUse"><stop stop-color="#FF2A64"/><stop offset="1" stop-color="#FFAF48"/></linearGradient><linearGradient id="K" x1="14.74" x2="92.598" y1="159.079" y2="118.781" gradientUnits="userSpaceOnUse"><stop stop-color="#FF2A64"/><stop offset="1" stop-color="#FFAF48"/></linearGradient><linearGradient id="L" x1="65.462" x2="74.404" y1="142.809" y2="107.912" gradientUnits="userSpaceOnUse"><stop stop-color="#386E9F"/><stop offset="1" stop-color="#fff"/></linearGradient><linearGradient id="M" x1="53.124" x2="41.534" y1="117.499" y2="108.696" gradientUnits="userSpaceOnUse"><stop stop-color="#386E9F"/><stop offset="1" stop-color="#fff"/></linearGradient><linearGradient id="N" x1="70.4" x2="50.558" y1="130.996" y2="115.59" gradientUnits="userSpaceOnUse"><stop stop-color="#FF2A64"/><stop offset="1" stop-color="#FFAF48"/></linearGradient><linearGradient id="O" x1="39.401" x2="65.811" y1="108.887" y2="6.185" gradientUnits="userSpaceOnUse"><stop stop-color="#FF2A64"/><stop offset="1" stop-color="#FFAF48"/></linearGradient><linearGradient id="P" x1="57.4" x2="70.868" y1="49.006" y2="-3.554" gradientUnits="userSpaceOnUse"><stop stop-color="#FF2A64"/><stop offset="1" stop-color="#FFAF48"/></linearGradient><linearGradient id="Q" x1="51.511" x2="68.237" y1="302.376" y2="50.61" gradientUnits="userSpaceOnUse"><stop stop-color="#FF2A64"/><stop offset="1" stop-color="#FFAF48"/></linearGradient><linearGradient id="R" x1="66.101" x2="83.281" y1="106.595" y2="39.547" gradientUnits="userSpaceOnUse"><stop stop-color="#FF2A64"/><stop offset="1" stop-color="#FFAF48"/></linearGradient><linearGradient id="S" x1="84.53" x2="99.54" y1="68.268" y2="9.691" gradientUnits="userSpaceOnUse"><stop stop-color="#FF2A64"/><stop offset="1" stop-color="#FFAF48"/></linearGradient><linearGradient id="T" x1="56.846" x2="56.406" y1="94.698" y2="77.238" gradientUnits="userSpaceOnUse"><stop stop-color="#03192E"/><stop offset=".5" stop-color="#223C6A"/><stop offset="1" stop-color="#4A74A2"/></linearGradient><linearGradient id="U" x1="42.18" x2="41.74" y1="95.067" y2="77.608" gradientUnits="userSpaceOnUse"><stop stop-color="#03192E"/><stop offset=".5" stop-color="#223C6A"/><stop offset="1" stop-color="#4A74A2"/></linearGradient></defs></svg>