<svg xmlns="http://www.w3.org/2000/svg" width="50" height="50" fill="none"><circle cx="25" cy="25" r="25" fill="#FBF3F3"/><g clip-path="url(#a)"><path fill="#D64545" d="m33.148 30.241-6.943-11.849c-.532-.911-1.873-.911-2.409 0l-6.94 11.849c-.534.908.131 2.05 1.202 2.05h13.887c1.066 0 1.734-1.138 1.203-2.05m-8.93-8.105a.782.782 0 0 1 1.563 0v4.166c0 .432-.35.782-.751.782-.402 0-.811-.349-.811-.782zM25 30.209a1.024 1.024 0 1 1 0-2.048 1.024 1.024 0 0 1 0 2.047"/></g><defs><clipPath id="a"><path fill="#fff" d="M16.667 16.667h16.667v16.667H16.667z"/></clipPath></defs></svg>