<svg xmlns="http://www.w3.org/2000/svg" width="247" height="175" fill="none"><path fill="url(#a)" d="M42.99 135.234h103.62v23.149H42.99z"/><path fill="url(#b)" d="M129.792 140.98H73.543a5.8 5.8 0 0 0-5.795 5.795c0 3.195 2.6 5.795 5.795 5.795h56.249c3.195 0 5.795-2.6 5.795-5.795-.017-3.195-2.6-5.795-5.795-5.795"/><path fill="url(#c)" d="M10.146 135.234h143.588c5.598 0 10.146-4.308 10.146-9.61V13.667c0-5.302-4.548-9.61-10.146-9.61H10.146C4.548 4.057 0 8.365 0 13.667v111.957c0 5.302 4.548 9.61 10.146 9.61"/><path fill="url(#d)" d="M13.677 130.09h136.176c3.696 0 6.678-2.849 6.678-6.343V15.912c0-3.512-2.999-6.344-6.678-6.344H13.659c-3.696 0-6.678 2.849-6.678 6.344v107.835c0 3.511 3 6.343 6.696 6.343"/><path fill="url(#e)" d="M22.508 174.119c0-8.752 7.104-15.855 15.855-15.855h107.145v15.855z"/><path fill="#FFBA00" d="M29.708 18.487a1.525 1.525 0 1 1 0-3.05 1.525 1.525 0 0 1 0 3.05M24.372 18.487a1.525 1.525 0 1 1 0-3.05 1.525 1.525 0 0 1 0 3.05M19.036 18.487a1.525 1.525 0 1 1 0-3.05 1.525 1.525 0 0 1 0 3.05"/><path fill="url(#f)" d="M23.517 130.09h5.22v-25.889h21.257c8.71 0 15.779-7.052 15.779-15.704V9.568h-5.22v78.929c0 5.79-4.74 10.509-10.56 10.509H28.737V69.659h-5.22z"/><path fill="url(#g)" d="M62.529 65.734c-11.23 0-20.334-9.103-20.334-20.334s9.104-20.334 20.334-20.334S82.863 34.17 82.863 45.4s-9.104 20.334-20.334 20.334"/><path fill="url(#h)" d="M62.529 59.322c-7.688 0-13.92-6.233-13.92-13.921s6.232-13.92 13.92-13.92 13.92 6.232 13.92 13.92-6.232 13.92-13.92 13.92"/><path fill="#fff" d="M61.236 49.047a.72.72 0 0 1-.514-.215l-3.248-3.248a.73.73 0 0 1 0-1.028.73.73 0 0 1 1.027 0l2.735 2.735 5.32-5.32a.73.73 0 0 1 1.027 0 .73.73 0 0 1 0 1.028l-5.834 5.833a.8.8 0 0 1-.513.215"/><path fill="url(#i)" d="M26.456 71.667a8.819 8.819 0 1 0 0-17.638 8.819 8.819 0 0 0 0 17.638"/><path fill="url(#j)" d="M26.303 67.985a5.137 5.137 0 1 0 0-10.274 5.137 5.137 0 0 0 0 10.274"/><path fill="#fff" d="m28.198 64.047-1.21-1.21 1.21-1.212a.495.495 0 0 0 0-.685.495.495 0 0 0-.685 0l-1.21 1.211-1.211-1.21a.495.495 0 0 0-.685 0 .495.495 0 0 0 0 .684l1.21 1.211-1.21 1.211a.495.495 0 0 0 0 .685.495.495 0 0 0 .685 0l1.21-1.21 1.211 1.21a.495.495 0 0 0 .685 0 .495.495 0 0 0 0-.685"/><path fill="url(#k)" d="M49.947 152.553c.883 0 1.597-.714 1.597-1.597v-8.378c0-.884-.714-1.598-1.597-1.598-.884 0-1.598.714-1.598 1.598v8.378c0 .883.714 1.597 1.598 1.597"/><path fill="url(#l)" d="M55.86 152.553c.884 0 1.598-.714 1.598-1.597v-8.378c0-.884-.714-1.598-1.597-1.598-.884 0-1.598.714-1.598 1.598v8.378c0 .883.714 1.597 1.598 1.597"/><path fill="url(#m)" d="M61.757 152.553c.884 0 1.598-.714 1.598-1.597v-8.378c0-.884-.714-1.598-1.598-1.598s-1.597.714-1.597 1.598v8.378c0 .883.713 1.597 1.597 1.597"/><path fill="url(#n)" d="M118.145 132.366c1.427 8.207 4.01 15.685 4.01 15.685l15.311-9.891c-.119-.56.085-23.978-10.553-26.629-.951-.238-1.988-.306-3.11-.187-7.443.816-7.341 11.42-5.658 21.022"/><path fill="url(#o)" d="M130.754 146.284h.051a.253.253 0 0 0 .187-.306l-6.559-28.651a.253.253 0 1 0-.493.119l6.576 28.634a.24.24 0 0 0 .238.204"/><path fill="url(#p)" d="M124.483 146.759s-4.724-26.205-16.994-21.888c-11.674 4.095 5.319 30.112 5.319 30.112l11.675-2.532z"/><path fill="url(#q)" d="M113.913 155.477s-7.8-22.789-17.792-15.294c-9.992 7.477 6.44 21.649 6.44 21.649z"/><path fill="url(#r)" d="M105.315 156.157a.3.3 0 0 0 .119-.034.27.27 0 0 0 .101-.357l-5.947-10.757a.27.27 0 0 0-.357-.102.27.27 0 0 0-.102.357l5.948 10.757c.068.085.153.136.238.136"/><path fill="url(#s)" d="M119.266 155.239c.034 0 .051 0 .085-.017.136-.051.204-.187.153-.323l-7.919-22.516c-.051-.136-.187-.204-.323-.153s-.204.187-.153.323l7.919 22.516c.034.102.136.17.238.17"/><path fill="url(#t)" d="M87.778 174.118h53.988l-.663-27.207-.357-14.445s-21.768-1.087-23.791 20.189c0 0-27.274-4.232-29.092 18.948a40 40 0 0 0-.085 2.515"/><path fill="url(#u)" d="M129.446 174.372c.136 0 .254-.102.254-.238l.68-9.737a.25.25 0 0 0-.238-.272.25.25 0 0 0-.272.238l-.679 9.737a.25.25 0 0 0 .238.272z"/><path fill="url(#v)" d="M121.017 174.372c.153-.017.272-.136.255-.272l-1.02-15.855c-.017-.136-.136-.255-.272-.238s-.255.136-.238.272l1.02 15.855c0 .136.119.238.255.238"/><path fill="url(#w)" d="M112.418 174.372c.017 0 .051 0 .068-.017a.25.25 0 0 0 .17-.323l-4.741-15.855a.25.25 0 0 0-.323-.17.25.25 0 0 0-.17.323l4.741 15.855c.051.119.153.187.255.187"/><path fill="url(#x)" d="M105.315 174.373a.27.27 0 0 0 .153-.051c.119-.085.136-.238.068-.356l-4.894-6.917c-.085-.119-.238-.136-.357-.068-.119.085-.136.238-.068.357l4.894 6.916a.24.24 0 0 0 .204.119"/><path fill="url(#y)" d="m152.394 25.799 3.79 2.192 19.865 11.47s12.644 2.634 27.088-.017c4.333-.798 8.854-2.073 13.221-4.027 10.4-4.656 20.053-13.238 25.015-28.6A66 66 0 0 0 242.987.75s-4.231 1.75-11.131 4.35c-.442.17-.9.34-1.359.51-18.302 6.815-52.969 18.591-78.103 20.188"/><path fill="#F15A24" d="M203.137 39.444c4.333-.798 8.854-2.073 13.221-4.027 11.692-5.234 22.449-15.43 26.629-34.667 0 0-4.231 1.75-11.131 4.35-.442.17-.9.34-1.359.51-2.328 7.052-9.109 25.932-27.36 33.834" opacity=".5"/><path fill="#FFCA83" d="m152.394 25.799 2.158 1.24c50.403-4.724 72.75-13.136 86.821-20.222A66 66 0 0 0 242.987.75s-4.231 1.75-11.131 4.35c-.442.17-.9.34-1.359.51-18.302 6.815-52.969 18.591-78.103 20.188" opacity=".5"/><path fill="url(#z)" d="M99.85 41.416c.068.578.204 1.156.441 1.7 7.461 16.993 32.73 21.038 32.73 21.038l4.062 7.97 31.506-4.436-1.513-4.18c3.79 2.396 7.205 1.257 7.205 1.257-4.044-.628-7.205-6.576-7.205-6.576 4.181 2.532 8.344 2.906 8.344 2.906-5.693-2.651-6.458-10.383-6.458-10.383s6.271 7.613 15.074 14.767c6.372 5.183 14.104 10.128 21.752 11.777 16.568 3.585 28.294-.833 34.802-4.69 3.943-2.329 5.965-4.47 5.965-4.47l-8.972-4.265-71.458-34.361-8.667-4.164c-20.494-10.383-32.9 3.297-41.38 7.342-4.316 2.056-7.834 2.48-10.264 2.396h-.204c-.407 0-.798.034-1.189.119a5.82 5.82 0 0 0-4.096 3.296 5.9 5.9 0 0 0-.475 2.957"/><path fill="#F15A24" d="M184.036 65.495c6.372 5.183 14.104 10.129 21.752 11.777 26.612 5.76 40.767-9.143 40.767-9.143l-8.972-4.299c-6.815 4.605-25.457 14.309-53.547 1.665" opacity=".5"/><path fill="#FFCA83" d="m166.125 29.469 74.465 43.13c3.943-2.329 5.965-4.47 5.965-4.47l-8.972-4.3z" opacity=".5"/><path fill="url(#A)" d="M134.788 37.438c.051-.017.119-.05.187-.068 2.498-.85 4.538.204 5.472.85a.66.66 0 0 1 .153.935.68.68 0 0 1-.696.237 4.4 4.4 0 0 0-.952-.135c.187.475.272 1.02.204 1.563-.221 1.75-1.818 3.008-3.569 2.787s-3.008-1.818-2.787-3.569a3.15 3.15 0 0 1 1.988-2.6"/><path fill="#F87C38" d="M99.85 41.415c2.447.493 7.392.153 7.868-2.43.357-1.92-1.887-3.229-3.314-3.84a5.82 5.82 0 0 0-4.095 3.296c-.391.952-.561 1.971-.46 2.974"/><path fill="#fff" d="M135.026 39.92a.56.56 0 1 1 .001-1.12.56.56 0 0 1-.001 1.12"/><path fill="#F87C38" d="m146.531 36.266-.051-.051-.034-.051-.085-.085-.153-.153c-.102-.102-.204-.187-.306-.289-.204-.187-.425-.357-.629-.527a10 10 0 0 0-1.359-.883 10.8 10.8 0 0 0-3.042-1.139 9.8 9.8 0 0 0-3.229-.119c-1.053.136-2.09.442-3.041.85a.834.834 0 0 0-.425 1.104.83.83 0 0 0 1.036.46h.017c.85-.29 1.734-.477 2.6-.51a8 8 0 0 1 2.549.288 8.4 8.4 0 0 1 2.311 1.088c.357.238.697.51 1.02.782.153.136.306.288.459.441.068.069.136.153.204.221a.7.7 0 0 1 .102.12l.051.05.017.017s.017.017 0 .017c.459.561 1.274.63 1.818.187.544-.442.612-1.257.17-1.818"/><path fill="#0F2C4C" d="M115.959 52.649c0 .254.068.526.204.781.034.068.068.136.119.221.068.12.136.238.204.374 1.02 1.818 2.838 4.01 5.999 5.37 1.784.765 4.01 1.274 6.763 1.291 6.866.035 9.891-3.398 11.216-6.406a8.5 8.5 0 0 0 .408-1.07c.051-.137.085-.256.119-.374l.153-.561c0-.034.017-.051.017-.085a1.88 1.88 0 0 0-1.903-2.311l-21.48.883a1.834 1.834 0 0 0-1.819 1.886"/><path fill="url(#B)" d="m115.959 52.647 25.168-.407c0-.035.017-.052.017-.085a1.88 1.88 0 0 0-1.904-2.312l-21.479.884a1.88 1.88 0 0 0-1.802 1.92"/><path fill="url(#C)" d="M122.451 59.394c1.784.764 4.01 1.274 6.763 1.291 6.866.034 9.891-3.399 11.216-6.406-3.416-.255-13.153-.374-17.979 5.115"/><path fill="url(#D)" d="m69.21 55.266 3.824 8.072 11.912 25.201.799 1.683a28.63 28.63 0 0 0 20.426 15.872c.017 0 .034 0 .051.017l10.723 2.056 11.624 2.243-.612 22.703-.544 20.648h73.701l-1.359-7.648-3.331-18.71 9.075-4.078 3.059-1.376a14.93 14.93 0 0 0 6.151-5.099 15.04 15.04 0 0 0 2.719-8.632v-1.666c0-.255 0-.492-.017-.747a19.85 19.85 0 0 0-10.621-16.841l-9.941-5.15-17.18-8.887-6.509-6.27a4.07 4.07 0 0 0-3.382-1.105l-33.256 4.656a4.08 4.08 0 0 0-3.263 2.634l-1.818 4.963-19.798-1.938-17.061-25.796-4.945-7.477-8.055 4.214z"/><path fill="url(#E)" d="m75.974 52.597 8.65-4.435a3.35 3.35 0 0 0 1.529-4.35c-.017-.051-.051-.102-.068-.154-.646-1.478-1.258-3.245-1.292-4.74-.05-3.093-2.107-14.615-9.822-12.933a3.23 3.23 0 0 0-1.818 1.105c-.9 1.087-2.04 3.381-1.58 7.834.322 3.212-.357 6.814-.63 10.162-.152 1.937-.17 3.79.273 5.438.543 2.04 2.871 3.042 4.758 2.073"/><path fill="#F15A24" d="m73.255 53.992 14.342-7.375s-.781-1.274-1.53-2.957c-1.58 1.07-6.083 3.212-15.123 1.428-.29 3.483-.085 6.695 2.31 8.904" opacity=".5"/><path fill="#F87C38" d="M81.446 35.299h.017a.275.275 0 0 0 .237-.272c0-.068-.118-1.649-.73-3.603-.561-1.818-1.683-4.3-3.79-5.795-.119-.085-.272-.05-.357.068-.085.12-.05.272.068.357 3.824 2.719 4.317 8.956 4.317 9.007 0 .136.102.238.237.238M77.81 35.298q.024 0 0 0a.25.25 0 0 0 .254-.255c0-.068-.051-1.683-.578-3.569-.697-2.532-1.937-4.333-3.552-5.217-.118-.068-.271-.017-.34.102-.067.119-.016.272.103.34 3.636 1.971 3.857 8.293 3.857 8.36.017.137.12.239.255.239"/><path fill="url(#F)" d="m67.137 58.17 1.87 3.96a2.816 2.816 0 0 0 3.857 1.292l.17-.085 9.975-5.217 11.505-6.016a.13.13 0 0 1 .068-.034c1.427-.799 1.886-2.65.968-4.01l-2.43-3.671a2.825 2.825 0 0 0-3.654-.952l-7.935 4.147-13.154 6.882a2.815 2.815 0 0 0-1.24 3.705"/><path fill="url(#G)" d="M128.943 174.117h72.172l-3.773-22.533-66.989.425z"/><path fill="url(#H)" d="m67.137 58.171 1.869 3.96a2.816 2.816 0 0 0 3.858 1.291l.17-.085 11.912 25.201.799 1.683a28.63 28.63 0 0 0 20.426 15.872c.017 0 .034 0 .051.017l10.723 2.056c.102-7.494-2.447-19.22-17.113-27.292C89.585 75.233 85.014 65.988 83.01 58.12c-.901-3.535-1.275-6.797-1.428-9.33-.017-.424-.05-.832-.05-1.206l-13.154 6.882a2.815 2.815 0 0 0-1.24 3.705" opacity=".2"/><path fill="url(#I)" d="m128.569 110.393 4.078.781-4.605 19.186z" opacity=".2"/><path fill="url(#J)" d="m137.711 81.842-5.387-4.435-8.853-.459a2.81 2.81 0 0 0-2.668 1.58l-.102.222 17.775 17.962z"/><path fill="#FFCA83" d="M130.778 81.368a1.603 1.603 0 0 0-.034 2.192l.068.068 7.375 7.103 1.886-2.634-7.035-6.78a1.62 1.62 0 0 0-2.26.05"/><path fill="url(#K)" d="M127.414 153.743h73.701l-1.36-7.647c-43.537 3.874-63.114-5.268-71.781-13z" opacity=".2"/><path fill="#F15A24" d="M133.022 64.152s10.434 1.224 16.211 1.309c0 0-5.964 3.552-13.289 4.418z" opacity=".5"/><path fill="url(#L)" d="m147.89 134.32 48.126-5.506a7.12 7.12 0 0 0 6.271-7.902l-5.064-44.167a7.12 7.12 0 0 0-7.902-6.27l-48.126 5.506a7.12 7.12 0 0 0-6.271 7.902l5.064 44.149c.459 3.925 3.994 6.729 7.902 6.288"/><path fill="url(#M)" d="m148.638 84.035 4.571 39.969a4.876 4.876 0 0 0 5.404 4.299l35.228-4.027a4.876 4.876 0 0 0 4.299-5.404l-4.571-39.986a4.876 4.876 0 0 0-5.404-4.3l-35.228 4.028a4.9 4.9 0 0 0-4.299 5.421"/><path fill="url(#N)" d="m150.354 99.04 2.057 17.945 44.931-5.149-2.057-17.945z"/><path fill="url(#O)" d="m150.525 134.014 2.328 5.693a5.41 5.41 0 0 0 3.449 3.144c.697.22 1.462.288 2.226.203l30.419-3.483a5.5 5.5 0 0 0 2.107-.697 5.4 5.4 0 0 0 2.634-3.84l.986-6.067z"/><path fill="url(#P)" d="m174.638 104.512 6.933.119 1.53-14.513a4.78 4.78 0 0 0-4.673-5.268 4.767 4.767 0 0 0-4.844 5.116z"/><path fill="url(#Q)" d="m172.649 104.784-6.644 1.988-5.404-13.561c-1.037-2.6.391-5.54 3.076-6.339 2.685-.798 5.489.867 6.05 3.62z"/><path fill="url(#R)" d="M173.84 117.393c-6.598 0-11.947-5.349-11.947-11.947S167.242 93.5 173.84 93.5s11.946 5.349 11.946 11.946c0 6.598-5.348 11.947-11.946 11.947"/><path fill="#223C6A" d="M178.251 106.819c-.121-.874.309-1.656.96-1.745s1.276.546 1.397 1.42c.12.874-.31 1.655-.961 1.745-.65.089-1.276-.547-1.396-1.42M167.627 108.268c-.12-.874.31-1.655.96-1.745.651-.09 1.276.546 1.397 1.42.12.874-.31 1.655-.96 1.745-.651.089-1.276-.546-1.397-1.42"/><path fill="url(#S)" d="M138.798 91.58c.374 3.195 2.379 5.59 4.504 5.336 2.124-.238 3.534-3.025 3.177-6.22-.373-3.194-2.379-5.59-4.503-5.336-2.124.255-3.551 3.025-3.178 6.22"/><path fill="#FFCA83" d="m187.673 129.765 1.121 9.839.119-.017a5.5 5.5 0 0 0 2.108-.697l-1.071-9.38zM183.48 130.252l1.125 9.826-2.296.263-1.125-9.826zM176.985 130.994l1.124 9.826-2.296.263-1.124-9.826zM170.488 131.74l1.125 9.826-2.296.263-1.125-9.826zM164.01 132.481l1.125 9.826-2.297.262-1.124-9.826zM155.215 133.469l1.071 9.381a5.4 5.4 0 0 0 2.226.204l.119-.017-1.122-9.84z"/><path fill="url(#T)" d="M127.923 158.247h74.33a4.725 4.725 0 1 0 0-9.448h-74.33a4.724 4.724 0 0 0-4.673 5.421 4.72 4.72 0 0 0 4.673 4.027"/><path fill="url(#U)" d="m111.643 77.85 4.826 7.97.629-7.427z" opacity=".2"/><path fill="url(#V)" d="m84.946 88.539.799 1.682a28.63 28.63 0 0 0 20.426 15.872c-.629-5.523-3.96-20.358-21.225-17.554"/><path fill="url(#W)" d="m128.144 126.706 15.039-.612c.799-.034 1.394-.781 1.224-1.563l-.374-1.75-.68-3.178-.476-2.243a1.295 1.295 0 0 0-1.376-1.02l-13.102 1.054z"/><path fill="#FFCA83" d="M132.104 121.898a1.613 1.613 0 0 0 1.597 1.512h.102l10.23-.629-.68-3.177-9.737.594a1.6 1.6 0 0 0-1.512 1.7"/><path fill="#fff" d="M79.882 67.96a1.716 1.716 0 1 1 0-3.433 1.716 1.716 0 0 1 0 3.433M81.99 72.99a1.716 1.716 0 1 1 0-3.433 1.716 1.716 0 0 1 0 3.432"/><path fill="url(#X)" d="m205.499 123.29 3.059-1.376c5.404-2.43 8.87-7.8 8.87-13.714v-1.665c0-.255 0-.493-.017-.748-4.809.952-13.085 4.469-11.912 17.503"/><defs><linearGradient id="a" x1="94.795" x2="94.795" y1="172.846" y2="73.014" gradientUnits="userSpaceOnUse"><stop stop-color="#386E9F"/><stop offset="1" stop-color="#fff"/></linearGradient><linearGradient id="b" x1="101.661" x2="101.661" y1="172.282" y2="121.118" gradientUnits="userSpaceOnUse"><stop stop-color="#223C6A"/><stop offset="1" stop-color="#5A8AB7"/></linearGradient><linearGradient id="c" x1="81.941" x2="81.941" y1="143.558" y2="-25.373" gradientUnits="userSpaceOnUse"><stop stop-color="#002649"/><stop offset=".321" stop-color="#042A4F"/><stop offset=".748" stop-color="#0F3460"/><stop offset="1" stop-color="#183D6D"/></linearGradient><linearGradient id="d" x1="81.766" x2="81.766" y1="114.202" y2="-107.258" gradientUnits="userSpaceOnUse"><stop stop-color="#223C6A"/><stop offset="1" stop-color="#5A8AB7"/></linearGradient><linearGradient id="e" x1="84.005" x2="84.005" y1="204.282" y2="140.84" gradientUnits="userSpaceOnUse"><stop stop-color="#002649"/><stop offset=".321" stop-color="#042A4F"/><stop offset=".748" stop-color="#0F3460"/><stop offset="1" stop-color="#183D6D"/></linearGradient><linearGradient id="f" x1="37.236" x2="37.236" y1="150.524" y2="5.557" gradientUnits="userSpaceOnUse"><stop stop-color="#386E9F"/><stop offset="1" stop-color="#fff"/></linearGradient><linearGradient id="g" x1="62.533" x2="62.533" y1="80.12" y2="-30.295" gradientUnits="userSpaceOnUse"><stop stop-color="#03192E"/><stop offset=".5" stop-color="#223C6A"/><stop offset="1" stop-color="#4A74A2"/></linearGradient><linearGradient id="h" x1="62.533" x2="62.533" y1="75.585" y2="27.187" gradientUnits="userSpaceOnUse"><stop stop-color="#223C6A"/><stop offset="1" stop-color="#40C67C"/></linearGradient><linearGradient id="i" x1="26.457" x2="26.457" y1="77.902" y2="30.011" gradientUnits="userSpaceOnUse"><stop stop-color="#03192E"/><stop offset=".5" stop-color="#223C6A"/><stop offset="1" stop-color="#4A74A2"/></linearGradient><linearGradient id="j" x1="26.304" x2="26.304" y1="77.948" y2="60.102" gradientUnits="userSpaceOnUse"><stop stop-color="#223C6A"/><stop offset="1" stop-color="#F64936"/></linearGradient><linearGradient id="k" x1="49.948" x2="49.948" y1="160.102" y2="133.966" gradientUnits="userSpaceOnUse"><stop stop-color="#FF2A64"/><stop offset=".075" stop-color="#FF465E"/><stop offset=".18" stop-color="#FF6657"/><stop offset=".295" stop-color="#FF8152"/><stop offset=".419" stop-color="#FF954D"/><stop offset=".559" stop-color="#FFA44A"/><stop offset=".727" stop-color="#FFAC49"/><stop offset="1" stop-color="#FFAF48"/></linearGradient><linearGradient id="l" x1="55.854" x2="55.854" y1="160.102" y2="133.966" gradientUnits="userSpaceOnUse"><stop stop-color="#FF2A64"/><stop offset=".075" stop-color="#FF465E"/><stop offset=".18" stop-color="#FF6657"/><stop offset=".295" stop-color="#FF8152"/><stop offset=".419" stop-color="#FF954D"/><stop offset=".559" stop-color="#FFA44A"/><stop offset=".727" stop-color="#FFAC49"/><stop offset="1" stop-color="#FFAF48"/></linearGradient><linearGradient id="m" x1="61.759" x2="61.759" y1="160.102" y2="133.966" gradientUnits="userSpaceOnUse"><stop stop-color="#FF2A64"/><stop offset=".075" stop-color="#FF465E"/><stop offset=".18" stop-color="#FF6657"/><stop offset=".295" stop-color="#FF8152"/><stop offset=".419" stop-color="#FF954D"/><stop offset=".559" stop-color="#FFA44A"/><stop offset=".727" stop-color="#FFAC49"/><stop offset="1" stop-color="#FFAF48"/></linearGradient><linearGradient id="n" x1="130.928" x2="121.96" y1="168.52" y2="73.516" gradientUnits="userSpaceOnUse"><stop stop-color="#223C6A"/><stop offset="1" stop-color="#5A8AB7"/></linearGradient><linearGradient id="o" x1="135.846" x2="122.061" y1="160.98" y2="112.814" gradientUnits="userSpaceOnUse"><stop stop-color="#002649"/><stop offset=".321" stop-color="#042A4F"/><stop offset=".748" stop-color="#0F3460"/><stop offset="1" stop-color="#183D6D"/></linearGradient><linearGradient id="p" x1="125.974" x2="108.368" y1="183.777" y2="119.666" gradientUnits="userSpaceOnUse"><stop stop-color="#386E9F"/><stop offset="1" stop-color="#fff"/></linearGradient><linearGradient id="q" x1="111.973" x2="93.371" y1="171.197" y2="129.01" gradientUnits="userSpaceOnUse"><stop stop-color="#FF2A64"/><stop offset=".075" stop-color="#FF465E"/><stop offset=".18" stop-color="#FF6657"/><stop offset=".295" stop-color="#FF8152"/><stop offset=".419" stop-color="#FF954D"/><stop offset=".559" stop-color="#FFA44A"/><stop offset=".727" stop-color="#FFAC49"/><stop offset="1" stop-color="#FFAF48"/></linearGradient><linearGradient id="r" x1="107.653" x2="93.867" y1="169.049" y2="120.883" gradientUnits="userSpaceOnUse"><stop stop-color="#002649"/><stop offset=".321" stop-color="#042A4F"/><stop offset=".748" stop-color="#0F3460"/><stop offset="1" stop-color="#183D6D"/></linearGradient><linearGradient id="s" x1="121.431" x2="107.645" y1="165.105" y2="116.939" gradientUnits="userSpaceOnUse"><stop stop-color="#002649"/><stop offset=".321" stop-color="#042A4F"/><stop offset=".748" stop-color="#0F3460"/><stop offset="1" stop-color="#183D6D"/></linearGradient><linearGradient id="t" x1="129.65" x2="81.816" y1="187.484" y2="81.186" gradientUnits="userSpaceOnUse"><stop stop-color="#386E9F"/><stop offset="1" stop-color="#fff"/></linearGradient><linearGradient id="u" x1="135.33" x2="126.859" y1="207.721" y2="148.925" gradientUnits="userSpaceOnUse"><stop stop-color="#386E9F"/><stop offset="1" stop-color="#fff"/></linearGradient><linearGradient id="v" x1="126.671" x2="118.2" y1="208.969" y2="150.173" gradientUnits="userSpaceOnUse"><stop stop-color="#386E9F"/><stop offset="1" stop-color="#fff"/></linearGradient><linearGradient id="w" x1="116.429" x2="107.958" y1="210.444" y2="151.648" gradientUnits="userSpaceOnUse"><stop stop-color="#386E9F"/><stop offset="1" stop-color="#fff"/></linearGradient><linearGradient id="x" x1="108.767" x2="100.296" y1="211.55" y2="152.754" gradientUnits="userSpaceOnUse"><stop stop-color="#386E9F"/><stop offset="1" stop-color="#fff"/></linearGradient><linearGradient id="y" x1="100.761" x2="281.136" y1="66.341" y2="-10.725" gradientUnits="userSpaceOnUse"><stop stop-color="#FF2A64"/><stop offset=".075" stop-color="#FF465E"/><stop offset=".18" stop-color="#FF6657"/><stop offset=".295" stop-color="#FF8152"/><stop offset=".419" stop-color="#FF954D"/><stop offset=".559" stop-color="#FFA44A"/><stop offset=".727" stop-color="#FFAC49"/><stop offset="1" stop-color="#FFAF48"/></linearGradient><linearGradient id="z" x1="207.269" x2="141.497" y1="146.055" y2="-29.669" gradientUnits="userSpaceOnUse"><stop stop-color="#FF2A64"/><stop offset=".075" stop-color="#FF465E"/><stop offset=".18" stop-color="#FF6657"/><stop offset=".295" stop-color="#FF8152"/><stop offset=".419" stop-color="#FF954D"/><stop offset=".559" stop-color="#FFA44A"/><stop offset=".727" stop-color="#FFAC49"/><stop offset="1" stop-color="#FFAF48"/></linearGradient><linearGradient id="A" x1="132.239" x2="139.436" y1="46.571" y2="34.834" gradientUnits="userSpaceOnUse"><stop stop-color="#002649"/><stop offset=".233" stop-color="#082E55"/><stop offset=".676" stop-color="#143967"/><stop offset="1" stop-color="#183D6D"/></linearGradient><linearGradient id="B" x1="134.887" x2="128.022" y1="83.048" y2="49.386" gradientUnits="userSpaceOnUse"><stop stop-color="#386E9F"/><stop offset="1" stop-color="#fff"/></linearGradient><linearGradient id="C" x1="133.008" x2="127.194" y1="63.308" y2="39.225" gradientUnits="userSpaceOnUse"><stop stop-color="#FF2A64"/><stop offset=".075" stop-color="#FF465E"/><stop offset=".18" stop-color="#FF6657"/><stop offset=".295" stop-color="#FF8152"/><stop offset=".419" stop-color="#FF954D"/><stop offset=".559" stop-color="#FFA44A"/><stop offset=".727" stop-color="#FFAC49"/><stop offset="1" stop-color="#FFAF48"/></linearGradient><linearGradient id="D" x1="288.677" x2="143.846" y1="336.686" y2="82.234" gradientUnits="userSpaceOnUse"><stop stop-color="#223C6A"/><stop offset="1" stop-color="#5A8AB7"/></linearGradient><linearGradient id="E" x1="80.436" x2="75.786" y1="64.698" y2="17.75" gradientUnits="userSpaceOnUse"><stop stop-color="#FF2A64"/><stop offset=".075" stop-color="#FF465E"/><stop offset=".18" stop-color="#FF6657"/><stop offset=".295" stop-color="#FF8152"/><stop offset=".419" stop-color="#FF954D"/><stop offset=".559" stop-color="#FFA44A"/><stop offset=".727" stop-color="#FFAC49"/><stop offset="1" stop-color="#FFAF48"/></linearGradient><linearGradient id="F" x1="96.433" x2="71.852" y1="84.509" y2="33.353" gradientUnits="userSpaceOnUse"><stop stop-color="#223C6A"/><stop offset="1" stop-color="#5A8AB7"/></linearGradient><linearGradient id="G" x1="172.954" x2="161.881" y1="133.577" y2="178.753" gradientUnits="userSpaceOnUse"><stop stop-color="#002649"/><stop offset=".321" stop-color="#042A4F"/><stop offset=".748" stop-color="#0F3460"/><stop offset="1" stop-color="#183D6D"/></linearGradient><linearGradient id="H" x1="116.947" x2="66.858" y1="77.875" y2="77.875" gradientUnits="userSpaceOnUse"><stop stop-color="#002649"/><stop offset=".321" stop-color="#042A4F"/><stop offset=".748" stop-color="#0F3460"/><stop offset="1" stop-color="#183D6D"/></linearGradient><linearGradient id="I" x1="135.174" x2="116.793" y1="152.874" y2="30.631" gradientUnits="userSpaceOnUse"><stop stop-color="#002649"/><stop offset=".321" stop-color="#042A4F"/><stop offset=".748" stop-color="#0F3460"/><stop offset="1" stop-color="#183D6D"/></linearGradient><linearGradient id="J" x1="144.898" x2="109.686" y1="98.948" y2="57.093" gradientUnits="userSpaceOnUse"><stop stop-color="#FF2A64"/><stop offset=".075" stop-color="#FF465E"/><stop offset=".18" stop-color="#FF6657"/><stop offset=".295" stop-color="#FF8152"/><stop offset=".419" stop-color="#FF954D"/><stop offset=".559" stop-color="#FFA44A"/><stop offset=".727" stop-color="#FFAC49"/><stop offset="1" stop-color="#FFAF48"/></linearGradient><linearGradient id="K" x1="201.107" x2="127.417" y1="143.42" y2="143.42" gradientUnits="userSpaceOnUse"><stop stop-color="#002649"/><stop offset=".321" stop-color="#042A4F"/><stop offset=".748" stop-color="#0F3460"/><stop offset="1" stop-color="#183D6D"/></linearGradient><linearGradient id="L" x1="195.101" x2="131.765" y1="136.56" y2="54.843" gradientUnits="userSpaceOnUse"><stop stop-color="#002649"/><stop offset=".321" stop-color="#042A4F"/><stop offset=".748" stop-color="#0F3460"/><stop offset="1" stop-color="#183D6D"/></linearGradient><linearGradient id="M" x1="195.559" x2="141.081" y1="137.046" y2="49.571" gradientUnits="userSpaceOnUse"><stop stop-color="#223C6A"/><stop offset="1" stop-color="#5A8AB7"/></linearGradient><linearGradient id="N" x1="177.456" x2="171.919" y1="170.025" y2="71.035" gradientUnits="userSpaceOnUse"><stop stop-color="#223C6A"/><stop offset="1" stop-color="#5A8AB7"/></linearGradient><linearGradient id="O" x1="168.701" x2="176.507" y1="106.682" y2="156.509" gradientUnits="userSpaceOnUse"><stop stop-color="#FF2A64"/><stop offset=".075" stop-color="#FF465E"/><stop offset=".18" stop-color="#FF6657"/><stop offset=".295" stop-color="#FF8152"/><stop offset=".419" stop-color="#FF954D"/><stop offset=".559" stop-color="#FFA44A"/><stop offset=".727" stop-color="#FFAC49"/><stop offset="1" stop-color="#FFAF48"/></linearGradient><linearGradient id="P" x1="176.574" x2="179.022" y1="80.677" y2="97.863" gradientUnits="userSpaceOnUse"><stop stop-color="#fff"/><stop offset="1" stop-color="#F9E4CE"/></linearGradient><linearGradient id="Q" x1="164.206" x2="166.654" y1="82.439" y2="99.625" gradientUnits="userSpaceOnUse"><stop stop-color="#fff"/><stop offset="1" stop-color="#F9E4CE"/></linearGradient><linearGradient id="R" x1="172.161" x2="174.993" y1="86.115" y2="118.563" gradientUnits="userSpaceOnUse"><stop stop-color="#fff"/><stop offset="1" stop-color="#F9E4CE"/></linearGradient><linearGradient id="S" x1="144.521" x2="140.535" y1="116.401" y2="63.031" gradientUnits="userSpaceOnUse"><stop stop-color="#223C6A"/><stop offset="1" stop-color="#5A8AB7"/></linearGradient><linearGradient id="T" x1="165.094" x2="165.094" y1="173.39" y2="132.188" gradientUnits="userSpaceOnUse"><stop stop-color="#386E9F"/><stop offset="1" stop-color="#fff"/></linearGradient><linearGradient id="U" x1="125.821" x2="107.44" y1="154.28" y2="32.037" gradientUnits="userSpaceOnUse"><stop stop-color="#002649"/><stop offset=".321" stop-color="#042A4F"/><stop offset=".748" stop-color="#0F3460"/><stop offset="1" stop-color="#183D6D"/></linearGradient><linearGradient id="V" x1="87.727" x2="103.672" y1="119.715" y2="74.095" gradientUnits="userSpaceOnUse"><stop stop-color="#386E9F"/><stop offset="1" stop-color="#fff"/></linearGradient><linearGradient id="W" x1="164.169" x2="84.889" y1="123.396" y2="118.302" gradientUnits="userSpaceOnUse"><stop stop-color="#FF2A64"/><stop offset=".075" stop-color="#FF465E"/><stop offset=".18" stop-color="#FF6657"/><stop offset=".295" stop-color="#FF8152"/><stop offset=".419" stop-color="#FF954D"/><stop offset=".559" stop-color="#FFA44A"/><stop offset=".727" stop-color="#FFAC49"/><stop offset="1" stop-color="#FFAF48"/></linearGradient><linearGradient id="X" x1="228.384" x2="197.491" y1="132.92" y2="99.37" gradientUnits="userSpaceOnUse"><stop stop-color="#386E9F"/><stop offset="1" stop-color="#fff"/></linearGradient></defs></svg>