<svg xmlns="http://www.w3.org/2000/svg" width="188" height="193" fill="none"><path fill="url(#a)" d="M166.78 85.455H27.741c-2.046 0-3.698-1.724-3.698-3.86V7.112c0-2.135 1.652-3.859 3.698-3.859H166.78c2.045 0 3.697 1.724 3.697 3.86v74.497c0 2.122-1.664 3.846-3.697 3.846"/><path fill="url(#b)" d="M170.477 12.933V7.11c0-2.135-1.652-3.859-3.697-3.859H27.741c-2.046 0-3.698 1.724-3.698 3.86v5.82z"/><path fill="url(#c)" d="M109.569 73.347H33.46c-1.906 0-3.444-1.604-3.444-3.593V23.885c0-1.989 1.538-3.593 3.444-3.593h76.096c1.906 0 3.444 1.604 3.444 3.593V69.74c.012 1.99-1.538 3.607-3.431 3.607"/><path fill="url(#d)" d="M41.936 68.414h-7.879c-.394 0-.711-.331-.711-.742s.317-.743.711-.743h7.88c.393 0 .711.332.711.743 0 .41-.318.742-.712.742m14.119-.742c0-.411-.318-.743-.712-.743h-7.866c-.394 0-.712.332-.712.743 0 .41.318.742.712.742h7.866c.394 0 .712-.331.712-.742m13.407 0c0-.411-.318-.743-.712-.743h-7.879c-.394 0-.711.332-.711.743 0 .41.317.742.711.742h7.88c.393 0 .71-.331.71-.742m13.407 0c0-.411-.318-.743-.712-.743h-7.866c-.394 0-.712.332-.712.743 0 .41.318.742.712.742h7.866c.394 0 .712-.331.712-.742m13.407 0c0-.411-.318-.743-.712-.743h-7.879c-.394 0-.711.332-.711.743 0 .41.317.742.711.742h7.867a.73.73 0 0 0 .724-.742m13.407 0c0-.411-.318-.743-.712-.743h-7.866c-.394 0-.712.332-.712.743 0 .41.318.742.712.742h7.866c.394 0 .712-.331.712-.742"/><path fill="url(#e)" d="M94.853 31.961h-5.096c-1.03 0-1.856.862-1.856 1.936V61.36c0 1.074.826 1.936 1.856 1.936h5.096c1.029 0 1.855-.862 1.855-1.936V33.897c0-1.06-.826-1.936-1.855-1.936"/><path fill="url(#f)" d="M66.997 29.137H48.011c-.381 0-.686-.319-.686-.716 0-.398.305-.716.686-.716h18.986c.381 0 .686.318.686.716s-.305.716-.686.716m.686 2.625c0-.397-.305-.716-.686-.716H48.011c-.381 0-.686.319-.686.716 0 .398.305.716.686.716h18.986a.716.716 0 0 0 .686-.716m-5.693 3.329c0-.398-.305-.716-.686-.716H48.01c-.381 0-.686.318-.686.716s.305.716.686.716h13.293c.381 0 .686-.318.686-.716"/><path fill="url(#g)" d="M40.22 37.08c2.815 0 5.097-2.38 5.097-5.317s-2.282-5.318-5.096-5.318-5.096 2.38-5.096 5.317 2.282 5.318 5.096 5.318"/><path fill="url(#h)" d="m40.156 32.227-1.143.265-.75-2.453c-.14-.478.127-.968.597-1.088.458-.106.915.226.979.716z"/><path fill="url(#i)" d="m40.309 32.24 1.143.252.737-2.466a.846.846 0 0 0-.61-1.075c-.47-.106-.915.226-.978.73z"/><path fill="url(#j)" d="M40.232 34.6c1.06 0 1.92-.896 1.92-2.002s-.86-2.002-1.92-2.002-1.919.896-1.919 2.002.86 2.002 1.92 2.002"/><path fill="url(#k)" d="M109.646 39.56v1.59c-7.663-4.349-10.993-.331-14.525 3.926-2.364 2.85-4.804 5.794-8.553 5.794-4.613 0-6.9-2.267-9.112-4.455-2.11-2.095-4.104-4.071-8.184-4.071-3.85 0-6.354 3.487-8.794 6.856-2.249 3.116-4.371 6.06-7.434 6.06-3.279 0-5.16-1.83-6.824-3.448-1.563-1.512-2.923-2.838-5.248-2.838-3.559 0-6.33 2.162-7.6 3.368V50.5c1.627-1.326 4.283-2.93 7.6-2.93 2.859 0 4.536 1.63 6.163 3.209 1.627 1.578 3.164 3.063 5.91 3.063 2.401 0 4.32-2.666 6.353-5.49 2.504-3.474 5.35-7.426 9.862-7.426 4.613 0 6.9 2.268 9.111 4.456 2.123 2.095 4.105 4.07 8.184 4.07 3.126 0 5.261-2.585 7.523-5.304 3.482-4.163 7.396-8.87 15.568-4.588"/><path fill="#FC0" d="M30.614 9.949c.87 0 1.576-.736 1.576-1.644s-.706-1.645-1.576-1.645-1.576.737-1.576 1.645.706 1.644 1.576 1.644M36.396 9.949c.87 0 1.576-.736 1.576-1.644s-.706-1.645-1.576-1.645-1.576.737-1.576 1.645.706 1.644 1.576 1.644M42.19 9.949c.87 0 1.576-.736 1.576-1.644S43.06 6.66 42.19 6.66s-1.576.737-1.576 1.645.706 1.644 1.576 1.644"/><path fill="url(#l)" d="M158.787 73.347h-37.348c-1.296 0-2.351-1.1-2.351-2.453V22.241c0-1.352 1.055-2.453 2.351-2.453h37.348c1.297 0 2.352 1.1 2.352 2.453v48.653c0 1.353-1.055 2.453-2.352 2.453"/><path fill="url(#m)" d="M140.104 57.647c8.696 0 15.746-7.356 15.746-16.43s-7.05-16.43-15.746-16.43c-8.695 0-15.745 7.356-15.745 16.43s7.05 16.43 15.745 16.43"/><path fill="url(#n)" d="M140.106 54.318c6.934 0 12.556-5.865 12.556-13.101s-5.622-13.101-12.556-13.101c-6.935 0-12.556 5.865-12.556 13.1 0 7.237 5.621 13.102 12.556 13.102"/><path fill="url(#o)" d="M150.781 41.23v.027c-.012 2.957-1.118 5.635-2.923 7.624-1.944 2.149-4.702 3.475-7.751 3.475-2.999 0-5.719-1.3-7.65-3.382-1.869-2.002-3.013-4.72-3.025-7.73v-.027c0-6.153 4.778-11.14 10.675-11.14 5.896 0 10.674 5 10.674 11.153"/><path fill="url(#p)" d="M150.781 41.23v.027h-21.349v-.026c0-6.153 4.778-11.14 10.675-11.14 5.896-.013 10.674 4.987 10.674 11.14"/><path fill="url(#q)" d="M150.781 41.257v-.027c0-3.222-1.308-6.126-3.405-8.155l-7.168 8.182z"/><path fill="url(#r)" d="M140.106 47.742c3.453 0 6.252-2.922 6.252-6.525s-2.799-6.524-6.252-6.524-6.252 2.921-6.252 6.524 2.799 6.525 6.252 6.525"/><path fill="url(#s)" d="M140.106 46.137c2.604 0 4.715-2.203 4.715-4.92s-2.111-4.92-4.715-4.92-4.715 2.203-4.715 4.92 2.111 4.92 4.715 4.92"/><path fill="url(#t)" d="M142.062 43.591c-1.728 1.1-3.494.636-4.308-.782-.826-1.42-.407-3.25 1.335-4.35 1.271-.809 4.904-1.538 6.9-1.764.826-.092 1.373.862.915 1.578-1.119 1.738-3.571 4.51-4.842 5.318"/><path fill="url(#u)" d="M140.208 42.623c.723 0 1.309-.612 1.309-1.366s-.586-1.366-1.309-1.366c-.722 0-1.308.611-1.308 1.366 0 .754.586 1.366 1.308 1.366"/><path fill="url(#v)" d="M143.918 49.81h-7.535a.44.44 0 0 1-.433-.451c0-.252.191-.451.433-.451h7.535c.242 0 .433.199.433.45 0 .24-.191.452-.433.452"/><path fill="url(#w)" d="M126.598 67.287c1.221 0 2.211-1.033 2.211-2.307s-.99-2.307-2.211-2.307c-1.222 0-2.212 1.033-2.212 2.307s.99 2.307 2.212 2.307"/><path fill="url(#x)" d="M155.445 64.237h-23.053a.39.39 0 0 1-.381-.397v-.77a.39.39 0 0 1 .381-.397h23.053a.39.39 0 0 1 .38.397v.77a.374.374 0 0 1-.38.397"/><path fill="url(#y)" d="M150.552 67.287h-18.16a.39.39 0 0 1-.381-.397v-.77a.39.39 0 0 1 .381-.397h18.16c.216 0 .382.185.382.397v.77a.383.383 0 0 1-.382.397"/><path fill="url(#z)" d="M50.083 85.455h-1.08v19.374h1.08z"/><path fill="url(#A)" d="M141.301 85.455h-1.08v19.374h1.08z"/><path fill="url(#B)" d="M140.755 92.23c3.586 0 6.494-3.033 6.494-6.776s-2.908-6.776-6.494-6.776c-3.587 0-6.493 3.034-6.493 6.776s2.906 6.777 6.493 6.777"/><path fill="url(#C)" d="M140.754 88.69c1.713 0 3.101-1.449 3.101-3.236s-1.388-3.235-3.101-3.235c-1.712 0-3.1 1.448-3.1 3.235s1.388 3.236 3.1 3.236"/><path fill="url(#D)" d="M49.537 92.23c3.586 0 6.494-3.033 6.494-6.776s-2.908-6.776-6.494-6.776c-3.587 0-6.494 3.034-6.494 6.776s2.907 6.777 6.494 6.777"/><path fill="url(#E)" d="M49.536 88.69c1.713 0 3.101-1.448 3.101-3.235s-1.388-3.236-3.1-3.236-3.102 1.449-3.102 3.236 1.389 3.235 3.101 3.235"/><path fill="url(#F)" d="M104.791 130.422h-20.7v5.476h20.7z"/><path fill="url(#G)" d="M104.791 151.585h-20.7v5.477h20.7z"/><path fill="url(#H)" d="M104.791 174.234h-20.7v5.477h20.7z"/><path fill="url(#I)" d="M90.266 98.49H6.01v9.866h84.255z"/><path fill="url(#J)" d="M6.011 104.604v11.084l7.803 4.92H82.45l7.816-4.92v-11.084z"/><path fill="url(#K)" d="M75.283 114.919h-54.29c-1.435 0-2.592-1.207-2.592-2.706 0-1.497 1.157-2.705 2.593-2.705h54.289c1.436 0 2.592 1.208 2.592 2.705-.013 1.486-1.17 2.706-2.592 2.706"/><path fill="url(#L)" d="M13.815 120.608h68.637l1.957 6.061h-72.55z"/><path fill="url(#M)" d="M85.107 139.651H11.159v4.693h73.948z"/><path fill="url(#N)" d="M88.525 139.651H7.752c-.965 0-1.74-.81-1.74-1.818v-9.348c0-1.008.775-1.816 1.74-1.816h80.773c.966 0 1.74.808 1.74 1.816v9.348c0 .995-.787 1.818-1.74 1.818"/><path fill="url(#O)" d="M72.691 136.083H23.575c-.509 0-.928-.437-.928-.968v-3.938c0-.531.42-.968.928-.968H72.69c.509 0 .928.437.928.968v3.938c0 .544-.42.968-.928.968m-53.284 0h.203c.508 0 .915-.424.915-.955v-3.951c0-.531-.407-.955-.915-.955h-.203c-.509 0-.916.424-.916.955v3.951c0 .531.407.955.916.955m-3.673 0h.203c.508 0 .915-.424.915-.955v-3.951c0-.531-.407-.955-.915-.955h-.203c-.508 0-.915.424-.915.955v3.951c0 .531.42.955.915.955m-3.66 0h.203c.509 0 .915-.424.915-.955v-3.951c0-.531-.406-.955-.915-.955h-.203c-.508 0-.915.424-.915.955v3.951c0 .531.407.955.915.955m71.915 0h.203c.508 0 .915-.424.915-.955v-3.951c0-.531-.407-.955-.915-.955h-.203c-.509 0-.915.424-.915.955v3.951c0 .531.406.955.915.955m-3.673 0h.203c.509 0 .915-.424.915-.955v-3.951c0-.531-.406-.955-.915-.955h-.203c-.508 0-.915.424-.915.955v3.951c.013.531.42.955.915.955m-3.66 0h.203c.509 0 .916-.424.916-.955v-3.951c0-.531-.407-.955-.916-.955h-.203c-.508 0-.915.424-.915.955v3.951c0 .531.407.955.915.955"/><path fill="url(#P)" d="M11.159 168.134h73.948v-4.695H11.159z"/><path fill="url(#Q)" d="M6.011 185.824h84.255v6.205H6.01z"/><path fill="url(#R)" d="M88.525 163.439H7.752c-.965 0-1.74-.808-1.74-1.816v-15.462c0-1.007.775-1.817 1.74-1.817h80.773c.966 0 1.74.81 1.74 1.817v15.462c0 1.008-.787 1.816-1.74 1.816"/><path fill="url(#S)" d="M72.59 159.648H23.676c-.571 0-1.029-.478-1.029-1.075v-9.348c0-.597.458-1.074 1.03-1.074H72.59c.572 0 1.029.477 1.029 1.074v9.348c0 .597-.457 1.075-1.03 1.075m-53.082 0c.56 0 1.017-.478 1.017-1.061v-9.376c0-.583-.458-1.06-1.017-1.06s-1.017.477-1.017 1.06v9.376c0 .583.458 1.061 1.017 1.061m-3.66 0c.56 0 1.017-.478 1.017-1.061v-9.376c0-.583-.458-1.06-1.017-1.06s-1.016.477-1.016 1.06v9.376a1.027 1.027 0 0 0 1.016 1.061m-3.672 0c.559 0 1.016-.478 1.016-1.061v-9.376c0-.583-.457-1.06-1.016-1.06-.56 0-1.017.477-1.017 1.06v9.376c0 .583.457 1.061 1.017 1.061m71.914 0c.56 0 1.017-.478 1.017-1.061v-9.376c0-.583-.457-1.06-1.017-1.06s-1.016.477-1.016 1.06v9.376c0 .583.457 1.061 1.016 1.061m-3.66 0c.56 0 1.017-.478 1.017-1.061v-9.376c0-.583-.457-1.06-1.017-1.06s-1.016.477-1.016 1.06v9.376c0 .583.445 1.061 1.016 1.061m-3.672 0c.559 0 1.017-.478 1.017-1.061v-9.376c0-.583-.458-1.06-1.017-1.06-.56 0-1.017.477-1.017 1.06v9.376c0 .583.458 1.061 1.017 1.061"/><path fill="url(#T)" d="M65.549 155.882H30.716c-1.055 0-1.906-.889-1.906-1.99s.851-1.989 1.906-1.989h34.833c1.054 0 1.906.889 1.906 1.989s-.852 1.99-1.906 1.99"/><path fill="url(#U)" d="M48.762 167.073c7.067 0 12.797-5.979 12.797-13.354s-5.73-13.353-12.797-13.353-12.797 5.979-12.797 13.353c0 7.375 5.73 13.354 12.797 13.354"/><path fill="url(#V)" d="M48.762 162.631c4.716 0 8.54-3.989 8.54-8.912 0-4.921-3.824-8.91-8.54-8.91-4.717 0-8.54 3.989-8.54 8.91 0 4.923 3.823 8.912 8.54 8.912"/><path fill="url(#W)" fill-rule="evenodd" d="m49.587 149.45 2.783 1.578-2.58-3.593a2.08 2.08 0 0 0-.203 2.015" clip-rule="evenodd"/><path fill="url(#X)" fill-rule="evenodd" d="M48.33 155.31c.356 0 .635.306.635.664a.65.65 0 0 1-.635.662.65.65 0 0 1-.636-.662.644.644 0 0 1 .636-.664" clip-rule="evenodd"/><path fill="url(#Y)" fill-rule="evenodd" d="m46.385 147.964 7.803 4.416a.406.406 0 0 1 0 .716 5.7 5.7 0 0 1-1.906.77l-1.627 3.474s-.508 1.22-1.931.755c.597-.623 1.309-1.18 1.309-2.121 0-.981-.776-1.79-1.716-1.79s-1.716.809-1.716 1.79c0 1.247 1.182 1.763 1.83 2.626.293.437.255 1.02-.089 1.405-.8-.835-2.376-2.24-3.024-3.169a2.7 2.7 0 0 1-.546-1.631c.063-1.3.902-2.413 2.084-2.784.355-.107.724-.16 1.093-.133a3.34 3.34 0 0 1 1.461.463c.699.426 1.03.306 1.5-.105.279-.24.597-1.022.114-1.206a3 3 0 0 0-.47-.12c-.89-.186-2.44-.345-3-.69-.902-.544-1.512-1.617-1.169-2.666" clip-rule="evenodd"/><path fill="url(#Z)" fill-rule="evenodd" d="M50.019 155.974c.356-1.976-1.563-3.872-3.05-3.581l.102-.013c-.09.013-.153.041-.23.054-1.181.37-2.02 1.484-2.083 2.784.012.597.203 1.167.559 1.632.635.928 2.211 2.333 3.024 3.168.356-.384.394-.981.09-1.405-.661-.863-1.843-1.379-1.843-2.626 0-.981.775-1.79 1.715-1.79.953-.013 1.729.796 1.716 1.777" clip-rule="evenodd"/><path fill="url(#aa)" fill-rule="evenodd" d="m46.385 147.964 5.935 3.369.165.092c.14.12.28.345.102.769-.28.624-1.411 1.247-2.72.771.407.118.686-.015 1.042-.332.28-.24.597-1.022.114-1.208a3 3 0 0 0-.47-.118c-.89-.186-2.44-.345-2.999-.69-.902-.531-1.512-1.604-1.169-2.653" clip-rule="evenodd"/><path fill="url(#ab)" fill-rule="evenodd" d="M46.385 147.964c.61 2.36 4.333 2.547 6.201 3.528z" clip-rule="evenodd"/><path fill="url(#ac)" fill-rule="evenodd" d="M48.43 158.6c-.647-.863-1.83-1.379-1.83-2.626 0-.901.649-1.657 1.5-1.764-1.36.014-2.465 1.154-2.478 2.587 0 .171.013.345.051.516.534.637 1.322 1.38 1.97 2.016.254.252.496.477.686.689.153-.199.254-.45.28-.689a1.05 1.05 0 0 0-.178-.729" clip-rule="evenodd"/><path fill="url(#ad)" fill-rule="evenodd" d="M50.008 156.187c.012-.067.012-.146.012-.213.356-1.976-1.575-3.872-3.05-3.58a3 3 0 0 1 .966-.093c1.945.067 2.478 2.228 2.072 3.886" clip-rule="evenodd"/><path fill="url(#ae)" fill-rule="evenodd" d="M44.289 151.797c.355 0 .635.304.635.662v.664h-.635c-.356 0-.636-.306-.636-.664s.293-.649.636-.662" clip-rule="evenodd"/><path fill="url(#af)" d="M90.266 185.823H6.01v-15.567c0-1.167.915-2.122 2.034-2.122h80.188c1.118 0 2.033.955 2.033 2.122z"/><path fill="url(#ag)" d="M72.691 179.91H23.575c-.509 0-.928-.437-.928-.968v-3.939c0-.531.42-.968.928-.968H72.69c.509 0 .928.437.928.968v3.939c0 .544-.42.968-.928.968m-53.284 0h.203c.508 0 .915-.424.915-.955v-3.952c0-.531-.407-.955-.915-.955h-.203c-.509 0-.916.424-.916.955v3.952c0 .531.407.955.916.955m-3.673 0h.203c.508 0 .915-.424.915-.955v-3.952c0-.531-.407-.955-.915-.955h-.203c-.508 0-.915.424-.915.955v3.952c0 .531.42.955.915.955m-3.66 0h.203c.509 0 .915-.424.915-.955v-3.952c0-.531-.406-.955-.915-.955h-.203c-.508 0-.915.424-.915.955v3.952c0 .531.407.955.915.955m71.915 0h.203c.508 0 .915-.424.915-.955v-3.952c0-.531-.407-.955-.915-.955h-.203c-.509 0-.915.424-.915.955v3.952c0 .531.406.955.915.955m-3.673 0h.203c.509 0 .915-.424.915-.955v-3.952c0-.531-.406-.955-.915-.955h-.203c-.508 0-.915.424-.915.955v3.952c.013.531.42.955.915.955m-3.66 0h.203c.509 0 .916-.424.916-.955v-3.952c0-.531-.407-.955-.916-.955h-.203c-.508 0-.915.424-.915.955v3.952c0 .531.407.955.915.955"/><path fill="url(#ah)" d="M181.471 98.49H97.217v9.866h84.254z"/><path fill="url(#ai)" d="M97.217 104.604v11.084l7.802 4.92h68.649l7.803-4.92v-11.084z"/><path fill="url(#aj)" d="M166.489 114.919h-54.288c-1.436 0-2.593-1.207-2.593-2.706 0-1.497 1.157-2.705 2.593-2.705h54.288c1.437 0 2.593 1.208 2.593 2.705 0 1.486-1.156 2.706-2.593 2.706"/><path fill="url(#ak)" d="M105.021 120.608h68.648l1.958 6.061h-72.551z"/><path fill="url(#al)" d="M176.325 139.651h-73.948v4.693h73.948z"/><path fill="url(#am)" d="M179.73 139.651H98.958c-.966 0-1.741-.809-1.741-1.818v-9.348c0-1.008.775-1.816 1.74-1.816h80.773c.966 0 1.741.808 1.741 1.816v9.348c0 .996-.775 1.818-1.741 1.818"/><path fill="url(#an)" d="M163.91 136.083h-49.117c-.509 0-.928-.437-.928-.968v-3.938c0-.531.419-.968.928-.968h49.117c.507 0 .927.437.927.968v3.938c0 .544-.42.968-.927.968m-53.298 0h.203c.508 0 .915-.424.915-.955v-3.951c0-.531-.407-.955-.915-.955h-.203c-.509 0-.915.424-.915.955v3.951c.012.531.419.955.915.955m-3.66 0h.203c.509 0 .915-.424.915-.955v-3.951c0-.531-.406-.955-.915-.955h-.203c-.509 0-.915.424-.915.955v3.951c0 .531.406.955.915.955m-3.66 0h.203c.509 0 .915-.424.915-.955v-3.951c0-.531-.406-.955-.915-.955h-.203c-.508 0-.915.424-.915.955v3.951c0 .531.407.955.915.955m71.902 0h.203c.509 0 .915-.424.915-.955v-3.951c0-.531-.406-.955-.915-.955h-.203c-.508 0-.915.424-.915.955v3.951c.013.531.419.955.915.955m-3.66 0h.203c.509 0 .915-.424.915-.955v-3.951c0-.531-.406-.955-.915-.955h-.203c-.508 0-.914.424-.914.955v3.951c0 .531.406.955.914.955m-3.66 0h.203c.509 0 .915-.424.915-.955v-3.951c0-.531-.406-.955-.915-.955h-.203c-.508 0-.914.424-.914.955v3.951c0 .531.406.955.914.955"/><path fill="url(#ao)" d="M102.377 168.134h73.948v-4.695h-73.948z"/><path fill="url(#ap)" d="M97.217 185.824h84.254v6.205H97.217z"/><path fill="url(#aq)" d="M179.73 163.439H98.958c-.966 0-1.741-.808-1.741-1.816V146.16c0-1.007.775-1.816 1.74-1.816h80.773c.966 0 1.741.809 1.741 1.816v15.463c0 1.008-.775 1.816-1.741 1.816"/><path fill="url(#ar)" d="M163.807 159.648h-48.913c-.572 0-1.029-.478-1.029-1.075v-9.348c0-.597.457-1.074 1.029-1.074h48.913c.573 0 1.03.477 1.03 1.074v9.348c0 .597-.47 1.075-1.03 1.075m-53.081 0c.559 0 1.017-.478 1.017-1.061v-9.376c0-.583-.458-1.06-1.017-1.06s-1.016.477-1.016 1.06v9.376c0 .583.444 1.061 1.016 1.061m-3.673 0c.56 0 1.017-.478 1.017-1.061v-9.376c0-.583-.457-1.06-1.017-1.06s-1.016.477-1.016 1.06v9.376c0 .583.457 1.061 1.016 1.061m-3.659 0c.559 0 1.016-.478 1.016-1.061v-9.376c0-.583-.457-1.06-1.016-1.06-.56 0-1.017.477-1.017 1.06v9.376c0 .583.457 1.061 1.017 1.061m71.914 0c.559 0 1.017-.478 1.017-1.061v-9.376c0-.583-.458-1.06-1.017-1.06s-1.016.477-1.016 1.06v9.376c0 .583.444 1.061 1.016 1.061m-3.672 0c.559 0 1.016-.478 1.016-1.061v-9.376c0-.583-.457-1.06-1.016-1.06-.56 0-1.016.477-1.016 1.06v9.376c0 .583.456 1.061 1.016 1.061m-3.66 0c.559 0 1.016-.478 1.016-1.061v-9.376c0-.583-.457-1.06-1.016-1.06-.56 0-1.016.477-1.016 1.06v9.376c0 .583.456 1.061 1.016 1.061"/><path fill="url(#as)" d="M156.767 155.882h-34.833c-1.055 0-1.906-.889-1.906-1.99s.851-1.989 1.906-1.989h34.833c1.055 0 1.906.889 1.906 1.989s-.851 1.99-1.906 1.99"/><path fill="url(#at)" d="M139.968 167.073c7.067 0 12.797-5.979 12.797-13.354s-5.73-13.353-12.797-13.353-12.797 5.979-12.797 13.353c0 7.375 5.729 13.354 12.797 13.354"/><path fill="url(#au)" d="M139.967 162.631c4.717 0 8.541-3.989 8.541-8.912 0-4.921-3.824-8.91-8.541-8.91-4.716 0-8.539 3.989-8.539 8.91 0 4.923 3.823 8.912 8.539 8.912"/><path fill="url(#av)" fill-rule="evenodd" d="m140.794 149.45 2.784 1.578-2.58-3.594a2.12 2.12 0 0 0-.204 2.016" clip-rule="evenodd"/><path fill="url(#aw)" fill-rule="evenodd" d="M139.536 155.31c.355 0 .634.306.634.664a.65.65 0 0 1-.634.662c-.357 0-.636-.291-.636-.662 0-.358.291-.664.636-.664" clip-rule="evenodd"/><path fill="url(#ax)" fill-rule="evenodd" d="m137.604 147.964 7.802 4.416c.191.093.267.332.179.531a.4.4 0 0 1-.179.185 5.7 5.7 0 0 1-1.906.77l-1.626 3.474s-.509 1.22-1.932.755c.597-.623 1.309-1.18 1.309-2.121 0-.981-.775-1.79-1.715-1.79s-1.716.809-1.716 1.79c0 1.247 1.182 1.763 1.83 2.626.292.437.253 1.02-.089 1.405-.801-.835-2.377-2.24-3.024-3.169a2.7 2.7 0 0 1-.548-1.631c.064-1.3.903-2.413 2.085-2.784a3 3 0 0 1 1.093-.133 3.34 3.34 0 0 1 1.461.463c.7.426 1.03.306 1.5-.105.279-.24.597-1.022.114-1.206a3 3 0 0 0-.471-.12c-.889-.186-2.439-.345-2.999-.69-.914-.544-1.525-1.617-1.168-2.666" clip-rule="evenodd"/><path fill="url(#ay)" fill-rule="evenodd" d="M141.237 155.974c.356-1.976-1.563-3.872-3.049-3.581l.101-.013c-.089.013-.152.041-.228.054-1.182.37-2.022 1.484-2.085 2.784a2.77 2.77 0 0 0 .56 1.632c.634.928 2.211 2.333 3.024 3.168.356-.384.394-.981.089-1.405-.66-.863-1.843-1.379-1.843-2.626 0-.981.775-1.79 1.716-1.79.953-.013 1.715.796 1.715 1.777" clip-rule="evenodd"/><path fill="url(#az)" fill-rule="evenodd" d="m137.603 147.964 5.935 3.369.164.092c.141.12.281.345.102.769-.279.624-1.41 1.247-2.719.771.406.118.686-.015 1.042-.332.28-.24.598-1.022.114-1.208a3 3 0 0 0-.47-.118c-.89-.186-2.44-.345-2.999-.69-.914-.531-1.525-1.604-1.169-2.653" clip-rule="evenodd"/><path fill="url(#aA)" fill-rule="evenodd" d="M137.604 147.964c.609 2.36 4.333 2.547 6.201 3.528z" clip-rule="evenodd"/><path fill="url(#aB)" fill-rule="evenodd" d="M139.636 158.6c-.648-.863-1.83-1.379-1.83-2.626 0-.901.648-1.657 1.5-1.764-1.359.014-2.465 1.154-2.478 2.587 0 .171.013.345.051.516.534.637 1.321 1.38 1.969 2.016.255.252.497.477.686.689.153-.199.254-.45.281-.689a.94.94 0 0 0-.179-.729" clip-rule="evenodd"/><path fill="url(#aC)" fill-rule="evenodd" d="M141.225 156.187c.014-.067.014-.146.014-.213.355-1.976-1.577-3.872-3.051-3.58a3 3 0 0 1 .966-.093c1.945.067 2.479 2.228 2.071 3.886" clip-rule="evenodd"/><path fill="url(#aD)" fill-rule="evenodd" d="M135.507 151.797c.355 0 .636.304.636.662v.664h-.636c-.356 0-.635-.306-.635-.664s.292-.649.635-.662" clip-rule="evenodd"/><path fill="url(#aE)" d="M181.471 185.823H97.217v-15.567c0-1.167.915-2.122 2.033-2.122h80.188c1.118 0 2.033.955 2.033 2.122z"/><path fill="url(#aF)" d="M163.91 179.91h-49.117c-.509 0-.928-.437-.928-.968v-3.939c0-.531.419-.968.928-.968h49.117c.507 0 .927.437.927.968v3.939c0 .544-.42.968-.927.968m-53.298 0h.203c.508 0 .915-.424.915-.955v-3.952c0-.531-.407-.955-.915-.955h-.203c-.509 0-.915.424-.915.955v3.952c.012.531.419.955.915.955m-3.66 0h.203c.509 0 .915-.424.915-.955v-3.952c0-.531-.406-.955-.915-.955h-.203c-.509 0-.915.424-.915.955v3.952c0 .531.406.955.915.955m-3.66 0h.203c.509 0 .915-.424.915-.955v-3.952c0-.531-.406-.955-.915-.955h-.203c-.508 0-.915.424-.915.955v3.952c0 .531.407.955.915.955m71.902 0h.203c.509 0 .915-.424.915-.955v-3.952c0-.531-.406-.955-.915-.955h-.203c-.508 0-.915.424-.915.955v3.952c.013.531.419.955.915.955m-3.66 0h.203c.509 0 .915-.424.915-.955v-3.952c0-.531-.406-.955-.915-.955h-.203c-.508 0-.914.424-.914.955v3.952c0 .531.406.955.914.955m-3.66 0h.203c.509 0 .915-.424.915-.955v-3.952c0-.531-.406-.955-.915-.955h-.203c-.508 0-.914.424-.914.955v3.952c0 .531.406.955.914.955"/><path fill="url(#aG)" d="M124.779 192.029H69.627l1.944-13.657h51.264z"/><path fill="url(#aH)" d="M127.575 177.575c-17.257 13.925-43.461 13.925-60.731 0 0 0 2.084-.835 3.291-4.746.458-1.512.788-3.461.826-6.008v-.437c0-1.339.013-3.09.038-5.119a3531.919 3531.919 0 0 1 .343-20.448c.153-8.195.305-14.957.305-14.957l.763-11.418 5.807-.424 5.986-.438 13.013-.927 13.013.927 4.372.305 7.485.531.699 11.431s.152 6.775.305 14.957a3654 3654 0 0 1 .343 20.448c.025 2.029.038 3.779.038 5.119v.437c.025 2.401.33 4.284.75 5.742 1.168 4.164 3.354 5.025 3.354 5.025"/><path fill="url(#aI)" d="M123.382 158.507H71.038c.076-5.33.19-11.869.305-17.69h51.734c.115 5.821.229 12.373.305 17.69"/><path fill="url(#aJ)" d="M114.601 113.899c-4.079 11.284-17.385 15.555-17.385 15.555-10.04-1.181-16.85-11.643-18.998-15.436l5.985-.438 13.013-.927 13.013.927z"/><path fill="url(#aK)" d="M154.62 171.33v20.713h-12.061V171.33c0-11.099-8.654-20.13-19.29-20.13h-18.134v-12.584h18.134c17.283 0 31.351 14.666 31.351 32.714"/><path fill="url(#aL)" d="M148.875 173.73v18.299h-6.316v-20.712c0-11.099-8.654-20.13-19.29-20.13h-18.134v-6.378h16.025c15.288 0 27.715 12.969 27.715 28.921"/><path fill="url(#aM)" d="M98.793 153.163h14.97c1.817 0 3.279-1.538 3.279-3.421v-12.2c0-1.896-1.474-3.421-3.279-3.421h-14.97z"/><path fill="url(#aN)" d="M99.124 155.045h2.148c1.003 0 1.817-.848 1.817-1.896v-19.028c0-1.048-.814-1.896-1.817-1.896h-2.148c-1.004 0-1.817.848-1.817 1.896v19.028c0 1.048.813 1.896 1.817 1.896"/><path fill="url(#aO)" d="M150.516 130.261s7.929 5.716 9.504 11.922c0 0-16.113-.238-16.113 0 0 .239-.318-10.012-.216-10.039.089-.039 6.825-1.883 6.825-1.883"/><path fill="url(#aP)" d="M122.072 114.429v22.211l9.506.664v-.013l10.89-11.763-4.765-4.283a25.7 25.7 0 0 0-12.327-6.18z"/><path fill="url(#aQ)" d="M122.072 114.429v2.493c14.347 4.23 9.62 19.971 9.506 20.369l10.89-11.763-4.765-4.283a25.7 25.7 0 0 0-12.327-6.18z"/><path fill="url(#aR)" d="m131.771 138.323 4.028 4.205a2.04 2.04 0 0 0 2.962 0l12.149-12.678c.813-.848.813-2.228 0-3.089l-4.029-4.204a2.04 2.04 0 0 0-2.96 0l-12.15 12.677c-.826.862-.826 2.241 0 3.089"/><path fill="url(#aS)" d="M104.322 137.104c0 .187.05.371.152.544a.94.94 0 0 0 1.131.412l2.694-.969-2.465 1.725a1.045 1.045 0 0 0-.381 1.165l.088.266c.153.464.598.756 1.068.663l3.075-.517-2.618 1.128c-.444.185-.686.688-.571 1.166l.089.385a1 1 0 0 0 .686.743l13.102 3.673 27.233 7.624c3.075.862 6.367.106 8.806-2.016l.407-.358a9.9 9.9 0 0 0 2.161-2.652 10.557 10.557 0 0 0-.152-10.621l-.217-.371-.647-1.075c-1.679-2.784-4.538-4.547-7.689-4.747l-33.689-2.122c-3.253-.212-6.469.823-9.061 2.892l-2.834 2.266a1.04 1.04 0 0 0-.368.796"/><path fill="url(#aT)" d="m120.409 147.488 27.233 7.623c3.076.863 6.367.107 8.807-2.015l.407-.358a9.9 9.9 0 0 0 2.159-2.652 10.5 10.5 0 0 0 1.183-3.262 10.55 10.55 0 0 0-1.335-7.359l-.215-.371c-.7 3.248-2.911 9.189-9.697 8.857-9.315-.463-8.299-5.357-17.93-4.031-6.139.835-7.778 2.613-10.612 3.568"/><path fill="url(#aU)" d="M110.509 113.606c-3.291 5.027-13.28 11.087-13.28 11.087-6.252-2.706-10.179-6.91-12.047-9.283-.864-1.101-1.284-1.817-1.284-1.817 2.707-3.527 2.288-11.191 2.288-11.191l22.048-1.765c-.368 1.645-.368 3.369-.165 5 .508 4.442 2.44 7.969 2.44 7.969"/><path fill="url(#aV)" d="M51.951 192.029H39.904v-20.713c0-18.034 14.068-32.714 31.35-32.714H89.39v12.585H71.242c-10.637 0-19.29 9.03-19.29 20.129z"/><path fill="url(#aW)" d="M45.635 173.73v18.299h6.316v-20.712c0-11.099 8.654-20.13 19.29-20.13h18.135v-6.378H73.35c-15.275 0-27.716 12.969-27.716 28.921"/><path fill="url(#aX)" d="M95.717 153.162h-14.97c-1.817 0-3.278-1.538-3.278-3.42v-12.2c0-1.896 1.474-3.421 3.278-3.421h14.97z"/><path fill="url(#aY)" d="M95.476 155.045h-2.224c-1.004 0-1.83-.848-1.83-1.909v-19.002c0-1.048.813-1.909 1.83-1.909h2.224c1.004 0 1.83.848 1.83 1.909v19.002c0 1.061-.814 1.909-1.83 1.909"/><path fill="#F87C38" d="M108.056 105.637c-2.198 3.09-9.175 10.927-22.874 9.773-.864-1.101-1.284-1.817-1.284-1.817 2.707-3.527 2.288-11.191 2.288-11.191l22.048-1.765c-.368 1.632-.368 3.356-.178 5"/><path fill="url(#aZ)" d="m93.519 56.188-11.933 3.196a1.4 1.4 0 0 1-1.55-.61c-6.24-9.733-8.565-18.91-8.718-27.039-.216-11.934 4.245-21.614 7.866-27.449A55 55 0 0 1 81.65.64c.762-1.021 2.325-.637 2.554.65l1.461 8.247 6.024 33.841.991 5.596c.013.08.038.16.064.239l1.754 5c.304.835-.166 1.75-.979 1.975"/><path fill="url(#ba)" d="M85.677 9.524C78.32 14.75 73.605 25.397 71.33 31.736 71.063 16.818 78.103 5.426 81.662.64c.762-1.021 2.325-.637 2.554.65z"/><path fill="#FFCA83" d="M91.702 43.365 79.185 4.286A55 55 0 0 1 81.65.64c.763-1.021 2.326-.637 2.554.65l1.462 8.248z" opacity=".6"/><path fill="url(#bb)" d="m99.924 56.188 11.933 3.196c.585.159 1.207-.08 1.55-.61 6.24-9.733 8.566-18.91 8.718-27.039.216-11.934-4.244-21.614-7.866-27.449A55 55 0 0 0 111.793.64c-.762-1.021-2.325-.637-2.554.65l-1.474 8.234-6.023 33.841-.992 5.596c-.012.08-.038.16-.063.239l-1.754 4.999c-.292.849.178 1.764.991 1.989"/><path fill="url(#bc)" d="M107.765 9.524c7.358 5.225 12.072 15.873 14.347 22.212.267-14.918-6.773-26.31-10.331-31.096-.763-1.021-2.326-.637-2.555.65z"/><path fill="#FFCA83" d="m101.741 43.365 12.505-39.092A55 55 0 0 0 111.78.627c-.762-1.021-2.325-.637-2.554.65l-1.461 8.247z" opacity=".6"/><path fill="url(#bd)" d="M115.771 94.087c1.588 2.109 4.181 1.99 4.181 1.99-5.579 7.133-10.891 4.826-10.891 4.826a13.8 13.8 0 0 1-4.118 4.536 14.25 14.25 0 0 1-16.456 0 13.7 13.7 0 0 1-4.118-4.536s-5.324 2.307-10.89-4.827c0 0 2.592.133 4.18-1.989 0 0-5.439.862-7.154-3.17 0 0 6.455.664 6.392-11.098-.013-3.103-.026-6.737-.026-10.396v-.014c0-7.08 3.406-13.327 8.591-17.066 1.627-1.167 3.444-2.109 5.376-2.718a23 23 0 0 1 1.906-.518 18.975 18.975 0 0 1 7.98 0c.648.133 1.284.305 1.894.518a19.5 19.5 0 0 1 5.375 2.718c5.198 3.74 8.604 9.998 8.591 17.08 0 3.66-.013 7.293-.025 10.396-.064 11.762 6.404 11.099 6.404 11.099-1.741 4.031-7.192 3.17-7.192 3.17"/><path fill="url(#be)" d="m80.06 76.543-.8 2.082a.77.77 0 0 1-1.005.451l-5.3-2.214c-.393-.16-.584-.637-.431-1.048l.8-2.082a.77.77 0 0 1 1.005-.45l5.299 2.214c.394.159.584.636.432 1.047"/><path fill="url(#bf)" d="m78.053 81.198-.8 2.082a.77.77 0 0 1-1.004.45l-5.3-2.214c-.394-.159-.584-.636-.432-1.047l.8-2.082a.77.77 0 0 1 1.005-.451l5.3 2.214a.807.807 0 0 1 .431 1.048"/><path fill="url(#bg)" d="m114.563 76.543.801 2.082c.152.411.61.61 1.004.451l5.299-2.214c.394-.16.584-.637.432-1.048l-.801-2.082a.77.77 0 0 0-1.004-.45l-5.299 2.214c-.406.159-.597.636-.432 1.047"/><path fill="url(#bh)" d="m116.558 81.198.801 2.082c.153.41.61.61 1.004.45l5.299-2.214c.394-.159.585-.636.432-1.047l-.8-2.082a.77.77 0 0 0-1.004-.451l-5.299 2.214a.807.807 0 0 0-.433 1.048"/><path fill="url(#bi)" d="M109.759 72.34c-4.753 0-8.667 3.713-9.239 8.513h-6.456c-.571-4.8-4.485-8.513-9.238-8.513-5.134 0-9.303 4.35-9.303 9.707s4.169 9.706 9.303 9.706c4.55 0 8.336-3.408 9.15-7.916h6.633c.801 4.508 4.588 7.916 9.15 7.916 5.134 0 9.302-4.35 9.302-9.706.013-5.358-4.155-9.707-9.302-9.707"/><path fill="url(#bj)" d="M91.32 82.046c0 .796-.127 1.552-.368 2.255a6.67 6.67 0 0 1-2.542 3.381 5.8 5.8 0 0 1-1.08.597 6.1 6.1 0 0 1-2.465.517c-.14 0-.267 0-.407-.013-3.38-.226-6.062-3.156-6.062-6.737 0-.49.051-.968.14-1.419a6.7 6.7 0 0 1 2.084-3.673 6.3 6.3 0 0 1 3.813-1.644c.14-.013.292-.013.444-.013 3.546 0 6.443 3.023 6.443 6.75"/><path fill="#fff" d="M90.94 84.314a6.67 6.67 0 0 1-2.541 3.382l-7.803-10.728a6.3 6.3 0 0 1 3.812-1.644zM87.317 88.292a6.1 6.1 0 0 1-2.465.517c-.14 0-.267 0-.407-.013l-5.922-8.155a6.7 6.7 0 0 1 1.233-2.745z" opacity=".5"/><path fill="#F87C38" d="M83.097 66.173c2.148-.106 4.18.504 5.871 1.485 1.703.982 3.1 2.32 4.194 3.86a.825.825 0 0 1-.153 1.113.72.72 0 0 1-.927-.026l-.013-.014c-1.258-1.074-2.707-1.843-4.168-2.24-1.462-.399-2.948-.385-4.194.039-1.08.371-2.25-.252-2.592-1.392-.356-1.127.241-2.348 1.334-2.706.178-.053.356-.092.534-.106z"/><path fill="url(#bk)" d="M103.291 82.046c0 .796.127 1.552.368 2.255a6.68 6.68 0 0 0 2.542 3.381 5.8 5.8 0 0 0 1.08.597 6.15 6.15 0 0 0 2.466.517c.14 0 .267 0 .406-.013 3.381-.226 6.062-3.156 6.062-6.737 0-.49-.051-.968-.14-1.419a6.7 6.7 0 0 0-2.084-3.673 6.3 6.3 0 0 0-3.812-1.644c-.14-.013-.292-.013-.445-.013-3.546 0-6.443 3.023-6.443 6.75"/><path fill="#fff" d="M103.672 84.314a6.67 6.67 0 0 0 2.541 3.382l7.803-10.728a6.3 6.3 0 0 0-3.812-1.644zM107.294 88.292a6.1 6.1 0 0 0 2.465.517c.14 0 .267 0 .407-.013l5.922-8.155a6.7 6.7 0 0 0-1.233-2.745z" opacity=".5"/><path fill="#F87C38" d="M111.512 66.173c-2.147-.106-4.181.504-5.871 1.485-1.703.982-3.101 2.32-4.194 3.86a.824.824 0 0 0 .153 1.113c.28.225.673.199.928-.026l.012-.014c1.258-1.074 2.707-1.843 4.169-2.24 1.461-.399 2.948-.385 4.193.039 1.08.371 2.25-.252 2.593-1.392.355-1.127-.242-2.348-1.335-2.706a2.5 2.5 0 0 0-.533-.106z"/><path fill="#FFCA83" d="M100.698 49.266v12.346c0 2.307-1.791 4.164-3.99 4.164-2.211 0-3.99-1.857-3.99-4.164V49.094a18.968 18.968 0 0 1 7.98 0zM90.811 49.598v9.813c0 1.392-1.08 2.533-2.427 2.533h-.521c-1.347 0-2.427-1.127-2.427-2.533V52.33a19.4 19.4 0 0 1 5.375-2.732M107.955 52.33v7.08c0 1.393-1.081 2.534-2.428 2.534h-.521c-1.347 0-2.427-1.127-2.427-2.533v-9.813a19 19 0 0 1 5.376 2.732" opacity=".6"/><path fill="#F87C38" d="M98.805 86.74h-2.999c-.838 0-1.525.717-1.525 1.592v.199c0 .61.343 1.167.864 1.432l1.513.743c.406.198.876.198 1.283 0l1.513-.743c.533-.265.864-.822.864-1.432v-.2c.012-.874-.674-1.59-1.513-1.59"/><path fill="url(#bl)" d="M105.401 93.557v.848c0 .624-.064 1.247-.191 1.83a8.5 8.5 0 0 1-1.753 3.66c-1.487 1.804-3.686 2.944-6.138 2.944-2.542 0-4.804-1.219-6.29-3.143a8.55 8.55 0 0 1-1.602-3.474 8.7 8.7 0 0 1-.19-1.83v-.849H105.4z"/><path fill="#fff" d="M105.401 93.557v.849c0 .623-.064 1.246-.191 1.83H89.414a8.7 8.7 0 0 1-.19-1.83v-.85z"/><path fill="url(#bm)" d="M103.443 99.895c-1.487 1.804-3.685 2.944-6.138 2.944-2.541 0-4.803-1.22-6.29-3.143 1.283-1.445 3.545-2.4 6.138-2.4 2.694 0 5.045 1.047 6.29 2.6"/><path fill="url(#bn)" d="M44.009 130.261s-7.93 5.716-9.506 11.922c0 0 16.114-.238 16.114 0 0 .239.317-10.012.216-10.039-.09-.039-6.824-1.883-6.824-1.883"/><path fill="url(#bo)" d="M72.436 114.429v22.211l-9.505.664v-.013L52.04 125.528l4.766-4.283a25.7 25.7 0 0 1 12.326-6.18z"/><path fill="url(#bp)" d="M72.436 114.429v2.493c-14.347 4.23-9.62 19.971-9.505 20.369L52.04 125.528l4.766-4.283a25.7 25.7 0 0 1 12.326-6.18z"/><path fill="url(#bq)" d="m62.752 138.323-4.028 4.205a2.04 2.04 0 0 1-2.961 0l-12.15-12.678c-.812-.848-.812-2.228 0-3.089l4.03-4.204a2.04 2.04 0 0 1 2.96 0l12.15 12.677c.813.862.813 2.241 0 3.089"/><path fill="url(#br)" d="M90.189 137.104c0 .187-.051.371-.153.544-.242.397-.712.57-1.131.412l-2.694-.969 2.465 1.725c.356.251.521.728.382 1.165l-.09.266c-.152.464-.597.756-1.067.663l-3.075-.517 2.618 1.128c.444.185.686.688.571 1.166l-.088.385a1 1 0 0 1-.687.743l-13.102 3.673-27.233 7.624c-3.075.862-6.367.106-8.807-2.016l-.407-.358a9.9 9.9 0 0 1-2.16-2.652 10.5 10.5 0 0 1-1.182-3.262 10.55 10.55 0 0 1 1.335-7.359l.216-.371.648-1.075c1.677-2.784 4.537-4.547 7.688-4.747l33.69-2.122c3.252-.212 6.468.823 9.06 2.892l2.834 2.266c.241.186.369.492.369.796"/><path fill="url(#bs)" d="m74.114 147.488-27.234 7.623c-3.075.863-6.366.107-8.806-2.015l-.407-.358a9.9 9.9 0 0 1-2.16-2.652 10.5 10.5 0 0 1-1.182-3.262 10.55 10.55 0 0 1 1.334-7.359l.216-.371c.7 3.248 2.91 9.189 9.697 8.857 9.314-.463 8.298-5.357 17.93-4.031 6.126.835 7.765 2.613 10.612 3.568"/><path fill="url(#bt)" d="M127.575 177.575c-17.257 13.924-43.461 13.924-60.731 0 0 0 2.084-.835 3.291-4.747 2.77 2.626 11.742 9.866 27.08 10.29 12.15.345 21.744-6.02 26.993-10.555 1.181 4.151 3.367 5.012 3.367 5.012"/><path fill="url(#bu)" d="M123.459 166.821H70.962v-.437c0-1.339.013-3.091.038-5.119h52.421c.025 2.028.038 3.78.038 5.119a2.5 2.5 0 0 0 0 .437"/><path fill="url(#bv)" d="M52.078 82.67H2.313C1.043 82.67 0 81.596 0 80.257V48.604c0-1.326 1.03-2.414 2.313-2.414h49.765c1.27 0 2.312 1.074 2.312 2.414V80.27c-.012 1.326-1.042 2.4-2.312 2.4"/><path fill="url(#bw)" d="M28.63 54.677H5.91c-.712 0-1.284-.597-1.284-1.34 0-.742.572-1.339 1.284-1.339H28.63c.711 0 1.283.597 1.283 1.34 0 .742-.572 1.339-1.283 1.339"/><path fill="url(#bx)" d="M25.2 58.416H5.17a.555.555 0 0 1-.546-.57c0-.318.241-.57.546-.57H25.2c.305 0 .547.252.547.57s-.242.57-.547.57"/><path fill="url(#by)" d="M25.2 61.798H5.17a.555.555 0 0 1-.546-.57c0-.318.241-.57.546-.57H25.2c.305 0 .547.252.547.57s-.242.57-.547.57"/><path fill="url(#bz)" d="M49.205 77.499H5.17a.555.555 0 0 1-.546-.57c0-.319.241-.57.546-.57h44.034c.305 0 .546.251.546.57s-.241.57-.546.57"/><path fill="url(#bA)" d="M46.384 73.374H7.993c-1.856 0-3.368-1.564-3.368-3.514 0-1.936 1.5-3.514 3.368-3.514h38.39c1.856 0 3.368 1.565 3.368 3.514 0 1.936-1.5 3.514-3.367 3.514"/><path fill="url(#bB)" d="M28.605 72.021H8.437c-1.143 0-2.071-.968-2.071-2.161s.928-2.162 2.071-2.162h20.168c1.144 0 2.071.969 2.071 2.162s-.927 2.161-2.071 2.161"/><path fill="url(#bC)" d="M40.895 63.204c3.13 0 5.668-2.648 5.668-5.915s-2.538-5.914-5.668-5.914-5.668 2.648-5.668 5.914c0 3.267 2.538 5.914 5.668 5.914"/><path fill="#fff" d="M40.868 58.934a.5.5 0 0 1-.318-.133l-1.487-1.551a.48.48 0 0 1 0-.663.43.43 0 0 1 .636 0l1.169 1.22 1.804-1.883a.43.43 0 0 1 .636 0 .48.48 0 0 1 0 .663l-2.11 2.2a.4.4 0 0 1-.33.147"/><path fill="url(#bD)" d="M187.046 50.74v46.064c0 1.042-.809 1.898-1.819 1.898h-34.469c-.999 0-1.82-.845-1.82-1.898V50.74c0-1.043.81-1.899 1.82-1.899h34.469c1.01 0 1.819.856 1.819 1.899"/><path fill="url(#bE)" d="M157.004 87.762h-3.607c-.473 0-.862-.406-.862-.9V65.356c0-.494.389-.9.862-.9h3.607c.473 0 .862.406.862.9v21.506c0 .505-.378.9-.862.9"/><path fill="url(#bF)" d="M165.122 87.762h-3.607c-.473 0-.862-.406-.862-.9V78.25c0-.494.389-.9.862-.9h3.607c.473 0 .862.406.862.9v8.613c0 .505-.389.9-.862.9"/><path fill="url(#bG)" d="M173.23 87.762h-3.608c-.472 0-.861-.406-.861-.9V69.657c0-.494.389-.9.861-.9h3.608c.472 0 .862.406.862.9v17.205c0 .505-.39.9-.862.9"/><path fill="url(#bH)" d="M181.348 87.762h-3.607c-.473 0-.862-.406-.862-.9V65.356c0-.494.389-.9.862-.9h3.607c.473 0 .862.406.862.9v21.506c-.01.505-.389.9-.862.9"/><path fill="url(#bI)" d="M175.553 59.914h-21.694c-.725 0-1.324-.615-1.324-1.383v-5.618c0-.757.589-1.382 1.324-1.382h21.694c.726 0 1.326.614 1.326 1.382v5.618c0 .768-.6 1.383-1.326 1.383"/><path fill="url(#bJ)" d="M174.132 54.647h-12.314a.29.29 0 0 1-.283-.297c0-.164.126-.296.283-.296h12.314a.29.29 0 0 1 .285.296c0 .154-.126.297-.285.297"/><path fill="url(#bK)" d="M174.132 56.03h-12.314a.29.29 0 0 1-.283-.297c0-.164.126-.296.283-.296h12.314a.29.29 0 0 1 .285.296.29.29 0 0 1-.285.297"/><path fill="url(#bL)" d="M171.777 57.412h-9.959a.29.29 0 0 1-.283-.297c0-.164.126-.296.283-.296h9.959c.158 0 .284.132.284.296a.29.29 0 0 1-.284.297"/><path fill="url(#bM)" d="M157.76 58.619c1.527 0 2.766-1.292 2.766-2.886s-1.239-2.886-2.766-2.886c-1.528 0-2.766 1.292-2.766 2.886s1.238 2.886 2.766 2.886"/><path fill="url(#bN)" d="m157.718 56.018-.715.165-.474-1.536a.524.524 0 0 1 .369-.67c.283-.065.568.143.61.44z"/><path fill="url(#bO)" d="m157.812 56.03.715.153.453-1.536a.53.53 0 0 0-.379-.67c-.295-.065-.568.143-.61.45z"/><path fill="url(#bP)" d="M157.76 57.489c.657 0 1.188-.555 1.188-1.24s-.531-1.24-1.188-1.24-1.189.555-1.189 1.24.533 1.24 1.189 1.24"/><path fill="url(#bQ)" d="M187.046 91.164v5.64c0 1.042-.809 1.898-1.819 1.898h-34.469c-.999 0-1.82-.845-1.82-1.898v-5.64z"/><path fill="url(#bR)" d="M157.97 95.673h-4.279c-.399 0-.715-.34-.715-.746 0-.417.326-.746.715-.746h4.279c.401 0 .716.34.716.746 0 .417-.327.746-.716.746m8.823-.746c0-.417-.326-.746-.715-.746h-4.279c-.401 0-.716.34-.716.746 0 .417.327.746.716.746h4.279c.399 0 .715-.33.715-.746m8.118 0c0-.417-.326-.746-.715-.746h-4.291c-.399 0-.714.34-.714.746 0 .417.325.746.714.746h4.281c.399 0 .725-.33.725-.746m8.107 0c0-.417-.325-.746-.714-.746h-4.28c-.4 0-.715.34-.715.746 0 .417.326.746.715.746h4.28c.399 0 .714-.33.714-.746"/><defs><linearGradient id="a" x1="97.257" x2="97.257" y1="64.622" y2="-82.85" gradientUnits="userSpaceOnUse"><stop stop-color="#03192E"/><stop offset=".5" stop-color="#223C6A"/><stop offset="1" stop-color="#4A74A2"/></linearGradient><linearGradient id="b" x1="97.257" x2="97.257" y1="15.856" y2="-34.001" gradientUnits="userSpaceOnUse"><stop stop-color="#03192E"/><stop offset=".5" stop-color="#223C6A"/><stop offset="1" stop-color="#4A74A2"/></linearGradient><linearGradient id="c" x1="71.514" x2="71.514" y1="142.845" y2="3.554" gradientUnits="userSpaceOnUse"><stop stop-color="#03192E"/><stop offset=".5" stop-color="#223C6A"/><stop offset="1" stop-color="#4A74A2"/></linearGradient><linearGradient id="d" x1="71.514" x2="71.514" y1="84.505" y2="62.541" gradientUnits="userSpaceOnUse"><stop stop-color="#03192E"/><stop offset=".5" stop-color="#223C6A"/><stop offset="1" stop-color="#4A74A2"/></linearGradient><linearGradient id="e" x1="92.302" x2="92.302" y1="100.084" y2="3.796" gradientUnits="userSpaceOnUse"><stop stop-color="#03192E"/><stop offset=".5" stop-color="#223C6A"/><stop offset="1" stop-color="#4A74A2"/></linearGradient><linearGradient id="f" x1="57.505" x2="57.505" y1="65.537" y2="32.133" gradientUnits="userSpaceOnUse"><stop stop-color="#03192E"/><stop offset=".5" stop-color="#223C6A"/><stop offset="1" stop-color="#4A74A2"/></linearGradient><linearGradient id="g" x1="40.223" x2="40.223" y1="39.055" y2="18.992" gradientUnits="userSpaceOnUse"><stop stop-color="#03192E"/><stop offset=".5" stop-color="#223C6A"/><stop offset="1" stop-color="#4A74A2"/></linearGradient><linearGradient id="h" x1="39.191" x2="39.191" y1="46.83" y2="30.183" gradientUnits="userSpaceOnUse"><stop stop-color="#FF2A64"/><stop offset="1" stop-color="#FFAF48"/></linearGradient><linearGradient id="i" x1="41.266" x2="41.266" y1="46.83" y2="30.183" gradientUnits="userSpaceOnUse"><stop stop-color="#FF2A64"/><stop offset="1" stop-color="#FFAF48"/></linearGradient><linearGradient id="j" x1="40.229" x2="40.229" y1="46.829" y2="30.183" gradientUnits="userSpaceOnUse"><stop stop-color="#FF2A64"/><stop offset="1" stop-color="#FFAF48"/></linearGradient><linearGradient id="k" x1="71.515" x2="71.515" y1="89.332" y2="35.856" gradientUnits="userSpaceOnUse"><stop stop-color="#FF2A64"/><stop offset="1" stop-color="#FFAF48"/></linearGradient><linearGradient id="l" x1="140.11" x2="140.11" y1="188.81" y2="38.151" gradientUnits="userSpaceOnUse"><stop stop-color="#03192E"/><stop offset=".5" stop-color="#223C6A"/><stop offset="1" stop-color="#4A74A2"/></linearGradient><linearGradient id="m" x1="140.108" x2="140.108" y1="70.554" y2="9.781" gradientUnits="userSpaceOnUse"><stop stop-color="#386E9F"/><stop offset="1" stop-color="#fff"/></linearGradient><linearGradient id="n" x1="140.108" x2="140.108" y1="64.896" y2="-23.324" gradientUnits="userSpaceOnUse"><stop stop-color="#386E9F"/><stop offset="1" stop-color="#fff"/></linearGradient><linearGradient id="o" x1="140.109" x2="140.109" y1="53.881" y2="25.026" gradientUnits="userSpaceOnUse"><stop stop-color="#03192E"/><stop offset=".5" stop-color="#223C6A"/><stop offset="1" stop-color="#4A74A2"/></linearGradient><linearGradient id="p" x1="140.109" x2="140.109" y1="63.864" y2="26.127" gradientUnits="userSpaceOnUse"><stop stop-color="#03192E"/><stop offset=".5" stop-color="#223C6A"/><stop offset="1" stop-color="#4A74A2"/></linearGradient><linearGradient id="q" x1="111.558" x2="157.992" y1="63.138" y2="33.618" gradientUnits="userSpaceOnUse"><stop stop-color="#FF2A64"/><stop offset="1" stop-color="#FFAF48"/></linearGradient><linearGradient id="r" x1="140.11" x2="140.11" y1="70.505" y2="34.515" gradientUnits="userSpaceOnUse"><stop stop-color="#03192E"/><stop offset=".5" stop-color="#223C6A"/><stop offset="1" stop-color="#4A74A2"/></linearGradient><linearGradient id="s" x1="140.109" x2="140.109" y1="52.034" y2="24.013" gradientUnits="userSpaceOnUse"><stop stop-color="#03192E"/><stop offset=".5" stop-color="#223C6A"/><stop offset="1" stop-color="#4A74A2"/></linearGradient><linearGradient id="t" x1="114.983" x2="144.794" y1="58.667" y2="39.791" gradientUnits="userSpaceOnUse"><stop stop-color="#386E9F"/><stop offset="1" stop-color="#fff"/></linearGradient><linearGradient id="u" x1="125.456" x2="142.059" y1="50.535" y2="40.945" gradientUnits="userSpaceOnUse"><stop stop-color="#108BB4"/><stop offset="1" stop-color="#40C67C"/></linearGradient><linearGradient id="v" x1="140.156" x2="140.156" y1="57.324" y2="45.186" gradientUnits="userSpaceOnUse"><stop stop-color="#03192E"/><stop offset=".5" stop-color="#223C6A"/><stop offset="1" stop-color="#4A74A2"/></linearGradient><linearGradient id="w" x1="126.601" x2="126.601" y1="92.859" y2="33.303" gradientUnits="userSpaceOnUse"><stop stop-color="#03192E"/><stop offset=".5" stop-color="#223C6A"/><stop offset="1" stop-color="#4A74A2"/></linearGradient><linearGradient id="x" x1="143.919" x2="143.919" y1="90.655" y2="33.057" gradientUnits="userSpaceOnUse"><stop stop-color="#386E9F"/><stop offset="1" stop-color="#fff"/></linearGradient><linearGradient id="y" x1="141.472" x2="141.472" y1="90.655" y2="33.057" gradientUnits="userSpaceOnUse"><stop stop-color="#386E9F"/><stop offset="1" stop-color="#fff"/></linearGradient><linearGradient id="z" x1="49.542" x2="49.542" y1="85.781" y2="121.286" gradientUnits="userSpaceOnUse"><stop stop-color="#03192E"/><stop offset=".5" stop-color="#223C6A"/><stop offset="1" stop-color="#4A74A2"/></linearGradient><linearGradient id="A" x1="140.757" x2="140.757" y1="85.781" y2="121.286" gradientUnits="userSpaceOnUse"><stop stop-color="#03192E"/><stop offset=".5" stop-color="#223C6A"/><stop offset="1" stop-color="#4A74A2"/></linearGradient><linearGradient id="B" x1="140.757" x2="140.757" y1="104.323" y2="82.544" gradientUnits="userSpaceOnUse"><stop stop-color="#03192E"/><stop offset=".5" stop-color="#223C6A"/><stop offset="1" stop-color="#4A74A2"/></linearGradient><linearGradient id="C" x1="140.757" x2="140.757" y1="96.543" y2="84.888" gradientUnits="userSpaceOnUse"><stop stop-color="#FF2A64"/><stop offset="1" stop-color="#FFAF48"/></linearGradient><linearGradient id="D" x1="49.542" x2="49.542" y1="104.323" y2="82.544" gradientUnits="userSpaceOnUse"><stop stop-color="#03192E"/><stop offset=".5" stop-color="#223C6A"/><stop offset="1" stop-color="#4A74A2"/></linearGradient><linearGradient id="E" x1="49.541" x2="49.541" y1="96.544" y2="84.888" gradientUnits="userSpaceOnUse"><stop stop-color="#FF2A64"/><stop offset="1" stop-color="#FFAF48"/></linearGradient><linearGradient id="F" x1="33.805" x2="153.902" y1="133.155" y2="133.155" gradientUnits="userSpaceOnUse"><stop stop-color="#386E9F"/><stop offset="1" stop-color="#fff"/></linearGradient><linearGradient id="G" x1="33.805" x2="153.902" y1="154.326" y2="154.326" gradientUnits="userSpaceOnUse"><stop stop-color="#386E9F"/><stop offset="1" stop-color="#fff"/></linearGradient><linearGradient id="H" x1="33.805" x2="153.902" y1="176.981" y2="176.981" gradientUnits="userSpaceOnUse"><stop stop-color="#386E9F"/><stop offset="1" stop-color="#fff"/></linearGradient><linearGradient id="I" x1="48.133" x2="48.133" y1="113.913" y2="89.996" gradientUnits="userSpaceOnUse"><stop stop-color="#386E9F"/><stop offset="1" stop-color="#fff"/></linearGradient><linearGradient id="J" x1="48.133" x2="48.133" y1="226.152" y2="55.077" gradientUnits="userSpaceOnUse"><stop stop-color="#03192E"/><stop offset=".5" stop-color="#223C6A"/><stop offset="1" stop-color="#4A74A2"/></linearGradient><linearGradient id="K" x1="48.133" x2="48.133" y1="128.3" y2="90.513" gradientUnits="userSpaceOnUse"><stop stop-color="#03192E"/><stop offset=".5" stop-color="#223C6A"/><stop offset="1" stop-color="#4A74A2"/></linearGradient><linearGradient id="L" x1="48.135" x2="48.135" y1="130.017" y2="114.314" gradientUnits="userSpaceOnUse"><stop stop-color="#386E9F"/><stop offset="1" stop-color="#fff"/></linearGradient><linearGradient id="M" x1="48.134" x2="48.134" y1="209.231" y2="88.661" gradientUnits="userSpaceOnUse"><stop stop-color="#386E9F"/><stop offset="1" stop-color="#fff"/></linearGradient><linearGradient id="N" x1="48.133" x2="48.133" y1="226.151" y2="55.076" gradientUnits="userSpaceOnUse"><stop stop-color="#03192E"/><stop offset=".5" stop-color="#223C6A"/><stop offset="1" stop-color="#4A74A2"/></linearGradient><linearGradient id="O" x1="48.134" x2="48.134" y1="153.442" y2="125.95" gradientUnits="userSpaceOnUse"><stop stop-color="#FF2A64"/><stop offset="1" stop-color="#FFAF48"/></linearGradient><linearGradient id="P" x1="48.134" x2="48.134" y1="209.231" y2="88.661" gradientUnits="userSpaceOnUse"><stop stop-color="#386E9F"/><stop offset="1" stop-color="#fff"/></linearGradient><linearGradient id="Q" x1="48.133" x2="48.133" y1="197.091" y2="168.763" gradientUnits="userSpaceOnUse"><stop stop-color="#386E9F"/><stop offset="1" stop-color="#fff"/></linearGradient><linearGradient id="R" x1="48.133" x2="48.133" y1="226.151" y2="55.077" gradientUnits="userSpaceOnUse"><stop stop-color="#03192E"/><stop offset=".5" stop-color="#223C6A"/><stop offset="1" stop-color="#4A74A2"/></linearGradient><linearGradient id="S" x1="48.134" x2="48.134" y1="205.882" y2="142.848" gradientUnits="userSpaceOnUse"><stop stop-color="#03192E"/><stop offset=".5" stop-color="#223C6A"/><stop offset="1" stop-color="#4A74A2"/></linearGradient><linearGradient id="T" x1="48.133" x2="48.133" y1="162.143" y2="138.049" gradientUnits="userSpaceOnUse"><stop stop-color="#03192E"/><stop offset=".5" stop-color="#223C6A"/><stop offset="1" stop-color="#4A74A2"/></linearGradient><linearGradient id="U" x1="48.758" x2="48.758" y1="194.011" y2="142.867" gradientUnits="userSpaceOnUse"><stop stop-color="#03192E"/><stop offset=".5" stop-color="#223C6A"/><stop offset="1" stop-color="#4A74A2"/></linearGradient><linearGradient id="V" x1="48.758" x2="48.758" y1="163.37" y2="130.48" gradientUnits="userSpaceOnUse"><stop stop-color="#03192E"/><stop offset=".5" stop-color="#223C6A"/><stop offset="1" stop-color="#4A74A2"/></linearGradient><linearGradient id="W" x1="48.411" x2="53.953" y1="149.23" y2="149.23" gradientUnits="userSpaceOnUse"><stop stop-color="#FBAA19"/><stop offset="1" stop-color="#EF3E23"/></linearGradient><linearGradient id="X" x1="48.112" x2="48.58" y1="156.588" y2="155.362" gradientUnits="userSpaceOnUse"><stop stop-color="#F78D1E"/><stop offset="1" stop-color="#F37121"/></linearGradient><linearGradient id="Y" x1="44.665" x2="51.725" y1="157.018" y2="149.764" gradientUnits="userSpaceOnUse"><stop stop-color="#FEBE2D"/><stop offset="1" stop-color="#F04E23"/></linearGradient><linearGradient id="Z" x1="49.438" x2="45.475" y1="152.604" y2="158.451" gradientUnits="userSpaceOnUse"><stop stop-color="#EA4425"/><stop offset="1" stop-color="#FDBB27"/></linearGradient><linearGradient id="aa" x1="43.725" x2="55.519" y1="150.544" y2="150.544" gradientUnits="userSpaceOnUse"><stop stop-color="#F47920"/><stop offset="1" stop-color="#E93825"/></linearGradient><linearGradient id="ab" x1="37.494" x2="61.493" y1="149.729" y2="149.729" gradientUnits="userSpaceOnUse"><stop stop-color="#FDCA0B"/><stop offset="1" stop-color="#F5841F"/></linearGradient><linearGradient id="ac" x1="46.066" x2="48.767" y1="152.757" y2="161.786" gradientUnits="userSpaceOnUse"><stop stop-color="#E73C25"/><stop offset="1" stop-color="#FAA21B"/></linearGradient><linearGradient id="ad" x1="29.163" x2="64.787" y1="154.231" y2="154.231" gradientUnits="userSpaceOnUse"><stop stop-color="#FDBA12"/><stop offset="1" stop-color="#F7921E"/></linearGradient><linearGradient id="ae" x1="43.681" x2="45.019" y1="152.354" y2="152.581" gradientUnits="userSpaceOnUse"><stop stop-color="#FEBE2D"/><stop offset="1" stop-color="#F04E23"/></linearGradient><linearGradient id="af" x1="48.133" x2="48.133" y1="226.151" y2="55.076" gradientUnits="userSpaceOnUse"><stop stop-color="#03192E"/><stop offset=".5" stop-color="#223C6A"/><stop offset="1" stop-color="#4A74A2"/></linearGradient><linearGradient id="ag" x1="48.134" x2="48.134" y1="197.268" y2="169.776" gradientUnits="userSpaceOnUse"><stop stop-color="#FF2A64"/><stop offset="1" stop-color="#FFAF48"/></linearGradient><linearGradient id="ah" x1="139.348" x2="139.348" y1="113.913" y2="89.996" gradientUnits="userSpaceOnUse"><stop stop-color="#386E9F"/><stop offset="1" stop-color="#fff"/></linearGradient><linearGradient id="ai" x1="139.348" x2="139.348" y1="226.152" y2="55.077" gradientUnits="userSpaceOnUse"><stop stop-color="#03192E"/><stop offset=".5" stop-color="#223C6A"/><stop offset="1" stop-color="#4A74A2"/></linearGradient><linearGradient id="aj" x1="139.349" x2="139.349" y1="128.3" y2="90.513" gradientUnits="userSpaceOnUse"><stop stop-color="#03192E"/><stop offset=".5" stop-color="#223C6A"/><stop offset="1" stop-color="#4A74A2"/></linearGradient><linearGradient id="ak" x1="139.35" x2="139.35" y1="130.017" y2="114.314" gradientUnits="userSpaceOnUse"><stop stop-color="#386E9F"/><stop offset="1" stop-color="#fff"/></linearGradient><linearGradient id="al" x1="139.349" x2="139.349" y1="209.231" y2="88.661" gradientUnits="userSpaceOnUse"><stop stop-color="#386E9F"/><stop offset="1" stop-color="#fff"/></linearGradient><linearGradient id="am" x1="139.348" x2="139.348" y1="226.151" y2="55.077" gradientUnits="userSpaceOnUse"><stop stop-color="#03192E"/><stop offset=".5" stop-color="#223C6A"/><stop offset="1" stop-color="#4A74A2"/></linearGradient><linearGradient id="an" x1="139.349" x2="139.349" y1="153.442" y2="125.95" gradientUnits="userSpaceOnUse"><stop stop-color="#FF2A64"/><stop offset="1" stop-color="#FFAF48"/></linearGradient><linearGradient id="ao" x1="139.349" x2="139.349" y1="209.231" y2="88.661" gradientUnits="userSpaceOnUse"><stop stop-color="#386E9F"/><stop offset="1" stop-color="#fff"/></linearGradient><linearGradient id="ap" x1="139.348" x2="139.348" y1="197.091" y2="168.763" gradientUnits="userSpaceOnUse"><stop stop-color="#386E9F"/><stop offset="1" stop-color="#fff"/></linearGradient><linearGradient id="aq" x1="139.348" x2="139.348" y1="226.151" y2="55.076" gradientUnits="userSpaceOnUse"><stop stop-color="#03192E"/><stop offset=".5" stop-color="#223C6A"/><stop offset="1" stop-color="#4A74A2"/></linearGradient><linearGradient id="ar" x1="139.349" x2="139.349" y1="205.882" y2="142.848" gradientUnits="userSpaceOnUse"><stop stop-color="#03192E"/><stop offset=".5" stop-color="#223C6A"/><stop offset="1" stop-color="#4A74A2"/></linearGradient><linearGradient id="as" x1="139.348" x2="139.348" y1="162.143" y2="138.049" gradientUnits="userSpaceOnUse"><stop stop-color="#03192E"/><stop offset=".5" stop-color="#223C6A"/><stop offset="1" stop-color="#4A74A2"/></linearGradient><linearGradient id="at" x1="139.973" x2="139.973" y1="194.012" y2="142.867" gradientUnits="userSpaceOnUse"><stop stop-color="#03192E"/><stop offset=".5" stop-color="#223C6A"/><stop offset="1" stop-color="#4A74A2"/></linearGradient><linearGradient id="au" x1="139.972" x2="139.972" y1="163.37" y2="130.48" gradientUnits="userSpaceOnUse"><stop stop-color="#03192E"/><stop offset=".5" stop-color="#223C6A"/><stop offset="1" stop-color="#4A74A2"/></linearGradient><linearGradient id="av" x1="139.627" x2="145.17" y1="149.23" y2="149.23" gradientUnits="userSpaceOnUse"><stop stop-color="#FBAA19"/><stop offset="1" stop-color="#EF3E23"/></linearGradient><linearGradient id="aw" x1="139.326" x2="139.795" y1="156.588" y2="155.362" gradientUnits="userSpaceOnUse"><stop stop-color="#F78D1E"/><stop offset="1" stop-color="#F37121"/></linearGradient><linearGradient id="ax" x1="135.88" x2="142.94" y1="157.018" y2="149.764" gradientUnits="userSpaceOnUse"><stop stop-color="#FEBE2D"/><stop offset="1" stop-color="#F04E23"/></linearGradient><linearGradient id="ay" x1="140.653" x2="136.69" y1="152.604" y2="158.451" gradientUnits="userSpaceOnUse"><stop stop-color="#EA4425"/><stop offset="1" stop-color="#FDBB27"/></linearGradient><linearGradient id="az" x1="134.94" x2="146.734" y1="150.544" y2="150.544" gradientUnits="userSpaceOnUse"><stop stop-color="#F47920"/><stop offset="1" stop-color="#E93825"/></linearGradient><linearGradient id="aA" x1="128.709" x2="152.708" y1="149.729" y2="149.729" gradientUnits="userSpaceOnUse"><stop stop-color="#FDCA0B"/><stop offset="1" stop-color="#F5841F"/></linearGradient><linearGradient id="aB" x1="137.281" x2="139.981" y1="152.757" y2="161.786" gradientUnits="userSpaceOnUse"><stop stop-color="#E73C25"/><stop offset="1" stop-color="#FAA21B"/></linearGradient><linearGradient id="aC" x1="120.377" x2="156.002" y1="154.231" y2="154.231" gradientUnits="userSpaceOnUse"><stop stop-color="#FDBA12"/><stop offset="1" stop-color="#F7921E"/></linearGradient><linearGradient id="aD" x1="134.896" x2="136.233" y1="152.354" y2="152.581" gradientUnits="userSpaceOnUse"><stop stop-color="#FEBE2D"/><stop offset="1" stop-color="#F04E23"/></linearGradient><linearGradient id="aE" x1="139.348" x2="139.348" y1="226.151" y2="55.076" gradientUnits="userSpaceOnUse"><stop stop-color="#03192E"/><stop offset=".5" stop-color="#223C6A"/><stop offset="1" stop-color="#4A74A2"/></linearGradient><linearGradient id="aF" x1="139.349" x2="139.349" y1="197.268" y2="169.776" gradientUnits="userSpaceOnUse"><stop stop-color="#FF2A64"/><stop offset="1" stop-color="#FFAF48"/></linearGradient><linearGradient id="aG" x1="97.207" x2="97.207" y1="178.373" y2="271.992" gradientUnits="userSpaceOnUse"><stop stop-color="#03192E"/><stop offset=".5" stop-color="#223C6A"/><stop offset="1" stop-color="#4A74A2"/></linearGradient><linearGradient id="aH" x1="97.207" x2="97.207" y1="168.133" y2="68.569" gradientUnits="userSpaceOnUse"><stop stop-color="#386E9F"/><stop offset="1" stop-color="#fff"/></linearGradient><linearGradient id="aI" x1="97.208" x2="97.208" y1="177.847" y2="88.241" gradientUnits="userSpaceOnUse"><stop stop-color="#386E9F"/><stop offset="1" stop-color="#fff"/></linearGradient><linearGradient id="aJ" x1="96.401" x2="96.401" y1="165.869" y2="95.651" gradientUnits="userSpaceOnUse"><stop stop-color="#386E9F"/><stop offset="1" stop-color="#fff"/></linearGradient><linearGradient id="aK" x1="129.875" x2="129.875" y1="90.337" y2="231.328" gradientUnits="userSpaceOnUse"><stop stop-color="#03192E"/><stop offset=".5" stop-color="#223C6A"/><stop offset="1" stop-color="#4A74A2"/></linearGradient><linearGradient id="aL" x1="127.003" x2="127.003" y1="136.974" y2="269.538" gradientUnits="userSpaceOnUse"><stop stop-color="#03192E"/><stop offset=".5" stop-color="#223C6A"/><stop offset="1" stop-color="#4A74A2"/></linearGradient><linearGradient id="aM" x1="107.92" x2="107.92" y1="157.15" y2="116.277" gradientUnits="userSpaceOnUse"><stop stop-color="#03192E"/><stop offset=".5" stop-color="#223C6A"/><stop offset="1" stop-color="#4A74A2"/></linearGradient><linearGradient id="aN" x1="100.198" x2="100.198" y1="168.938" y2="134.655" gradientUnits="userSpaceOnUse"><stop stop-color="#03192E"/><stop offset=".5" stop-color="#223C6A"/><stop offset="1" stop-color="#4A74A2"/></linearGradient><linearGradient id="aO" x1="151.838" x2="151.838" y1="150.73" y2="115.558" gradientUnits="userSpaceOnUse"><stop stop-color="#FF2A64"/><stop offset="1" stop-color="#FFAF48"/></linearGradient><linearGradient id="aP" x1="132.277" x2="132.277" y1="153.743" y2="98.981" gradientUnits="userSpaceOnUse"><stop stop-color="#03192E"/><stop offset=".5" stop-color="#223C6A"/><stop offset="1" stop-color="#4A74A2"/></linearGradient><linearGradient id="aQ" x1="132.277" x2="132.277" y1="140.643" y2="85.067" gradientUnits="userSpaceOnUse"><stop stop-color="#03192E"/><stop offset=".5" stop-color="#223C6A"/><stop offset="1" stop-color="#4A74A2"/></linearGradient><linearGradient id="aR" x1="141.337" x2="141.337" y1="176.8" y2="89.947" gradientUnits="userSpaceOnUse"><stop stop-color="#386E9F"/><stop offset="1" stop-color="#fff"/></linearGradient><linearGradient id="aS" x1="232.341" x2="111.515" y1="193.574" y2="134.087" gradientUnits="userSpaceOnUse"><stop stop-color="#FF2A64"/><stop offset="1" stop-color="#FFAF48"/></linearGradient><linearGradient id="aT" x1="211.307" x2="126.21" y1="218.656" y2="136.602" gradientUnits="userSpaceOnUse"><stop stop-color="#FF2A64"/><stop offset="1" stop-color="#FFAF48"/></linearGradient><linearGradient id="aU" x1="97.208" x2="97.208" y1="165.533" y2="102.062" gradientUnits="userSpaceOnUse"><stop stop-color="#FF2A64"/><stop offset="1" stop-color="#FFAF48"/></linearGradient><linearGradient id="aV" x1="64.642" x2="64.642" y1="90.337" y2="231.327" gradientUnits="userSpaceOnUse"><stop stop-color="#03192E"/><stop offset=".5" stop-color="#223C6A"/><stop offset="1" stop-color="#4A74A2"/></linearGradient><linearGradient id="aW" x1="67.513" x2="67.513" y1="136.974" y2="269.538" gradientUnits="userSpaceOnUse"><stop stop-color="#03192E"/><stop offset=".5" stop-color="#223C6A"/><stop offset="1" stop-color="#4A74A2"/></linearGradient><linearGradient id="aX" x1="86.596" x2="86.596" y1="157.149" y2="116.276" gradientUnits="userSpaceOnUse"><stop stop-color="#03192E"/><stop offset=".5" stop-color="#223C6A"/><stop offset="1" stop-color="#4A74A2"/></linearGradient><linearGradient id="aY" x1="94.368" x2="94.368" y1="164.187" y2="129.905" gradientUnits="userSpaceOnUse"><stop stop-color="#03192E"/><stop offset=".5" stop-color="#223C6A"/><stop offset="1" stop-color="#4A74A2"/></linearGradient><linearGradient id="aZ" x1="82.956" x2="82.956" y1="142.738" y2="4.106" gradientUnits="userSpaceOnUse"><stop stop-color="#FF2A64"/><stop offset="1" stop-color="#FFAF48"/></linearGradient><linearGradient id="ba" x1="78.494" x2="78.494" y1="87.193" y2="-9.728" gradientUnits="userSpaceOnUse"><stop stop-color="#FF2A64"/><stop offset="1" stop-color="#FFAF48"/></linearGradient><linearGradient id="bb" x1="110.489" x2="110.489" y1="142.738" y2="4.106" gradientUnits="userSpaceOnUse"><stop stop-color="#FF2A64"/><stop offset="1" stop-color="#FFAF48"/></linearGradient><linearGradient id="bc" x1="114.95" x2="114.95" y1="87.193" y2="-9.728" gradientUnits="userSpaceOnUse"><stop stop-color="#FF2A64"/><stop offset="1" stop-color="#FFAF48"/></linearGradient><linearGradient id="bd" x1="96.703" x2="96.703" y1="252.734" y2="49.122" gradientUnits="userSpaceOnUse"><stop stop-color="#FF2A64"/><stop offset="1" stop-color="#FFAF48"/></linearGradient><linearGradient id="be" x1="92.191" x2="68.375" y1="83.805" y2="73.308" gradientUnits="userSpaceOnUse"><stop stop-color="#03192E"/><stop offset=".5" stop-color="#223C6A"/><stop offset="1" stop-color="#4A74A2"/></linearGradient><linearGradient id="bf" x1="90.149" x2="66.332" y1="88.441" y2="77.945" gradientUnits="userSpaceOnUse"><stop stop-color="#03192E"/><stop offset=".5" stop-color="#223C6A"/><stop offset="1" stop-color="#4A74A2"/></linearGradient><linearGradient id="bg" x1="109.595" x2="124.54" y1="79.338" y2="74.361" gradientUnits="userSpaceOnUse"><stop stop-color="#03192E"/><stop offset=".5" stop-color="#223C6A"/><stop offset="1" stop-color="#4A74A2"/></linearGradient><linearGradient id="bh" x1="111.194" x2="126.139" y1="84.141" y2="79.165" gradientUnits="userSpaceOnUse"><stop stop-color="#03192E"/><stop offset=".5" stop-color="#223C6A"/><stop offset="1" stop-color="#4A74A2"/></linearGradient><linearGradient id="bi" x1="97.306" x2="97.306" y1="96.78" y2="44.608" gradientUnits="userSpaceOnUse"><stop stop-color="#03192E"/><stop offset=".5" stop-color="#223C6A"/><stop offset="1" stop-color="#4A74A2"/></linearGradient><linearGradient id="bj" x1="84.847" x2="84.847" y1="99.245" y2="78.644" gradientUnits="userSpaceOnUse"><stop stop-color="#fff"/><stop offset="1" stop-color="#B5E0F7"/></linearGradient><linearGradient id="bk" x1="109.766" x2="109.766" y1="99.245" y2="78.644" gradientUnits="userSpaceOnUse"><stop stop-color="#fff"/><stop offset="1" stop-color="#B5E0F7"/></linearGradient><linearGradient id="bl" x1="97.308" x2="97.308" y1="102.652" y2="82.868" gradientUnits="userSpaceOnUse"><stop stop-color="#03192E"/><stop offset=".5" stop-color="#223C6A"/><stop offset="1" stop-color="#4A74A2"/></linearGradient><linearGradient id="bm" x1="97.231" x2="97.231" y1="107.105" y2="91.775" gradientUnits="userSpaceOnUse"><stop stop-color="#FF2A64"/><stop offset="1" stop-color="#FFAF48"/></linearGradient><linearGradient id="bn" x1="42.679" x2="42.679" y1="150.73" y2="115.558" gradientUnits="userSpaceOnUse"><stop stop-color="#FF2A64"/><stop offset="1" stop-color="#FFAF48"/></linearGradient><linearGradient id="bo" x1="62.238" x2="62.238" y1="153.743" y2="98.981" gradientUnits="userSpaceOnUse"><stop stop-color="#03192E"/><stop offset=".5" stop-color="#223C6A"/><stop offset="1" stop-color="#4A74A2"/></linearGradient><linearGradient id="bp" x1="62.238" x2="62.238" y1="140.643" y2="85.067" gradientUnits="userSpaceOnUse"><stop stop-color="#03192E"/><stop offset=".5" stop-color="#223C6A"/><stop offset="1" stop-color="#4A74A2"/></linearGradient><linearGradient id="bq" x1="53.179" x2="53.179" y1="176.8" y2="89.947" gradientUnits="userSpaceOnUse"><stop stop-color="#386E9F"/><stop offset="1" stop-color="#fff"/></linearGradient><linearGradient id="br" x1="-25.596" x2="79.743" y1="170.647" y2="136.43" gradientUnits="userSpaceOnUse"><stop stop-color="#FF2A64"/><stop offset="1" stop-color="#FFAF48"/></linearGradient><linearGradient id="bs" x1="-3.674" x2="65.392" y1="240.434" y2="135.402" gradientUnits="userSpaceOnUse"><stop stop-color="#FF2A64"/><stop offset="1" stop-color="#FFAF48"/></linearGradient><linearGradient id="bt" x1="97.207" x2="97.207" y1="202.346" y2="116.988" gradientUnits="userSpaceOnUse"><stop stop-color="#386E9F"/><stop offset="1" stop-color="#fff"/></linearGradient><linearGradient id="bu" x1="97.208" x2="97.208" y1="177.847" y2="88.241" gradientUnits="userSpaceOnUse"><stop stop-color="#386E9F"/><stop offset="1" stop-color="#fff"/></linearGradient><linearGradient id="bv" x1="27.192" x2="27.192" y1="161.23" y2="45.468" gradientUnits="userSpaceOnUse"><stop stop-color="#03192E"/><stop offset=".5" stop-color="#223C6A"/><stop offset="1" stop-color="#4A74A2"/></linearGradient><linearGradient id="bw" x1="17.275" x2="17.275" y1="71.17" y2="42.218" gradientUnits="userSpaceOnUse"><stop stop-color="#386E9F"/><stop offset="1" stop-color="#fff"/></linearGradient><linearGradient id="bx" x1="15.187" x2="15.187" y1="71.17" y2="42.218" gradientUnits="userSpaceOnUse"><stop stop-color="#386E9F"/><stop offset="1" stop-color="#fff"/></linearGradient><linearGradient id="by" x1="15.187" x2="15.187" y1="71.17" y2="42.219" gradientUnits="userSpaceOnUse"><stop stop-color="#386E9F"/><stop offset="1" stop-color="#fff"/></linearGradient><linearGradient id="bz" x1="27.191" x2="27.191" y1="86.011" y2="58.931" gradientUnits="userSpaceOnUse"><stop stop-color="#386E9F"/><stop offset="1" stop-color="#fff"/></linearGradient><linearGradient id="bA" x1="27.191" x2="27.191" y1="75.384" y2="50.998" gradientUnits="userSpaceOnUse"><stop stop-color="#03192E"/><stop offset=".5" stop-color="#223C6A"/><stop offset="1" stop-color="#4A74A2"/></linearGradient><linearGradient id="bB" x1="-33.724" x2="25.248" y1="69.861" y2="69.861" gradientUnits="userSpaceOnUse"><stop stop-color="#FF2A64"/><stop offset="1" stop-color="#FFAF48"/></linearGradient><linearGradient id="bC" x1="40.898" x2="40.898" y1="77.949" y2="51.738" gradientUnits="userSpaceOnUse"><stop stop-color="#108BB4"/><stop offset="1" stop-color="#40C67C"/></linearGradient><linearGradient id="bD" x1="167.992" x2="167.992" y1="175.254" y2="29.647" gradientUnits="userSpaceOnUse"><stop stop-color="#03192E"/><stop offset=".5" stop-color="#223C6A"/><stop offset="1" stop-color="#4A74A2"/></linearGradient><linearGradient id="bE" x1="155.204" x2="155.204" y1="94.927" y2="49.984" gradientUnits="userSpaceOnUse"><stop stop-color="#386E9F"/><stop offset="1" stop-color="#fff"/></linearGradient><linearGradient id="bF" x1="163.316" x2="163.316" y1="94.927" y2="49.984" gradientUnits="userSpaceOnUse"><stop stop-color="#386E9F"/><stop offset="1" stop-color="#fff"/></linearGradient><linearGradient id="bG" x1="171.428" x2="171.428" y1="94.927" y2="49.984" gradientUnits="userSpaceOnUse"><stop stop-color="#386E9F"/><stop offset="1" stop-color="#fff"/></linearGradient><linearGradient id="bH" x1="179.54" x2="179.54" y1="94.927" y2="49.984" gradientUnits="userSpaceOnUse"><stop stop-color="#386E9F"/><stop offset="1" stop-color="#fff"/></linearGradient><linearGradient id="bI" x1="164.707" x2="164.707" y1="82.34" y2="45.011" gradientUnits="userSpaceOnUse"><stop stop-color="#386E9F"/><stop offset="1" stop-color="#fff"/></linearGradient><linearGradient id="bJ" x1="167.977" x2="167.977" y1="71.844" y2="53.636" gradientUnits="userSpaceOnUse"><stop stop-color="#03192E"/><stop offset=".5" stop-color="#223C6A"/><stop offset="1" stop-color="#4A74A2"/></linearGradient><linearGradient id="bK" x1="167.977" x2="167.977" y1="71.844" y2="53.637" gradientUnits="userSpaceOnUse"><stop stop-color="#03192E"/><stop offset=".5" stop-color="#223C6A"/><stop offset="1" stop-color="#4A74A2"/></linearGradient><linearGradient id="bL" x1="166.796" x2="166.796" y1="71.843" y2="53.636" gradientUnits="userSpaceOnUse"><stop stop-color="#03192E"/><stop offset=".5" stop-color="#223C6A"/><stop offset="1" stop-color="#4A74A2"/></linearGradient><linearGradient id="bM" x1="157.757" x2="157.757" y1="74.889" y2="51.236" gradientUnits="userSpaceOnUse"><stop stop-color="#03192E"/><stop offset=".5" stop-color="#223C6A"/><stop offset="1" stop-color="#4A74A2"/></linearGradient><linearGradient id="bN" x1="157.114" x2="157.114" y1="62.729" y2="52.703" gradientUnits="userSpaceOnUse"><stop stop-color="#386E9F"/><stop offset="1" stop-color="#fff"/></linearGradient><linearGradient id="bO" x1="158.407" x2="158.407" y1="62.729" y2="52.703" gradientUnits="userSpaceOnUse"><stop stop-color="#386E9F"/><stop offset="1" stop-color="#fff"/></linearGradient><linearGradient id="bP" x1="157.761" x2="157.761" y1="62.729" y2="52.703" gradientUnits="userSpaceOnUse"><stop stop-color="#386E9F"/><stop offset="1" stop-color="#fff"/></linearGradient><linearGradient id="bQ" x1="167.992" x2="167.992" y1="114.466" y2="92.454" gradientUnits="userSpaceOnUse"><stop stop-color="#03192E"/><stop offset=".5" stop-color="#223C6A"/><stop offset="1" stop-color="#4A74A2"/></linearGradient><linearGradient id="bR" x1="167.992" x2="167.992" y1="108.716" y2="81.895" gradientUnits="userSpaceOnUse"><stop stop-color="#386E9F"/><stop offset="1" stop-color="#fff"/></linearGradient></defs></svg>