<svg width="105" height="176" viewBox="0 0 105 176" fill="none" xmlns="http://www.w3.org/2000/svg">
<path d="M9.10667 120.041H96.2153V175.28H9.10667V120.041Z" fill="url(#paint0_linear_455_4711)"/>
<path d="M99.5709 124.05H5.36339C2.75003 124.05 0.600334 121.901 0.600334 119.287V92.0155C0.600334 89.4022 2.75003 87.2524 5.36339 87.2524H99.5709C102.184 87.2524 104.334 89.4022 104.334 92.0155V119.287C104.334 121.943 102.226 124.05 99.5709 124.05Z" fill="url(#paint1_linear_455_4711)"/>
<path d="M96.1146 120.846H8.81989C6.54374 120.846 4.64693 118.992 4.64693 116.674V94.6285C4.64693 92.3524 6.50159 90.4556 8.81989 90.4556H96.1146C98.3908 90.4556 100.288 92.3102 100.288 94.6285V116.674C100.288 118.992 98.3908 120.846 96.1146 120.846Z" fill="url(#paint2_linear_455_4711)"/>
<path d="M10.4217 100.783H58.1788C58.9375 100.783 59.5698 100.151 59.5698 99.3919V96.6942C59.5698 95.9355 58.9375 95.3032 58.1788 95.3032H10.4217C9.663 95.3032 9.03074 95.9355 9.03074 96.6942V99.3919C9.03074 100.151 9.663 100.783 10.4217 100.783ZM9.03074 107.021V104.324C9.03074 103.565 9.663 102.933 10.4217 102.933H58.1788C58.9375 102.933 59.5698 103.565 59.5698 104.324V107.021C59.5698 107.78 58.9375 108.412 58.1788 108.412H10.4217C9.663 108.412 9.03074 107.78 9.03074 107.021ZM9.03074 114.651V111.953C9.03074 111.194 9.663 110.562 10.4217 110.562H58.1788C58.9375 110.562 59.5698 111.194 59.5698 111.953V114.651C59.5698 115.409 58.9375 116.042 58.1788 116.042H10.4217C9.663 116.042 9.03074 115.451 9.03074 114.651Z" fill="url(#paint3_linear_455_4711)"/>
<path d="M89.623 115.958H92.7421C93.4587 115.958 94.0488 115.368 94.0488 114.651V96.5684C94.0488 95.8518 93.4587 95.2617 92.7421 95.2617H89.623C88.9064 95.2617 88.3163 95.8518 88.3163 96.5684V114.651C88.3163 115.368 88.9064 115.958 89.623 115.958ZM80.7713 114.651V96.5684C80.7713 95.8518 81.3614 95.2617 82.0779 95.2617H85.1971C85.9137 95.2617 86.5038 95.8518 86.5038 96.5684V114.651C86.5038 115.368 85.9137 115.958 85.1971 115.958H82.0779C81.3614 115.958 80.7713 115.368 80.7713 114.651ZM73.2262 114.651V96.5684C73.2262 95.8518 73.8163 95.2617 74.5329 95.2617H77.6521C78.3686 95.2617 78.9588 95.8518 78.9588 96.5684V114.651C78.9588 115.368 78.3686 115.958 77.6521 115.958H74.5329C73.7742 115.958 73.2262 115.368 73.2262 114.651ZM65.639 114.651V96.5684C65.639 95.8518 66.2292 95.2617 66.9457 95.2617H70.0649C70.7815 95.2617 71.3716 95.8518 71.3716 96.5684V114.651C71.3716 115.368 70.7815 115.958 70.0649 115.958H66.9457C66.2292 115.958 65.639 115.368 65.639 114.651Z" fill="url(#paint4_linear_455_4711)"/>
<path d="M99.5709 165.822H5.36339C2.75003 165.822 0.600334 163.673 0.600334 161.059V133.787C0.600334 131.174 2.75003 129.024 5.36339 129.024H99.5709C102.184 129.024 104.334 131.174 104.334 133.787V161.059C104.334 163.673 102.226 165.822 99.5709 165.822Z" fill="url(#paint5_linear_455_4711)"/>
<path d="M96.1149 162.577H8.82014C6.54398 162.577 4.64718 160.722 4.64718 158.404V136.359C4.64718 134.083 6.50183 132.186 8.82014 132.186H96.1149C98.391 132.186 100.288 134.041 100.288 136.359V158.404C100.288 160.722 98.391 162.577 96.1149 162.577Z" fill="url(#paint6_linear_455_4711)"/>
<path d="M10.4217 142.513H58.1788C58.9375 142.513 59.5698 141.881 59.5698 141.122V138.425C59.5698 137.666 58.9375 137.034 58.1788 137.034H10.4217C9.663 137.034 9.03074 137.666 9.03074 138.425V141.122C9.03074 141.881 9.663 142.513 10.4217 142.513ZM9.03074 148.752V146.054C9.03074 145.295 9.663 144.663 10.4217 144.663H58.1788C58.9375 144.663 59.5698 145.295 59.5698 146.054V148.752C59.5698 149.51 58.9375 150.143 58.1788 150.143H10.4217C9.663 150.143 9.03074 149.553 9.03074 148.752ZM9.03074 156.423V153.725C9.03074 152.967 9.663 152.335 10.4217 152.335H58.1788C58.9375 152.335 59.5698 152.967 59.5698 153.725V156.423C59.5698 157.182 58.9375 157.814 58.1788 157.814H10.4217C9.663 157.814 9.03074 157.182 9.03074 156.423Z" fill="url(#paint7_linear_455_4711)"/>
<path d="M89.623 157.687H92.7421C93.4587 157.687 94.0488 157.097 94.0488 156.38V138.297C94.0488 137.581 93.4587 136.991 92.7421 136.991H89.623C88.9064 136.991 88.3163 137.581 88.3163 138.297V156.422C88.3163 157.139 88.9064 157.687 89.623 157.687ZM80.7713 156.422V138.34C80.7713 137.623 81.3614 137.033 82.0779 137.033H85.1971C85.9137 137.033 86.5038 137.623 86.5038 138.34V156.422C86.5038 157.139 85.9137 157.729 85.1971 157.729H82.0779C81.3614 157.687 80.7713 157.139 80.7713 156.422ZM73.2262 156.422V138.34C73.2262 137.623 73.8163 137.033 74.5329 137.033H77.6521C78.3686 137.033 78.9588 137.623 78.9588 138.34V156.422C78.9588 157.139 78.3686 157.729 77.6521 157.729H74.5329C73.7742 157.687 73.2262 157.139 73.2262 156.422ZM65.639 156.422V138.34C65.639 137.623 66.2292 137.033 66.9457 137.033H70.0649C70.7815 137.033 71.3716 137.623 71.3716 138.34V156.422C71.3716 157.139 70.7815 157.729 70.0649 157.729H66.9457C66.2292 157.687 65.639 157.139 65.639 156.422Z" fill="url(#paint8_linear_455_4711)"/>
<path d="M26.6086 76.3352L42.921 74.902L46.1245 48.5155L45.1972 46.8295L39.5911 36.7554C39.5911 36.7554 33.7743 37.1769 31.9196 47.5039C30.908 53.3207 29.3484 61.7088 28.1682 67.9471C27.283 72.7945 26.6086 76.3352 26.6086 76.3352Z" fill="url(#paint9_linear_455_4711)"/>
<path d="M28.1683 67.9471C29.9386 58.6739 38.2845 59.2219 38.2845 59.2219L45.1973 46.8295L39.5912 36.7554C39.5912 36.7554 33.7743 37.1769 31.9197 47.5039C30.9081 53.3207 29.3485 61.7088 28.1683 67.9471Z" fill="url(#paint10_linear_455_4711)"/>
<path d="M22.603 125.863C22.603 125.863 21.1277 130.837 19.4417 133.029C17.7556 135.221 11.6859 141.839 17.587 145.463C23.4882 149.088 30.2323 140.743 30.2323 140.743L30.7803 124.051L22.603 125.863Z" fill="url(#paint11_linear_455_4711)"/>
<path d="M18.4734 116.084C20.7074 121.816 22.6042 125.863 22.6042 125.863C22.6042 125.863 26.9879 127.675 29.4748 125.863C30.4864 125.104 30.7815 116.126 30.7393 105.968C30.6971 91.6783 30.0227 74.9022 30.0227 74.9022C30.0227 74.9022 18.0518 73.5955 12.5301 83.0374C8.94723 89.1493 14.3004 105.462 18.4734 116.084Z" fill="url(#paint12_linear_455_4711)"/>
<path d="M18.4721 116.084C20.7061 121.817 22.6029 125.863 22.6029 125.863C22.6029 125.863 26.9866 127.676 29.4735 125.863C30.4852 125.104 30.7802 116.126 30.7381 105.968L29.1363 89.3604C29.1363 89.3604 25.3006 107.738 18.4721 116.084Z" fill="url(#paint13_linear_455_4711)"/>
<path d="M37.0191 68.1583C36.3025 70.4766 35.881 72.4577 35.881 72.4577L75.1236 81.7309H75.1658C75.1658 81.7309 72.1309 44.0479 65.6396 37.1351C59.1484 30.2645 43.5103 33.8052 43.5103 33.8052C43.5103 33.8052 35.5438 36.3342 33.4363 44.7223C31.2866 53.1103 39.4217 62.2993 39.4217 62.2993C38.4522 63.8167 37.6514 66.135 37.0191 68.1583Z" fill="url(#paint14_linear_455_4711)"/>
<path d="M35.8805 72.416L75.123 81.6892L66.6507 50.7925C66.6507 50.7925 55.4385 70.3927 37.0607 68.1166C36.302 70.477 35.8805 72.416 35.8805 72.416Z" fill="url(#paint15_linear_455_4711)"/>
<path d="M52.4046 32.2885C52.4046 32.2885 54.4699 44.0486 49.1168 44.8916C44.7752 45.5661 44.7752 39.2434 44.7752 39.2434C44.7752 39.2434 44.8595 45.3553 41.2346 45.1024C37.6096 44.8495 37.441 38.2318 38.5369 34.8176C39.7171 31.4455 52.4046 32.2885 52.4046 32.2885Z" fill="url(#paint16_linear_455_4711)"/>
<path d="M21.7614 153.599C26.946 154.905 31.4983 151.407 32.7628 145.295C33.9852 139.183 36.4721 138.93 38.116 136.696C39.1697 135.263 38.8325 131.006 38.4953 128.266C38.3267 126.875 38.116 125.863 38.116 125.863L27.1988 126.496C27.1988 126.496 25.3021 131.891 21.6771 138.171C21.087 139.183 20.4547 140.237 19.7803 141.248C19.6538 141.417 19.5695 141.586 19.4431 141.754C18.8108 142.766 18.305 143.693 17.9256 144.536C15.6073 149.889 17.6727 152.545 21.7614 153.599Z" fill="url(#paint17_linear_455_4711)"/>
<path d="M24.8385 95.3035L27.4518 123.418L27.1989 126.537C27.1989 126.537 33.4373 128.729 38.116 125.905L37.821 123.081C37.821 123.081 41.3617 105.673 41.8675 94.6713C41.9939 91.4678 41.8675 88.8123 41.3195 87.2948H69.3921L73.7758 82.6582L75.5461 80.7614L74.6188 80.0449L69.645 76.1248C69.645 76.1248 69.0127 75.8298 67.9168 75.3661C63.2802 73.4272 50.1712 68.6641 36.9358 70.6452C19.3588 73.1743 24.8385 95.3035 24.8385 95.3035Z" fill="url(#paint18_linear_455_4711)"/>
<path d="M56.7462 87.253H69.3072L73.6909 82.6163L74.5339 80.003L69.5601 76.0829C69.5601 76.0829 68.9278 75.7879 67.8319 75.3242C67.1575 77.5161 64.4177 84.471 56.7462 87.253Z" fill="url(#paint19_linear_455_4711)"/>
<path d="M39.591 33.1311C39.591 34.4378 39.8018 37.6413 41.4035 39.5381C42.1622 40.4233 43.216 41.0555 44.7756 40.9712C50.3395 40.6762 51.5198 32.8782 51.5198 32.8782L50.3396 32.8361L44.4384 32.6675L39.6332 32.541C39.591 32.541 39.591 32.7518 39.591 33.1311Z" fill="url(#paint20_linear_455_4711)"/>
<path d="M39.5909 33.1317C39.5909 34.4384 39.8016 37.6419 41.4034 39.5387C47.3045 38.5271 49.6228 34.4806 50.3394 32.8367C50.5501 32.373 50.5923 32.1201 50.5923 32.1201L44.3961 32.7102L39.5909 33.1317Z" fill="url(#paint21_linear_455_4711)"/>
<path d="M45.0701 8.2616L52.6573 12.8561L63.4058 19.3052C71.0351 19.5581 76.7255 18.6307 80.9827 16.9869C88.1484 14.2892 91.2254 9.73688 92.5321 6.0276C92.9115 5.01597 93.1222 4.08865 93.2487 3.24563C93.5859 1.30668 93.4594 0 93.4594 0C91.0568 0.84302 88.6964 1.60174 86.4202 2.27615C70.9508 6.87061 57.6732 7.96654 50.5497 8.21945C47.0933 8.3459 45.0701 8.2616 45.0701 8.2616Z" fill="url(#paint22_linear_455_4711)"/>
<path d="M52.6997 12.8568L63.4061 19.3059C71.0354 19.5588 76.7258 18.6315 80.9831 16.9876C88.1488 14.2899 91.2258 9.73761 92.5325 6.02832C82.6691 12.0559 72.7215 15.4701 52.6997 12.8568Z" fill="url(#paint23_linear_455_4711)"/>
<path d="M37.1889 35.2379C45.7034 38.1041 52.8269 33.4675 54.9766 30.3062C56.5783 27.9879 56.4519 26.0489 56.2411 25.2059L56.199 25.1216C56.1568 24.953 56.1147 24.8266 56.1147 24.7844C56.4519 25.2902 61.3414 32.7509 70.6146 37.0925C73.0172 38.2306 75.6727 39.1158 78.6233 39.6637C84.1451 40.6753 88.5288 38.3992 91.5215 35.8701C92.3645 35.1536 93.0811 34.437 93.7134 33.7626C95.3573 31.9922 96.2424 30.4748 96.2424 30.4748C96.2424 30.4748 92.7439 30.264 87.5172 28.6623C82.0797 27.0184 74.7876 23.8149 67.6219 17.9138C60.4562 12.0548 54.0914 9.52574 49.0754 8.59842C48.6118 8.51411 48.1903 8.42981 47.7688 8.38766H47.7266H47.6845C47.3473 8.34551 47.0522 8.30336 46.7571 8.30336C45.2819 8.17691 43.933 8.17691 42.7528 8.21906C42.4156 8.21906 42.1205 8.26121 41.8255 8.30336C39.5915 8.55626 37.9897 9.06208 37.231 9.35713C37.0624 9.44144 36.8516 9.48359 36.683 9.56789C36.4301 9.69434 36.1351 9.8208 35.8822 9.94725C34.5755 10.6217 33.5217 11.5068 32.6787 12.5185C29.3488 16.3964 29.3488 21.876 29.8967 23.9835C30.3182 25.6274 29.8124 27.1027 29.8124 27.1027C29.8124 27.1027 27.3677 31.9079 37.1889 35.2379Z" fill="url(#paint24_linear_455_4711)"/>
<path d="M51.772 18.7158L56.1557 24.7856L56.24 25.1228C56.1978 24.9542 56.1557 24.8277 56.1557 24.7856C56.4929 25.2914 61.3824 32.7521 70.6556 37.0937C73.0582 38.2317 75.7137 39.1169 78.6643 39.6649C84.1861 40.6765 88.5698 38.4003 91.5625 35.8713C72.5524 35.9134 51.772 18.7158 51.772 18.7158Z" fill="url(#paint25_linear_455_4711)"/>
<path d="M70.6559 37.1346C73.0585 38.2727 75.714 39.1579 78.6646 39.7059C89.7081 41.6869 96.2837 30.5591 96.2837 30.5591C96.2837 30.5591 92.7852 30.3483 87.5584 28.7466C85.6195 31.2756 80.1399 37.1768 70.6559 37.1346Z" fill="url(#paint26_linear_455_4711)"/>
<path opacity="0.4" d="M67.6631 17.999C60.4975 12.14 54.1327 9.61092 49.1167 8.68359C55.3972 10.0324 62.6472 17.1559 71.2038 24.0687C78.1166 29.6748 88.9073 32.6675 93.7546 33.7634C95.3985 31.9931 96.2837 30.4757 96.2837 30.4757C96.2837 30.4757 92.7852 30.2649 87.5584 28.6632C82.1209 27.0614 74.871 23.858 67.6631 17.999Z" fill="#FFCA83"/>
<path opacity="0.4" d="M33.6053 28.1565C32.3947 28.1565 31.4134 27.4771 31.4134 26.639C31.4134 25.801 32.3947 25.1216 33.6053 25.1216C34.8158 25.1216 35.7971 25.801 35.7971 26.639C35.7971 27.4771 34.8158 28.1565 33.6053 28.1565Z" fill="#FFCA83"/>
<path opacity="0.4" d="M47.0514 28.1986C45.352 28.1986 43.9744 27.4248 43.9744 26.4704C43.9744 25.5159 45.352 24.7422 47.0514 24.7422C48.7508 24.7422 50.1284 25.5159 50.1284 26.4704C50.1284 27.4248 48.7508 28.1986 47.0514 28.1986Z" fill="#FFCA83"/>
<path d="M35.4181 25.9234C34.3007 25.9234 33.3949 24.7911 33.3949 23.3943C33.3949 21.9975 34.3007 20.8652 35.4181 20.8652C36.5355 20.8652 37.4414 21.9975 37.4414 23.3943C37.4414 24.7911 36.5355 25.9234 35.4181 25.9234Z" fill="url(#paint27_linear_455_4711)"/>
<path d="M34.5746 23.3934C34.3418 23.3934 34.1531 23.1104 34.1531 22.7612C34.1531 22.412 34.3418 22.1289 34.5746 22.1289C34.8074 22.1289 34.9961 22.412 34.9961 22.7612C34.9961 23.1104 34.8074 23.3934 34.5746 23.3934Z" fill="white"/>
<path d="M44.6054 25.9234C43.488 25.9234 42.5821 24.7911 42.5821 23.3943C42.5821 21.9975 43.488 20.8652 44.6054 20.8652C45.7228 20.8652 46.6287 21.9975 46.6287 23.3943C46.6287 24.7911 45.7228 25.9234 44.6054 25.9234Z" fill="url(#paint28_linear_455_4711)"/>
<path d="M43.7618 23.3949C43.529 23.3949 43.3403 23.1118 43.3403 22.7626C43.3403 22.4134 43.529 22.1304 43.7618 22.1304C43.9946 22.1304 44.1833 22.4134 44.1833 22.7626C44.1833 23.1118 43.9946 23.3949 43.7618 23.3949Z" fill="white"/>
<path d="M40.8971 25.7539H39.8855H38.8738C38.2837 25.7539 37.8201 26.1754 37.8201 26.7234V26.8498C37.8201 27.2292 38.0308 27.5664 38.4102 27.735L39.4218 28.1987C39.7169 28.3251 40.0119 28.3251 40.307 28.1987L41.3186 27.735C41.6979 27.5664 41.9087 27.2292 41.9087 26.8498V26.7234C41.9509 26.1754 41.4872 25.7539 40.8971 25.7539Z" fill="#F87C38"/>
<path d="M47.3887 20.401C47.6838 20.401 48.021 20.2745 48.2739 20.0638C48.7797 19.6001 48.7797 18.7992 48.3161 18.2934C46.7565 16.6917 44.396 16.1437 42.2463 16.8603C41.5719 17.071 41.2347 17.8298 41.4876 18.462C41.6983 19.1364 42.457 19.4737 43.0893 19.2208C44.3117 18.7992 45.6605 19.0943 46.5036 19.9795C46.7143 20.2745 47.0515 20.401 47.3887 20.401Z" fill="#F87C38"/>
<path d="M32.9306 20.1061C33.1835 20.1061 33.4786 20.0218 33.6893 19.8532C34.4902 19.2631 35.5861 19.0945 36.682 19.3474C37.3564 19.516 38.0309 19.1366 38.2416 18.4622C38.4102 17.7878 38.0309 17.1134 37.3564 16.9026C35.5018 16.439 33.5629 16.7762 32.1719 17.83C31.6239 18.2515 31.4974 19.0523 31.919 19.6003C32.1719 19.9375 32.5512 20.1061 32.9306 20.1061Z" fill="#F87C38"/>
<path d="M39.7182 31.8659C42.8795 31.8659 44.6498 30.3064 44.7341 30.2221C44.8184 30.1377 44.8184 30.0113 44.7341 29.927C44.6498 29.8427 44.5234 29.8427 44.4391 29.927C44.3969 29.927 42.2472 31.8659 38.4958 31.4023C38.3693 31.4023 38.285 31.4866 38.2429 31.5709C38.2429 31.6973 38.3272 31.7816 38.4115 31.8238C38.9173 31.8659 39.3388 31.8659 39.7182 31.8659Z" fill="#F87C38"/>
<path d="M36.6836 12.5195C36.6836 13.1096 36.9365 13.6575 37.3158 14.0369C37.6952 14.4163 38.2432 14.6692 38.8754 14.6692C39.9714 14.6692 40.9408 13.8262 41.0251 12.7302C41.1937 11.0863 41.6153 9.4003 41.8682 8.38867C39.6342 8.64158 38.0324 9.14739 37.2737 9.44245C37.1051 9.52675 36.8943 9.5689 36.7257 9.6532C36.7257 10.6648 36.7257 11.6765 36.6836 12.5195Z" fill="url(#paint29_linear_455_4711)"/>
<path d="M32.764 12.603C32.764 12.6451 32.764 12.6451 32.764 12.6873C32.8062 13.0666 32.9748 13.4038 33.2699 13.6567C33.5649 13.9096 33.9021 14.0361 34.2815 14.0361C35.0824 14.0361 35.7568 13.4038 35.7989 12.603C35.8411 11.7178 35.9254 10.7905 35.9675 10.0317C34.6608 10.7483 33.6071 11.5913 32.764 12.603Z" fill="url(#paint30_linear_455_4711)"/>
<path d="M43.764 12.7714C44.1012 12.7714 44.4384 12.6449 44.6913 12.4763C44.9442 12.2656 45.155 12.0127 45.2393 11.6755C45.5343 10.706 46.0401 9.315 46.7988 8.42982C45.3235 8.30337 43.9747 8.30337 42.7945 8.34552C42.6259 8.97779 42.3308 10.0316 42.2044 11.0432C42.1201 11.9284 42.8367 12.7714 43.764 12.7714Z" fill="url(#paint31_linear_455_4711)"/>
<path d="M81.0251 16.9869C94.6399 11.8444 93.5018 0 93.5018 0C91.0992 0.84302 88.7387 1.60174 86.4626 2.27615C86.3361 5.73254 85.5353 12.2659 81.0251 16.9869Z" fill="url(#paint32_linear_455_4711)"/>
<path opacity="0.4" d="M50.5922 8.26193C67.579 10.4538 88.4016 4.72124 93.2912 3.28811C93.6284 1.34916 93.5019 0.0424805 93.5019 0.0424805C91.0993 0.885501 88.7389 1.64422 86.4627 2.31864C70.9933 6.87095 57.6736 8.00902 50.5922 8.26193Z" fill="#FFCA83"/>
<path d="M56.9984 49.106C57.3356 50.2862 57.7993 51.4664 58.3472 52.6045L69.6016 76.0826L70.1074 77.1364L70.7818 78.5274L69.3486 87.2527H88.7803C83.8908 81.8995 78.2004 79.2018 78.2004 79.2018L77.6103 76.0826L74.3646 58.4635C72.7207 45.1016 66.6088 33.5523 59.401 35.1118C53.9214 36.3342 55.776 44.9752 56.9984 49.106Z" fill="url(#paint33_linear_455_4711)"/>
<path d="M56.9987 49.106C57.3359 50.2862 57.7996 51.4664 58.3476 52.6045L69.6019 76.0826L70.1077 77.1364C72.6368 76.0405 75.4187 75.9562 77.6106 76.0826L74.365 58.4635C72.7211 45.1016 66.6092 33.5523 59.4014 35.1118C53.9217 36.3342 55.7764 44.9752 56.9987 49.106Z" fill="url(#paint34_linear_455_4711)"/>
<path d="M69.6007 76.0822L70.7809 78.5691C72.4248 77.7261 75.7969 77.7683 75.7969 77.7683V74.9441C72.1719 74.6912 70.3172 75.5342 69.6007 76.0822Z" fill="url(#paint35_linear_455_4711)"/>
<path d="M77.3149 80.2555H78.3687C79.3803 80.2555 80.1812 79.4547 80.1812 78.443V75.0288C80.1812 74.0172 79.3803 73.2163 78.3687 73.2163H77.3149C76.3033 73.2163 75.5024 74.0172 75.5024 75.0288V78.443C75.4602 79.4547 76.3033 80.2555 77.3149 80.2555Z" fill="url(#paint36_linear_455_4711)"/>
<path d="M78.3259 80.2555C79.3376 80.2555 80.1384 79.4547 80.1384 78.443V75.0288C80.1384 74.0172 79.3376 73.2163 78.3259 73.2163C77.3143 73.2163 76.5134 74.0172 76.5134 75.0288V78.443C76.5134 79.4547 77.3143 80.2555 78.3259 80.2555Z" fill="url(#paint37_linear_455_4711)"/>
<path d="M78.3267 77.0947C78.1172 77.0947 77.9473 76.9248 77.9473 76.7153C77.9473 76.5058 78.1172 76.3359 78.3267 76.3359C78.5362 76.3359 78.7061 76.5058 78.7061 76.7153C78.7061 76.9248 78.5362 77.0947 78.3267 77.0947Z" fill="url(#paint38_linear_455_4711)"/>
<path d="M38.2844 87.2524C38.2844 87.2524 40.9399 90.5402 41.825 94.6289C41.9515 91.4254 41.8251 88.7699 41.2771 87.2524H38.2844Z" fill="url(#paint39_linear_455_4711)"/>
<path d="M21.7614 153.598C26.946 154.905 31.4983 151.407 32.7628 145.295C33.9852 139.183 36.4721 138.93 38.116 136.696C39.1697 135.263 38.8325 131.005 38.4953 128.266C37.4837 130.162 35.7977 133.113 34.2381 134.757C31.8355 137.286 34.491 139.562 32.4677 143.946C30.4023 148.33 25.7236 150.901 22.9416 150.395C20.3704 149.973 18.1364 147.95 18.0099 144.578C15.6073 149.889 17.6727 152.545 21.7614 153.598Z" fill="url(#paint40_linear_455_4711)"/>
<path d="M19.4412 141.796C21.4645 142.176 24.0778 143.398 25.8903 144.283C27.0284 144.831 28.3772 144.367 28.9252 143.272C29.431 142.218 29.0517 140.995 28.0822 140.363C25.5531 138.803 23.3613 138.424 21.6752 138.213C21.0851 139.225 20.4529 140.279 19.7784 141.29C19.652 141.459 19.5255 141.628 19.4412 141.796Z" fill="url(#paint41_linear_455_4711)"/>
<defs>
<linearGradient id="paint0_linear_455_4711" x1="52.6678" y1="173.761" x2="52.6678" y2="40.0543" gradientUnits="userSpaceOnUse">
<stop stop-color="#03192E"/>
<stop offset="0.5" stop-color="#223C6A"/>
<stop offset="1" stop-color="#4A74A2"/>
</linearGradient>
<linearGradient id="paint1_linear_455_4711" x1="52.474" y1="123.862" x2="52.474" y2="29.932" gradientUnits="userSpaceOnUse">
<stop stop-color="#386E9F"/>
<stop offset="1" stop-color="white"/>
</linearGradient>
<linearGradient id="paint2_linear_455_4711" x1="52.4741" y1="138.367" x2="52.4741" y2="35.643" gradientUnits="userSpaceOnUse">
<stop stop-color="#03192E"/>
<stop offset="0.5" stop-color="#223C6A"/>
<stop offset="1" stop-color="#4A74A2"/>
</linearGradient>
<linearGradient id="paint3_linear_455_4711" x1="34.3099" y1="163.704" x2="34.3099" y2="43.0955" gradientUnits="userSpaceOnUse">
<stop stop-color="#03192E"/>
<stop offset="0.5" stop-color="#223C6A"/>
<stop offset="1" stop-color="#4A74A2"/>
</linearGradient>
<linearGradient id="paint4_linear_455_4711" x1="79.8465" y1="180.715" x2="79.8465" y2="96.6503" gradientUnits="userSpaceOnUse">
<stop stop-color="#FF2A64"/>
<stop offset="0.4467" stop-color="#FF6C56"/>
<stop offset="0.8169" stop-color="#FF9C4C"/>
<stop offset="1" stop-color="#FFAF48"/>
</linearGradient>
<linearGradient id="paint5_linear_455_4711" x1="52.474" y1="165.609" x2="52.474" y2="71.6789" gradientUnits="userSpaceOnUse">
<stop stop-color="#386E9F"/>
<stop offset="1" stop-color="white"/>
</linearGradient>
<linearGradient id="paint6_linear_455_4711" x1="52.4744" y1="180.115" x2="52.4744" y2="77.3905" gradientUnits="userSpaceOnUse">
<stop stop-color="#03192E"/>
<stop offset="0.5" stop-color="#223C6A"/>
<stop offset="1" stop-color="#4A74A2"/>
</linearGradient>
<linearGradient id="paint7_linear_455_4711" x1="34.3099" y1="205.452" x2="34.3099" y2="84.8431" gradientUnits="userSpaceOnUse">
<stop stop-color="#03192E"/>
<stop offset="0.5" stop-color="#223C6A"/>
<stop offset="1" stop-color="#4A74A2"/>
</linearGradient>
<linearGradient id="paint8_linear_455_4711" x1="79.8465" y1="222.461" x2="79.8465" y2="138.396" gradientUnits="userSpaceOnUse">
<stop stop-color="#FF2A64"/>
<stop offset="0.4467" stop-color="#FF6C56"/>
<stop offset="0.8169" stop-color="#FF9C4C"/>
<stop offset="1" stop-color="#FFAF48"/>
</linearGradient>
<linearGradient id="paint9_linear_455_4711" x1="36.3729" y1="76.0729" x2="36.3729" y2="-11.5405" gradientUnits="userSpaceOnUse">
<stop stop-color="#386E9F"/>
<stop offset="1" stop-color="white"/>
</linearGradient>
<linearGradient id="paint10_linear_455_4711" x1="36.6891" y1="62.0003" x2="36.6891" y2="-28.9287" gradientUnits="userSpaceOnUse">
<stop stop-color="#386E9F"/>
<stop offset="1" stop-color="white"/>
</linearGradient>
<linearGradient id="paint11_linear_455_4711" x1="22.8837" y1="137.869" x2="22.8837" y2="99.2338" gradientUnits="userSpaceOnUse">
<stop stop-color="#386E9F"/>
<stop offset="1" stop-color="white"/>
</linearGradient>
<linearGradient id="paint12_linear_455_4711" x1="21.0334" y1="185.259" x2="21.0334" y2="-76.8017" gradientUnits="userSpaceOnUse">
<stop stop-color="#03192E"/>
<stop offset="0.5" stop-color="#223C6A"/>
<stop offset="1" stop-color="#4A74A2"/>
</linearGradient>
<linearGradient id="paint13_linear_455_4711" x1="24.584" y1="134.202" x2="24.584" y2="19.1216" gradientUnits="userSpaceOnUse">
<stop stop-color="#03192E"/>
<stop offset="0.5" stop-color="#223C6A"/>
<stop offset="1" stop-color="#4A74A2"/>
</linearGradient>
<linearGradient id="paint14_linear_455_4711" x1="54.1144" y1="117.271" x2="54.1144" y2="23.5666" gradientUnits="userSpaceOnUse">
<stop stop-color="#03192E"/>
<stop offset="0.5" stop-color="#223C6A"/>
<stop offset="1" stop-color="#4A74A2"/>
</linearGradient>
<linearGradient id="paint15_linear_455_4711" x1="55.4996" y1="166.768" x2="55.4996" y2="-102.85" gradientUnits="userSpaceOnUse">
<stop stop-color="#03192E"/>
<stop offset="0.5" stop-color="#223C6A"/>
<stop offset="1" stop-color="#4A74A2"/>
</linearGradient>
<linearGradient id="paint16_linear_455_4711" x1="45.375" y1="57.7567" x2="45.375" y2="3.95703" gradientUnits="userSpaceOnUse">
<stop stop-color="#386E9F"/>
<stop offset="1" stop-color="white"/>
</linearGradient>
<linearGradient id="paint17_linear_455_4711" x1="27.8714" y1="190.877" x2="27.8714" y2="74.6211" gradientUnits="userSpaceOnUse">
<stop stop-color="#386E9F"/>
<stop offset="1" stop-color="white"/>
</linearGradient>
<linearGradient id="paint18_linear_455_4711" x1="49.7469" y1="269.396" x2="49.7469" y2="53.6842" gradientUnits="userSpaceOnUse">
<stop stop-color="#03192E"/>
<stop offset="0.5" stop-color="#223C6A"/>
<stop offset="1" stop-color="#4A74A2"/>
</linearGradient>
<linearGradient id="paint19_linear_455_4711" x1="65.6485" y1="141.989" x2="65.6485" y2="54.644" gradientUnits="userSpaceOnUse">
<stop stop-color="#03192E"/>
<stop offset="0.5" stop-color="#223C6A"/>
<stop offset="1" stop-color="#4A74A2"/>
</linearGradient>
<linearGradient id="paint20_linear_455_4711" x1="45.5359" y1="56.2989" x2="45.5359" y2="26.0676" gradientUnits="userSpaceOnUse">
<stop stop-color="#FF2A64"/>
<stop offset="0.4467" stop-color="#FF6C56"/>
<stop offset="0.8169" stop-color="#FF9C4C"/>
<stop offset="1" stop-color="#FFAF48"/>
</linearGradient>
<linearGradient id="paint21_linear_455_4711" x1="45.0895" y1="49.1587" x2="45.0895" y2="24.9731" gradientUnits="userSpaceOnUse">
<stop stop-color="#FF2A64"/>
<stop offset="0.4467" stop-color="#FF6C56"/>
<stop offset="0.8169" stop-color="#FF9C4C"/>
<stop offset="1" stop-color="#FFAF48"/>
</linearGradient>
<linearGradient id="paint22_linear_455_4711" x1="53.9025" y1="53.0455" x2="73.4941" y2="-7.19408" gradientUnits="userSpaceOnUse">
<stop stop-color="#FF2A64"/>
<stop offset="0.4467" stop-color="#FF6C56"/>
<stop offset="0.8169" stop-color="#FF9C4C"/>
<stop offset="1" stop-color="#FFAF48"/>
</linearGradient>
<linearGradient id="paint23_linear_455_4711" x1="64.836" y1="51.3554" x2="76.9205" y2="-13.6448" gradientUnits="userSpaceOnUse">
<stop stop-color="#FF2A64"/>
<stop offset="0.4467" stop-color="#FF6C56"/>
<stop offset="0.8169" stop-color="#FF9C4C"/>
<stop offset="1" stop-color="#FFAF48"/>
</linearGradient>
<linearGradient id="paint24_linear_455_4711" x1="56.7597" y1="84.0409" x2="63.9006" y2="17.2097" gradientUnits="userSpaceOnUse">
<stop stop-color="#FF2A64"/>
<stop offset="0.4467" stop-color="#FF6C56"/>
<stop offset="0.8169" stop-color="#FF9C4C"/>
<stop offset="1" stop-color="#FFAF48"/>
</linearGradient>
<linearGradient id="paint25_linear_455_4711" x1="59.7803" y1="69.6889" x2="75.9846" y2="11.8753" gradientUnits="userSpaceOnUse">
<stop stop-color="#FF2A64"/>
<stop offset="0.4467" stop-color="#FF6C56"/>
<stop offset="0.8169" stop-color="#FF9C4C"/>
<stop offset="1" stop-color="#FFAF48"/>
</linearGradient>
<linearGradient id="paint26_linear_455_4711" x1="78.1863" y1="62.7295" x2="89.3096" y2="1.75748" gradientUnits="userSpaceOnUse">
<stop stop-color="#FF2A64"/>
<stop offset="0.4467" stop-color="#FF6C56"/>
<stop offset="0.8169" stop-color="#FF9C4C"/>
<stop offset="1" stop-color="#FFAF48"/>
</linearGradient>
<linearGradient id="paint27_linear_455_4711" x1="35.4155" y1="25.9045" x2="35.4155" y2="18.8528" gradientUnits="userSpaceOnUse">
<stop stop-color="#03192E"/>
<stop offset="0.5" stop-color="#223C6A"/>
<stop offset="1" stop-color="#4A74A2"/>
</linearGradient>
<linearGradient id="paint28_linear_455_4711" x1="44.5925" y1="25.9045" x2="44.5925" y2="18.8528" gradientUnits="userSpaceOnUse">
<stop stop-color="#03192E"/>
<stop offset="0.5" stop-color="#223C6A"/>
<stop offset="1" stop-color="#4A74A2"/>
</linearGradient>
<linearGradient id="paint29_linear_455_4711" x1="39.3054" y1="41.1019" x2="39.3054" y2="1.0015" gradientUnits="userSpaceOnUse">
<stop stop-color="#FF2A64"/>
<stop offset="0.4467" stop-color="#FF6C56"/>
<stop offset="0.8169" stop-color="#FF9C4C"/>
<stop offset="1" stop-color="#FFAF48"/>
</linearGradient>
<linearGradient id="paint30_linear_455_4711" x1="34.389" y1="41.101" x2="34.389" y2="1.00067" gradientUnits="userSpaceOnUse">
<stop stop-color="#FF2A64"/>
<stop offset="0.4467" stop-color="#FF6C56"/>
<stop offset="0.8169" stop-color="#FF9C4C"/>
<stop offset="1" stop-color="#FFAF48"/>
</linearGradient>
<linearGradient id="paint31_linear_455_4711" x1="44.524" y1="41.1009" x2="44.524" y2="1.0005" gradientUnits="userSpaceOnUse">
<stop stop-color="#FF2A64"/>
<stop offset="0.4467" stop-color="#FF6C56"/>
<stop offset="0.8169" stop-color="#FF9C4C"/>
<stop offset="1" stop-color="#FFAF48"/>
</linearGradient>
<linearGradient id="paint32_linear_455_4711" x1="82.6105" y1="42.322" x2="91.033" y2="-17.3683" gradientUnits="userSpaceOnUse">
<stop stop-color="#FF2A64"/>
<stop offset="0.4467" stop-color="#FF6C56"/>
<stop offset="0.8169" stop-color="#FF9C4C"/>
<stop offset="1" stop-color="#FFAF48"/>
</linearGradient>
<linearGradient id="paint33_linear_455_4711" x1="60.1913" y1="139.661" x2="72.0928" y2="64.5907" gradientUnits="userSpaceOnUse">
<stop stop-color="#FF2A64"/>
<stop offset="0.4467" stop-color="#FF6C56"/>
<stop offset="0.8169" stop-color="#FF9C4C"/>
<stop offset="1" stop-color="#FFAF48"/>
</linearGradient>
<linearGradient id="paint34_linear_455_4711" x1="66.6395" y1="76.0732" x2="66.6395" y2="-11.5401" gradientUnits="userSpaceOnUse">
<stop stop-color="#386E9F"/>
<stop offset="1" stop-color="white"/>
</linearGradient>
<linearGradient id="paint35_linear_455_4711" x1="72.6819" y1="90.9151" x2="72.6819" y2="59.0532" gradientUnits="userSpaceOnUse">
<stop stop-color="#386E9F"/>
<stop offset="1" stop-color="white"/>
</linearGradient>
<linearGradient id="paint36_linear_455_4711" x1="77.824" y1="87.1915" x2="77.824" y2="57.7012" gradientUnits="userSpaceOnUse">
<stop stop-color="#03192E"/>
<stop offset="0.5" stop-color="#223C6A"/>
<stop offset="1" stop-color="#4A74A2"/>
</linearGradient>
<linearGradient id="paint37_linear_455_4711" x1="78.3438" y1="91.6366" x2="78.3438" y2="68.5655" gradientUnits="userSpaceOnUse">
<stop stop-color="#03192E"/>
<stop offset="0.5" stop-color="#223C6A"/>
<stop offset="1" stop-color="#4A74A2"/>
</linearGradient>
<linearGradient id="paint38_linear_455_4711" x1="78.3446" y1="77.8331" x2="78.3446" y2="74.2451" gradientUnits="userSpaceOnUse">
<stop stop-color="#386E9F"/>
<stop offset="1" stop-color="white"/>
</linearGradient>
<linearGradient id="paint39_linear_455_4711" x1="40.0805" y1="141.989" x2="40.0805" y2="54.6435" gradientUnits="userSpaceOnUse">
<stop stop-color="#03192E"/>
<stop offset="0.5" stop-color="#223C6A"/>
<stop offset="1" stop-color="#4A74A2"/>
</linearGradient>
<linearGradient id="paint40_linear_455_4711" x1="27.8714" y1="169.21" x2="27.8714" y2="78.8091" gradientUnits="userSpaceOnUse">
<stop stop-color="#386E9F"/>
<stop offset="1" stop-color="white"/>
</linearGradient>
<linearGradient id="paint41_linear_455_4711" x1="24.2726" y1="190.053" x2="24.2726" y2="127.109" gradientUnits="userSpaceOnUse">
<stop stop-color="#03192E"/>
<stop offset="0.5" stop-color="#223C6A"/>
<stop offset="1" stop-color="#4A74A2"/>
</linearGradient>
</defs>
</svg>
