<svg xmlns="http://www.w3.org/2000/svg" width="154" height="189" fill="none"><path fill="url(#a)" d="m103.07 134.741-4.077-16.439s-2.645-2.781-5.722-5.224l-48.82 3.361s-5.938 1.404-9.097 4.454l-3.347 31.502 4.211 32.92H93.42c2.294 0 3.873-2.322 3.009-4.454-2.551-6.317-6.722-18.262-6.749-28.898z"/><path fill="url(#b)" d="m33.856 156.148-.5 6.655 2.89 22.54H81.19l.77-2.808c-42.8-2.632-48.105-26.387-48.105-26.387"/><path fill="url(#c)" d="M36.232 185.329H93.42c2.294 0 3.873-2.321 3.01-4.454-.149-.364-.298-.756-.46-1.161H35.518z"/><path fill="url(#d)" d="m85.024 103.443-16.345 14.469-19.207-10.892c-4.319 2.2-6.91 5.075-8.111 6.667-.54.702-.756 1.606-.635 2.484l3.226 23.647s3.955 25.752 18.113 34.188c0 0 19.922-15.454 23.54-38.413 3.495-22.176 7.693-22.5 7.693-22.5s-7.559-5.223-8.274-9.65"/><path fill="url(#e)" d="M51.564 49.629 110.223 0s10.001 34.161-33.311 47.105z"/><path fill="url(#f)" d="M85.2 115.778s-5.615 37.536-22.973 51.843c0 0-15.63-14.294-14.806-40.667z"/><path fill="url(#g)" d="M82.635 127.926c-5.642 15.738-19.044 24.835-28.033 29.37 3.779 6.776 7.639 10.312 7.639 10.312 10.973-9.043 17.263-27.426 20.394-39.682" opacity=".3"/><path fill="url(#h)" d="M103.367 13.579 66.182 44.622l10.73 2.47a97 97 0 0 0 3.496-1.134c23.728-8.773 22.959-32.38 22.959-32.38"/><path fill="url(#i)" d="M44.749 58.833s-5.44 7.073-8.504 7.936c0 0 4.077.932 8.22 0 0 0 1.43 17.371-7.22 21.663 0 0 1.862 4.144 7.153 4.792 0 0-1.067.931-3.901.782 0 0 2.254 5.359 8.976 7.073v13.632s6.573 9.151 18.49 10.96c0 0 13.916-6.101 17.156-14.199l.472-15.63s5.331-.121 8.679-3.59c0 0-4.292-.135-5.818-1.269 0 0 5.237-.094 8.382-4.859 0 0-5.534-.958-6.384-8.098-.864-7.154-1.31-14.037-1.525-15.32 0 0 40.032 6.79 64.192-37.103L84.066 48.035S71.58 43.176 62.619 45.04C49.27 47.806 41.172 59.427 37.352 59.52c0 0 3.32 1.809 7.397-.688"/><path fill="url(#j)" d="m88.924 62.694 2.362.257c3.32.243 9.853.324 17.83-1.593 24.74-7.788 30.274-25.186 30.274-25.186l-51.896 19.45c1.066 2.645 1.43 7.072 1.43 7.072"/><path fill="#fff" d="M153.117 25.59 86.94 47.106l63.774-17.398a97 97 0 0 0 2.403-4.116" opacity=".2"/><path fill="url(#k)" d="M75.752 80.389a4.32 4.32 0 1 0 0-8.639 4.32 4.32 0 0 0 0 8.639"/><path fill="#fff" d="M73.794 77.325a.958.958 0 1 0 0-1.917.958.958 0 0 0 0 1.917"/><path fill="url(#l)" d="M52.738 80.389a4.32 4.32 0 1 0 0-8.639 4.32 4.32 0 0 0 0 8.639"/><path fill="#fff" d="M50.767 77.325a.958.958 0 1 0 0-1.917.958.958 0 0 0 0 1.917"/><path fill="url(#m)" d="M40.807 146.808H5.485v38.534h35.322z"/><path fill="#F87C38" d="M70.15 68.336c1.107-1.97 2.875-3.55 4.9-4.589a14.5 14.5 0 0 1 6.614-1.579h.04c1.093 0 1.984.89 1.984 1.984s-.89 1.984-1.984 1.984c-.094 0-.189-.013-.283-.013a11 11 0 0 0-5.116.486c-1.646.566-3.158 1.579-4.238 2.982l-.013.014c-.378.5-1.107.594-1.606.216a1.19 1.19 0 0 1-.297-1.485"/><path fill="url(#n)" d="M40.82 185.329c0 2.012-7.908 3.631-17.667 3.631q-2.753 0-5.264-.162a61 61 0 0 1-2.389-.202c-.324-.027-.648-.068-.958-.095-1.809-.202-3.415-.472-4.764-.796-2.686-.634-4.306-1.471-4.306-2.376s1.62-1.741 4.306-2.375c1.35-.324 2.955-.594 4.764-.796.31-.041.634-.068.958-.095q1.154-.121 2.39-.202a82 82 0 0 1 5.263-.162c9.759 0 17.668 1.633 17.668 3.63"/><path fill="url(#o)" d="M24.638 159.697c2.105-3.158 5.83-4.481 8.976-3.428l.135-.189 1.457.971c3.361 2.241 4.09 7.059 1.62 10.771s-7.194 4.9-10.568 2.659l-1.458-.972.135-.189c-2.187-2.51-2.403-6.465-.297-9.623"/><path fill="url(#p)" d="M23.288 158.806c-2.47 3.712-1.742 8.53 1.62 10.771 3.36 2.24 8.097 1.053 10.567-2.659s1.742-8.53-1.62-10.771c-3.373-2.24-8.097-1.053-10.567 2.659"/><path fill="#FFCA83" d="M33.873 165.858c1.822-2.736 1.288-6.294-1.194-7.947-2.481-1.653-5.97-.775-7.793 1.961s-1.288 6.294 1.193 7.947c2.482 1.653 5.971.775 7.794-1.961" opacity=".5"/><path fill="url(#q)" d="m29.091 163.449 1.053 1.147 2.726-2.294c.527-.446.608-1.229.176-1.688s-1.174-.418-1.62.108z"/><path fill="url(#r)" d="m28.916 163.341-1.458-.54 1.107-3.387c.215-.648.904-1.026 1.498-.797.594.216.823.932.513 1.552z"/><path fill="url(#s)" d="M26.62 162.41c-.85 1.282-.607 2.942.554 3.711 1.161.77 2.794.365 3.645-.904.85-1.282.607-2.942-.554-3.712-1.16-.769-2.78-.364-3.644.905"/><path fill="url(#t)" d="M21.668 171.534c-2.105-3.158-5.83-4.481-8.975-3.428l-.136-.189-1.457.972c-3.36 2.24-4.09 7.059-1.62 10.771 2.47 3.711 7.194 4.899 10.569 2.659l1.457-.972-.135-.189c2.187-2.511 2.403-6.465.297-9.624"/><path fill="url(#u)" d="M23.018 170.629c2.47 3.712 1.74 8.53-1.62 10.771-3.361 2.24-8.098 1.052-10.568-2.659-2.47-3.712-1.742-8.53 1.62-10.771 3.374-2.227 8.111-1.039 10.567 2.659"/><path fill="#FFCA83" d="M20.235 179.651c2.482-1.653 3.017-5.211 1.194-7.947s-5.312-3.614-7.793-1.961c-2.482 1.653-3.016 5.211-1.194 7.947s5.312 3.614 7.793 1.961" opacity=".5"/><path fill="url(#v)" d="m17.228 175.287-1.053 1.147-2.726-2.295c-.527-.445-.608-1.228-.176-1.687s1.174-.418 1.62.108z"/><path fill="url(#w)" d="m17.39 175.178 1.458-.54-1.107-3.387c-.216-.648-.904-1.026-1.498-.797-.594.216-.823.932-.513 1.552z"/><path fill="url(#x)" d="M19.684 174.248c.85 1.282.608 2.942-.553 3.711-1.16.77-2.794.365-3.644-.904-.85-1.282-.607-2.942.553-3.712 1.161-.769 2.794-.364 3.644.905"/><path fill="#fff" d="M14.555 148.172v40.329c-1.809-.202-3.415-.472-4.764-.796v-39.533zM17.889 148.172v40.626a61 61 0 0 1-2.389-.202v-40.438h2.389z" opacity=".5"/><path fill="#F87C38" d="M56.748 69.753c-1.984-1.27-4.346-1.81-6.56-1.66a2 2 0 0 1-2.119-1.85 2 2 0 0 1 1.85-2.119c.148-.013.283 0 .418.014l.08.013c2.97.46 5.724 1.809 7.762 3.847a1.15 1.15 0 0 1 0 1.62 1.13 1.13 0 0 1-1.431.148z"/><path fill="url(#y)" d="M35.368 120.907v20.408h-8.693s.486-1.795 1.364-4.441c1.47-4.44 4.049-11.243 7.329-15.967"/><path fill="url(#z)" d="M35.368 131.396v9.906h-8.693s.486-1.795 1.364-4.44c3.9-.608 6.195-3.509 7.329-5.466" opacity=".5"/><path fill="url(#A)" d="M67.086 106.129c-10.028-.662-17.627-5.048-17.627-5.048v13.632s6.573 9.151 18.491 10.959c0 0 13.916-6.1 17.155-14.199l.472-15.63c-4.656 6.29-18.49 10.286-18.49 10.286"/><path fill="url(#B)" d="M85.2 108.518s-8.288 11.715-18.586 17.154l3.212 4.144s11.513-6.074 15.36-14.05v-7.248z"/><path fill="#fff" d="M110.992 4.279c-.297-2.66-.769-4.279-.769-4.279L64.427 38.75z" opacity=".2"/><path fill="#F87C38" d="M63.78 82.643s-3.766.027-3.712 2.24c.027 1.283 1.282 2.228 2.322 2.781a2.98 2.98 0 0 0 2.78 0c1.04-.553 2.294-1.485 2.321-2.78.054-2.227-3.711-2.24-3.711-2.24"/><path fill="#FFCA83" d="M51.2 87.407c2.46 0 4.454-.864 4.454-1.93s-1.994-1.93-4.454-1.93-4.454.864-4.454 1.93 1.994 1.93 4.454 1.93M78.748 87.407c2.46 0 4.454-.864 4.454-1.93s-1.994-1.93-4.454-1.93-4.454.864-4.454 1.93 1.994 1.93 4.454 1.93" opacity=".5"/><path fill="#F87C38" d="M63.887 95.547c-1.444 0-2.456-.257-2.483-.257-.122-.027-.19-.148-.163-.27.028-.121.149-.189.27-.162.068.014 6.816 1.715 10.19-3.968a.224.224 0 0 1 .298-.08.224.224 0 0 1 .08.296c-2.2 3.739-5.79 4.44-8.192 4.44"/><path fill="url(#C)" d="M48.65 140.479a2.3 2.3 0 0 1 .823-2.416c1.647-1.268 4.306-4.143 3.941-9.34-.526-7.477-9.394-9.002-11.58-8.381-2.187.62-3.145-3.199 0-4.765s10.001-3.712 16.102.472c6.1 4.185 31.745 35.93 31.745 35.93l.459-3.105h17.938s5.439 28.358-14.577 28.358c-19.639 0-37.171-39.263-37.171-39.263s-.513 3.077-4.927 4.157a2.306 2.306 0 0 1-2.753-1.647"/><path fill="#F87C38" d="m89.681 151.978 4.86 5.764s-1.58-5.291 0-8.868h-4.414z"/><path fill="url(#D)" d="M108.618 160.306c-2.727 4.306-6.897 7.91-13.268 8.396-16.83 1.282-30.584-15.32-30.652-15.387 6.965 11.014 17.533 23.917 28.79 23.917 11.324.013 14.509-9.043 15.13-16.926"/><path fill="url(#E)" d="m90.139 148.887 1.458-8.341h18.558a2.307 2.307 0 0 1 2.308 2.308v3.712a2.307 2.307 0 0 1-2.308 2.308H90.139z"/><path fill="url(#F)" d="M91.596 140.545s2.403-14.874 7.41-22.23c0 0 8.436 9.3 8.72 22.23z"/><path fill="url(#G)" d="M94.944 127.103c-2.254 6.668-3.348 13.443-3.348 13.443h16.13a27 27 0 0 0-.122-2.105c-9.38 1.16-11.958-7.059-12.66-11.338" opacity=".5"/><path fill="#FFCA83" d="M23.437 127.696c.728-4.656 3.927-7.72 3.927-7.72-3.833-2.645-3.928-7.774-3.928-7.774s-.094 5.115-3.927 7.774c0 0 3.199 3.064 3.927 7.72M115.608 101.512c.54-3.428 2.902-5.696 2.902-5.696-2.834-1.957-2.902-5.723-2.902-5.723s-.067 3.766-2.901 5.723c.013 0 2.362 2.268 2.901 5.696M107.51 88.069c.85-5.466 4.602-9.043 4.602-9.043-4.494-3.105-4.602-9.097-4.602-9.097s-.108 5.992-4.603 9.097c0 0 3.739 3.59 4.603 9.043"/><path fill="url(#H)" d="M43.938 140.235c5.703 0 10.325-4.623 10.325-10.325 0-5.703-4.622-10.326-10.325-10.326s-10.325 4.623-10.325 10.326c0 5.702 4.623 10.325 10.325 10.325"/><path fill="#FFCA83" d="M43.938 137.199a7.288 7.288 0 1 0 0-14.577 7.288 7.288 0 0 0 0 14.577" opacity=".5"/><path fill="url(#I)" d="m43.83 130.706-2.038.459-1.35-4.197a1.446 1.446 0 0 1 1.053-1.85 1.436 1.436 0 0 1 1.74 1.215z"/><path fill="url(#J)" d="m44.087 130.734 2.051.432 1.296-4.212a1.45 1.45 0 0 0-1.08-1.835 1.434 1.434 0 0 0-1.727 1.242z"/><path fill="url(#K)" d="M43.952 134.756a3.415 3.415 0 1 0 0-6.83 3.415 3.415 0 0 0 0 6.83"/><path fill="url(#L)" d="M4.46 142.111v5.656c0 2.051 8.368 3.725 18.694 3.725s18.693-1.66 18.693-3.725v-5.656z"/><path fill="url(#M)" d="M23.154 145.836c10.324 0 18.693-1.668 18.693-3.725s-8.37-3.725-18.693-3.725c-10.325 0-18.694 1.668-18.694 3.725s8.37 3.725 18.694 3.725"/><path fill="url(#N)" d="M29.105 142.922h-11.89a.54.54 0 0 1-.54-.54v-.527c0-.297.242-.54.54-.54h11.89c.297 0 .54.243.54.54v.527c0 .297-.243.54-.54.54"/><path fill="url(#O)" d="M5.486 152.032s11.446 3.482 11.446 8.922c0 4.305.243 10.069-4.751 10.298S1.167 167.392.749 160.954c-.432-6.438 1.592-11.446 4.75-11.014v2.092z"/><path fill="url(#P)" d="M.68 159.415c0 .499.028 1.012.055 1.525.432 6.438 6.438 10.527 11.432 10.298 2.524-.121 3.711-1.647 4.265-3.685-8.044.324-13.173-4.656-15.751-8.138"/><path fill="#F87C38" d="m5.485 152.032-1.269-.54s1.094-.175 1.269-.945z"/><defs><linearGradient id="a" x1="67.547" x2="67.547" y1="211.386" y2="98.034" gradientUnits="userSpaceOnUse"><stop stop-color="#03192E"/><stop offset=".17" stop-color="#0C233F"/><stop offset=".5" stop-color="#223C6A"/><stop offset="1" stop-color="#4A74A2"/></linearGradient><linearGradient id="b" x1="57.657" x2="57.657" y1="245.103" y2="110.377" gradientUnits="userSpaceOnUse"><stop stop-color="#03192E"/><stop offset=".17" stop-color="#0C233F"/><stop offset=".5" stop-color="#223C6A"/><stop offset="1" stop-color="#4A74A2"/></linearGradient><linearGradient id="c" x1="66.095" x2="66.095" y1="206.468" y2="146.517" gradientUnits="userSpaceOnUse"><stop stop-color="#386E9F"/><stop offset="1" stop-color="#fff"/></linearGradient><linearGradient id="d" x1="66.981" x2="66.981" y1="182.275" y2="37.442" gradientUnits="userSpaceOnUse"><stop stop-color="#03192E"/><stop offset=".17" stop-color="#0C233F"/><stop offset=".5" stop-color="#223C6A"/><stop offset="1" stop-color="#4A74A2"/></linearGradient><linearGradient id="e" x1="-5.408" x2="111.269" y1="136.933" y2=".939" gradientUnits="userSpaceOnUse"><stop stop-color="#FF2A64"/><stop offset="1" stop-color="#FFAF48"/></linearGradient><linearGradient id="f" x1="66.301" x2="66.301" y1="180.834" y2="52.226" gradientUnits="userSpaceOnUse"><stop stop-color="#386E9F"/><stop offset="1" stop-color="#fff"/></linearGradient><linearGradient id="g" x1="54.598" x2="82.629" y1="147.77" y2="147.77" gradientUnits="userSpaceOnUse"><stop stop-color="#03192E"/><stop offset=".17" stop-color="#0C233F"/><stop offset=".5" stop-color="#223C6A"/><stop offset="1" stop-color="#4A74A2"/></linearGradient><linearGradient id="h" x1="-45.363" x2="184.127" y1="144.378" y2="-44.932" gradientUnits="userSpaceOnUse"><stop stop-color="#FF2A64"/><stop offset="1" stop-color="#FFAF48"/></linearGradient><linearGradient id="i" x1="94.677" x2="94.677" y1="237.375" y2="67.157" gradientUnits="userSpaceOnUse"><stop stop-color="#FF2A64"/><stop offset="1" stop-color="#FFAF48"/></linearGradient><linearGradient id="j" x1="-27.986" x2="201.504" y1="165.443" y2="-23.867" gradientUnits="userSpaceOnUse"><stop stop-color="#FF2A64"/><stop offset="1" stop-color="#FFAF48"/></linearGradient><linearGradient id="k" x1="75.756" x2="75.756" y1="84.511" y2="61.069" gradientUnits="userSpaceOnUse"><stop stop-color="#03192E"/><stop offset=".17" stop-color="#0C233F"/><stop offset=".5" stop-color="#223C6A"/><stop offset="1" stop-color="#4A74A2"/></linearGradient><linearGradient id="l" x1="52.737" x2="52.737" y1="84.511" y2="61.069" gradientUnits="userSpaceOnUse"><stop stop-color="#03192E"/><stop offset=".17" stop-color="#0C233F"/><stop offset=".5" stop-color="#223C6A"/><stop offset="1" stop-color="#4A74A2"/></linearGradient><linearGradient id="m" x1="23.154" x2="23.154" y1="204.589" y2="111.522" gradientUnits="userSpaceOnUse"><stop stop-color="#fff"/><stop offset="1" stop-color="#B5E0F7"/></linearGradient><linearGradient id="n" x1="23.153" x2="23.153" y1="207.499" y2="184.312" gradientUnits="userSpaceOnUse"><stop stop-color="#fff"/><stop offset="1" stop-color="#B5E0F7"/></linearGradient><linearGradient id="o" x1="24.108" x2="39.648" y1="175.505" y2="147.946" gradientUnits="userSpaceOnUse"><stop stop-color="#FF2A64"/><stop offset="1" stop-color="#FFAF48"/></linearGradient><linearGradient id="p" x1="23.75" x2="31.992" y1="189.534" y2="150.47" gradientUnits="userSpaceOnUse"><stop stop-color="#FF2A64"/><stop offset="1" stop-color="#FFAF48"/></linearGradient><linearGradient id="q" x1="37.02" x2="24.828" y1="155.185" y2="170.725" gradientUnits="userSpaceOnUse"><stop stop-color="#fff"/><stop offset="1" stop-color="#F9E4CE"/></linearGradient><linearGradient id="r" x1="34.869" x2="22.677" y1="153.498" y2="169.038" gradientUnits="userSpaceOnUse"><stop stop-color="#fff"/><stop offset="1" stop-color="#F9E4CE"/></linearGradient><linearGradient id="s" x1="36.078" x2="23.887" y1="154.447" y2="169.987" gradientUnits="userSpaceOnUse"><stop stop-color="#fff"/><stop offset="1" stop-color="#F9E4CE"/></linearGradient><linearGradient id="t" x1="28.204" x2="-7.339" y1="193.666" y2="142.797" gradientUnits="userSpaceOnUse"><stop stop-color="#FF2A64"/><stop offset="1" stop-color="#FFAF48"/></linearGradient><linearGradient id="u" x1="37.737" x2="5.799" y1="199.192" y2="161.588" gradientUnits="userSpaceOnUse"><stop stop-color="#FF2A64"/><stop offset="1" stop-color="#FFAF48"/></linearGradient><linearGradient id="v" x1="13.035" x2="22.823" y1="171.513" y2="185.25" gradientUnits="userSpaceOnUse"><stop stop-color="#fff"/><stop offset="1" stop-color="#F9E4CE"/></linearGradient><linearGradient id="w" x1="15.265" x2="25.052" y1="169.924" y2="183.661" gradientUnits="userSpaceOnUse"><stop stop-color="#fff"/><stop offset="1" stop-color="#F9E4CE"/></linearGradient><linearGradient id="x" x1="14.094" x2="23.881" y1="170.759" y2="184.496" gradientUnits="userSpaceOnUse"><stop stop-color="#fff"/><stop offset="1" stop-color="#F9E4CE"/></linearGradient><linearGradient id="y" x1="31.012" x2="31.012" y1="203.377" y2="129.191" gradientUnits="userSpaceOnUse"><stop stop-color="#03192E"/><stop offset=".17" stop-color="#0C233F"/><stop offset=".5" stop-color="#223C6A"/><stop offset="1" stop-color="#4A74A2"/></linearGradient><linearGradient id="z" x1="31.012" x2="31.012" y1="180.369" y2="110.114" gradientUnits="userSpaceOnUse"><stop stop-color="#03192E"/><stop offset=".17" stop-color="#0C233F"/><stop offset=".5" stop-color="#223C6A"/><stop offset="1" stop-color="#4A74A2"/></linearGradient><linearGradient id="A" x1="67.523" x2="67.523" y1="25.125" y2="160.114" gradientUnits="userSpaceOnUse"><stop stop-color="#FF2A64"/><stop offset="1" stop-color="#FFAF48"/></linearGradient><linearGradient id="B" x1="75.909" x2="75.909" y1="209.045" y2="87.532" gradientUnits="userSpaceOnUse"><stop stop-color="#386E9F"/><stop offset="1" stop-color="#fff"/></linearGradient><linearGradient id="C" x1="198.861" x2="62.609" y1="256.199" y2="131.538" gradientUnits="userSpaceOnUse"><stop stop-color="#FF2A64"/><stop offset="1" stop-color="#FFAF48"/></linearGradient><linearGradient id="D" x1="172.161" x2="75.574" y1="227.606" y2="151.11" gradientUnits="userSpaceOnUse"><stop stop-color="#FF2A64"/><stop offset="1" stop-color="#FFAF48"/></linearGradient><linearGradient id="E" x1="101.3" x2="101.3" y1="160.608" y2="115.765" gradientUnits="userSpaceOnUse"><stop stop-color="#386E9F"/><stop offset="1" stop-color="#fff"/></linearGradient><linearGradient id="F" x1="99.656" x2="99.656" y1="203.377" y2="129.19" gradientUnits="userSpaceOnUse"><stop stop-color="#03192E"/><stop offset=".17" stop-color="#0C233F"/><stop offset=".5" stop-color="#223C6A"/><stop offset="1" stop-color="#4A74A2"/></linearGradient><linearGradient id="G" x1="99.656" x2="99.656" y1="180.369" y2="110.114" gradientUnits="userSpaceOnUse"><stop stop-color="#03192E"/><stop offset=".17" stop-color="#0C233F"/><stop offset=".5" stop-color="#223C6A"/><stop offset="1" stop-color="#4A74A2"/></linearGradient><linearGradient id="H" x1="43.932" x2="43.932" y1="157.955" y2="110.556" gradientUnits="userSpaceOnUse"><stop stop-color="#FF2A64"/><stop offset="1" stop-color="#FFAF48"/></linearGradient><linearGradient id="I" x1="42.096" x2="42.096" y1="121.386" y2="141.659" gradientUnits="userSpaceOnUse"><stop stop-color="#fff"/><stop offset="1" stop-color="#F9E4CE"/></linearGradient><linearGradient id="J" x1="45.794" x2="45.794" y1="121.386" y2="141.66" gradientUnits="userSpaceOnUse"><stop stop-color="#fff"/><stop offset="1" stop-color="#F9E4CE"/></linearGradient><linearGradient id="K" x1="43.946" x2="43.946" y1="121.386" y2="141.66" gradientUnits="userSpaceOnUse"><stop stop-color="#fff"/><stop offset="1" stop-color="#F9E4CE"/></linearGradient><linearGradient id="L" x1="23.155" x2="23.155" y1="128.703" y2="198.657" gradientUnits="userSpaceOnUse"><stop stop-color="#386E9F"/><stop offset="1" stop-color="#fff"/></linearGradient><linearGradient id="M" x1="23.155" x2="23.155" y1="146.068" y2="96.341" gradientUnits="userSpaceOnUse"><stop stop-color="#386E9F"/><stop offset="1" stop-color="#fff"/></linearGradient><linearGradient id="N" x1="23.154" x2="23.154" y1="144.138" y2="140.113" gradientUnits="userSpaceOnUse"><stop stop-color="#03192E"/><stop offset=".17" stop-color="#0C233F"/><stop offset=".5" stop-color="#223C6A"/><stop offset="1" stop-color="#4A74A2"/></linearGradient><linearGradient id="O" x1="-52.501" x2="12.577" y1="188.731" y2="158.853" gradientUnits="userSpaceOnUse"><stop stop-color="#FF2A64"/><stop offset="1" stop-color="#FFAF48"/></linearGradient><linearGradient id="P" x1="-52.246" x2="22.791" y1="167.613" y2="164.694" gradientUnits="userSpaceOnUse"><stop stop-color="#FF2A64"/><stop offset="1" stop-color="#FFAF48"/></linearGradient></defs></svg>