<svg xmlns="http://www.w3.org/2000/svg" width="282" height="193" fill="none"><path fill="url(#a)" d="M161.96 181.051c49.996 0 90.525-40.529 90.525-90.525S211.956 0 161.96 0 71.434 40.53 71.434 90.526s40.53 90.525 90.526 90.525"/><path fill="url(#b)" d="M161.958 159.051c37.846 0 68.526-30.68 68.526-68.526S199.804 22 161.958 22 93.432 52.68 93.432 90.526s30.68 68.526 68.526 68.526"/><path fill="url(#c)" d="M63.586 114.532s-3.916-24.42 16.87-34.83c20.788-10.408 41.13 7.514 41.13 7.514s10.237-21.221 32.843-18.745 31.661 13.137 31.661 13.137 13.228-16.619 34.622-9.51c21.393 7.11 21.995 22.738 21.995 22.738s23.045-2.395 20.635 23.313c0 0 23.465 8.388 17.685 33.546s-28.23 32.843-50.528 18.377c0 0-10.838 21.287-40.068 7.256 0 0-8.469 16.093-47.547 15.663s-51.427-31.064-51.427-31.064-13.86 18.65-44.894 12.051c-31.035-6.599-31.03-57.587 17.023-59.446"/><path fill="url(#d)" d="M86.354 77.464a30.5 30.5 0 0 0-5.896 2.238c-20.787 10.409-16.871 34.829-16.871 34.829s4.84.137 10.944.93c0 0-3.537-8.262-2.092-19.832 1.03-8.15 6.255-14.88 13.915-18.165"/><path fill="url(#e)" d="M253.172 118.144S237.129 97.458 213.325 98.6c-23.803 1.142-34.919 14.713-34.919 14.713s-.895-12.631-19.534-19.907c-18.64-7.277-29.362 7.144-29.362 7.144s-10.864-14.223-27.922-5.922-9.363 28.063-9.363 28.063a8.21 8.21 0 0 0-6.215 7.453c-33.282 5.998-32.55 37.724-31.938 44.97 25.769 2.42 37.39-13.208 37.39-13.208s4.75 11.758 17.685 20.807c8.196-43.277 53.312-42.564 53.312-42.564s3.446-11.728 19.529-17.18 31.292 3.128 31.292 3.128c6.028-10.545 15.517-5.502 15.517-5.502 12.698-10.707 24.375-2.451 24.375-2.451"/><path fill="url(#f)" d="M165.703 67.783s1.091-5.725 12.702-5.613c11.612.11 12.026 3.602 12.026 3.602l-.945 5.558-2.183 3.88-3.916 2.901h-9.812l-6.402-3.35z"/><path fill="url(#g)" d="m185.01 34.267 43.166-31.474s4.598 12.632-7.286 24.628c-9.646 9.746-27.649 11.545-34.096 11.879a2.78 2.78 0 0 1-2.865-2.198 2.783 2.783 0 0 1 1.081-2.835"/><path fill="url(#h)" d="M219.95 28.32c-9.828 8.959-26.911 10.657-33.157 10.98a2.78 2.78 0 0 1-2.385-1.147l43.864-23.243a4 4 0 0 0-.066.253c-.02.086-.056.207-.086.313-.076.268-.162.536-.248.803l-.06.182c-.091.273-.187.551-.288.824l-.121.313q-.138.352-.283.703l-.112.262q-.203.47-.429.94l-.126.253c-.127.247-.253.505-.389.748l-.162.298c-.177.318-.359.636-.556.955l-.03.055a25 25 0 0 1-.622.96l-.197.293c-.182.263-.369.506-.566.794l-.166.232c-.253.328-.506.662-.784 1.01l-.192.228q-.334.402-.692.803c-.086.091-.167.187-.252.283-.309.334-.622.672-.955 1.01-.334.34-.602.597-.915.88z"/><path fill="url(#i)" d="m218.983 9.499 9.191-6.706s4.598 12.632-7.286 24.628a33.1 33.1 0 0 1-6.892 5.285c5.75-8.56 5.67-17.675 4.987-23.208"/><path fill="#FFCA83" d="M183.872 36.531a2.8 2.8 0 0 1 1.137-2.263l10.293-7.489L228.195 2.8s.076.212.187.601q.036.137.076.303v.046q.037.158.076.338a1 1 0 0 1 0 .081q.038.172.075.359c0 .04 0 .086.026.131.025.122.045.243.07.37v.05z" opacity=".6"/><path fill="url(#j)" d="M95.764 168.112s-2.486 4.29-2.021 8.888c.268 2.856.29 5.73.065 8.59 0 0-3.001-4.624-11.06-4.917s-22.147-5.558-29.604-5.795c-.642-4.068 1.733-6.968 8.887-6.948 7.155.02 21.621-.657 22.9-5.629z"/><path fill="url(#k)" d="M89.786 190.085c2.34-.141 5.174-3.714 3.537-7.139-2.466-5.099-15.4-3.841-24.703-7.494s-15.583-5.234-15.517-.828c.035 2.445 3.875 5.497 13.405 8.963s15.714 6.953 23.278 6.498"/><path fill="url(#l)" d="M155.841 110.418s-42.726-7.382-49.396-3.825-7.907 7.963-12.632 20.388-10.393 38.037-10.393 38.037a19.28 19.28 0 0 1 12.424 5.053s16.927-26.067 19.12-41.509c0 0 1.956.152 2.562-.975l37.057 9.095z"/><path fill="url(#m)" d="M108.141 119.978s-2.657 25.734-15.087 47.966a18.3 18.3 0 0 1 2.769 2.122s16.947-26.062 19.14-41.503c0 0 1.955.151 2.561-.975l37.057 9.095 1.264-26.275s-12.961-2.238-25.719-3.653c.192 5.816-2.466 15.017-21.985 13.223"/><path fill="url(#n)" d="M36.17 160.679a3.97 3.97 0 0 0-3.275 3.916c-.192 3.501 2.673 11.257 11.712 13.329s12.203 2.147 14.613 3.653 8.772 1.622 9.565-3.087-32.616-17.811-32.616-17.811"/><path fill="url(#o)" d="M70.741 157s-2.708 1.051-9.64 3.032c-6.69 1.93-19.706-.637-23.723-.111-4.017.525-5.2 8.64 3.764 14.253 8.964 5.614 15.745 4.406 18.645 5.558s7.832 1.996 10.954-2.334 6.326-10.894 6.326-10.894z"/><path fill="url(#p)" d="M43.608 160.143c1.516 2.652 1.01 6.401 2.243 7.796.884 1.011 11.56 4.012 14.274-.793 1.733-3.067.9-4.745-.879-6.695-4.517.732-10.778.091-15.638-.308"/><path fill="url(#q)" d="M45.83 160.648c1.127 1.101 2.188 3.031 1.95 6.422a.93.93 0 0 0 .85 1.01l.47.041a.95.95 0 0 0 .705-.241.93.93 0 0 0 .305-.679c0-1.824-.323-5.71-3.032-7.933a.93.93 0 0 0-.646-.197.93.93 0 0 0-.805.596.93.93 0 0 0 .203.981"/><path fill="url(#r)" d="M52.218 160.477c1.121 1.106 2.182 3.031 1.945 6.422a.94.94 0 0 0 .849 1.01l.47.036a.93.93 0 0 0 .93-.543.9.9 0 0 0 .08-.372c0-1.824-.323-5.715-3.031-7.938a.9.9 0 0 0-.642-.192.926.926 0 0 0-.601 1.577"/><path fill="url(#s)" d="M76.39 153.817s-6.285-.394-6.963 3.107 2.633 12.279 6.625 12.991c3.991.713 6.967-3.41 6.967-3.41s-6.457-10.071-6.629-12.688"/><path fill="url(#t)" d="M174.588 126.082s-9.515 4.912-12.168 14.062c0 0-19.114-.697-19.705-.318-.592.379-3.654 2.446-5.053 2.072 0 0-24.385 25.648-54.833 24.571 0 0-6.215-5.815-6.442-12.632 0 0 29.811-12.99 39.942-20.959s17.281-15.421 25.896-17.255 39.219-6.245 39.219-6.245z"/><path fill="url(#u)" d="m174.585 126.082 6.852-16.725s-30.6 4.406-39.19 6.246l-.394.091c7.074 4.335 17.149 12.485 18.696 24.384l1.899.066c2.633-9.151 12.137-14.062 12.137-14.062"/><path fill="url(#v)" d="M177.729 117.264a34.44 34.44 0 0 0-20.944-4.082l13.102-35.476 12.874 1.668z"/><path fill="url(#w)" d="M171.276 65.023s-1.642 9.833-1.991 12.375 4.32 3.537 7.64 3.446 6.483-.738 6.831-2.997-.581-14.46-.581-14.46z"/><path fill="url(#x)" d="M170.196 71.593a14.23 14.23 0 0 0 12.566-4.39l-9.661-2.4-1.824.247s-.551 3.274-1.081 6.543"/><path fill="url(#y)" d="M165.071 40.63s0 9.938-.505 12.01-3.436 5.33-.46 11.116 12.945 7.539 20.322 4.234c8.206-3.668 11.253-8.923 10.076-17.684-1.42-10.424-7.286-13.926-14.568-13.107-7.281.818-14.865 3.43-14.865 3.43"/><path fill="url(#z)" d="M184.407 41.984s.622 7.831 7.554 10.808c0 0-.227 4.633 1.617 5.007s4.785-7.68 3.729-15.815-13.86-13.688-22.369-7.873c0 0 .167-4.78-5.482-4.78s-9.6 6.514-5.25 12.991l.728 5.8 1.268-5.461s10.085 3.88 18.205-.677"/><path fill="url(#A)" d="m190.756 42.008-4.169 6.124a11.8 11.8 0 0 0 5.391 4.659q-.024.727.026 1.455l4.31-7.331z"/><path fill="url(#B)" d="m193.69 41.301 50.356 17.816s-7.816 10.935-24.435 7.913c-13.491-2.445-25.153-16.285-29.069-21.419a2.786 2.786 0 0 1 3.148-4.31"/><path fill="url(#C)" d="M218.338 66.767c-12.946-3.032-24.001-16.17-27.791-21.156a2.76 2.76 0 0 1-.399-2.612l43.959 23.06-.242.086-.313.106a13 13 0 0 1-.799.253l-.187.056c-.278.08-.556.156-.844.227l-.323.076-.743.162-.278.06c-.333.06-.672.121-1.01.172l-.283.04-.834.101-.338.036q-.54.054-1.102.086h-.061c-.378 0-.757.03-1.147.035h-1.611c-.415 0-.834-.045-1.264-.086h-.298l-1.051-.121-.379-.05a29 29 0 0 1-2.612-.476z"/><path fill="url(#D)" d="m233.325 55.328 10.722 3.79s-7.817 10.934-24.435 7.912a33 33 0 0 1-8.251-2.698c10.307-.09 17.796-5.31 21.964-9.004"/><path fill="#FFCA83" d="M191.179 41.64a2.79 2.79 0 0 1 2.527-.34l11.985 4.24 38.355 13.577s-.131.182-.389.505l-.202.237-.035.036-.232.258-.061.06c-.076.086-.162.172-.253.268l-.091.091c-.086.086-.172.177-.268.268l-.035.035z" opacity=".6"/><path fill="url(#E)" d="M177.299 50.063a5.47 5.47 0 0 1 3.603.237c1.905.814 2.021-.55.97-1.313s-3.168-1.334-4.649-.607-.899 1.86.076 1.683"/><path fill="url(#F)" d="M170.21 49.775a5.47 5.47 0 0 0-3.608-.147c-1.98.607-1.965-.768-.823-1.414 1.142-.647 3.294-1.01 4.684-.101 1.389.91.697 1.945-.253 1.662"/><path fill="#FFCA83" d="M182.047 58.103c1.856-.09 3.323-.93 3.277-1.875-.047-.945-1.589-1.637-3.445-1.546-1.857.09-3.324.93-3.277 1.875s1.588 1.637 3.445 1.546M168.812 56.305c.013-.946-1.053-1.728-2.381-1.747s-2.416.733-2.429 1.679c-.014.946 1.052 1.728 2.38 1.747 1.329.018 2.416-.733 2.43-1.679" opacity=".6"/><path fill="url(#G)" d="M181.036 53.994c.13-1.535-.707-2.86-1.869-2.958s-2.21 1.066-2.34 2.6c-.13 1.536.706 2.86 1.869 2.959 1.162.098 2.21-1.066 2.34-2.601"/><path fill="#fff" d="M178.405 52.877a.671.671 0 1 0 .001-1.343.671.671 0 0 0-.001 1.343"/><path fill="url(#H)" d="M170.187 53.787c.13-1.535-.707-2.86-1.869-2.958s-2.21 1.066-2.34 2.6c-.13 1.536.706 2.86 1.868 2.959 1.163.098 2.211-1.066 2.341-2.601"/><path fill="#fff" d="M167.548 52.675a.672.672 0 1 0 0-1.345.672.672 0 0 0 0 1.345"/><path fill="url(#I)" d="M173.281 57.556a.2.2 0 0 0 .187 0c.313-.172 1.319-.788 1.097-1.384-.263-.703-2.299-.612-2.461-.127-.248.743.844 1.35 1.177 1.511"/><path fill="url(#J)" d="M176.698 59.719a.38.38 0 0 0-.551.116 3.3 3.3 0 0 1-1.894 1.516 2.72 2.72 0 0 1-2.229-.117.38.38 0 0 0-.505.142.373.373 0 0 0 .121.505 3.3 3.3 0 0 0 2.982.192c1.515-.55 2.061-1.41 2.258-1.854a.37.37 0 0 0-.121-.45z"/><path fill="url(#K)" d="M179.543 81.627s1.425-7.134 1.682-8.832c.258-1.698 2.047-2.203 3.856-3.143s5.088-1.698 5.35-3.88c0 0 1.88 5.557 2.183 6.755s-5.255 6.801-13.071 9.1"/><path fill="url(#L)" d="M161.179 73.523s-8.352 1.47-17.73 7.665-21.585 12.091-22.995 18.069 4.042 13.915 17.326 8.291c13.051-5.522 29.64-15.987 29.64-15.987z"/><path fill="url(#M)" d="M127.958 66.455s-.217-4.26-1.208-5.902c-.99-1.642-3.299-6.655-2.127-9.095s9.565-2.754 9.565-2.754 1.718 6.321 2.764 6.392c1.046.07 2.582-4.467 4.674-4.942s3.537.758 2.086 2.415c-1.45 1.658-2.713 2.91-2.859 5.008-.147 2.097-1.976 4.85-3.002 5.912-1.025 1.06-.899 4.982-.899 4.982z"/><path fill="url(#N)" d="m140.055 53.615-3.567 6.23a1.81 1.81 0 0 1-2.205.787 1.8 1.8 0 0 1-.696-.474l-5.391-5.922z"/><path fill="url(#O)" d="M127.757 64.336c.151 1.173.202 2.118.202 2.118l8.994 2.02s-.127-3.92.899-4.981c1.026-1.062 2.855-3.81 3.001-5.912 0-.111.036-.217.046-.329-.96 1.612-2.239 2.158-3.593 4.922-1.035 2.112-4.881 3.825-9.549 2.162"/><path fill="url(#P)" d="m146.3 40.725-6.454-4.19a2.375 2.375 0 0 0-3.285.697l-9.029 13.904a2.375 2.375 0 0 0 .698 3.285l6.454 4.191c1.1.715 2.571.402 3.285-.698l9.03-13.904c.714-1.1.401-2.57-.699-3.285"/><path fill="url(#Q)" d="m145.621 41.298-6.013-3.905a1.854 1.854 0 0 0-2.565.545l-8.674 13.357a1.854 1.854 0 0 0 .545 2.565l6.013 3.905a1.854 1.854 0 0 0 2.565-.545l8.675-13.357a1.855 1.855 0 0 0-.546-2.565"/><path fill="url(#R)" d="M138.711 47.728s1.354.263 1.854-.252a.712.712 0 0 0-.642-1.172s1.915-.678 1.061-1.926c-.768-1.126-2.182.142-2.182.142s.323-.88-.258-1.218-1.794.733-1.678 1.728z"/><path fill="url(#S)" d="M138.554 47.02q.02.033.056.041h1.177a.1.1 0 0 0 .02-.004.1.1 0 0 0 .017-.012l.009-.019v-.02a.07.07 0 0 0-.021-.039.07.07 0 0 0-.04-.017H138.6a.04.04 0 0 0-.02.004.04.04 0 0 0-.016.013.04.04 0 0 0-.01.018v.036"/><path fill="url(#T)" d="M138.287 46.177a.05.05 0 0 0 .07 0l1.87-1.112a.1.1 0 0 0 .013-.017l.004-.02-.004-.021-.013-.017a.05.05 0 0 0-.071 0l-1.844 1.146a.1.1 0 0 0-.018.018.1.1 0 0 0-.007.023"/><path fill="url(#U)" d="m137.428 45.373.026.03a.05.05 0 0 0 .07 0l.597-1.04a.06.06 0 0 0 .015-.038.06.06 0 0 0-.031-.05.045.045 0 0 0-.055.012l-.596 1.046a.1.1 0 0 0-.019.017.1.1 0 0 0-.007.023"/><path fill="url(#V)" d="m134.405 46.035-.268.278c-1.046 1.152-1.748 2.576-1.192 3.39.338.505 1.056.637 1.89.546q.21-.02.419-.061a7.9 7.9 0 0 0 2.446-.94l.323-.202q.128-.085.248-.177c1.566-1.187.303-3.031.303-3.031s-1.258-1.845-2.931-.809a7.5 7.5 0 0 0-1.238 1.006"/><path fill="url(#W)" d="M136.579 47.233h-.03a.176.176 0 0 0-.071.119.17.17 0 0 0 .036.134l1.187 1.768.318-.202-1.197-1.753a.18.18 0 0 0-.243-.066"/><path fill="url(#X)" d="m134.406 46.035-.267.278.95 1.394a.187.187 0 0 0 .252.06h.031a.181.181 0 0 0 .071-.121.17.17 0 0 0-.036-.136z"/><path fill="url(#Y)" d="M134.002 48.668h-.03a.18.18 0 0 0-.067.12.18.18 0 0 0 .036.133l.895 1.313q.212-.021.419-.065l-1.01-1.46a.183.183 0 0 0-.243-.04"/><path fill="url(#Z)" d="m137.308 73.29-.112-6.447a.7.7 0 0 0-.493-.661.7.7 0 0 0-.29-.031c-1.581.146-5.275.358-7.917-.581a.715.715 0 0 0-.935.505l-1.415 5.639s5.866 3.395 11.162 1.576"/><path fill="url(#aa)" d="M137.306 73.29s-6.68 1.207-11.167-1.592c0 0-6.063 23.339-5.896 30.079s7.978 8.181 10.105 7.378c1.087-.42 7.66-1.905 8.322-12.355.662-10.449-1.364-23.51-1.364-23.51"/><path fill="url(#ab)" d="m137.196 47.591-8.348-.434s-.818-2.987 1.355-3.482 9.095.753 9.559 1.36c.465.606-.091 2.687-2.566 2.556"/><path fill="url(#ac)" d="m135.947 51.098-9.6-.742s-.819-2.987 1.354-3.482 10.343 1.061 10.823 1.667-.101 2.689-2.577 2.557"/><path fill="url(#ad)" d="M124.355 52.372a2.025 2.025 0 0 1 2.411-.576 62 62 0 0 0 6.002 2.4c1.072.303 2.658-1.314.773-2.673-1.884-1.36-4.299-2.365-5.361-2.526-1.935-.294-3.562 1.086-3.825 3.375"/><path fill="url(#ae)" d="m171.752 81.188-5.882 33.09s-10.166-.909-13.703-3.289c0 0 2.259-32.136 5.053-35.147s9.196-3.315 9.196-3.315.814 6.326 5.336 8.66"/><path fill="url(#af)" d="M171.751 81.188s-4.876-2.526-6.407-7.645c-.622-2.086.358-5.76.358-5.76s1.173 2.021 4.962 3.345c.925.319 1.38 1.385 1.344 2.365z"/><path fill="url(#ag)" d="M174.586 126.082s1.824-27.593 4.947-44.464l13.071-9.096 9.792 1.355s-10.924 12.581 0 27.042c0 0-.682 12.804-.682 21.313-19.175-2.481-27.128 3.85-27.128 3.85"/><path fill="url(#ah)" d="M227.701 113.819c-6.569-2.385-16.578-8.357-25.294-12.895-8.378-4.36-7.928-25.233 0-27.042 0 0 5.558.505 13.46 7.746 7.903 7.24 22.596 18.806 24.067 23.212 1.975 5.932-4.634 11.748-12.233 8.979"/><path fill="url(#ai)" d="m166.233 118.416 14.704-7.817a1.05 1.05 0 0 0-.288-1.965l-34.157-6.326a1.04 1.04 0 0 0-.632.081l-13.137 6.063a1.051 1.051 0 0 0 .187 1.976l32.616 8.084c.239.051.49.017.707-.096"/><path fill="url(#aj)" d="m162.313 116.471 10.075-5.361a.72.72 0 0 0-.207-1.344l-23.405-4.33a.7.7 0 0 0-.434.051l-9.014 4.158a.715.715 0 0 0-.242 1.122.7.7 0 0 0 .373.227l22.343 5.533a.72.72 0 0 0 .511-.056"/><path fill="url(#ak)" d="m129.498 108.68-9.812-26.826a1.614 1.614 0 0 1 .924-2.06c.26-.102.542-.136.819-.097l32.439 4.547a4.65 4.65 0 0 1 3.769 3.128l9.6 28.629a1.61 1.61 0 0 1-.318 1.585 1.612 1.612 0 0 1-1.531.517l-32.429-6.437a4.65 4.65 0 0 1-3.461-2.986"/><path fill="url(#al)" d="m128.935 109.317-9.812-26.78a1.62 1.62 0 0 1 .924-2.063c.26-.103.542-.137.819-.1l32.439 4.548a4.66 4.66 0 0 1 3.769 3.133l9.6 28.629a1.619 1.619 0 0 1-1.849 2.102l-32.429-6.503a4.7 4.7 0 0 1-2.118-1.031 4.7 4.7 0 0 1-1.343-1.935"/><path fill="url(#am)" d="M146.75 100.364s2.734.263 3.613-.864-.399-2.527-1.516-2.193c0 0 3.658-1.713 1.728-4.012-1.743-2.077-4.295.707-4.295.707s.475-1.809-.742-2.36-3.406 1.794-2.981 3.75z"/><path fill="url(#an)" d="M146.289 98.994q.016.034.045.052.03.02.066.019l2.33-.248a.09.09 0 0 0 .081-.076.1.1 0 0 0-.006-.04.12.12 0 0 0-.044-.073.13.13 0 0 0-.082-.028l-2.324.248a.1.1 0 0 0-.039.013.1.1 0 0 0-.028.029.1.1 0 0 0-.014.038.1.1 0 0 0 .005.041s.01.02.01.025"/><path fill="url(#ao)" d="M145.573 97.388a.116.116 0 0 0 .151.03l3.421-2.628a.1.1 0 0 0 .03-.075.11.11 0 0 0-.03-.076.106.106 0 0 0-.147-.025l-3.425 2.622a.1.1 0 0 0-.035.076.1.1 0 0 0 .035.076"/><path fill="url(#ap)" d="M143.723 95.956a.14.14 0 0 0 .05.056.1.1 0 0 0 .08.01.1.1 0 0 0 .062-.05l.975-2.178a.11.11 0 0 0 .003-.085.11.11 0 0 0-.059-.062.085.085 0 0 0-.078-.016.1.1 0 0 0-.036.021.1.1 0 0 0-.022.035l-.98 2.178a.1.1 0 0 0-.009.046.1.1 0 0 0 .014.045"/><path fill="url(#aq)" d="m137.872 97.857-.48.606c-1.839 2.476-2.961 5.437-1.697 6.937.768.915 2.218 1.056 3.85.718q.412-.086.813-.212a15.5 15.5 0 0 0 4.664-2.33 12 12 0 0 0 1.056-.869c2.87-2.652 0-6.063 0-6.063s-2.855-3.395-5.962-1.01a14.5 14.5 0 0 0-2.244 2.223"/><path fill="url(#ar)" d="m142.404 99.808-.061.05a.37.37 0 0 0 0 .506l2.698 3.214c.208-.152.405-.309.597-.46l-2.714-3.24a.355.355 0 0 0-.52-.07"/><path fill="url(#as)" d="m137.873 97.857-.48.606 2.158 2.572a.4.4 0 0 0 .105.094.35.35 0 0 0 .273.039.4.4 0 0 0 .127-.062l.056-.051a.363.363 0 0 0 0-.505z"/><path fill="url(#at)" d="m137.585 103.142-.056.046a.363.363 0 0 0 0 .505l2.021 2.415c.273-.055.541-.121.819-.207l-2.264-2.698a.35.35 0 0 0-.247-.143.36.36 0 0 0-.273.082"/><path fill="url(#au)" d="M195.807 102.298s-4.482-2.233-6.948-4.406c-2.779-2.455-8.807-3.279-12.536-1.753s-11.414 7.579-11.924 8.418c-.511.839 2.485 2.314 5.31.505a72 72 0 0 0 6.175-4.633 4.703 4.703 0 0 0-1.703 4.365c.424 2.825 3.946 6.478 4.315 6.65s1.581-1.299.818-3.108c-.763-1.808-1.384-3.218-1.384-3.218l2.456-3.365s-1.693 2.713-1.516 3.759 2.526 6.063 2.849 6.24 2.572-1.41 1.809-3.304a32 32 0 0 0-1.329-2.936l.794-1.071s1.212 7.372 12.793 5.366z"/><path fill="url(#av)" d="M184.925 107.735c1.712 1.652 4.926 3.108 10.888 2.077v-7.514s-.98-.505-2.273-1.233c-.647 2.734-2.683 7.994-8.615 6.67"/><path fill="url(#aw)" d="m203.608 100.923-7.983.228a.954.954 0 0 0-.901.714.95.95 0 0 0-.019.407c.278 1.663.678 4.902.081 7.408a.96.96 0 0 0 .773 1.152l7.408 1.339s2.9-6.129.641-11.248"/><path fill="url(#ax)" d="M203.608 100.925s1.768 6.568-.642 11.257c0 0 23.748 4.042 30.468 3.335 6.721-.707 7.478-8.645 6.498-10.677-.505-1.045-2.526-7.473-13.011-7.245s-23.313 3.33-23.313 3.33"/><path fill="url(#ay)" d="M66.93 171.046a9.465 9.465 0 0 0-9.372 8.206 9.4 9.4 0 0 1 2.228.505c2.895 1.167 7.832 1.996 10.955-2.334.864-1.198 1.728-2.562 2.526-3.911a9.42 9.42 0 0 0-6.336-2.466"/><path fill="url(#az)" d="M261.761 73.77s2.173-4.84.657-7.15c-1.516-2.309-4.866-.828-4.947 1.385 0 0-.874-7.766-6.28-5.65-4.881 1.906-1.365 8.308-1.365 8.308s-3.031-1.991-4.78-.101c-1.748 1.89 1.178 7.346 5.018 7.78z"/><path fill="url(#aA)" d="M258.967 73.77a.23.23 0 0 0 .202-.166l1.011-4.416a.2.2 0 0 0 .001-.077.2.2 0 0 0-.033-.07.171.171 0 0 0-.135-.066.23.23 0 0 0-.257.167l-.986 4.416a.2.2 0 0 0-.001.077.176.176 0 0 0 .168.135z"/><path fill="url(#aB)" d="M255.577 74.08h.046a.211.211 0 0 0 .146-.253l-2.688-7.898a.21.21 0 0 0-.268-.116.2.2 0 0 0-.153.172.2.2 0 0 0 .007.08l2.688 7.898a.196.196 0 0 0 .222.116"/><path fill="url(#aC)" d="M251.813 76.58a.23.23 0 0 0 .179-.123.18.18 0 0 0 0-.153.2.2 0 0 0-.047-.063l-3.386-3.137a.22.22 0 0 0-.303 0 .18.18 0 0 0-.064.139.18.18 0 0 0 .064.139l3.386 3.137a.19.19 0 0 0 .171.06"/><path fill="url(#aD)" d="m251.668 88.48.818 1.252c3.396 4.902 8.13 8.792 11.662 7.408 2.147-.844 3.299-3.41 3.689-6.61.065-.505.111-1.065.126-1.621a30 30 0 0 0-1.865-11.374c-.161-.445-.298-.733-.454-1.086-3.088-6.897-11.117-3.78-11.117-3.78s-7.988 3.123-5.558 10.282a27.7 27.7 0 0 0 2.699 5.528"/><path fill="url(#aE)" d="m258.048 81.38.055.147a.71.71 0 0 0 .93.349l7.579-2.951c-.146-.47-.313-.935-.505-1.38l-7.605 2.966a.7.7 0 0 0-.409.34.68.68 0 0 0-.045.53"/><path fill="url(#aF)" d="m251.666 88.48.818 1.253 6.063-2.36a.7.7 0 0 0 .45-.884l-.055-.137a.707.707 0 0 0-.93-.348z"/><path fill="url(#aG)" d="m261.171 92.275.056.136a.7.7 0 0 0 .93.349l5.689-2.224c.066-.53.106-1.066.121-1.621l-6.346 2.475a.7.7 0 0 0-.41.349.71.71 0 0 0-.04.536"/><path fill="url(#aH)" d="M51.06 43.504s2.177-4.84.662-7.15c-1.516-2.309-4.866-.823-4.972 1.39 0 0-.87-7.771-6.28-5.654-4.836 1.905-1.34 8.332-1.34 8.332s-3.032-1.99-4.785-.096c-2.046 4.735 6.013 7.842 10.54 9.191a3.54 3.54 0 0 0 4.149-1.834z"/><path fill="url(#aI)" d="M46.43 48.4h.046a.207.207 0 0 0 .147-.253l-3.992-11.04a.217.217 0 0 0-.273-.116.2.2 0 0 0-.141.252l3.992 11.04a.21.21 0 0 0 .222.117"/><path fill="url(#aJ)" d="M46.463 48.324v-.036a.207.207 0 0 0-.051-.288l-10.166-5.82a.207.207 0 0 0-.278.085.203.203 0 0 0 .05.283l10.192 5.826a.2.2 0 0 0 .252-.05"/><path fill="url(#aK)" d="M46.36 48.375h.046a.2.2 0 0 0 .258-.126l2.86-11.364a.213.213 0 0 0-.157-.248.21.21 0 0 0-.263.127l-2.86 11.378a.2.2 0 0 0 .117.233"/><path fill="#fff" d="M105.5 41.236c4.876 7.25 2.678 17.068-4.78 22.11-7.458 5.043-17.685 3.613-22.945-3.37-5.426-7.19-3.567-17.487 4.295-22.798 7.862-5.31 18.413-3.41 23.43 4.058"/><path fill="url(#aL)" d="M102.837 43.04c3.977 5.852 2.228 13.81-3.825 17.903s-14.32 2.9-18.554-2.774c-4.335-5.811-2.81-14.077 3.507-18.347 6.316-4.27 14.79-2.769 18.872 3.219"/><path fill="url(#aM)" d="m90.013 49.447-3.28 2.99-7.074-5.906a2.935 2.935 0 0 1-.07-4.446 3.223 3.223 0 0 1 4.638.273z"/><path fill="url(#aN)" d="m91.088 48.719 4.042-1.945-3.198-8.535a3.1 3.1 0 0 0-4.255-1.616 3.03 3.03 0 0 0-1.344 4.305z"/><path fill="url(#aO)" d="M97.617 58.967c4.173-2.82 5.351-8.292 2.597-12.279s-8.59-5.053-12.87-2.137-5.366 8.504-2.445 12.49 8.55 4.745 12.718 1.926"/><path fill="url(#aP)" d="M90.71 54.868a1.01 1.01 0 0 1-.101 1.46 1.117 1.117 0 0 1-1.45-.41 1.04 1.04 0 0 1 .096-1.464 1.086 1.086 0 0 1 1.455.414"/><path fill="url(#aQ)" d="M97.582 50.23a1.05 1.05 0 0 1-.116 1.47 1.1 1.1 0 0 1-1.44-.42 1.056 1.056 0 0 1 .11-1.475 1.07 1.07 0 0 1 1.446.425"/><path fill="url(#aR)" d="M27.877 74.67 2.297 85.533a2.496 2.496 0 0 0-1.321 3.273l7.023 16.538a2.496 2.496 0 0 0 3.273 1.322l25.58-10.863a2.496 2.496 0 0 0 1.321-3.273L31.15 75.99a2.496 2.496 0 0 0-3.273-1.321"/><path fill="url(#aS)" d="m7.421 85.326-4.716 2.003a.485.485 0 0 0-.257.636l.974 2.292c.105.247.39.362.636.257l4.716-2.002a.485.485 0 0 0 .257-.637l-.974-2.292a.485.485 0 0 0-.636-.257"/><path fill="url(#aT)" d="M41.146 80.318 14.17 86.994a2.496 2.496 0 0 0-1.824 3.023l4.317 17.441a2.497 2.497 0 0 0 3.022 1.824l26.977-6.676a2.497 2.497 0 0 0 1.823-3.023l-4.316-17.442a2.496 2.496 0 0 0-3.023-1.823"/><path fill="url(#aU)" d="m48.49 99.58-1.29-5.22-18.381-6.063-13.44 13.92 1.293 5.215a2.494 2.494 0 0 0 3.031 1.824l26.972-6.675a2.497 2.497 0 0 0 1.814-3.001"/><path fill="url(#aV)" d="M32.001 97.63 44.73 84.437l-.566-2.299a2.497 2.497 0 0 0-3.031-1.824l-26.957 6.68a2.496 2.496 0 0 0-1.824 3.031l.57 2.3 17.423 5.699A1.6 1.6 0 0 0 32 97.63"/><defs><linearGradient id="a" x1="161.96" x2="161.96" y1="173.983" y2="-42.176" gradientUnits="userSpaceOnUse"><stop stop-color="#fff"/><stop offset=".55" stop-color="#94DBF9"/><stop offset="1" stop-color="#08B3C9"/></linearGradient><linearGradient id="b" x1="161.958" x2="161.958" y1="219.74" y2="14.001" gradientUnits="userSpaceOnUse"><stop stop-color="#fff"/><stop offset=".55" stop-color="#94DBF9"/><stop offset="1" stop-color="#08B3C9"/></linearGradient><linearGradient id="c" x1="153.505" x2="153.505" y1="-66.894" y2="207.761" gradientUnits="userSpaceOnUse"><stop stop-color="#386E9F"/><stop offset="1" stop-color="#fff"/></linearGradient><linearGradient id="d" x1="78.694" x2="68.018" y1="60.699" y2="148.051" gradientUnits="userSpaceOnUse"><stop stop-color="#386E9F"/><stop offset="1" stop-color="#fff"/></linearGradient><linearGradient id="e" x1="164.46" x2="138.362" y1="53.367" y2="266.903" gradientUnits="userSpaceOnUse"><stop stop-color="#386E9F"/><stop offset="1" stop-color="#fff"/></linearGradient><linearGradient id="f" x1="178.304" x2="177.875" y1="85.473" y2="51.427" gradientUnits="userSpaceOnUse"><stop stop-color="#03192E"/><stop offset=".5" stop-color="#223C6A"/><stop offset="1" stop-color="#4A74A2"/></linearGradient><linearGradient id="g" x1="116.918" x2="227.421" y1="41.398" y2="19.702" gradientUnits="userSpaceOnUse"><stop stop-color="#FF2A64"/><stop offset="1" stop-color="#FFAF48"/></linearGradient><linearGradient id="h" x1="160.124" x2="229.744" y1="43.035" y2="20.736" gradientUnits="userSpaceOnUse"><stop stop-color="#FF2A64"/><stop offset="1" stop-color="#FFAF48"/></linearGradient><linearGradient id="i" x1="202.076" x2="246.622" y1="9.658" y2="24.973" gradientUnits="userSpaceOnUse"><stop stop-color="#FF2A64"/><stop offset="1" stop-color="#FFAF48"/></linearGradient><linearGradient id="j" x1="79.994" x2="59.51" y1="163.297" y2="212.253" gradientUnits="userSpaceOnUse"><stop stop-color="#386E9F"/><stop offset="1" stop-color="#fff"/></linearGradient><linearGradient id="k" x1="56.974" x2="131.608" y1="163.159" y2="237.238" gradientUnits="userSpaceOnUse"><stop stop-color="#03192E"/><stop offset=".5" stop-color="#223C6A"/><stop offset="1" stop-color="#4A74A2"/></linearGradient><linearGradient id="l" x1="128.369" x2="69.848" y1="143.802" y2="103.127" gradientUnits="userSpaceOnUse"><stop stop-color="#03192E"/><stop offset=".5" stop-color="#223C6A"/><stop offset="1" stop-color="#4A74A2"/></linearGradient><linearGradient id="m" x1="111.724" x2="149.802" y1="107.356" y2="202.601" gradientUnits="userSpaceOnUse"><stop stop-color="#03192E"/><stop offset=".5" stop-color="#223C6A"/><stop offset="1" stop-color="#4A74A2"/></linearGradient><linearGradient id="n" x1="48.21" x2="57.174" y1="181.764" y2="146.213" gradientUnits="userSpaceOnUse"><stop stop-color="#03192E"/><stop offset=".5" stop-color="#223C6A"/><stop offset="1" stop-color="#4A74A2"/></linearGradient><linearGradient id="o" x1="55.204" x2="65.451" y1="164.705" y2="193.026" gradientUnits="userSpaceOnUse"><stop stop-color="#386E9F"/><stop offset="1" stop-color="#fff"/></linearGradient><linearGradient id="p" x1="52.344" x2="52.344" y1="153.402" y2="189.019" gradientUnits="userSpaceOnUse"><stop stop-color="#03192E"/><stop offset=".5" stop-color="#223C6A"/><stop offset="1" stop-color="#4A74A2"/></linearGradient><linearGradient id="q" x1="52.788" x2="44.365" y1="169.788" y2="159.541" gradientUnits="userSpaceOnUse"><stop stop-color="#386E9F"/><stop offset="1" stop-color="#fff"/></linearGradient><linearGradient id="r" x1="59.17" x2="50.747" y1="169.617" y2="159.37" gradientUnits="userSpaceOnUse"><stop stop-color="#386E9F"/><stop offset="1" stop-color="#fff"/></linearGradient><linearGradient id="s" x1="85.111" x2="68.953" y1="183.851" y2="147.248" gradientUnits="userSpaceOnUse"><stop stop-color="#386E9F"/><stop offset="1" stop-color="#fff"/></linearGradient><linearGradient id="t" x1="135.621" x2="123.969" y1="62.998" y2="182.31" gradientUnits="userSpaceOnUse"><stop stop-color="#03192E"/><stop offset=".5" stop-color="#223C6A"/><stop offset="1" stop-color="#4A74A2"/></linearGradient><linearGradient id="u" x1="180.79" x2="103.735" y1="131.17" y2="80.44" gradientUnits="userSpaceOnUse"><stop stop-color="#03192E"/><stop offset=".5" stop-color="#223C6A"/><stop offset="1" stop-color="#4A74A2"/></linearGradient><linearGradient id="v" x1="168.876" x2="168.876" y1="17.258" y2="117.136" gradientUnits="userSpaceOnUse"><stop stop-color="#386E9F"/><stop offset="1" stop-color="#fff"/></linearGradient><linearGradient id="w" x1="176.551" x2="176.551" y1="39.32" y2="73.047" gradientUnits="userSpaceOnUse"><stop stop-color="#FF2A64"/><stop offset="1" stop-color="#FFAF48"/></linearGradient><linearGradient id="x" x1="176.481" x2="176.481" y1="58.057" y2="83.412" gradientUnits="userSpaceOnUse"><stop stop-color="#FF2A64"/><stop offset="1" stop-color="#FFAF48"/></linearGradient><linearGradient id="y" x1="178.744" x2="178.744" y1="1.511" y2="63.251" gradientUnits="userSpaceOnUse"><stop stop-color="#FF2A64"/><stop offset="1" stop-color="#FFAF48"/></linearGradient><linearGradient id="z" x1="183.316" x2="176.424" y1="64.014" y2="15.886" gradientUnits="userSpaceOnUse"><stop stop-color="#44262A"/><stop offset=".11" stop-color="#4A282B"/><stop offset=".25" stop-color="#5B302C"/><stop offset=".41" stop-color="#763B2E"/><stop offset=".5" stop-color="#894330"/><stop offset="1" stop-color="#EE7D61"/></linearGradient><linearGradient id="A" x1="191.635" x2="165.987" y1="47.526" y2="87.408" gradientUnits="userSpaceOnUse"><stop stop-color="#44262A"/><stop offset=".11" stop-color="#4A282B"/><stop offset=".25" stop-color="#5B302C"/><stop offset=".41" stop-color="#763B2E"/><stop offset=".5" stop-color="#894330"/><stop offset="1" stop-color="#EE7D61"/></linearGradient><linearGradient id="B" x1="140.219" x2="219.84" y1="-13.989" y2="64.988" gradientUnits="userSpaceOnUse"><stop stop-color="#FF2A64"/><stop offset="1" stop-color="#FFAF48"/></linearGradient><linearGradient id="C" x1="178.041" x2="235.878" y1="22.707" y2="67.213" gradientUnits="userSpaceOnUse"><stop stop-color="#FF2A64"/><stop offset="1" stop-color="#FFAF48"/></linearGradient><linearGradient id="D" x1="213.962" x2="226.229" y1="38.48" y2="83.763" gradientUnits="userSpaceOnUse"><stop stop-color="#FF2A64"/><stop offset="1" stop-color="#FFAF48"/></linearGradient><linearGradient id="E" x1="179.113" x2="178.824" y1="40.788" y2="69.68" gradientUnits="userSpaceOnUse"><stop stop-color="#FF2A64"/><stop offset="1" stop-color="#FFAF48"/></linearGradient><linearGradient id="F" x1="167.795" x2="167.506" y1="40.675" y2="69.567" gradientUnits="userSpaceOnUse"><stop stop-color="#FF2A64"/><stop offset="1" stop-color="#FFAF48"/></linearGradient><linearGradient id="G" x1="179.707" x2="180.214" y1="56.375" y2="46.758" gradientUnits="userSpaceOnUse"><stop stop-color="#03192E"/><stop offset=".5" stop-color="#223C6A"/><stop offset="1" stop-color="#4A74A2"/></linearGradient><linearGradient id="H" x1="168.867" x2="169.375" y1="56.173" y2="46.556" gradientUnits="userSpaceOnUse"><stop stop-color="#03192E"/><stop offset=".5" stop-color="#223C6A"/><stop offset="1" stop-color="#4A74A2"/></linearGradient><linearGradient id="I" x1="173.096" x2="172.807" y1="39.555" y2="68.447" gradientUnits="userSpaceOnUse"><stop stop-color="#FF2A64"/><stop offset="1" stop-color="#FFAF48"/></linearGradient><linearGradient id="J" x1="172.285" x2="175.675" y1="54.546" y2="67.701" gradientUnits="userSpaceOnUse"><stop stop-color="#FF2A64"/><stop offset="1" stop-color="#FFAF48"/></linearGradient><linearGradient id="K" x1="186.233" x2="185.808" y1="88.721" y2="55.282" gradientUnits="userSpaceOnUse"><stop stop-color="#386E9F"/><stop offset="1" stop-color="#fff"/></linearGradient><linearGradient id="L" x1="143.171" x2="145.369" y1="68.687" y2="161.406" gradientUnits="userSpaceOnUse"><stop stop-color="#03192E"/><stop offset=".5" stop-color="#223C6A"/><stop offset="1" stop-color="#4A74A2"/></linearGradient><linearGradient id="M" x1="133.314" x2="134.744" y1="29.054" y2="62.609" gradientUnits="userSpaceOnUse"><stop stop-color="#FF2A64"/><stop offset="1" stop-color="#FFAF48"/></linearGradient><linearGradient id="N" x1="134.128" x2="134.128" y1="49.194" y2="70.774" gradientUnits="userSpaceOnUse"><stop stop-color="#FF2A64"/><stop offset="1" stop-color="#FFAF48"/></linearGradient><linearGradient id="O" x1="133.461" x2="134.932" y1="44.823" y2="71.936" gradientUnits="userSpaceOnUse"><stop stop-color="#FF2A64"/><stop offset="1" stop-color="#FFAF48"/></linearGradient><linearGradient id="P" x1="158.258" x2="133.848" y1="15.252" y2="52.84" gradientUnits="userSpaceOnUse"><stop stop-color="#03192E"/><stop offset=".5" stop-color="#223C6A"/><stop offset="1" stop-color="#4A74A2"/></linearGradient><linearGradient id="Q" x1="140.807" x2="116.728" y1="42.124" y2="79.203" gradientUnits="userSpaceOnUse"><stop stop-color="#03192E"/><stop offset=".5" stop-color="#223C6A"/><stop offset="1" stop-color="#4A74A2"/></linearGradient><linearGradient id="R" x1="141.211" x2="145.414" y1="48.695" y2="43.12" gradientUnits="userSpaceOnUse"><stop stop-color="#1088B1"/><stop offset="1" stop-color="#40C37C"/></linearGradient><linearGradient id="S" x1="143.032" x2="148.026" y1="47.388" y2="43.769" gradientUnits="userSpaceOnUse"><stop stop-color="#223C6A"/><stop offset="1" stop-color="#40C67C"/></linearGradient><linearGradient id="T" x1="142.384" x2="147.377" y1="46.492" y2="42.874" gradientUnits="userSpaceOnUse"><stop stop-color="#223C6A"/><stop offset="1" stop-color="#40C67C"/></linearGradient><linearGradient id="U" x1="141.519" x2="146.511" y1="45.293" y2="41.679" gradientUnits="userSpaceOnUse"><stop stop-color="#223C6A"/><stop offset="1" stop-color="#40C67C"/></linearGradient><linearGradient id="V" x1="136.803" x2="141.416" y1="54.882" y2="46.523" gradientUnits="userSpaceOnUse"><stop stop-color="#FF2A64"/><stop offset=".45" stop-color="#FF6C56"/><stop offset=".82" stop-color="#FF9C4C"/><stop offset="1" stop-color="#FFAF48"/></linearGradient><linearGradient id="W" x1="135.944" x2="146.6" y1="51.854" y2="44.907" gradientUnits="userSpaceOnUse"><stop stop-color="#FF2A64"/><stop offset=".45" stop-color="#FF6C56"/><stop offset=".82" stop-color="#FF9C4C"/><stop offset="1" stop-color="#FFAF48"/></linearGradient><linearGradient id="X" x1="134.652" x2="145.308" y1="49.872" y2="42.925" gradientUnits="userSpaceOnUse"><stop stop-color="#FF2A64"/><stop offset=".45" stop-color="#FF6C56"/><stop offset=".82" stop-color="#FF9C4C"/><stop offset="1" stop-color="#FFAF48"/></linearGradient><linearGradient id="Y" x1="132.441" x2="147.178" y1="54.428" y2="43.248" gradientUnits="userSpaceOnUse"><stop stop-color="#FF2A64"/><stop offset=".45" stop-color="#FF6C56"/><stop offset=".82" stop-color="#FF9C4C"/><stop offset="1" stop-color="#FFAF48"/></linearGradient><linearGradient id="Z" x1="105.525" x2="140.168" y1="88.833" y2="64.049" gradientUnits="userSpaceOnUse"><stop stop-color="#386E9F"/><stop offset="1" stop-color="#fff"/></linearGradient><linearGradient id="aa" x1="174.79" x2="100.791" y1="103.503" y2="82.209" gradientUnits="userSpaceOnUse"><stop stop-color="#03192E"/><stop offset=".5" stop-color="#223C6A"/><stop offset="1" stop-color="#4A74A2"/></linearGradient><linearGradient id="ab" x1="124.73" x2="140.434" y1="48.93" y2="43.397" gradientUnits="userSpaceOnUse"><stop stop-color="#FF2A64"/><stop offset="1" stop-color="#FFAF48"/></linearGradient><linearGradient id="ac" x1="121.915" x2="139.176" y1="52.614" y2="46.526" gradientUnits="userSpaceOnUse"><stop stop-color="#FF2A64"/><stop offset="1" stop-color="#FFAF48"/></linearGradient><linearGradient id="ad" x1="128.63" x2="129.711" y1="34.889" y2="60.289" gradientUnits="userSpaceOnUse"><stop stop-color="#FF2A64"/><stop offset="1" stop-color="#FFAF48"/></linearGradient><linearGradient id="ae" x1="167.492" x2="158.751" y1="38.664" y2="128.143" gradientUnits="userSpaceOnUse"><stop stop-color="#03192E"/><stop offset=".5" stop-color="#223C6A"/><stop offset="1" stop-color="#4A74A2"/></linearGradient><linearGradient id="af" x1="168.785" x2="168.34" y1="89.263" y2="54.282" gradientUnits="userSpaceOnUse"><stop stop-color="#386E9F"/><stop offset="1" stop-color="#fff"/></linearGradient><linearGradient id="ag" x1="196.429" x2="186.773" y1="38.189" y2="137.067" gradientUnits="userSpaceOnUse"><stop stop-color="#03192E"/><stop offset=".5" stop-color="#223C6A"/><stop offset="1" stop-color="#4A74A2"/></linearGradient><linearGradient id="ah" x1="201.083" x2="245.148" y1="61.73" y2="156.636" gradientUnits="userSpaceOnUse"><stop stop-color="#03192E"/><stop offset=".5" stop-color="#223C6A"/><stop offset="1" stop-color="#4A74A2"/></linearGradient><linearGradient id="ai" x1="144.971" x2="191.527" y1="110.418" y2="110.418" gradientUnits="userSpaceOnUse"><stop stop-color="#386E9F"/><stop offset="1" stop-color="#fff"/></linearGradient><linearGradient id="aj" x1="155.754" x2="158.129" y1="109.226" y2="141.877" gradientUnits="userSpaceOnUse"><stop stop-color="#386E9F"/><stop offset="1" stop-color="#fff"/></linearGradient><linearGradient id="ak" x1="151.271" x2="127.922" y1="80.935" y2="134.641" gradientUnits="userSpaceOnUse"><stop stop-color="#386E9F"/><stop offset="1" stop-color="#fff"/></linearGradient><linearGradient id="al" x1="119.077" x2="154.325" y1="148.178" y2="76.211" gradientUnits="userSpaceOnUse"><stop stop-color="#386E9F"/><stop offset="1" stop-color="#fff"/></linearGradient><linearGradient id="am" x1="131.956" x2="139.239" y1="108.665" y2="96.816" gradientUnits="userSpaceOnUse"><stop stop-color="#1088B1"/><stop offset="1" stop-color="#40C37C"/></linearGradient><linearGradient id="an" x1="135.32" x2="144.537" y1="105.727" y2="97.607" gradientUnits="userSpaceOnUse"><stop stop-color="#223C6A"/><stop offset="1" stop-color="#40C67C"/></linearGradient><linearGradient id="ao" x1="133.866" x2="143.087" y1="104.071" y2="95.957" gradientUnits="userSpaceOnUse"><stop stop-color="#223C6A"/><stop offset="1" stop-color="#40C67C"/></linearGradient><linearGradient id="ap" x1="131.92" x2="141.142" y1="101.864" y2="93.746" gradientUnits="userSpaceOnUse"><stop stop-color="#223C6A"/><stop offset="1" stop-color="#40C67C"/></linearGradient><linearGradient id="aq" x1="124.381" x2="131.947" y1="121.77" y2="104.318" gradientUnits="userSpaceOnUse"><stop stop-color="#FF2A64"/><stop offset=".45" stop-color="#FF6C56"/><stop offset=".82" stop-color="#FF9C4C"/><stop offset="1" stop-color="#FFAF48"/></linearGradient><linearGradient id="ar" x1="122.098" x2="141.926" y1="115.924" y2="100.133" gradientUnits="userSpaceOnUse"><stop stop-color="#FF2A64"/><stop offset=".45" stop-color="#FF6C56"/><stop offset=".82" stop-color="#FF9C4C"/><stop offset="1" stop-color="#FFAF48"/></linearGradient><linearGradient id="as" x1="119.165" x2="138.994" y1="112.24" y2="96.449" gradientUnits="userSpaceOnUse"><stop stop-color="#FF2A64"/><stop offset=".45" stop-color="#FF6C56"/><stop offset=".82" stop-color="#FF9C4C"/><stop offset="1" stop-color="#FFAF48"/></linearGradient><linearGradient id="at" x1="115.633" x2="142.767" y1="121.684" y2="96.732" gradientUnits="userSpaceOnUse"><stop stop-color="#FF2A64"/><stop offset=".45" stop-color="#FF6C56"/><stop offset=".82" stop-color="#FF9C4C"/><stop offset="1" stop-color="#FFAF48"/></linearGradient><linearGradient id="au" x1="235.178" x2="175.974" y1="103.263" y2="103.602" gradientUnits="userSpaceOnUse"><stop stop-color="#FF2A64"/><stop offset="1" stop-color="#FFAF48"/></linearGradient><linearGradient id="av" x1="204.155" x2="180.503" y1="92.309" y2="120.554" gradientUnits="userSpaceOnUse"><stop stop-color="#FF2A64"/><stop offset="1" stop-color="#FFAF48"/></linearGradient><linearGradient id="aw" x1="223.456" x2="192.518" y1="134.07" y2="97.75" gradientUnits="userSpaceOnUse"><stop stop-color="#386E9F"/><stop offset="1" stop-color="#fff"/></linearGradient><linearGradient id="ax" x1="230.539" x2="215.578" y1="61.028" y2="136.557" gradientUnits="userSpaceOnUse"><stop stop-color="#03192E"/><stop offset=".5" stop-color="#223C6A"/><stop offset="1" stop-color="#4A74A2"/></linearGradient><linearGradient id="ay" x1="65.42" x2="65.42" y1="164.321" y2="199.857" gradientUnits="userSpaceOnUse"><stop stop-color="#03192E"/><stop offset=".5" stop-color="#223C6A"/><stop offset="1" stop-color="#4A74A2"/></linearGradient><linearGradient id="az" x1="268.709" x2="251.417" y1="63.034" y2="42.542" gradientUnits="userSpaceOnUse"><stop stop-color="#1088B1"/><stop offset="1" stop-color="#40C37C"/></linearGradient><linearGradient id="aA" x1="265.355" x2="256.076" y1="55.096" y2="33.318" gradientUnits="userSpaceOnUse"><stop stop-color="#223C6A"/><stop offset="1" stop-color="#40C67C"/></linearGradient><linearGradient id="aB" x1="261.453" x2="252.172" y1="56.763" y2="34.978" gradientUnits="userSpaceOnUse"><stop stop-color="#223C6A"/><stop offset="1" stop-color="#40C67C"/></linearGradient><linearGradient id="aC" x1="256.234" x2="246.957" y1="58.985" y2="37.203" gradientUnits="userSpaceOnUse"><stop stop-color="#223C6A"/><stop offset="1" stop-color="#40C67C"/></linearGradient><linearGradient id="aD" x1="288.112" x2="260.746" y1="84.828" y2="60.422" gradientUnits="userSpaceOnUse"><stop stop-color="#FF2A64"/><stop offset=".45" stop-color="#FF6C56"/><stop offset=".82" stop-color="#FF9C4C"/><stop offset="1" stop-color="#FFAF48"/></linearGradient><linearGradient id="aE" x1="276.028" x2="259.116" y1="85.465" y2="39.628" gradientUnits="userSpaceOnUse"><stop stop-color="#FF2A64"/><stop offset=".45" stop-color="#FF6C56"/><stop offset=".82" stop-color="#FF9C4C"/><stop offset="1" stop-color="#FFAF48"/></linearGradient><linearGradient id="aF" x1="267.513" x2="250.598" y1="88.605" y2="42.772" gradientUnits="userSpaceOnUse"><stop stop-color="#FF2A64"/><stop offset=".45" stop-color="#FF6C56"/><stop offset=".82" stop-color="#FF9C4C"/><stop offset="1" stop-color="#FFAF48"/></linearGradient><linearGradient id="aG" x1="282.669" x2="253.402" y1="100.789" y2="36.033" gradientUnits="userSpaceOnUse"><stop stop-color="#FF2A64"/><stop offset=".45" stop-color="#FF6C56"/><stop offset=".82" stop-color="#FF9C4C"/><stop offset="1" stop-color="#FFAF48"/></linearGradient><linearGradient id="aH" x1="60.625" x2="40.926" y1="36.283" y2="12.948" gradientUnits="userSpaceOnUse"><stop stop-color="#1088B1"/><stop offset="1" stop-color="#40C37C"/></linearGradient><linearGradient id="aI" x1="53.025" x2="40.122" y1="33.353" y2="3.074" gradientUnits="userSpaceOnUse"><stop stop-color="#223C6A"/><stop offset="1" stop-color="#40C67C"/></linearGradient><linearGradient id="aJ" x1="43.244" x2="13.844" y1="42.289" y2="27.495" gradientUnits="userSpaceOnUse"><stop stop-color="#223C6A"/><stop offset="1" stop-color="#40C67C"/></linearGradient><linearGradient id="aK" x1="42.274" x2="48.682" y1="51.575" y2="19.267" gradientUnits="userSpaceOnUse"><stop stop-color="#223C6A"/><stop offset="1" stop-color="#40C67C"/></linearGradient><linearGradient id="aL" x1="76.313" x2="112.45" y1="27.858" y2="80.817" gradientUnits="userSpaceOnUse"><stop stop-color="#03192E"/><stop offset=".5" stop-color="#223C6A"/><stop offset="1" stop-color="#4A74A2"/></linearGradient><linearGradient id="aM" x1="99.576" x2="80.52" y1="51.341" y2="23.415" gradientUnits="userSpaceOnUse"><stop stop-color="#386E9C"/><stop offset="1" stop-color="#fff"/></linearGradient><linearGradient id="aN" x1="106.292" x2="87.236" y1="46.758" y2="18.831" gradientUnits="userSpaceOnUse"><stop stop-color="#386E9C"/><stop offset="1" stop-color="#fff"/></linearGradient><linearGradient id="aO" x1="104.299" x2="89.164" y1="50.921" y2="28.739" gradientUnits="userSpaceOnUse"><stop stop-color="#386E9C"/><stop offset="1" stop-color="#fff"/></linearGradient><linearGradient id="aP" x1="92.843" x2="85.131" y1="42.081" y2="30.778" gradientUnits="userSpaceOnUse"><stop stop-color="#03192E"/><stop offset=".5" stop-color="#223C6A"/><stop offset="1" stop-color="#4A749F"/></linearGradient><linearGradient id="aQ" x1="99.668" x2="91.955" y1="37.424" y2="26.122" gradientUnits="userSpaceOnUse"><stop stop-color="#03192E"/><stop offset=".5" stop-color="#223C6A"/><stop offset="1" stop-color="#4A749F"/></linearGradient><linearGradient id="aR" x1="47.595" x2="-9.406" y1="106.162" y2="74.627" gradientUnits="userSpaceOnUse"><stop stop-color="#FF2A64"/><stop offset="1" stop-color="#FFAF48"/></linearGradient><linearGradient id="aS" x1="3.286" x2="15.944" y1="82.141" y2="111.948" gradientUnits="userSpaceOnUse"><stop stop-color="#FF2A64"/><stop offset="1" stop-color="#FFAF48"/></linearGradient><linearGradient id="aT" x1="20.907" x2="33.106" y1="65.781" y2="102.999" gradientUnits="userSpaceOnUse"><stop stop-color="#FF2A64"/><stop offset="1" stop-color="#FFAF48"/></linearGradient><linearGradient id="aU" x1="32.415" x2="31.699" y1="83.539" y2="111.902" gradientUnits="userSpaceOnUse"><stop stop-color="#FF2A64"/><stop offset="1" stop-color="#FFAF48"/></linearGradient><linearGradient id="aV" x1="122.305" x2="22.073" y1="104.414" y2="86.661" gradientUnits="userSpaceOnUse"><stop stop-color="#FF2A64"/><stop offset="1" stop-color="#FFAF48"/></linearGradient></defs></svg>