<svg xmlns="http://www.w3.org/2000/svg" width="272" height="207" fill="none"><path fill="url(#a)" d="M25.64 80.868s7.578-17.078 37.11-26.526c29.533-9.447 34.163-12.546 59.786-34.382 31.199-26.586 100.926-35.448 135.396 30.225 34.245 65.246-1.913 123.866-40.735 136.87l-55.854 6.22h-64.85s-59.974-11.451-70.2-55.475-.653-56.932-.653-56.932"/><path fill="url(#b)" d="m227.155 104.431-1.704-1.358c12.163-15.285 3.302-43.777 3.212-44.063l2.071-.66c.097.3 2.363 7.511 3.099 16.809.982 12.418-1.329 22.541-6.678 29.272"/><path fill="url(#c)" d="m233.944 104.431-1.703-1.358c12.17-15.3 2.536-46.44 2.439-46.756l2.078-.653c.105.33 2.559 8.187 3.481 18.137 1.261 13.492-.855 23.802-6.295 30.63"/><path fill="url(#d)" d="M153.457 128.96h-19.846v4.375h19.846z"/><path fill="url(#e)" d="M153.458 122.222h-19.846v8.952h19.846z"/><path fill="url(#f)" d="M153.457 140.066h-19.846v4.375h19.846z"/><path fill="url(#g)" d="M153.458 133.328h-19.846v8.952h19.846z"/><path fill="url(#h)" d="M153.457 151.171h-19.846v4.375h19.846z"/><path fill="url(#i)" d="M153.458 144.44h-19.846v8.952h19.846z"/><path fill="url(#j)" d="M153.457 162.277h-19.846v4.375h19.846z"/><path fill="url(#k)" d="M153.458 155.547h-19.846v8.952h19.846z"/><path fill="url(#l)" d="M153.457 173.382h-19.846v4.375h19.846z"/><path fill="url(#m)" d="M153.458 166.651h-19.846v8.952h19.846z"/><path fill="url(#n)" d="m162.469 190.342-12.328-5.41-.788-81.912 14.774-8.974z"/><path fill="url(#o)" d="m253.242 109.548-15.456 7.422h-16.065l.826-9.868h28.714z"/><path fill="url(#p)" d="m245.087 80.87-22.359 10.377V76.9l20.866 2.319z"/><path fill="url(#q)" d="m245.087 54.343-22.359 10.19v-12.69h20.866z"/><path fill="url(#r)" d="m201.486 202.686-1.328.998-4.397 3.316-34.41-13.717-.18-8.351-2.484-119.438L195.761 40.4l5.102 144.531z"/><path fill="url(#s)" d="M167.105 87.84V74.461l24.461-14.242v15.135z"/><path fill="url(#t)" d="M193.074 82.82v72.532h-29.78l-1.268-54.17-.03-1.433z"/><path fill="url(#u)" d="M193.074 82.82v6.259L168.373 101.4l-3.391 1.065-2.956-1.283-.03-1.433z"/><path fill="url(#v)" d="M197.967 90.489c-.21.307-.555.48-.908.48-.21 0-.42-.06-.6-.188-7.984-5.38-6.528-18.662-5.748-25.79q.07-.644.128-1.23c1.245-11.902.705-20.381-1.433-22.677-.345-.383-.728-.556-1.171-.54-3.354.104-4.262 5.252-4.517 8.006l-2.266 1.53c.015-1.575.368-11.525 6.716-11.72 1.065-.038 2.048.39 2.836 1.23 3.557 3.835 2.776 16.929 2.003 24.395q-.067.585-.135 1.238c-.728 6.679-2.086 19.097 4.795 23.75.495.338.63 1.013.3 1.516"/><path fill="url(#w)" d="M169.326 155.352h-6.032l-1.298-55.603 6.377 1.651z"/><path fill="url(#x)" d="M170.483 106.591v11.294l20.551-7.092V97.144z"/><path fill="url(#y)" d="m170.483 124.173.322 26.766 20.229-1.628v-32.139z"/><path fill="url(#z)" d="M198.034 129.869c-.03 0-.067 0-.097-.007-11.308-1.021-17.626-14.137-16.485-34.232.563-9.898 2.356-17.627 3.932-24.455 1.5-6.484 2.798-12.089 2.791-18.16-.008-4.764-.848-7.811-2.499-9.057-1.028-.773-2.423-.893-4.262-.36-6.55 1.891-7.668 13.034-7.675 13.147a1.088 1.088 0 1 1-2.169-.203c.045-.518 1.261-12.726 9.237-15.038 2.506-.727 4.584-.487 6.167.706 3.009 2.258 3.369 7.241 3.369 10.79.008 6.319-1.313 12.037-2.843 18.647-1.561 6.739-3.332 14.378-3.88 24.087-.84 14.738 2.536 30.871 14.512 31.944.6.053 1.043.585.983 1.178a1.093 1.093 0 0 1-1.081 1.013"/><path fill="url(#A)" d="M196.503 189.629c-2.176 0-4.472-.375-6.655-1.433-4.367-2.109-7.278-6.468-8.651-12.944-1.666-7.872.69-20.336 7.008-37.047 4.674-12.358 9.896-22.586 9.949-22.684l1.936.991c-.203.405-20.552 40.393-16.762 58.29 1.223 5.785 3.736 9.627 7.458 11.435 6.49 3.144 14.714-.855 14.796-.893l.968 1.951c-.263.128-4.787 2.334-10.047 2.334"/><path fill="url(#B)" d="M192.678 180.827c-2.551 0-5.418-.428-8.096-1.793-3.902-1.981-6.618-5.523-8.089-10.543-4.974-16.989 22.855-67.144 24.048-69.275l1.898 1.058c-.285.51-28.579 51.483-23.86 67.602 1.291 4.412 3.639 7.511 6.978 9.207 6.295 3.204 14.159.442 14.241.412l.736 2.049c-.226.083-3.609 1.283-7.856 1.283"/><path fill="url(#C)" d="M175.135 63.347a2.476 2.476 0 1 0 0-4.953 2.476 2.476 0 0 0 0 4.953"/><path fill="url(#D)" d="M176.523 60.87c0 .196-.023.391-.068.571-.442 1.891-3.286 1.891-3.736 0a2.484 2.484 0 0 1 0-1.156c.45-1.883 3.294-1.883 3.736 0q.068.293.068.586"/><path fill="url(#E)" d="m201.486 202.686-1.328.998-4.397 3.317-34.41-13.717-.18-8.352h39.692z"/><path fill="url(#F)" d="M200.158 197.524v6.16l-4.397 3.317-34.41-13.717-.18-8.352z"/><path fill="url(#G)" d="M245.087 45.127h-21.625v9.215h21.625z"/><path fill="url(#H)" d="M233.966 51.004h-6.438a1.223 1.223 0 0 1 0-2.446h6.438a1.223 1.223 0 0 1 0 2.446"/><path fill="url(#I)" d="M241.372 51.004h-3.722a1.223 1.223 0 0 1 0-2.446h3.722c.675 0 1.223.547 1.223 1.223a1.215 1.215 0 0 1-1.223 1.223"/><path fill="url(#J)" d="M245.087 71.654h-21.625v9.215h21.625z"/><path fill="url(#K)" d="M233.966 77.537h-6.438a1.223 1.223 0 0 1 0-2.446h6.438a1.223 1.223 0 0 1 0 2.446"/><path fill="url(#L)" d="M241.372 77.537h-3.722a1.223 1.223 0 0 1 0-2.446h3.722a1.223 1.223 0 0 1 0 2.446"/><path fill="url(#M)" d="M253.243 100.326h-29.781v9.215h29.781z"/><path fill="url(#N)" d="M233.966 106.209h-6.438a1.224 1.224 0 0 1 0-2.446h6.438a1.223 1.223 0 1 1 0 2.446"/><path fill="url(#O)" d="M249.535 106.209h-11.878a1.224 1.224 0 0 1 0-2.446h11.878a1.223 1.223 0 1 1 0 2.446"/><path fill="url(#P)" d="M224.581 40.4h-28.82V207h28.82z"/><path fill="url(#Q)" d="M217.197 53.494h-14.061a1.651 1.651 0 0 1 0-3.302h14.061c.915 0 1.651.743 1.651 1.651a1.64 1.64 0 0 1-1.651 1.651m1.658 5.193a1.65 1.65 0 0 0-1.65-1.651h-14.061a1.65 1.65 0 1 0 0 3.301h14.061a1.65 1.65 0 0 0 1.65-1.65m0 6.843a1.65 1.65 0 0 0-1.65-1.65h-14.061a1.65 1.65 0 1 0 0 3.301h14.061a1.65 1.65 0 0 0 1.65-1.65m0 6.844a1.65 1.65 0 0 0-1.65-1.651h-14.061a1.65 1.65 0 1 0 0 3.302h14.061a1.65 1.65 0 0 0 1.65-1.651m0 6.843a1.65 1.65 0 0 0-1.65-1.65h-14.061a1.65 1.65 0 1 0 0 3.3h14.061a1.65 1.65 0 0 0 1.65-1.65m0 6.844a1.65 1.65 0 0 0-1.65-1.651h-14.061a1.65 1.65 0 1 0 0 3.301h14.061a1.65 1.65 0 0 0 1.65-1.65m0 6.843a1.65 1.65 0 0 0-1.65-1.65h-14.061a1.65 1.65 0 1 0 0 3.3h14.061a1.65 1.65 0 0 0 1.65-1.65m0 6.844a1.65 1.65 0 0 0-1.65-1.651h-14.061a1.65 1.65 0 1 0 0 3.301h14.061a1.65 1.65 0 0 0 1.65-1.65m0 6.843a1.65 1.65 0 0 0-1.65-1.651h-14.061a1.65 1.65 0 1 0 0 3.302h14.061c.907 0 1.65-.736 1.65-1.651m0 6.843a1.65 1.65 0 0 0-1.65-1.65h-14.061a1.65 1.65 0 1 0 0 3.301h14.061a1.65 1.65 0 0 0 1.65-1.651m0 6.844a1.65 1.65 0 0 0-1.65-1.651h-14.061a1.65 1.65 0 1 0 0 3.302h14.061c.907 0 1.65-.736 1.65-1.651m0 6.843a1.65 1.65 0 0 0-1.65-1.65h-14.061a1.65 1.65 0 1 0 0 3.301h14.061a1.645 1.645 0 0 0 1.65-1.651m0 6.844a1.65 1.65 0 0 0-1.65-1.651h-14.061a1.65 1.65 0 1 0 0 3.302h14.061a1.647 1.647 0 0 0 1.65-1.651m0 6.843c0-.915-.743-1.651-1.65-1.651h-14.061a1.65 1.65 0 1 0 0 3.302h14.061a1.645 1.645 0 0 0 1.65-1.651m0 6.844a1.65 1.65 0 0 0-1.65-1.651h-14.061a1.65 1.65 0 1 0 0 3.302h14.061a1.647 1.647 0 0 0 1.65-1.651m0 6.843c0-.915-.743-1.651-1.65-1.651h-14.061a1.65 1.65 0 1 0 0 3.302h14.061a1.645 1.645 0 0 0 1.65-1.651m0 6.844a1.65 1.65 0 0 0-1.65-1.651h-14.061a1.65 1.65 0 1 0 0 3.302h14.061a1.647 1.647 0 0 0 1.65-1.651m0 6.843c0-.915-.743-1.651-1.65-1.651h-14.061a1.65 1.65 0 1 0 0 3.302h14.061a1.646 1.646 0 0 0 1.65-1.651m0 6.844a1.65 1.65 0 0 0-1.65-1.651h-14.061a1.65 1.65 0 1 0 0 3.301h14.061a1.645 1.645 0 0 0 1.65-1.65m0 6.843c0-.915-.743-1.651-1.65-1.651h-14.061a1.65 1.65 0 1 0 0 3.302h14.061a1.646 1.646 0 0 0 1.65-1.651m0 6.844a1.65 1.65 0 0 0-1.65-1.651h-14.061a1.65 1.65 0 1 0 0 3.301h14.061a1.645 1.645 0 0 0 1.65-1.65m0 6.843c0-.915-.743-1.651-1.65-1.651h-14.061a1.65 1.65 0 1 0 0 3.302h14.061a1.647 1.647 0 0 0 1.65-1.651"/><path fill="url(#R)" d="M164.127 162.09a1.092 1.092 0 0 1-.66-1.959c17.693-13.342 8.014-32.409-.533-49.24-.968-1.906-1.883-3.707-2.746-5.485-8.576-17.604-4.682-35.546-4.517-36.296a1.094 1.094 0 0 1 1.298-.826c.586.136.953.713.826 1.299-.038.18-3.887 17.971 4.344 34.87.855 1.763 1.771 3.549 2.731 5.448 8.486 16.718 19.051 37.519-.097 51.956a.97.97 0 0 1-.646.233"/><path fill="url(#S)" d="M117.164 77.754a8.396 8.396 0 0 0 8.396-8.397 8.396 8.396 0 1 0-16.792 0 8.396 8.396 0 0 0 8.396 8.397"/><path fill="url(#T)" d="M116.677 73.56c-.668 0-1.313-.27-1.779-.75l-7.248-7.317a1.355 1.355 0 0 1 .03-1.921 1.354 1.354 0 0 1 1.921.03l6.295 6.348a.97.97 0 0 0 1.434-.067l10.827-13.335a1.357 1.357 0 0 1 2.018-.105c.503.503.495 1.329.045 1.884l-11.622 14.325a2.46 2.46 0 0 1-1.809.907z"/><path fill="url(#U)" d="M67.306 127.85 33.03 145.994a2.875 2.875 0 0 1-3.886-1.193L3.294 95.959a2.875 2.875 0 0 1 1.194-3.887l34.275-18.145a2.875 2.875 0 0 1 3.886 1.194l25.856 48.834a2.885 2.885 0 0 1-1.2 3.895"/><path fill="url(#V)" d="m64.012 126.672-30.096 15.931a2.58 2.58 0 0 1-3.489-1.073L6.717 96.74a2.58 2.58 0 0 1 1.073-3.49l30.096-15.93a2.58 2.58 0 0 1 3.488 1.073l23.71 44.79a2.58 2.58 0 0 1-1.072 3.489"/><path fill="url(#W)" d="m61.169 147.038-32.58 17.243a2.73 2.73 0 0 1-3.691-1.14L.318 116.722a2.73 2.73 0 0 1 1.14-3.692l32.571-17.25a2.73 2.73 0 0 1 3.692 1.14l24.573 46.418a2.73 2.73 0 0 1-1.125 3.7"/><path fill="url(#X)" d="M58.032 145.919 29.43 161.062c-1.2.638-2.686.18-3.317-1.02l-22.54-42.577a2.447 2.447 0 0 1 1.02-3.317l28.603-15.142a2.446 2.446 0 0 1 3.317 1.02l22.54 42.569a2.456 2.456 0 0 1-1.021 3.324"/><path fill="url(#Y)" d="M129.8 86.242s6.85-9.455 24.34-20.913c0 0 4.427-10.753 11.165-11.639 0 0 2.183-.18 5.965 1.006 2.461.765 4.419.99 5.485 1.043.645.038 1.08.69.84 1.29-.278.713-1.11 1.449-3.369 1.381-4.314-.12-7.683-1.598-9.987 1.359 0 0-1.253 2.851 1.358 4.667 0 0 5.23-4.03 8.021-2.086 0 0 .225.142.376.518a.987.987 0 0 1-.593 1.298c-.878.315-2.416.998-3.639 2.213-1.816 1.816-3.677 5.185-9.214 5.275l-3.324 1.509s-13.423 25.918-19.719 26.893c-6.295.976-7.705-13.814-7.705-13.814"/><path fill="url(#Z)" d="M124.368 90.264s-.413-1.268 2.243-2.198c0 0-.09-2.62 2.214-2.86 2.266-.232 10.925 5.38 9.304 16.329a2.19 2.19 0 0 1-1.403 1.733c-.368.135-.841.21-1.433.173 0 0-.593 2.454-2.957 2.596-2.363.143-7.233-5.613-7.233-5.748s-.735-10.025-.735-10.025"/><path fill="url(#aa)" d="M124.367 90.265s9.867 4.727 7.976 15.773l-15.419 22.391-15.892-24.222z"/><path fill="url(#ab)" d="m74.81 126.185 30.718-15.36s6.092 11.226 9.604 23.982c3.511 12.757 0 51.506 0 51.506H83.911z"/><path fill="url(#ac)" d="M110.748 150.279c1.005 7.054-2.679 13.552-8.231 14.52s-10.865-3.962-11.87-11.015c-1.006-7.054 2.678-13.552 8.23-14.52s10.858 3.962 11.871 11.015"/><path fill="url(#ad)" d="M107.686 150.812c.698 4.907-1.868 9.432-5.732 10.107-3.864.676-7.563-2.761-8.268-7.668-.698-4.908 1.868-9.433 5.732-10.108s7.571 2.754 8.268 7.669"/><path fill="url(#ae)" d="m100.685 153.867-2.176.773-1.89-5.68c-.36-1.089.082-2.297.96-2.612s1.816.405 2.026 1.546z"/><path fill="url(#af)" d="m101.338 153.769 2.289.097.382-6.018c.075-1.155-.66-2.183-1.583-2.228-.923-.038-1.643.923-1.553 2.086z"/><path fill="url(#ag)" d="M96.14 157.086c.097.781.3 1.508.592 2.176 1.478 1.336 3.331 1.989 5.23 1.659 1.89-.331 3.474-1.584 4.509-3.362a8.5 8.5 0 0 0-.007-2.041c-.466-3.617-3.152-6.198-6.003-5.77-2.851.435-4.787 3.721-4.322 7.338"/><path fill="url(#ah)" d="M99.358 155.652c.06.48-.12.908-.405.953s-.57-.316-.63-.796.12-.908.405-.953c.285-.037.57.315.63.796"/><path fill="url(#ai)" d="M103.987 154.955c.06.48-.12.908-.405.953s-.57-.315-.63-.795.12-.908.405-.953c.293-.045.57.315.63.795"/><path fill="url(#aj)" d="M119.835 158.174c-.892 14.504-3.496 26.436-3.496 26.436l-2.709.322-2.431.285c1.711-8.727 2.004-17.469 1.568-25.468-.345-6.31-1.155-12.163-2.078-17.191-1.913-10.415-4.359-17.281-4.359-17.281v-5.178l2.761-8.291c6.94 5.943 9.859 16.891 10.744 28.514.436 5.958.353 12.104 0 17.852"/><path fill="url(#ak)" d="M119.835 158.173c-1.396.69-4.172 1.809-7.068 1.576-.346-6.311-1.156-12.164-2.079-17.191 1.718.307 5.508.533 9.139-2.229.443 5.951.36 12.096.008 17.844"/><path fill="url(#al)" d="m113.623 184.932-2.431.285c5.845-29.873-4.877-59.94-4.877-59.94v-5.178s7.353 15.503 8.726 45.015c.323 6.964-.352 13.777-1.418 19.818"/><path fill="url(#am)" d="M95.376 182.306H74.802l-12.756-23.157-10.752-30.78s9.957-11.421 18.255-15.361l17.723 13.177 1.583 1.178s2.364 3.572 4.27 18.219c.675 5.238 1.298 11.901 1.725 20.321.24 4.855.428 10.302.526 16.403"/><path fill="url(#an)" d="M94.85 165.895c-3.511.991-14.728 3.669-23.792.285-10.903-4.074-1.771-18.527-1.771-18.527s13.28 2.889 23.845-2.078c.668 5.237 1.283 11.901 1.718 20.32"/><path fill="url(#ao)" d="M95.375 182.306h-2.611c-.96-50.816-7.668-55.888-7.668-55.888l2.168-.24 1.583 1.178c.008 0 5.808 8.757 6.528 54.95"/><path fill="url(#ap)" d="M87.474 126.687s2.214 2.071 7.06.825c4.848-1.238 8.569-8.066 5.906-15.33-2.656-7.264-7.796-7.976-7.796-7.976l-17.37 13.056z"/><path fill="url(#aq)" d="m80.076 65.771-9.942 8.945-23.65 21.296-.96.862c-18.113 6.859-28.738-.9-34.305-8.104a36 36 0 0 1-2.761-4.142c-1.643-2.889-2.356-5.035-2.356-5.035s4.854 1.073 13.206 1.103c4.809.023 10.767-.3 17.632-1.373 10.017-1.56 42.123-13.2 43.121-13.56 0 .008.008.008.015.008"/><path fill="url(#ar)" d="m70.607 72.6-.473 2.124-23.65 21.295-.96.863c-18.113 6.859-28.738-.9-34.305-8.104C53.237 91.96 70.607 72.6 70.607 72.6"/><path fill="url(#as)" d="m46.492 96.018-.96.863c-29.946 11.346-39.43-17.28-39.43-17.28s4.854 1.072 13.206 1.102c2.4 4.367 10.069 15.135 27.184 15.315"/><path fill="#FFCA83" d="M80.06 65.772c-36 21.416-63.604 19.9-71.595 18.857-1.643-2.889-2.356-5.035-2.356-5.035s4.855 1.073 13.206 1.103c4.81.022 10.767-.3 17.632-1.373 10.01-1.553 42.116-13.192 43.114-13.552" opacity=".4"/><path fill="url(#at)" d="M73.45 106.367s-2.348-1.275-4.84.616c-2.49 1.89-2.198 5.432.879 9.154 2.851 3.452 11.645 12.854 17.902 12.734a1.486 1.486 0 0 0 1.464-1.516c-.038-1.305-.308-3.556-1.411-6.633l2.07-4.938-7.915-12.763z"/><path fill="url(#au)" d="M106.322 125.284s-4.742-12.921-10.94-15.21l1.636-7.781s7.203-1.914 12.058 9.529c3.046 7.167-2.754 13.462-2.754 13.462"/><path fill="url(#av)" d="m175.081 158.602-31.836 36.31a2.86 2.86 0 0 1-2.183.976c-3.834-.053-14.722-.285-14.722-1.508 0-.721.436-4.818.871-8.81.465-4.142.93-8.171.93-8.171l7.961-4.353 10.407-11.135a6.27 6.27 0 0 1 3.609-1.921l1.606-.255 22.052-3.505c1.328-.217 2.191 1.359 1.305 2.372"/><path fill="url(#aw)" d="m151.74 159.734-24.521 25.836c.465-4.142.93-8.172.93-8.172l7.961-4.352 10.407-11.136a6.27 6.27 0 0 1 3.609-1.92z"/><path fill="url(#ax)" d="M96.238 112.753c-.037 2.003.158 4.209.953 5.845 0 0-3.271 7.174-9.746 2.124 0 0-1.433-4.225-6.108-8.735-1.988-1.928-4.577-3.909-7.886-5.628 0 0-7.668-4.404-6.955-6.828.42-1.44 2.34.12 2.513.255-.127-.18-1.808-2.536-2.176-6.28 0 0-4.142 13.536-13.003 24.042-6.1 7.233-14.443 13.019-25.21 11.938 0 0-4.908-.54-9.59-3.129-1.275-.705-2.543-1.568-3.691-2.611a14.3 14.3 0 0 1-2.671-3.212s4.066-1.628 10.354-5.905c5.59-3.812 12.943-9.725 20.746-18.467 15.472-17.319 27.29-33.317 43.594-30.308 16.305 3.016 16.042 17.199 16.042 17.199s.788.03 1.786.54c.878.45 1.921 1.268 2.716 2.761.368.69.683 1.531.9 2.544 1.238 5.665-1.508 16.478-12.05 18.872-.007.008-.465 2.304-.518 4.983"/><path fill="url(#ay)" d="m68.611 88.29-1.786 5.223s-4.142 13.537-13.003 24.042c-6.1 7.234-14.443 13.019-25.21 11.938 0 0-4.908-.54-9.59-3.129 26.322-7.203 49.229-37.586 49.589-38.074"/><path fill="url(#az)" d="M76.099 174.869 54.302 186.32s-2.206-7.414-4.307-17.596a184 184 0 0 1-.945-4.825 194 194 0 0 1-1.898-12.284 64 64 0 0 1-.27-2.686c-1.224-15.676 4.404-20.553 4.404-20.553 24.22-1.216 24.813 46.493 24.813 46.493"/><path fill="url(#aA)" d="M96.748 107.778s-.466 2.296-.51 4.975c-6.003 2.003-11.405.698-14.902-.758-1.988-1.928-4.577-3.909-7.886-5.628 9.597 5.2 23.298 1.411 23.298 1.411"/><path fill="url(#aB)" d="M97.198 83.03c.592 2.221-.323 4.397-2.034 4.848s-3.579-.983-4.164-3.204c-.593-2.222.323-4.398 2.033-4.848 1.711-.458 3.572.983 4.165 3.204"/><path fill="#fff" d="M94.735 83.08c.445-.117.68-.684.526-1.265s-.639-.956-1.084-.838c-.444.118-.68.684-.526 1.265s.64.956 1.084.838"/><path fill="#F87C38" d="M89.628 80.172c-.24 0-.48-.083-.683-.24a1.086 1.086 0 0 1-.158-1.531c1.553-1.913 3.64-3.031 5.718-3.062a1.08 1.08 0 0 1 1.103 1.073c.007.6-.473 1.096-1.073 1.103-1.433.023-2.92.849-4.067 2.26-.21.254-.525.397-.84.397M107.898 86.362c-2.108 1.088-4.479-.053-4.517-.961-.03-.6 1.081-1.373 1.801-1.8.886.45 1.921 1.26 2.716 2.76M106.119 95.689c-2.694 0-4.112-1.628-4.172-1.703a.272.272 0 0 1 .413-.353c.015.015 1.455 1.666 4.149 1.5.15 0 .278.106.285.256a.27.27 0 0 1-.255.285c-.143.007-.278.015-.42.015"/><path fill="url(#aC)" d="M53.823 117.556c-6.1 7.233-14.444 13.019-25.211 11.938 0 0-11.255-1.238-15.952-8.952 0 0 4.067-1.628 10.354-5.905 3.024 3.324 12.306 10.655 30.809 2.919"/><path fill="url(#aD)" d="M78.643 176.753s-2.011-6.236-13.528-2.777c-11.518 3.46-15.772 10.903-9.214 15.683 0 0 1.065 5.996 8.148 4.698z"/><path fill="#FFCA83" d="M87.355 65.862c-9.425-.886-21.415 4.555-37.006 28.064-12.928 19.495-29.676 27.614-35.018 29.82a14.3 14.3 0 0 1-2.671-3.212s4.067-1.628 10.354-5.905c5.59-3.812 12.943-9.725 20.747-18.467 15.471-17.311 27.297-33.31 43.594-30.3" opacity=".4"/><path fill="url(#aE)" d="M112.85 184.016s1.479-1.065 4.547-.825c0 0 6.971-7.796 10.16-9.215s8.561-.93 8.561-.93l-5.958 6.363s4.3 2.431 10.34 1.553a6.35 6.35 0 0 0 2.603-.983c1.276-.855 3.609-2.206 5.365-2.048 2.544.232 1.801 2.333.293 3.662 0 0 1.771 3.016-3.414 5.89 0 0-.533 4.21-4.832 4.96 0 0-2.656 4.608-10.985 4.833s-14.219-.353-23.042 0c-8.824.352-38.312.855-42.446-2.927 0 0-2.394-3.099.353-5.935 2.746-2.837 6.678-11.076 14.233-11.669z"/><path fill="#F87C38" d="M134.346 186.313c-.578 0-1.17-.023-1.771-.06a.277.277 0 0 1-.255-.293.277.277 0 0 1 .293-.255c9.566.653 15.922-4.277 15.982-4.33a.27.27 0 0 1 .382.045c.09.12.075.293-.045.383-.06.06-5.8 4.51-14.586 4.51M133.372 191.198c-.878 0-1.779-.06-2.687-.203a.27.27 0 1 1 .083-.532c7.383 1.163 14.361-3.152 14.436-3.197a.27.27 0 0 1 .375.083.27.27 0 0 1-.082.375c-.06.037-5.613 3.474-12.125 3.474M132.636 194.38a19.6 19.6 0 0 1-3.092-.24.27.27 0 0 1-.225-.308.267.267 0 0 1 .308-.225c6.077.946 10.729-1.366 10.774-1.388a.273.273 0 1 1 .248.488c-.165.075-3.369 1.673-8.013 1.673"/><path fill="url(#aF)" d="M49.995 168.716a184 184 0 0 1-.945-4.825c1.83-.773 4.87-2.671 4.074-6.558-.803-3.909-3.947-3.842-5.687-3.482q-.148-1.116-.285-2.243a64 64 0 0 1-.27-2.687c3.008-.608 9.964-1.088 11.254 7.151 1.328 8.412-5.342 11.661-8.14 12.644"/><defs><linearGradient id="a" x1="146.6" x2="146.6" y1="498.383" y2="1.981" gradientUnits="userSpaceOnUse"><stop stop-color="#386E9C"/><stop offset="1" stop-color="#fff"/></linearGradient><linearGradient id="b" x1="229.752" x2="229.752" y1="123.697" y2="58.019" gradientUnits="userSpaceOnUse"><stop stop-color="#101845"/><stop offset=".491" stop-color="#1F2E77"/><stop offset="1" stop-color="#418AD7"/></linearGradient><linearGradient id="c" x1="236.419" x2="236.419" y1="122.818" y2="48.197" gradientUnits="userSpaceOnUse"><stop stop-color="#FF2A64"/><stop offset=".061" stop-color="#FF3362"/><stop offset=".707" stop-color="#FF8A4F"/><stop offset="1" stop-color="#FFAC48"/></linearGradient><linearGradient id="d" x1="143.537" x2="143.537" y1="138.297" y2="117.937" gradientUnits="userSpaceOnUse"><stop stop-color="#1088B1"/><stop offset="1" stop-color="#40C37C"/></linearGradient><linearGradient id="e" x1="145.075" x2="142.7" y1="173.515" y2="101.216" gradientUnits="userSpaceOnUse"><stop stop-color="#03192E"/><stop offset=".5" stop-color="#223C6A"/><stop offset="1" stop-color="#4A749F"/></linearGradient><linearGradient id="f" x1="143.537" x2="143.537" y1="149.404" y2="129.044" gradientUnits="userSpaceOnUse"><stop stop-color="#1088B1"/><stop offset="1" stop-color="#40C37C"/></linearGradient><linearGradient id="g" x1="144.711" x2="142.336" y1="173.527" y2="101.228" gradientUnits="userSpaceOnUse"><stop stop-color="#03192E"/><stop offset=".5" stop-color="#223C6A"/><stop offset="1" stop-color="#4A749F"/></linearGradient><linearGradient id="h" x1="143.537" x2="143.537" y1="160.51" y2="140.15" gradientUnits="userSpaceOnUse"><stop stop-color="#1088B1"/><stop offset="1" stop-color="#40C37C"/></linearGradient><linearGradient id="i" x1="144.346" x2="141.971" y1="173.538" y2="101.24" gradientUnits="userSpaceOnUse"><stop stop-color="#03192E"/><stop offset=".5" stop-color="#223C6A"/><stop offset="1" stop-color="#4A749F"/></linearGradient><linearGradient id="j" x1="143.537" x2="143.537" y1="171.617" y2="151.257" gradientUnits="userSpaceOnUse"><stop stop-color="#1088B1"/><stop offset="1" stop-color="#40C37C"/></linearGradient><linearGradient id="k" x1="143.982" x2="141.607" y1="173.551" y2="101.252" gradientUnits="userSpaceOnUse"><stop stop-color="#03192E"/><stop offset=".5" stop-color="#223C6A"/><stop offset="1" stop-color="#4A749F"/></linearGradient><linearGradient id="l" x1="143.537" x2="143.537" y1="182.723" y2="162.363" gradientUnits="userSpaceOnUse"><stop stop-color="#03192E"/><stop offset=".5" stop-color="#223C6A"/><stop offset="1" stop-color="#4A749F"/></linearGradient><linearGradient id="m" x1="143.618" x2="141.243" y1="173.562" y2="101.263" gradientUnits="userSpaceOnUse"><stop stop-color="#03192E"/><stop offset=".5" stop-color="#223C6A"/><stop offset="1" stop-color="#4A749F"/></linearGradient><linearGradient id="n" x1="156.74" x2="156.74" y1="220.887" y2="87.977" gradientUnits="userSpaceOnUse"><stop stop-color="#03192E"/><stop offset=".5" stop-color="#223C6A"/><stop offset="1" stop-color="#4A749F"/></linearGradient><linearGradient id="o" x1="237.482" x2="237.482" y1="101.884" y2="148.892" gradientUnits="userSpaceOnUse"><stop stop-color="#03192E"/><stop offset=".5" stop-color="#223C6A"/><stop offset="1" stop-color="#4A749F"/></linearGradient><linearGradient id="p" x1="233.906" x2="233.906" y1="70.855" y2="128.028" gradientUnits="userSpaceOnUse"><stop stop-color="#03192E"/><stop offset=".5" stop-color="#223C6A"/><stop offset="1" stop-color="#4A749F"/></linearGradient><linearGradient id="q" x1="233.906" x2="233.906" y1="39.084" y2="85.024" gradientUnits="userSpaceOnUse"><stop stop-color="#03192E"/><stop offset=".5" stop-color="#223C6A"/><stop offset="1" stop-color="#4A749F"/></linearGradient><linearGradient id="r" x1="180.088" x2="180.088" y1="132.884" y2="-57.943" gradientUnits="userSpaceOnUse"><stop stop-color="#03192E"/><stop offset=".5" stop-color="#223C6A"/><stop offset="1" stop-color="#4A749F"/></linearGradient><linearGradient id="s" x1="179.336" x2="179.336" y1="82.359" y2="28.88" gradientUnits="userSpaceOnUse"><stop stop-color="#03192E"/><stop offset=".5" stop-color="#223C6A"/><stop offset="1" stop-color="#4A749F"/></linearGradient><linearGradient id="t" x1="177.534" x2="177.534" y1="184.474" y2="60.075" gradientUnits="userSpaceOnUse"><stop stop-color="#03192E"/><stop offset=".5" stop-color="#223C6A"/><stop offset="1" stop-color="#4A749F"/></linearGradient><linearGradient id="u" x1="177.534" x2="177.534" y1="103.732" y2="64.246" gradientUnits="userSpaceOnUse"><stop stop-color="#03192E"/><stop offset=".5" stop-color="#223C6A"/><stop offset="1" stop-color="#4A749F"/></linearGradient><linearGradient id="v" x1="204.752" x2="184.345" y1="128.504" y2="33.866" gradientUnits="userSpaceOnUse"><stop stop-color="#FF2A64"/><stop offset=".061" stop-color="#FF3362"/><stop offset=".707" stop-color="#FF8A4F"/><stop offset="1" stop-color="#FFAC48"/></linearGradient><linearGradient id="w" x1="165.659" x2="165.659" y1="160.463" y2="42.57" gradientUnits="userSpaceOnUse"><stop stop-color="#03192E"/><stop offset=".5" stop-color="#223C6A"/><stop offset="1" stop-color="#4A749F"/></linearGradient><linearGradient id="x" x1="180.758" x2="180.758" y1="160.198" y2="46.222" gradientUnits="userSpaceOnUse"><stop stop-color="#03192E"/><stop offset=".5" stop-color="#223C6A"/><stop offset="1" stop-color="#4A749F"/></linearGradient><linearGradient id="y" x1="180.758" x2="180.758" y1="160.198" y2="46.222" gradientUnits="userSpaceOnUse"><stop stop-color="#03192E"/><stop offset=".5" stop-color="#223C6A"/><stop offset="1" stop-color="#4A749F"/></linearGradient><linearGradient id="z" x1="219.087" x2="178.977" y1="236.928" y2="45.54" gradientUnits="userSpaceOnUse"><stop stop-color="#101845"/><stop offset=".491" stop-color="#1F2E77"/><stop offset="1" stop-color="#418AD7"/></linearGradient><linearGradient id="A" x1="193.615" x2="193.615" y1="195.468" y2="105.561" gradientUnits="userSpaceOnUse"><stop stop-color="#386E9C"/><stop offset="1" stop-color="#fff"/></linearGradient><linearGradient id="B" x1="192.77" x2="187.844" y1="219.235" y2="100.321" gradientUnits="userSpaceOnUse"><stop stop-color="#1088B1"/><stop offset="1" stop-color="#40C37C"/></linearGradient><linearGradient id="C" x1="175.131" x2="175.131" y1="66.658" y2="54.781" gradientUnits="userSpaceOnUse"><stop stop-color="#03192E"/><stop offset="1" stop-color="#CE2E31"/></linearGradient><linearGradient id="D" x1="174.586" x2="174.586" y1="71.891" y2="59.333" gradientUnits="userSpaceOnUse"><stop stop-color="#03192E"/><stop offset="1" stop-color="#CE2E31"/></linearGradient><linearGradient id="E" x1="181.332" x2="181.332" y1="200.57" y2="156.512" gradientUnits="userSpaceOnUse"><stop stop-color="#03192E"/><stop offset=".5" stop-color="#223C6A"/><stop offset="1" stop-color="#4A749F"/></linearGradient><linearGradient id="F" x1="180.668" x2="180.668" y1="219.304" y2="178.351" gradientUnits="userSpaceOnUse"><stop stop-color="#03192E"/><stop offset=".5" stop-color="#223C6A"/><stop offset="1" stop-color="#4A749F"/></linearGradient><linearGradient id="G" x1="234.274" x2="234.274" y1="76.201" y2="33.437" gradientUnits="userSpaceOnUse"><stop stop-color="#03192E"/><stop offset=".5" stop-color="#223C6A"/><stop offset="1" stop-color="#4A749F"/></linearGradient><linearGradient id="H" x1="230.744" x2="230.744" y1="61.777" y2="41.723" gradientUnits="userSpaceOnUse"><stop stop-color="#1480B2"/><stop offset=".5" stop-color="#1B9AC7"/><stop offset="1" stop-color="#36C1C7"/></linearGradient><linearGradient id="I" x1="239.515" x2="239.515" y1="61.777" y2="41.723" gradientUnits="userSpaceOnUse"><stop stop-color="#1480B2"/><stop offset=".5" stop-color="#1B9AC7"/><stop offset="1" stop-color="#36C1C7"/></linearGradient><linearGradient id="J" x1="234.274" x2="234.274" y1="106.634" y2="61.151" gradientUnits="userSpaceOnUse"><stop stop-color="#03192E"/><stop offset=".5" stop-color="#223C6A"/><stop offset="1" stop-color="#4A749F"/></linearGradient><linearGradient id="K" x1="230.744" x2="230.744" y1="85.701" y2="71.442" gradientUnits="userSpaceOnUse"><stop stop-color="#1480B2"/><stop offset=".5" stop-color="#1B9AC7"/><stop offset="1" stop-color="#36C1C7"/></linearGradient><linearGradient id="L" x1="239.515" x2="239.515" y1="85.701" y2="71.442" gradientUnits="userSpaceOnUse"><stop stop-color="#1480B2"/><stop offset=".5" stop-color="#1B9AC7"/><stop offset="1" stop-color="#36C1C7"/></linearGradient><linearGradient id="M" x1="238.354" x2="238.354" y1="127.743" y2="80.92" gradientUnits="userSpaceOnUse"><stop stop-color="#03192E"/><stop offset=".5" stop-color="#223C6A"/><stop offset="1" stop-color="#4A749F"/></linearGradient><linearGradient id="N" x1="230.744" x2="230.744" y1="116.66" y2="103.25" gradientUnits="userSpaceOnUse"><stop stop-color="#1480B2"/><stop offset=".5" stop-color="#1B9AC7"/><stop offset="1" stop-color="#36C1C7"/></linearGradient><linearGradient id="O" x1="243.595" x2="243.595" y1="116.66" y2="103.25" gradientUnits="userSpaceOnUse"><stop stop-color="#1480B2"/><stop offset=".5" stop-color="#1B9AC7"/><stop offset="1" stop-color="#36C1C7"/></linearGradient><linearGradient id="P" x1="210.17" x2="210.17" y1="292.922" y2="43.028" gradientUnits="userSpaceOnUse"><stop stop-color="#03192E"/><stop offset=".5" stop-color="#223C6A"/><stop offset="1" stop-color="#4A749F"/></linearGradient><linearGradient id="Q" x1="210.169" x2="210.169" y1="214.289" y2="66.07" gradientUnits="userSpaceOnUse"><stop stop-color="#1480B2"/><stop offset=".5" stop-color="#1B9AC7"/><stop offset="1" stop-color="#36C1C7"/></linearGradient><linearGradient id="R" x1="182.213" x2="153.187" y1="201.144" y2="84.517" gradientUnits="userSpaceOnUse"><stop stop-color="#03192E"/><stop offset="1" stop-color="#CE2E31"/></linearGradient><linearGradient id="S" x1="119.755" x2="116.236" y1="88.502" y2="62.468" gradientUnits="userSpaceOnUse"><stop stop-color="#03192E"/><stop offset=".5" stop-color="#223C6A"/><stop offset="1" stop-color="#4A749F"/></linearGradient><linearGradient id="T" x1="118.912" x2="118.912" y1="95.199" y2="60.834" gradientUnits="userSpaceOnUse"><stop stop-color="#FF2A64"/><stop offset=".061" stop-color="#FF3362"/><stop offset=".707" stop-color="#FF8A4F"/><stop offset="1" stop-color="#FFAC48"/></linearGradient><linearGradient id="U" x1="59.534" x2="16.258" y1="164.917" y2="64.299" gradientUnits="userSpaceOnUse"><stop stop-color="#03192E"/><stop offset=".5" stop-color="#223C6A"/><stop offset="1" stop-color="#4A749F"/></linearGradient><linearGradient id="V" x1="47.963" x2="6.799" y1="135.635" y2="48.035" gradientUnits="userSpaceOnUse"><stop stop-color="#03192E"/><stop offset=".5" stop-color="#223C6A"/><stop offset="1" stop-color="#4A749F"/></linearGradient><linearGradient id="W" x1="65.654" x2="9.976" y1="205.72" y2="83.027" gradientUnits="userSpaceOnUse"><stop stop-color="#03192E"/><stop offset=".5" stop-color="#223C6A"/><stop offset="1" stop-color="#4A749F"/></linearGradient><linearGradient id="X" x1="43.387" x2="-5.957" y1="154.831" y2="53.51" gradientUnits="userSpaceOnUse"><stop stop-color="#03192E"/><stop offset=".5" stop-color="#223C6A"/><stop offset="1" stop-color="#4A749F"/></linearGradient><linearGradient id="Y" x1="73.006" x2="154.805" y1="174.978" y2="71.286" gradientUnits="userSpaceOnUse"><stop stop-color="#FF2A64"/><stop offset=".061" stop-color="#FF3362"/><stop offset=".707" stop-color="#FF8A4F"/><stop offset="1" stop-color="#FFAC48"/></linearGradient><linearGradient id="Z" x1="134.871" x2="126.427" y1="115.041" y2="71.504" gradientUnits="userSpaceOnUse"><stop stop-color="#386E9C"/><stop offset="1" stop-color="#fff"/></linearGradient><linearGradient id="aa" x1="106.222" x2="124.43" y1="146.534" y2="74.5" gradientUnits="userSpaceOnUse"><stop stop-color="#03192E"/><stop offset=".5" stop-color="#223C6A"/><stop offset="1" stop-color="#4A749F"/></linearGradient><linearGradient id="ab" x1="99.347" x2="87.209" y1="165.688" y2="64.628" gradientUnits="userSpaceOnUse"><stop stop-color="#386E9C"/><stop offset="1" stop-color="#fff"/></linearGradient><linearGradient id="ac" x1="108.108" x2="98.96" y1="195.381" y2="141.904" gradientUnits="userSpaceOnUse"><stop stop-color="#386E9C"/><stop offset="1" stop-color="#fff"/></linearGradient><linearGradient id="ad" x1="100.693" x2="100.693" y1="165.388" y2="130.453" gradientUnits="userSpaceOnUse"><stop stop-color="#03192E"/><stop offset=".5" stop-color="#223C6A"/><stop offset="1" stop-color="#4A749F"/></linearGradient><linearGradient id="ae" x1="99.237" x2="96.95" y1="156.117" y2="138.35" gradientUnits="userSpaceOnUse"><stop stop-color="#386E9C"/><stop offset="1" stop-color="#fff"/></linearGradient><linearGradient id="af" x1="103.311" x2="101.024" y1="155.592" y2="137.825" gradientUnits="userSpaceOnUse"><stop stop-color="#386E9C"/><stop offset="1" stop-color="#fff"/></linearGradient><linearGradient id="ag" x1="103.42" x2="100.078" y1="170.907" y2="147.863" gradientUnits="userSpaceOnUse"><stop stop-color="#386E9C"/><stop offset="1" stop-color="#fff"/></linearGradient><linearGradient id="ah" x1="99.729" x2="97.97" y1="161.785" y2="149.823" gradientUnits="userSpaceOnUse"><stop stop-color="#03192E"/><stop offset=".5" stop-color="#223C6A"/><stop offset="1" stop-color="#4A749F"/></linearGradient><linearGradient id="ai" x1="104.366" x2="102.606" y1="161.104" y2="149.142" gradientUnits="userSpaceOnUse"><stop stop-color="#03192E"/><stop offset=".5" stop-color="#223C6A"/><stop offset="1" stop-color="#4A749F"/></linearGradient><linearGradient id="aj" x1="131.899" x2="107.621" y1="273.186" y2="108.535" gradientUnits="userSpaceOnUse"><stop stop-color="#03192E"/><stop offset=".5" stop-color="#223C6A"/><stop offset="1" stop-color="#4A749F"/></linearGradient><linearGradient id="ak" x1="122.724" x2="115.071" y1="199.956" y2="140.587" gradientUnits="userSpaceOnUse"><stop stop-color="#FF2A64"/><stop offset=".061" stop-color="#FF3362"/><stop offset=".707" stop-color="#FF8A4F"/><stop offset="1" stop-color="#FFAC48"/></linearGradient><linearGradient id="al" x1="115.719" x2="107.274" y1="200.985" y2="113.119" gradientUnits="userSpaceOnUse"><stop stop-color="#386E9C"/><stop offset="1" stop-color="#fff"/></linearGradient><linearGradient id="am" x1="93.144" x2="68.867" y1="278.9" y2="114.25" gradientUnits="userSpaceOnUse"><stop stop-color="#03192E"/><stop offset=".5" stop-color="#223C6A"/><stop offset="1" stop-color="#4A749F"/></linearGradient><linearGradient id="an" x1="86.149" x2="78.497" y1="204.671" y2="145.302" gradientUnits="userSpaceOnUse"><stop stop-color="#FF2A64"/><stop offset=".061" stop-color="#FF3362"/><stop offset=".707" stop-color="#FF8A4F"/><stop offset="1" stop-color="#FFAC48"/></linearGradient><linearGradient id="ao" x1="95.594" x2="87.15" y1="202.92" y2="115.054" gradientUnits="userSpaceOnUse"><stop stop-color="#386E9C"/><stop offset="1" stop-color="#fff"/></linearGradient><linearGradient id="ap" x1="96.434" x2="85.879" y1="155.699" y2="104.773" gradientUnits="userSpaceOnUse"><stop stop-color="#386E9C"/><stop offset="1" stop-color="#fff"/></linearGradient><linearGradient id="aq" x1="72.545" x2="41.76" y1="118.568" y2="71.427" gradientUnits="userSpaceOnUse"><stop stop-color="#FF2A64"/><stop offset=".061" stop-color="#FF3362"/><stop offset=".707" stop-color="#FF8A4F"/><stop offset="1" stop-color="#FFAC48"/></linearGradient><linearGradient id="ar" x1="53.772" x2="37.411" y1="114.557" y2="71.46" gradientUnits="userSpaceOnUse"><stop stop-color="#FF2A64"/><stop offset=".061" stop-color="#FF3362"/><stop offset=".707" stop-color="#FF8A4F"/><stop offset="1" stop-color="#FFAC48"/></linearGradient><linearGradient id="as" x1="42.252" x2="15.689" y1="118.333" y2="68.025" gradientUnits="userSpaceOnUse"><stop stop-color="#FF2A64"/><stop offset=".061" stop-color="#FF3362"/><stop offset=".707" stop-color="#FF8A4F"/><stop offset="1" stop-color="#FFAC48"/></linearGradient><linearGradient id="at" x1="82.917" x2="74.737" y1="135.162" y2="97.166" gradientUnits="userSpaceOnUse"><stop stop-color="#386E9C"/><stop offset="1" stop-color="#fff"/></linearGradient><linearGradient id="au" x1="106.454" x2="98.274" y1="130.095" y2="92.098" gradientUnits="userSpaceOnUse"><stop stop-color="#386E9C"/><stop offset="1" stop-color="#fff"/></linearGradient><linearGradient id="av" x1="125.414" x2="179.419" y1="205.395" y2="128.351" gradientUnits="userSpaceOnUse"><stop stop-color="#386E9C"/><stop offset="1" stop-color="#fff"/></linearGradient><linearGradient id="aw" x1="132.065" x2="174.109" y1="181.327" y2="113.253" gradientUnits="userSpaceOnUse"><stop stop-color="#386E9C"/><stop offset="1" stop-color="#fff"/></linearGradient><linearGradient id="ax" x1="94.311" x2="53.147" y1="201.48" y2="81.689" gradientUnits="userSpaceOnUse"><stop stop-color="#FF2A64"/><stop offset=".061" stop-color="#FF3362"/><stop offset=".707" stop-color="#FF8A4F"/><stop offset="1" stop-color="#FFAC48"/></linearGradient><linearGradient id="ay" x1="63.328" x2="35.093" y1="154.56" y2="86.221" gradientUnits="userSpaceOnUse"><stop stop-color="#FF2A64"/><stop offset=".061" stop-color="#FF3362"/><stop offset=".707" stop-color="#FF8A4F"/><stop offset="1" stop-color="#FFAC48"/></linearGradient><linearGradient id="az" x1="65.994" x2="51.745" y1="183.157" y2="109.804" gradientUnits="userSpaceOnUse"><stop stop-color="#03192E"/><stop offset=".5" stop-color="#223C6A"/><stop offset="1" stop-color="#4A749F"/></linearGradient><linearGradient id="aA" x1="85.1" x2="85.1" y1="131.701" y2="81.39" gradientUnits="userSpaceOnUse"><stop stop-color="#FF2A64"/><stop offset=".061" stop-color="#FF3362"/><stop offset=".707" stop-color="#FF8A4F"/><stop offset="1" stop-color="#FFAC48"/></linearGradient><linearGradient id="aB" x1="96.153" x2="91.051" y1="93.832" y2="69.029" gradientUnits="userSpaceOnUse"><stop stop-color="#03192E"/><stop offset=".5" stop-color="#223C6A"/><stop offset="1" stop-color="#4A749F"/></linearGradient><linearGradient id="aC" x1="56.465" x2="9.759" y1="158.939" y2="78.727" gradientUnits="userSpaceOnUse"><stop stop-color="#FF2A64"/><stop offset=".061" stop-color="#FF3362"/><stop offset=".707" stop-color="#FF8A4F"/><stop offset="1" stop-color="#FFAC48"/></linearGradient><linearGradient id="aD" x1="82.165" x2="59.999" y1="220.524" y2="167.401" gradientUnits="userSpaceOnUse"><stop stop-color="#386E9C"/><stop offset="1" stop-color="#fff"/></linearGradient><linearGradient id="aE" x1="-39.132" x2="109.325" y1="230.361" y2="185.686" gradientUnits="userSpaceOnUse"><stop stop-color="#FF2A64"/><stop offset=".061" stop-color="#FF3362"/><stop offset=".707" stop-color="#FF8A4F"/><stop offset="1" stop-color="#FFAC48"/></linearGradient><linearGradient id="aF" x1="57.063" x2="52.313" y1="192.267" y2="150.84" gradientUnits="userSpaceOnUse"><stop stop-color="#FF2A64"/><stop offset=".061" stop-color="#FF3362"/><stop offset=".707" stop-color="#FF8A4F"/><stop offset="1" stop-color="#FFAC48"/></linearGradient></defs></svg>