<svg xmlns="http://www.w3.org/2000/svg" width="223" height="226" fill="none"><path fill="url(#a)" d="M188.147 211.336h6.893l-16.958-27.83 4.099-14.382-60.664 3.269-60.664-3.269 4.099 14.382-16.958 27.83h6.893L46.077 226h150.879z"/><path fill="url(#b)" d="m124.359 176.419-.104 4.429-.016.661c-.049 1.932-1.297 3.462-2.827 3.462h-1.771c-1.482 0-2.705-1.441-2.818-3.309l-.057-.999-.265-4.469z"/><path fill="url(#c)" d="m124.359 176.419-.104 4.429c-.379 1.45-1.49 2.489-2.802 2.489h-1.844c-1.361 0-2.512-1.12-2.843-2.674l-.265-4.469z"/><path fill="url(#d)" d="M122.434 179.286h-3.937a.61.61 0 0 1-.604-.604c0-.33.274-.604.604-.604h3.937c.33 0 .604.274.604.604a.6.6 0 0 1-.604.604"/><path fill="url(#e)" d="m106.386 176.419-.105 4.429-.016.661c-.048 1.932-1.297 3.462-2.826 3.462h-1.772c-1.481 0-2.705-1.441-2.818-3.309l-.056-.999-.266-4.469z"/><path fill="url(#f)" d="m106.386 176.419-.105 4.429c-.379 1.45-1.49 2.489-2.802 2.489h-1.844c-1.361 0-2.512-1.12-2.842-2.674l-.266-4.469z"/><path fill="url(#g)" d="M104.462 179.286h-3.937a.61.61 0 0 1-.604-.604c0-.33.273-.604.604-.604h3.937a.603.603 0 1 1 0 1.208"/><path fill="url(#h)" d="M163.171 215.668 154.789 226h10.58l2.811-7.505z"/><path fill="url(#i)" d="M152.615 183.667 109.996 226h25.943l20.951-39.942z"/><path fill="url(#j)" d="m93.94 121.097 1.578 14.197h32.256l1.176-14.656z"/><path fill="url(#k)" d="M130.729 120.276c.757 3.479-6.514 5.363-12.827 5.693-5.073.258-19.615 1.232-24.72-4.131-.58-.604-1.078-1.691-1.521-3.141-3.43-11.201-3.092-44.112-3.092-44.112l9.871-4.188 3.221-1.369 18.294-.177 3.108 1.57 7.449 3.769 3.22 4.268-4.098 36.825s.298 1.393.845 3.89c.081.338.161.716.25 1.103"/><path fill="url(#l)" d="m123.055 70.421-12.312 15.896-12.303-15.92 3.221-1.369 18.286-.185z"/><path fill="url(#m)" d="M127.13 90.81h-11.385a1.46 1.46 0 0 1-1.458-1.457v-2.23c0-.806.653-1.458 1.458-1.458h11.385c.805 0 1.458.652 1.458 1.458v2.23c0 .806-.653 1.458-1.458 1.458"/><path fill="url(#n)" d="m119.947 68.843-5.66 7.473-3.318 4.38-3.776-4.726-5.54-6.942c2.722-2.713 3.301-4.493 3.301-4.493s11.925-1.917 12.247 0c.331 1.916 2.746 4.308 2.746 4.308"/><path fill="url(#o)" d="m114.296 76.315-3.317 4.381-3.777-4.727 3.608-6.184z"/><path fill="url(#p)" d="m109.512 69.616-4.227-4.944 11.925-.137-5.017 5.17a1.815 1.815 0 0 1-2.681-.09"/><path fill="url(#q)" d="M118.287 27.033q-.617.7-1.329 1.401c-5.91 5.87-13.479 11.806-13.479 11.806l-.668.668-6.055 6.032s-1.393-5.38.29-11.741a22.5 22.5 0 0 1 3.607-7.578c4.686-6.394 10.612-12.095 14.204-18.835 1.449-2.722 2.52-5.613 2.971-8.778 0 0 1.087 1.128 2.319 3.068a23.6 23.6 0 0 1 2.27 4.582c1.868 5.082 2.279 12.136-4.13 19.375"/><path fill="url(#r)" d="M118.287 27.033q-.617.7-1.329 1.401c-5.91 5.87-13.479 11.806-13.479 11.806l-.668.668-1.941-.781s-.918-4.3 4.952-10.493c5.363-5.661 14.317-14.865 16.604-21.976 1.86 5.081 2.27 12.136-4.139 19.375"/><path fill="url(#s)" d="M118.287 27.033c2.802-8.141-1.933-16.04-3.431-18.247 1.45-2.722 2.521-5.613 2.972-8.778.008-.008 12.722 13.175.459 27.025"/><path fill="#FFC780" d="M120.155 3.068c-1.554 4.043-2.11 9.237-14.719 21.227-4.203 4.002-7.022 7.545-8.39 10.895a22.5 22.5 0 0 1 3.607-7.577c4.686-6.394 10.612-12.095 14.204-18.836 1.449-2.721 2.52-5.612 2.971-8.777.008 0 1.095 1.127 2.327 3.068" opacity=".5"/><path fill="url(#t)" d="M155.639 32.952c.017 1.465-.104 3.229-.579 5.025-1.16 4.429-4.421 9.01-12.851 9.542a29 29 0 0 1-3.43 0s-9.502-.426-18.713-5.629a40 40 0 0 1-1.901-1.143c-9.75-6.281-5.306-6.668-5.306-6.668s1.973.274 5.089.564c7.617.709 22.046 1.506 31.065-1.474 2.681-.886 4.887-2.11 6.288-3.76.008 0 .314 1.457.338 3.543"/><path fill="url(#u)" d="M155.06 37.976c-1.16 4.43-4.421 9.011-12.851 9.543a29 29 0 0 1-3.43 0s-9.502-.427-18.713-5.63l-1.296-4.05c0 .008 16.619 8.045 36.29.137"/><path fill="url(#v)" d="M129.101 58.72c-6.627 7.65-15.146 7.916-17.538 7.828-2.391.088-10.91-.186-17.537-7.828 0 0-1.038-1.143-.813-2.182.193-.918 1.07-1.393 1.868-.861-.709-.645-2.263-2.304-1.224-3.689 1.377-1.82 3.004.959 3.004.959s-.073-.339-.145-.918a20.2 20.2 0 0 1 .04-5.09c.33-2.31 1.151-4.952 2.995-7.271 1.433-1.796 3.487-3.399 6.41-4.502q.519-.192 1.062-.37c.934-.29 1.941-.54 3.036-.725.427-.072.87-.105 1.304-.105s.878.032 1.305.105q1.353.231 2.536.572c.322.088.628.185.934.29 2.963.998 5.081 2.496 6.603 4.203 2.158 2.432 3.084 5.307 3.43 7.795a20 20 0 0 1 .04 5.082 11 11 0 0 1-.145.918s1.627-2.779 3.004-.959c1.038 1.385-.516 3.044-1.224 3.688.797-.531 1.675-.056 1.868.862.225 1.055-.813 2.198-.813 2.198"/><path fill="#F57C38" d="M112.489 58.108h-1.86c-.524 0-.942.403-.942.894v.113c0 .346.209.66.539.805l.934.419c.25.113.548.113.797 0l.934-.419a.88.88 0 0 0 .54-.805v-.113c0-.491-.419-.894-.942-.894M111.57 63.118c-2.206 0-3.639-1.128-3.703-1.176a.254.254 0 0 1-.041-.354.255.255 0 0 1 .355-.04c.016.008 1.36 1.07 3.389 1.07 2.022 0 3.35-1.054 3.366-1.07a.247.247 0 0 1 .354.04.253.253 0 0 1-.032.354c-.064.04-1.481 1.176-3.688 1.176"/><g fill="#FFC780" opacity=".5"><path d="M105.937 59.122c.162-.771-.946-1.655-2.473-1.975-1.528-.32-2.897.044-3.059.815-.161.77.946 1.654 2.474 1.974 1.527.32 2.897-.044 3.058-.815M120.245 59.922c1.527-.32 2.635-1.205 2.473-1.975s-1.531-1.135-3.058-.815c-1.528.32-2.635 1.205-2.474 1.975.162.77 1.531 1.135 3.059.815"/></g><path fill="url(#w)" d="M106.876 57.44c1.071 0 1.94-1.122 1.94-2.505s-.869-2.504-1.94-2.504c-1.072 0-1.941 1.12-1.941 2.504s.869 2.505 1.941 2.505"/><path fill="#fff" d="M107.561 56.288c.262 0 .475-.285.475-.636s-.213-.636-.475-.636-.475.284-.475.636c0 .351.213.636.475.636"/><path fill="url(#x)" d="M116.225 57.44c1.071 0 1.94-1.122 1.94-2.505s-.869-2.504-1.94-2.504c-1.072 0-1.941 1.12-1.941 2.504s.869 2.505 1.941 2.505"/><path fill="#fff" d="M115.757 56.208c.262 0 .475-.285.475-.636s-.213-.637-.475-.637-.475.285-.475.637c0 .351.213.636.475.636"/><path fill="#F57C38" d="M104.009 51.77a.839.839 0 0 1-.773-1.16c.041-.096 1.023-2.383 3.503-2.383 2.834 0 3.511 2.118 3.535 2.207a.825.825 0 0 1-.556 1.039.824.824 0 0 1-1.038-.556c-.033-.088-.403-1.023-1.941-1.023-1.385 0-1.957 1.337-1.965 1.353a.81.81 0 0 1-.765.524M113.632 51.77a.832.832 0 0 1-.765-1.152c.04-.095 1.023-2.374 3.503-2.374 2.834 0 3.51 2.117 3.534 2.206a.825.825 0 0 1-.555 1.039.825.825 0 0 1-1.039-.556c-.032-.088-.403-1.022-1.94-1.022-1.361 0-1.949 1.304-1.973 1.36a.84.84 0 0 1-.765.5"/><path fill="url(#y)" d="M115.396 34.65c-.177 3.592-.958 13.215-4.147 12.861-3.317-.37-3.921-9.832-4.034-12.715.934-.29 1.941-.54 3.036-.725a8 8 0 0 1 1.304-.105c.435 0 .878.032 1.305.105q1.352.241 2.536.58m.934.29c-.604 3.866-1.015 9.382 1.337 10.268 1.884.709 3.824-2.633 5.266-6.064-1.522-1.707-3.64-3.197-6.603-4.203m-10.178.234c-2.923 1.103-4.976 2.706-6.41 4.502 1.418 3.237 3.254 6.216 5.041 5.54 2.311-.878 1.957-6.193 1.369-10.042"/><path fill="url(#z)" d="M101.063 54.09c-1.498.862-3.406-.982-4.348-2.069a20.2 20.2 0 0 1 .04-5.09c1.86 1.877 5.919 6.225 4.308 7.16"/><path fill="url(#A)" d="M126.402 52.03c-.942 1.087-2.851 2.93-4.348 2.07-1.611-.935 2.448-5.284 4.308-7.152a19.4 19.4 0 0 1 .04 5.081"/><path fill="url(#B)" d="M142.209 47.527c5.58-4.292 6.635-11.185 6.804-14.358 2.681-.886 4.887-2.11 6.289-3.76.008 0 3.655 17.055-13.093 18.118"/><path fill="#FFC780" d="M155.64 32.952c-3.035 2.013-9.541 5.516-25.339 4.791-5.17-.233-9.188-1.86-12.344-3.1 7.617.709 22.046 1.506 31.065-1.474 2.681-.886 4.887-2.11 6.288-3.76 0 0 .306 1.457.33 3.543" opacity=".5"/><path fill="url(#C)" d="M109.689 113.422s-5.628 2.069-11.595 3.165c-4.42.813-9.026 1.087-11.659-.411-2.424-1.377-4.034-8.367-4.38-16.258-.556-12.273 1.924-26.728 9.066-25.68 7.98 1.159 8.423 14.76 7.883 23.36-.032.516-.072 1.015-.105 1.482-.257 3.269-.62 5.508-.62 5.508l6.386-1.82 4.396-1.248z"/><path fill="url(#D)" d="M109.69 113.423s-5.629 2.069-11.595 3.164c5.797-4.976 7.037-9.848 6.57-13.81l4.397-1.248z"/><path fill="url(#E)" d="m149.981 104.363-19.904-1.248.225-2.134 1.079-10.17s1.522-11.138-.869-16.622c0 0 2.536.604 4.275 2.779.967 1.208 5.548 9.534 9.429 16.693 3.108 5.717 5.765 10.702 5.765 10.702"/><path fill="url(#F)" d="M131.381 90.81s1.522-11.137-.869-16.62c0 0 2.536.603 4.275 2.778.741.934 3.64 6.087 6.7 11.684.91 1.667 1.836 3.366 2.729 5.009-3.333 2.4-8.833 5.943-13.914 7.328l.62-5.838z"/><path fill="url(#G)" d="M144.216 93.653c-3.333 2.4-8.833 5.943-13.914 7.328l.62-5.838c4.018-2.07 8.02-4.719 10.573-6.499.902 1.667 1.828 3.375 2.721 5.01"/><path fill="url(#H)" d="M99.013 97.6c-.032.515-.073 1.014-.105 1.481-.258 3.27-.62 5.508-.62 5.508l-5.105 1.635s3.261-4.405 2.883-7.666z"/><path fill="url(#I)" d="m107.273 90.19.523 26.349c.016.805.676 1.45 1.482 1.45h19.445c.765 0 1.409-.58 1.474-1.345l2.48-26.792a1.485 1.485 0 0 0-1.506-1.618l-22.449.434c-.813.025-1.465.701-1.449 1.522"/><path fill="url(#J)" d="M148.29 113.785a5 5 0 0 1-.426.249c-4.3 2.207-14.381-.547-19.22-4.058-5.001-3.624-.363-11.411-.363-11.411s2.44.153 5.717.588c4.936.652 11.764 1.932 14.977 4.268 3.164 2.287 3.341 7.722-.685 10.364"/><path fill="url(#K)" d="M133.216 99.411s.113-2.07-2.528-2.118c-2.633-.056-5.492-.515-5.87.95-.379 1.466 1.932 3.125 5.33 2.988s3.068-1.82 3.068-1.82"/><path fill="url(#L)" d="M132.823 102.536s.112-2.07-2.529-2.118c-2.633-.057-5.491-.516-5.87.95-.378 1.466 1.933 3.124 5.331 2.987 3.398-.136 3.068-1.819 3.068-1.819"/><path fill="url(#M)" d="M132.605 105.99s.112-2.069-2.529-2.118-5.491-.515-5.87.95c-.378 1.466 1.933 3.125 5.331 2.988s3.068-1.82 3.068-1.82"/><path fill="url(#N)" d="M132.444 108.978s.112-2.07-2.529-2.118-5.491-.515-5.87.95c-.378 1.466 1.933 3.125 5.331 2.988 3.39-.137 3.068-1.82 3.068-1.82"/><path fill="url(#O)" d="M99.15 94.321a86 86 0 0 1-.25 4.76c-5.218 1.232-10.259 1.288-13.672 1.111a51 51 0 0 1-3.181-.274 68 68 0 0 1-.048-5.13c.225-9.18 2.198-18.239 6.562-20.212a4.5 4.5 0 0 1 2.56-.346c7.03 1.03 8.214 11.692 8.028 20.091"/><path fill="url(#P)" d="m95.84 96.714-10.604 3.478a51 51 0 0 1-3.18-.273 68 68 0 0 1-.05-5.13c.226-9.18 2.2-18.24 6.563-20.212-.845 5.266-2.133 19.246 7.271 22.137"/><path fill="url(#Q)" d="M99.15 94.321a86 86 0 0 1-.25 4.76c-7.263 1.715-14.18 1.159-16.845.837a68 68 0 0 1-.048-5.13c2.552.258 8.897.66 17.143-.467"/><path fill="url(#R)" d="M117.902 125.968c-5.073.258-19.615 1.232-24.72-4.131-.58-.604-1.079-1.691-1.521-3.14 4.654 1.401 23.326 6.345 38.826.467.081.346.153.725.242 1.111.757 3.479-6.522 5.363-12.827 5.693"/><path fill="url(#S)" d="m91.58 186.058-21.322 38.275 7.335-5.838h3.696L77.45 226h-24.72l36.024-39.942z"/><path fill="url(#T)" d="m81.289 218.494 1.304-2.826-13.914-42.293-8.261 1.844z"/><path fill="url(#U)" d="m56.062 175.655 21.53 42.841h3.697L64.33 174.568z"/><path fill="url(#V)" d="m164.475 218.494-1.304-2.826 13.922-42.293 8.261 1.844z"/><path fill="url(#W)" d="m189.702 175.655-21.523 42.841h-3.704l16.966-43.928z"/><path fill="url(#X)" d="m84.77 174.567 3.986 11.491h2.826l-2.246-11.491z"/><path fill="url(#Y)" d="m91.582 186.058 1.45-2.392-1.45-9.099h-2.247z"/><path fill="url(#Z)" d="m69.671 129.23-26.918 32.026c-1.248 1.482-2.971 1.514-3.857.04L1.286 98.662c-1.869-3.108-1.683-7.15.442-8.914l43.868-36.415c1.586-1.312 3.663.274 4.621 3.455l20.38 67.264c.507 1.667.089 3.962-.926 5.178"/><path fill="url(#aa)" d="M52.261 81.703 18.83 113.447c-1.112 1.054-2.762.62-3.696-1.007L8 99.966c-1.071-1.876-.926-4.316.338-5.403l37.538-32.34c.983-.845 2.279.056 2.89 1.99l4.115 12.916c.548 1.699.266 3.736-.62 4.574"/><path fill="url(#ab)" d="M21.688 97.317c1.345 2.69 1.039 6.088-.66 7.667-1.715 1.594-4.276.789-5.725-1.877-1.49-2.738-1.232-6.345.604-7.964 1.811-1.594 4.404-.588 5.781 2.174"/><path fill="url(#ac)" d="M46.922 72.757 24.15 93.275c-.491.443-1.208.161-1.594-.644-.395-.814-.306-1.836.2-2.28l23.166-20.558c.427-.378.999-.016 1.273.805.265.814.145 1.78-.274 2.159"/><path fill="url(#ad)" d="M48.742 78.16 26.68 98.58c-.475.443-1.16.185-1.53-.58-.37-.773-.282-1.755.201-2.198l22.433-20.47c.419-.379.966-.048 1.232.74.258.774.137 1.708-.274 2.087"/><path fill="url(#ae)" d="M57.488 96.391 44.01 110.145c-.684.701-1.618.387-2.093-.716l-2.971-6.958c-.508-1.2-.33-2.754.41-3.463l14.437-13.971c.66-.644 1.514-.161 1.9 1.063l2.263 7.11c.363 1.128.153 2.545-.467 3.181"/><path fill="url(#af)" d="m54.622 91.004-12.24 12.127c-.24.242-.58.113-.74-.29-.17-.402-.105-.934.145-1.175l12.352-12.144c.225-.225.515-.064.652.346.129.403.048.91-.17 1.136"/><path fill="url(#ag)" d="m55.555 93.83-12.03 12.079c-.242.242-.564.121-.725-.273-.16-.395-.096-.91.145-1.152l12.127-12.095c.225-.226.507-.073.644.322.128.395.056.902-.161 1.12"/><path fill="url(#ah)" d="m20.786 122.321 15.984 27.951c.708 1.24 2.077 1.313 3.06.194l25.186-28.757c.853-.974 1.16-2.923.652-4.276-1.562-4.171-5.29-12.095-10.057-9.301-6.908 4.043-7.392 19.488-14.445 19.295-6.095-.161-11.249-14.511-19.655-9.47-1.24.741-1.586 2.858-.725 4.364"/><path fill="url(#ai)" d="m67.456 126.114-25.783 30.125c-.499.58-1.175.564-1.522-.032-.346-.612-.217-1.578.29-2.166l26.234-30.335c.418-.483.934-.33 1.143.338.218.661.048 1.587-.362 2.07"/><path fill="url(#aj)" d="m160.875 174.567-3.985 11.491h-2.827l2.247-11.491z"/><path fill="url(#ak)" d="m154.064 186.058-1.449-2.392 1.449-9.099h2.247z"/><path fill="url(#al)" d="M194.581 167.061H48.453l26.75-36.309 102.63-1.2 10.475 23.465z"/><path fill="url(#am)" d="M194.581 167.062h-60.422l9.131-11.072 45.018-2.972z"/><path fill="url(#an)" d="m102.241 159.017-10.516 8.053H48.453l11.885-16.138 25.452 4.502 9.05-5.041z"/><path fill="url(#ao)" d="m120.213 159.018-4.026 8.052H95.969l14.461-11.636z"/><path fill="url(#ap)" d="m50.306 112.674 9.027-7.69H45.74l-8.704 7.69z"/><path fill="url(#aq)" d="m37.037 112.674 20.444 46.344h9.678l-16.853-46.344z"/><path fill="url(#ar)" d="m67.159 159.018 6.304-8.045-14.13-45.989-9.027 7.69z"/><path fill="url(#as)" d="m48.453 167.07 6.088 10.002h136.344l3.696-10.002z"/><path fill="url(#at)" d="M60.855 122.925h12.609l7.392-7.255-12.61-.467z"/><path fill="url(#au)" d="m60.855 122.925 12.609 36.093h10.765l-10.765-36.093z"/><path fill="url(#av)" d="m84.23 159.017 3.695-8.479-7.07-34.869-7.391 7.256z"/><path fill="url(#aw)" d="M91.435 159.017h10.806l-4.356-21.67H86.508z"/><path fill="url(#ax)" d="m86.508 137.347 4.13-8.19h11.603l-4.356 8.19z"/><path fill="url(#ay)" d="m102.241 159.017 3.116-8.842-3.116-21.018-4.356 8.19z"/><path fill="url(#az)" d="m107.492 145.102 1.522 13.915h11.2l-.765-13.915z"/><path fill="url(#aA)" d="m107.491 145.102 1.635-5.871h9.236l1.087 5.871z"/><path fill="url(#aB)" d="m201.022 159.686-53.965-.885c-2.407-.041-4.348-1.796-4.348-3.946v-84.78c0-3.382 2.488-6.168 5.556-6.176l69.134-.201c3.165-.008 5.21 2.81 4.574 6.24l-15.782 85.907c-.394 2.174-2.705 3.882-5.169 3.841"/><path fill="url(#aC)" d="m178.258 104.758-23.89-.129c-1.369-.008-2.448-1.143-2.415-2.544l.604-26.115c.04-1.603 1.264-2.915 2.737-2.915l25.799-.033c1.489 0 2.576 1.313 2.415 2.932l-2.52 26.268c-.121 1.417-1.353 2.544-2.73 2.536"/><path fill="url(#aD)" d="M167.766 79.77c-5.081 0-9.349 4.39-9.55 9.688-.193 5.162 3.575 9.269 8.422 9.293 4.856.016 9.139-4.067 9.558-9.253.435-5.315-3.342-9.728-8.43-9.728m-.975 16.307c-3.454-.016-6.119-2.947-5.958-6.611.161-3.728 3.188-6.805 6.755-6.805 3.575 0 6.241 3.093 5.959 6.83-.266 3.671-3.293 6.594-6.756 6.586"/><path fill="url(#aE)" d="m167.766 79.77-.169 2.891c3.575 0 6.24 3.093 5.959 6.83l2.641.007c.434-5.315-3.342-9.728-8.431-9.728"/><path fill="url(#aF)" d="m157.411 121.105-3.478-.032c-.435 0-.798.338-.806.757l-.748 27.291c-.008.362.306.66.708.668l3.213.049c.402.008.741-.282.757-.645l1.111-27.314a.746.746 0 0 0-.757-.774"/><path fill="url(#aG)" d="m166.372 116.225-3.535-.024a.837.837 0 0 0-.837.781l-1.619 32.26c-.016.362.29.66.693.668l3.229.048c.402.008.749-.282.773-.644l2.053-32.291a.75.75 0 0 0-.757-.798"/><path fill="url(#aH)" d="m174.658 122.474-3.494-.033c-.435 0-.814.339-.846.757l-1.908 26.156c-.024.362.282.66.684.668l3.237.048c.403.008.757-.282.789-.644l2.263-26.171a.72.72 0 0 0-.725-.781"/><path fill="url(#aI)" d="m183.74 118.874-3.535-.032c-.443 0-.829.347-.869.773l-2.867 29.852c-.032.362.266.66.668.668l3.245.049c.403.008.765-.282.806-.653l3.269-29.875c.048-.419-.274-.773-.717-.782"/><path fill="url(#aJ)" d="m192.332 120.655-3.535-.032c-.443 0-.837.338-.886.765l-3.349 28.192c-.04.363.249.669.66.669l3.261.048c.411.008.773-.282.821-.652l3.737-28.217c.04-.419-.274-.765-.709-.773"/><path fill="url(#aK)" d="m201.776 116.499-3.591-.024a.95.95 0 0 0-.926.789l-4.605 32.453c-.049.362.233.668.644.668l3.269.048c.41.009.781-.281.845-.652l5.049-32.476c.072-.451-.234-.806-.685-.806"/><path fill="url(#aL)" d="m207.133 84.433-18.366-.024c-.564 0-.966-.483-.902-1.087s.572-1.087 1.143-1.087l18.463.016c.572 0 .951.491.862 1.095-.105.604-.636 1.087-1.2 1.087"/><path fill="url(#aM)" d="m199.847 88.443-11.531-.024c-.556 0-.958-.475-.894-1.063.065-.588.572-1.071 1.128-1.071l11.594.016c.564 0 .951.483.87 1.07-.08.597-.604 1.072-1.167 1.072"/><path fill="url(#aN)" d="m205.847 92.768-17.997-.049c-.547 0-.95-.467-.885-1.047s.563-1.046 1.111-1.046l18.093.04c.555 0 .934.475.845 1.055-.088.58-.612 1.046-1.167 1.046"/><path fill="url(#aO)" d="m198.721 96.6-11.305-.04c-.548 0-.934-.459-.878-1.022.065-.564.556-1.023 1.103-1.023l11.362.04c.547 0 .934.467.853 1.031-.08.564-.588 1.015-1.135 1.015"/><path fill="url(#aP)" d="M214.237 58.704h-45.123c-1.9 0-3.334-1.546-3.197-3.446l1.031-14.044c.137-1.9 1.795-3.447 3.696-3.447h45.123c1.9 0 3.334 1.546 3.197 3.447l-1.031 14.044c-.145 1.908-1.796 3.446-3.696 3.446"/><path fill="#fff" d="M211.499 45.522h-20.661a.675.675 0 0 1-.685-.74.81.81 0 0 1 .79-.741h20.661c.411 0 .717.33.684.74a.81.81 0 0 1-.789.741M211.243 48.976H190.59a.675.675 0 0 1-.685-.74.81.81 0 0 1 .789-.741h20.662c.41 0 .716.33.684.74a.81.81 0 0 1-.797.741M204.833 52.43h-14.502a.675.675 0 0 1-.684-.74.81.81 0 0 1 .789-.74h14.502c.41 0 .716.33.684.74a.8.8 0 0 1-.789.74"/><path fill="url(#aQ)" d="M187.246 48.236c-.29 3.978-3.753 7.207-7.73 7.207s-6.965-3.229-6.675-7.207 3.752-7.207 7.73-7.207c3.977 0 6.965 3.229 6.675 7.207"/><path fill="url(#aR)" d="m179.893 48.969-1.892.418-.95-3.833c-.177-.733.322-1.514 1.087-1.683s1.465.346 1.513 1.111z"/><path fill="url(#aS)" d="m180.135 48.984 1.843.395 1.458-3.85c.282-.74-.121-1.514-.862-1.675-.741-.16-1.513.363-1.666 1.128z"/><path fill="url(#aT)" d="M183.076 49.531c-.121 1.715-1.618 3.117-3.334 3.117s-3.011-1.394-2.89-3.109 1.618-3.116 3.333-3.116c1.723 0 3.012 1.393 2.891 3.108"/><path fill="url(#aU)" d="M72.273 59.365c-7.15 0-12.94-5.798-12.94-12.94 0-7.152 5.798-12.942 12.94-12.942 7.15 0 12.94 5.798 12.94 12.941 0 7.151-5.798 12.94-12.94 12.94"/><path fill="url(#aV)" d="M72.272 38.66a7.76 7.76 0 0 0-7.762 7.764 7.767 7.767 0 0 0 7.762 7.762 7.767 7.767 0 0 0 7.762-7.763 7.767 7.767 0 0 0-7.762-7.762m0 13.255a5.49 5.49 0 0 1-5.491-5.492 5.49 5.49 0 0 1 5.491-5.492 5.49 5.49 0 0 1 5.492 5.493c-.008 3.035-2.464 5.491-5.492 5.491"/><path fill="url(#aW)" d="M72.272 38.66v2.272a5.49 5.49 0 0 1 5.491 5.491h2.27a7.767 7.767 0 0 0-7.761-7.762"/><defs><linearGradient id="a" x1="121.517" x2="121.517" y1="430.281" y2="133.608" gradientUnits="userSpaceOnUse"><stop stop-color="#386E9C"/><stop offset="1" stop-color="#fff"/></linearGradient><linearGradient id="b" x1="120.433" x2="120.433" y1="194.674" y2="178.904" gradientUnits="userSpaceOnUse"><stop stop-color="#03192E"/><stop offset=".5" stop-color="#223C6A"/><stop offset="1" stop-color="#4A749F"/></linearGradient><linearGradient id="c" x1="120.433" x2="120.433" y1="189.672" y2="169.859" gradientUnits="userSpaceOnUse"><stop stop-color="#386E9C"/><stop offset="1" stop-color="#fff"/></linearGradient><linearGradient id="d" x1="120.466" x2="120.466" y1="185.105" y2="173.797" gradientUnits="userSpaceOnUse"><stop stop-color="#03192E"/><stop offset=".5" stop-color="#223C6A"/><stop offset="1" stop-color="#4A749F"/></linearGradient><linearGradient id="e" x1="102.456" x2="102.456" y1="194.674" y2="178.904" gradientUnits="userSpaceOnUse"><stop stop-color="#03192E"/><stop offset=".5" stop-color="#223C6A"/><stop offset="1" stop-color="#4A749F"/></linearGradient><linearGradient id="f" x1="102.456" x2="102.456" y1="189.672" y2="169.859" gradientUnits="userSpaceOnUse"><stop stop-color="#386E9C"/><stop offset="1" stop-color="#fff"/></linearGradient><linearGradient id="g" x1="102.491" x2="102.491" y1="185.105" y2="173.797" gradientUnits="userSpaceOnUse"><stop stop-color="#03192E"/><stop offset=".5" stop-color="#223C6A"/><stop offset="1" stop-color="#4A749F"/></linearGradient><linearGradient id="h" x1="161.481" x2="161.481" y1="58.758" y2="336.129" gradientUnits="userSpaceOnUse"><stop stop-color="#386E9C"/><stop offset="1" stop-color="#fff"/></linearGradient><linearGradient id="i" x1="133.441" x2="133.441" y1="58.758" y2="336.128" gradientUnits="userSpaceOnUse"><stop stop-color="#386E9C"/><stop offset="1" stop-color="#fff"/></linearGradient><linearGradient id="j" x1="111.446" x2="111.446" y1="140.029" y2="107.554" gradientUnits="userSpaceOnUse"><stop stop-color="#03192E"/><stop offset=".5" stop-color="#223C6A"/><stop offset="1" stop-color="#4A749F"/></linearGradient><linearGradient id="k" x1="123.571" x2="105.979" y1="179.269" y2="51.32" gradientUnits="userSpaceOnUse"><stop stop-color="#03192E"/><stop offset=".5" stop-color="#223C6A"/><stop offset="1" stop-color="#4A749F"/></linearGradient><linearGradient id="l" x1="110.748" x2="110.748" y1="110.888" y2="59.203" gradientUnits="userSpaceOnUse"><stop stop-color="#03192E"/><stop offset=".5" stop-color="#223C6A"/><stop offset="1" stop-color="#4A749F"/></linearGradient><linearGradient id="m" x1="121.44" x2="121.44" y1="92.465" y2="74.838" gradientUnits="userSpaceOnUse"><stop stop-color="#386E9C"/><stop offset="1" stop-color="#fff"/></linearGradient><linearGradient id="n" x1="110.805" x2="110.805" y1="89.88" y2="56.52" gradientUnits="userSpaceOnUse"><stop stop-color="#386E9C"/><stop offset="1" stop-color="#fff"/></linearGradient><linearGradient id="o" x1="110.748" x2="110.748" y1="81.954" y2="54.118" gradientUnits="userSpaceOnUse"><stop stop-color="#FF2A64"/><stop offset=".061" stop-color="#FF3362"/><stop offset=".707" stop-color="#FF8A4F"/><stop offset="1" stop-color="#FFAC48"/></linearGradient><linearGradient id="p" x1="111.246" x2="111.246" y1="81.918" y2="55.916" gradientUnits="userSpaceOnUse"><stop stop-color="#FF2A64"/><stop offset=".061" stop-color="#FF3362"/><stop offset=".707" stop-color="#FF8A4F"/><stop offset="1" stop-color="#FFAC48"/></linearGradient><linearGradient id="q" x1="120.409" x2="106.055" y1="82.865" y2="8.275" gradientUnits="userSpaceOnUse"><stop stop-color="#FF2A64"/><stop offset=".061" stop-color="#FF3362"/><stop offset=".707" stop-color="#FF8A4F"/><stop offset="1" stop-color="#FFAC48"/></linearGradient><linearGradient id="r" x1="112.22" x2="112.22" y1="72.78" y2="4.833" gradientUnits="userSpaceOnUse"><stop stop-color="#FF2A64"/><stop offset=".061" stop-color="#FF3362"/><stop offset=".707" stop-color="#FF8A4F"/><stop offset="1" stop-color="#FFAC48"/></linearGradient><linearGradient id="s" x1="119.241" x2="119.241" y1="37.792" y2="-17.436" gradientUnits="userSpaceOnUse"><stop stop-color="#FF2A64"/><stop offset=".061" stop-color="#FF3362"/><stop offset=".707" stop-color="#FF8A4F"/><stop offset="1" stop-color="#FFAC48"/></linearGradient><linearGradient id="t" x1="71.889" x2="157.786" y1="88.093" y2="18.076" gradientUnits="userSpaceOnUse"><stop stop-color="#FF2A64"/><stop offset=".061" stop-color="#FF3362"/><stop offset=".707" stop-color="#FF8A4F"/><stop offset="1" stop-color="#FFAC48"/></linearGradient><linearGradient id="u" x1="75.465" x2="164.408" y1="101.24" y2="11.436" gradientUnits="userSpaceOnUse"><stop stop-color="#FF2A64"/><stop offset=".061" stop-color="#FF3362"/><stop offset=".707" stop-color="#FF8A4F"/><stop offset="1" stop-color="#FFAC48"/></linearGradient><linearGradient id="v" x1="111.561" x2="111.561" y1="132.37" y2="44.258" gradientUnits="userSpaceOnUse"><stop stop-color="#FF2A64"/><stop offset=".061" stop-color="#FF3362"/><stop offset=".707" stop-color="#FF8A4F"/><stop offset="1" stop-color="#FFAC48"/></linearGradient><linearGradient id="w" x1="106.875" x2="106.875" y1="59.627" y2="49.845" gradientUnits="userSpaceOnUse"><stop stop-color="#03192E"/><stop offset=".5" stop-color="#223C6A"/><stop offset="1" stop-color="#4A749F"/></linearGradient><linearGradient id="x" x1="116.226" x2="116.226" y1="59.627" y2="49.845" gradientUnits="userSpaceOnUse"><stop stop-color="#03192E"/><stop offset=".5" stop-color="#223C6A"/><stop offset="1" stop-color="#4A749F"/></linearGradient><linearGradient id="y" x1="111.34" x2="111.34" y1="97.467" y2="25.7" gradientUnits="userSpaceOnUse"><stop stop-color="#FF2A64"/><stop offset=".061" stop-color="#FF3362"/><stop offset=".707" stop-color="#FF8A4F"/><stop offset="1" stop-color="#FFAC48"/></linearGradient><linearGradient id="z" x1="99.002" x2="99.002" y1="74.706" y2="40.712" gradientUnits="userSpaceOnUse"><stop stop-color="#FF2A64"/><stop offset=".061" stop-color="#FF3362"/><stop offset=".707" stop-color="#FF8A4F"/><stop offset="1" stop-color="#FFAC48"/></linearGradient><linearGradient id="A" x1="124.117" x2="124.117" y1="74.706" y2="40.712" gradientUnits="userSpaceOnUse"><stop stop-color="#FF2A64"/><stop offset=".061" stop-color="#FF3362"/><stop offset=".707" stop-color="#FF8A4F"/><stop offset="1" stop-color="#FFAC48"/></linearGradient><linearGradient id="B" x1="135.309" x2="156.623" y1="100.3" y2="8.313" gradientUnits="userSpaceOnUse"><stop stop-color="#FF2A64"/><stop offset=".061" stop-color="#FF3362"/><stop offset=".707" stop-color="#FF8A4F"/><stop offset="1" stop-color="#FFAC48"/></linearGradient><linearGradient id="C" x1="95.837" x2="95.837" y1="160.531" y2="93.115" gradientUnits="userSpaceOnUse"><stop stop-color="#FF2A64"/><stop offset=".061" stop-color="#FF3362"/><stop offset=".707" stop-color="#FF8A4F"/><stop offset="1" stop-color="#FFAC48"/></linearGradient><linearGradient id="D" x1="105.524" x2="102.044" y1="148.992" y2="76.358" gradientUnits="userSpaceOnUse"><stop stop-color="#FF2A64"/><stop offset=".061" stop-color="#FF3362"/><stop offset=".707" stop-color="#FF8A4F"/><stop offset="1" stop-color="#FFAC48"/></linearGradient><linearGradient id="E" x1="140.026" x2="140.026" y1="147.092" y2="79.675" gradientUnits="userSpaceOnUse"><stop stop-color="#FF2A64"/><stop offset=".061" stop-color="#FF3362"/><stop offset=".707" stop-color="#FF8A4F"/><stop offset="1" stop-color="#FFAC48"/></linearGradient><linearGradient id="F" x1="137.258" x2="137.258" y1="100.728" y2="50.239" gradientUnits="userSpaceOnUse"><stop stop-color="#386E9C"/><stop offset="1" stop-color="#fff"/></linearGradient><linearGradient id="G" x1="140.966" x2="134.006" y1="131.856" y2="67.051" gradientUnits="userSpaceOnUse"><stop stop-color="#386E9C"/><stop offset="1" stop-color="#fff"/></linearGradient><linearGradient id="H" x1="98.367" x2="94.887" y1="149.335" y2="76.702" gradientUnits="userSpaceOnUse"><stop stop-color="#FF2A64"/><stop offset=".061" stop-color="#FF3362"/><stop offset=".707" stop-color="#FF8A4F"/><stop offset="1" stop-color="#FFAC48"/></linearGradient><linearGradient id="I" x1="119.978" x2="119.978" y1="164.318" y2="95.67" gradientUnits="userSpaceOnUse"><stop stop-color="#03192E"/><stop offset=".5" stop-color="#223C6A"/><stop offset="1" stop-color="#4A749F"/></linearGradient><linearGradient id="J" x1="138.833" x2="138.833" y1="160.531" y2="93.115" gradientUnits="userSpaceOnUse"><stop stop-color="#FF2A64"/><stop offset=".061" stop-color="#FF3362"/><stop offset=".707" stop-color="#FF8A4F"/><stop offset="1" stop-color="#FFAC48"/></linearGradient><linearGradient id="K" x1="129.001" x2="129.001" y1="123.273" y2="97.302" gradientUnits="userSpaceOnUse"><stop stop-color="#FF2A64"/><stop offset=".061" stop-color="#FF3362"/><stop offset=".707" stop-color="#FF8A4F"/><stop offset="1" stop-color="#FFAC48"/></linearGradient><linearGradient id="L" x1="128.609" x2="128.609" y1="119.686" y2="93.716" gradientUnits="userSpaceOnUse"><stop stop-color="#FF2A64"/><stop offset=".061" stop-color="#FF3362"/><stop offset=".707" stop-color="#FF8A4F"/><stop offset="1" stop-color="#FFAC48"/></linearGradient><linearGradient id="M" x1="128.391" x2="128.391" y1="123.273" y2="97.302" gradientUnits="userSpaceOnUse"><stop stop-color="#FF2A64"/><stop offset=".061" stop-color="#FF3362"/><stop offset=".707" stop-color="#FF8A4F"/><stop offset="1" stop-color="#FFAC48"/></linearGradient><linearGradient id="N" x1="128.228" x2="128.228" y1="122.332" y2="96.362" gradientUnits="userSpaceOnUse"><stop stop-color="#FF2A64"/><stop offset=".061" stop-color="#FF3362"/><stop offset=".707" stop-color="#FF8A4F"/><stop offset="1" stop-color="#FFAC48"/></linearGradient><linearGradient id="O" x1="90.576" x2="90.576" y1="100.729" y2="50.239" gradientUnits="userSpaceOnUse"><stop stop-color="#386E9C"/><stop offset="1" stop-color="#fff"/></linearGradient><linearGradient id="P" x1="88.91" x2="88.91" y1="98.554" y2="49.623" gradientUnits="userSpaceOnUse"><stop stop-color="#386E9C"/><stop offset="1" stop-color="#fff"/></linearGradient><linearGradient id="Q" x1="94.865" x2="87.905" y1="136.806" y2="72.002" gradientUnits="userSpaceOnUse"><stop stop-color="#386E9C"/><stop offset="1" stop-color="#fff"/></linearGradient><linearGradient id="R" x1="111.22" x2="111.22" y1="135.751" y2="92.209" gradientUnits="userSpaceOnUse"><stop stop-color="#386E9C"/><stop offset="1" stop-color="#fff"/></linearGradient><linearGradient id="S" x1="72.157" x2="72.157" y1="58.758" y2="336.128" gradientUnits="userSpaceOnUse"><stop stop-color="#386E9C"/><stop offset="1" stop-color="#fff"/></linearGradient><linearGradient id="T" x1="71.504" x2="71.504" y1="169.882" y2="298.085" gradientUnits="userSpaceOnUse"><stop stop-color="#03192E"/><stop offset=".5" stop-color="#223C6A"/><stop offset="1" stop-color="#4A749F"/></linearGradient><linearGradient id="U" x1="68.677" x2="68.677" y1="163.686" y2="253.15" gradientUnits="userSpaceOnUse"><stop stop-color="#03192E"/><stop offset=".5" stop-color="#223C6A"/><stop offset="1" stop-color="#4A749F"/></linearGradient><linearGradient id="V" x1="174.264" x2="174.264" y1="166.294" y2="303.469" gradientUnits="userSpaceOnUse"><stop stop-color="#03192E"/><stop offset=".5" stop-color="#223C6A"/><stop offset="1" stop-color="#4A749F"/></linearGradient><linearGradient id="W" x1="177.091" x2="177.091" y1="141.83" y2="267.75" gradientUnits="userSpaceOnUse"><stop stop-color="#03192E"/><stop offset=".5" stop-color="#223C6A"/><stop offset="1" stop-color="#4A749F"/></linearGradient><linearGradient id="X" x1="88.178" x2="88.178" y1="174.123" y2="202.51" gradientUnits="userSpaceOnUse"><stop stop-color="#03192E"/><stop offset=".5" stop-color="#223C6A"/><stop offset="1" stop-color="#4A749F"/></linearGradient><linearGradient id="Y" x1="91.186" x2="91.186" y1="169.23" y2="204.514" gradientUnits="userSpaceOnUse"><stop stop-color="#03192E"/><stop offset=".5" stop-color="#223C6A"/><stop offset="1" stop-color="#4A749F"/></linearGradient><linearGradient id="Z" x1="57.971" x2="-3.032" y1="157.944" y2="6.266" gradientUnits="userSpaceOnUse"><stop stop-color="#03192E"/><stop offset=".5" stop-color="#223C6A"/><stop offset="1" stop-color="#4A749F"/></linearGradient><linearGradient id="aa" x1="39.89" x2=".418" y1="109.482" y2="15.539" gradientUnits="userSpaceOnUse"><stop stop-color="#03192E"/><stop offset=".5" stop-color="#223C6A"/><stop offset="1" stop-color="#4A749F"/></linearGradient><linearGradient id="ab" x1="50.469" x2="5.125" y1="176.614" y2="68.319" gradientUnits="userSpaceOnUse"><stop stop-color="#03192E"/><stop offset=".5" stop-color="#223C6A"/><stop offset="1" stop-color="#4A749F"/></linearGradient><linearGradient id="ac" x1="71.038" x2="25.693" y1="168.001" y2="59.706" gradientUnits="userSpaceOnUse"><stop stop-color="#03192E"/><stop offset=".5" stop-color="#223C6A"/><stop offset="1" stop-color="#4A749F"/></linearGradient><linearGradient id="ad" x1="70.989" x2="25.645" y1="168.021" y2="59.727" gradientUnits="userSpaceOnUse"><stop stop-color="#03192E"/><stop offset=".5" stop-color="#223C6A"/><stop offset="1" stop-color="#4A749F"/></linearGradient><linearGradient id="ae" x1="52.644" x2="30.461" y1="106.208" y2="57.28" gradientUnits="userSpaceOnUse"><stop stop-color="#03192E"/><stop offset=".5" stop-color="#223C6A"/><stop offset="1" stop-color="#4A749F"/></linearGradient><linearGradient id="af" x1="71.069" x2="43.666" y1="180.743" y2="79.623" gradientUnits="userSpaceOnUse"><stop stop-color="#03192E"/><stop offset=".5" stop-color="#223C6A"/><stop offset="1" stop-color="#4A749F"/></linearGradient><linearGradient id="ag" x1="71.331" x2="43.928" y1="180.672" y2="79.552" gradientUnits="userSpaceOnUse"><stop stop-color="#03192E"/><stop offset=".5" stop-color="#223C6A"/><stop offset="1" stop-color="#4A749F"/></linearGradient><linearGradient id="ah" x1="63.854" x2="18.183" y1="161.969" y2="68.354" gradientUnits="userSpaceOnUse"><stop stop-color="#1088B1"/><stop offset="1" stop-color="#40C37C"/></linearGradient><linearGradient id="ai" x1="73.207" x2="44.499" y1="200.457" y2="110.428" gradientUnits="userSpaceOnUse"><stop stop-color="#03192E"/><stop offset=".5" stop-color="#223C6A"/><stop offset="1" stop-color="#4A749F"/></linearGradient><linearGradient id="aj" x1="157.468" x2="157.468" y1="174.123" y2="202.51" gradientUnits="userSpaceOnUse"><stop stop-color="#03192E"/><stop offset=".5" stop-color="#223C6A"/><stop offset="1" stop-color="#4A749F"/></linearGradient><linearGradient id="ak" x1="154.461" x2="154.461" y1="169.23" y2="204.514" gradientUnits="userSpaceOnUse"><stop stop-color="#03192E"/><stop offset=".5" stop-color="#223C6A"/><stop offset="1" stop-color="#4A749F"/></linearGradient><linearGradient id="al" x1="121.517" x2="121.517" y1="242.301" y2="48.634" gradientUnits="userSpaceOnUse"><stop stop-color="#03192E"/><stop offset=".5" stop-color="#223C6A"/><stop offset="1" stop-color="#4A749F"/></linearGradient><linearGradient id="am" x1="164.37" x2="164.37" y1="151.942" y2="291.232" gradientUnits="userSpaceOnUse"><stop stop-color="#03192E"/><stop offset=".5" stop-color="#223C6A"/><stop offset="1" stop-color="#4A749F"/></linearGradient><linearGradient id="an" x1="75.346" x2="75.346" y1="151.942" y2="291.232" gradientUnits="userSpaceOnUse"><stop stop-color="#03192E"/><stop offset=".5" stop-color="#223C6A"/><stop offset="1" stop-color="#4A749F"/></linearGradient><linearGradient id="ao" x1="108.09" x2="108.09" y1="151.942" y2="291.232" gradientUnits="userSpaceOnUse"><stop stop-color="#03192E"/><stop offset=".5" stop-color="#223C6A"/><stop offset="1" stop-color="#4A749F"/></linearGradient><linearGradient id="ap" x1="48.185" x2="48.185" y1="142.483" y2="64.406" gradientUnits="userSpaceOnUse"><stop stop-color="#386E9C"/><stop offset="1" stop-color="#fff"/></linearGradient><linearGradient id="aq" x1="64.603" x2="42.746" y1="196.133" y2="90.772" gradientUnits="userSpaceOnUse"><stop stop-color="#386E9C"/><stop offset="1" stop-color="#fff"/></linearGradient><linearGradient id="ar" x1="72.958" x2="42.293" y1="175.536" y2="54.518" gradientUnits="userSpaceOnUse"><stop stop-color="#386E9C"/><stop offset="1" stop-color="#fff"/></linearGradient><linearGradient id="as" x1="121.517" x2="121.517" y1="218.67" y2="128.639" gradientUnits="userSpaceOnUse"><stop stop-color="#03192E"/><stop offset=".5" stop-color="#223C6A"/><stop offset="1" stop-color="#4A749F"/></linearGradient><linearGradient id="at" x1="70.853" x2="70.853" y1="142.482" y2="64.406" gradientUnits="userSpaceOnUse"><stop stop-color="#386E9C"/><stop offset="1" stop-color="#fff"/></linearGradient><linearGradient id="au" x1="83.18" x2="61.323" y1="192.279" y2="86.918" gradientUnits="userSpaceOnUse"><stop stop-color="#386E9C"/><stop offset="1" stop-color="#fff"/></linearGradient><linearGradient id="av" x1="90.294" x2="59.629" y1="171.143" y2="50.125" gradientUnits="userSpaceOnUse"><stop stop-color="#386E9C"/><stop offset="1" stop-color="#fff"/></linearGradient><linearGradient id="aw" x1="102.75" x2="80.893" y1="188.218" y2="82.857" gradientUnits="userSpaceOnUse"><stop stop-color="#386E9C"/><stop offset="1" stop-color="#fff"/></linearGradient><linearGradient id="ax" x1="94.373" x2="94.373" y1="142.482" y2="64.405" gradientUnits="userSpaceOnUse"><stop stop-color="#386E9C"/><stop offset="1" stop-color="#fff"/></linearGradient><linearGradient id="ay" x1="107.958" x2="77.293" y1="166.667" y2="45.649" gradientUnits="userSpaceOnUse"><stop stop-color="#386E9C"/><stop offset="1" stop-color="#fff"/></linearGradient><linearGradient id="az" x1="120.95" x2="99.093" y1="184.443" y2="79.082" gradientUnits="userSpaceOnUse"><stop stop-color="#386E9C"/><stop offset="1" stop-color="#fff"/></linearGradient><linearGradient id="aA" x1="113.473" x2="113.473" y1="142.482" y2="64.405" gradientUnits="userSpaceOnUse"><stop stop-color="#386E9C"/><stop offset="1" stop-color="#fff"/></linearGradient><linearGradient id="aB" x1="182.4" x2="182.4" y1="199.43" y2="-2.814" gradientUnits="userSpaceOnUse"><stop stop-color="#03192E"/><stop offset=".5" stop-color="#223C6A"/><stop offset="1" stop-color="#4A749F"/></linearGradient><linearGradient id="aC" x1="167.744" x2="167.744" y1="108.232" y2="18.116" gradientUnits="userSpaceOnUse"><stop stop-color="#03192E"/><stop offset=".5" stop-color="#223C6A"/><stop offset="1" stop-color="#4A749F"/></linearGradient><linearGradient id="aD" x1="167.217" x2="167.217" y1="193.211" y2="77.073" gradientUnits="userSpaceOnUse"><stop stop-color="#03192E"/><stop offset=".5" stop-color="#223C6A"/><stop offset="1" stop-color="#4A749F"/></linearGradient><linearGradient id="aE" x1="171.911" x2="171.911" y1="131.718" y2="73.27" gradientUnits="userSpaceOnUse"><stop stop-color="#1088B1"/><stop offset="1" stop-color="#40C37C"/></linearGradient><linearGradient id="aF" x1="153.482" x2="155.44" y1="264.215" y2="123.297" gradientUnits="userSpaceOnUse"><stop stop-color="#1088B1"/><stop offset="1" stop-color="#40C37C"/></linearGradient><linearGradient id="aG" x1="162.683" x2="163.988" y1="209.49" y2="116.198" gradientUnits="userSpaceOnUse"><stop stop-color="#03192E"/><stop offset=".5" stop-color="#223C6A"/><stop offset="1" stop-color="#4A749F"/></linearGradient><linearGradient id="aH" x1="170.115" x2="172.073" y1="264.445" y2="123.528" gradientUnits="userSpaceOnUse"><stop stop-color="#1088B1"/><stop offset="1" stop-color="#40C37C"/></linearGradient><linearGradient id="aI" x1="179.411" x2="180.716" y1="209.724" y2="116.431" gradientUnits="userSpaceOnUse"><stop stop-color="#03192E"/><stop offset=".5" stop-color="#223C6A"/><stop offset="1" stop-color="#4A749F"/></linearGradient><linearGradient id="aJ" x1="186.995" x2="188.953" y1="264.681" y2="123.763" gradientUnits="userSpaceOnUse"><stop stop-color="#1088B1"/><stop offset="1" stop-color="#40C37C"/></linearGradient><linearGradient id="aK" x1="196.496" x2="197.801" y1="209.963" y2="116.671" gradientUnits="userSpaceOnUse"><stop stop-color="#03192E"/><stop offset=".5" stop-color="#223C6A"/><stop offset="1" stop-color="#4A749F"/></linearGradient><linearGradient id="aL" x1="198.097" x2="198.097" y1="148.028" y2="83.605" gradientUnits="userSpaceOnUse"><stop stop-color="#03192E"/><stop offset=".5" stop-color="#223C6A"/><stop offset="1" stop-color="#4A749F"/></linearGradient><linearGradient id="aM" x1="194.222" x2="194.222" y1="148.027" y2="83.604" gradientUnits="userSpaceOnUse"><stop stop-color="#03192E"/><stop offset=".5" stop-color="#223C6A"/><stop offset="1" stop-color="#4A749F"/></linearGradient><linearGradient id="aN" x1="196.991" x2="196.991" y1="148.027" y2="83.605" gradientUnits="userSpaceOnUse"><stop stop-color="#03192E"/><stop offset=".5" stop-color="#223C6A"/><stop offset="1" stop-color="#4A749F"/></linearGradient><linearGradient id="aO" x1="193.204" x2="193.204" y1="148.028" y2="83.605" gradientUnits="userSpaceOnUse"><stop stop-color="#03192E"/><stop offset=".5" stop-color="#223C6A"/><stop offset="1" stop-color="#4A749F"/></linearGradient><linearGradient id="aP" x1="189.64" x2="194.207" y1="86.616" y2="23.986" gradientUnits="userSpaceOnUse"><stop stop-color="#386E9C"/><stop offset="1" stop-color="#fff"/></linearGradient><linearGradient id="aQ" x1="175.324" x2="181.849" y1="82.215" y2="35.242" gradientUnits="userSpaceOnUse"><stop stop-color="#03192E"/><stop offset=".5" stop-color="#223C6A"/><stop offset="1" stop-color="#4A749F"/></linearGradient><linearGradient id="aR" x1="177.297" x2="177.297" y1="62.84" y2="42.828" gradientUnits="userSpaceOnUse"><stop stop-color="#386E9C"/><stop offset="1" stop-color="#fff"/></linearGradient><linearGradient id="aS" x1="180.672" x2="180.672" y1="62.839" y2="42.828" gradientUnits="userSpaceOnUse"><stop stop-color="#386E9C"/><stop offset="1" stop-color="#fff"/></linearGradient><linearGradient id="aT" x1="178.988" x2="178.988" y1="62.839" y2="42.827" gradientUnits="userSpaceOnUse"><stop stop-color="#386E9C"/><stop offset="1" stop-color="#fff"/></linearGradient><linearGradient id="aU" x1="72.27" x2="72.27" y1="64.847" y2="15.574" gradientUnits="userSpaceOnUse"><stop stop-color="#03192E"/><stop offset=".5" stop-color="#223C6A"/><stop offset="1" stop-color="#4A749F"/></linearGradient><linearGradient id="aV" x1="72.269" x2="72.269" y1="98.106" y2="39.02" gradientUnits="userSpaceOnUse"><stop stop-color="#03192E"/><stop offset=".5" stop-color="#223C6A"/><stop offset="1" stop-color="#4A749F"/></linearGradient><linearGradient id="aW" x1="76.15" x2="76.15" y1="87.028" y2="31.897" gradientUnits="userSpaceOnUse"><stop stop-color="#1088B1"/><stop offset="1" stop-color="#40C37C"/></linearGradient></defs></svg>