<svg xmlns="http://www.w3.org/2000/svg" width="219" height="186" fill="none"><path fill="url(#a)" d="M58.923 171.613s-11.624 4.053-14.192-7.254c0 0-13.24 1.016-8.827-11.1 0 0-7.964-5.899-1.07-15.382a1.223 1.223 0 0 1 1.966-.022 20.9 20.9 0 0 0 4.785 4.654c3.135 2.185 7.582 3.867 13.307 2.753l2.927 19.151z"/><path fill="url(#b)" d="M57.82 164.424c-12.04 1.683-10.63-6.391-10.63-6.391-9.439-2.622-7.014-11.799-5.604-15.513 3.135 2.185 7.582 3.867 13.306 2.753z"/><path fill="url(#c)" d="M211.772 145.764c-.721 1.934-2.589 3.234-4.654 3.19-1.726-.033-3.911-.153-6.118-.513-2.862-.459-5.757-2.021-7.658-2.306a7 7 0 0 0-.677-.076 26 26 0 0 0-1.431-.098c-5.67-.208-15.11 1.081-21.337.939-7.09-.153-26.285-.917-26.285-.917l-1.606.174-60.12 6.282s-13.306.306-12.968-.918c.34-1.234 7.735-14.573 10.193-14.071 2.459.514 15.295.623 15.295.623l25.717-11.296 3.901-1.716a24.55 24.55 0 0 1 14.661-1.627l.841.163 3.682.721 33.441 6.555s9.024 1.847 16.005.743c1.442-.218 2.797-.579 3.966-1.092 6.128-2.71 9.613-14.53 17.381-16.497 1.508-.382 2.993.754 3.059 2.316.197 4.676-.109 15.437-5.288 29.421"/><path fill="url(#d)" d="M139.537 123.598c-.863 2.939-3.026 6.773-8.434 7.276-6.642.601-9.799-2.491-10.968-4.097l3.9-1.715a24.56 24.56 0 0 1 14.661-1.628z"/><path fill="url(#e)" d="M211.772 145.764c-.721 1.934-2.589 3.234-4.654 3.19-.48-.011-.983-.033-1.518-.054a43 43 0 0 1-4.6-.459c-2.862-.459-5.757-2.021-7.658-2.305a7 7 0 0 0-.677-.077 26 26 0 0 0-1.432-.098l1.442-14.345c1.443-.218 2.797-.579 3.966-1.092 5.2-2.305 8.5-11.165 14.126-15 1.005-.677 2.076-1.202 3.256-1.508 1.507-.382 2.993.754 3.059 2.317.174 4.686-.131 15.447-5.31 29.431"/><path fill="url(#f)" d="M196.543 132.905c-.229 2.884-1.048 8.019-3.889 13.143-2.327-.24-5.626-.076-9.177.153-1.857.131-3.769.273-5.659.404-2.851.197-5.615.339-7.931.284-4.217-.087-12.728-.404-18.922-.633-.754-.033-1.475-.055-2.141-.077-.208-.011-.394-.011-.59-.022-2.775-.109-4.622-.185-4.622-.185l-1.606.174-.644-6.697s-2.491-8.314 1.868-15.131l3.234.634 4.435.874 25.772 5.047s1.475.295 3.682.579c1.333.175 2.95.35 4.676.437 3.933.219 8.445.033 11.613-1.365-.022 0 .022.896-.099 2.381"/><path fill="url(#g)" d="M196.543 132.905c-.23 2.884-1.049 8.019-3.889 13.143-2.327-.24-5.627-.077-9.177.153-1.858.131-3.769.273-5.659.404-2.852.197-5.616.339-7.932.284-4.217-.087-12.727-.404-18.922-.634-.754-.032-1.475-.054-2.141-.076-.208-.011-.393-.011-.59-.022l-1.901-8.041c21.358 10.587 44.672-1.9 50.211-5.211"/><path fill="url(#h)" d="M150.964 146.267c-.754-.033-1.475-.055-2.142-.077l-2.37-1.835c-4.163-9.396 0-19.403 0-19.403l4.435.874c-3.103 7.167-1.092 16.366.077 20.441"/><path fill="url(#i)" d="M183.476 146.212c.547-2.775 1.781-9.767 1.541-14.322a61 61 0 0 1-4.676-.437c-.066 1.977-.448 8.761-2.524 15.152"/><path fill="url(#j)" d="M211.772 145.764c-.721 1.934-2.589 3.234-4.654 3.19-.481-.011-.983-.033-1.518-.054 7.155-16.268 6.041-28.569 5.156-33.376 1.005-.677 2.076-1.202 3.256-1.508 1.507-.382 2.993.754 3.059 2.317.185 4.686-.12 15.447-5.299 29.431"/><path fill="url(#k)" d="M187.596 177.862s-30.765-2.917-56.482-19.643a92 92 0 0 1-7.735-5.616s-27.552 31.934-47.741 30.448c-9.986-.743-14.979-5.146-17.448-9.789-3.047-5.713-2.261-11.766-2.261-11.766l15.557-13.142 11.438-3.485 35.233-10.74s11.198-3.408 18.54 1.585c.459.316.907.655 1.333 1.037.841.754 1.977 1.683 3.343 2.721 10.335 7.866 34.195 22.625 50.243 25.619-.022-.011-4.949 6.303-4.02 12.771"/><path fill="url(#l)" d="M82.903 144.857c-7.047 4.665-18.496 13.995-24.734 28.405-3.048-5.714-2.261-11.766-2.261-11.766l15.557-13.143z"/><path fill="url(#m)" d="M80.02 171.612c-.175 0-.34 0-.514-.01-4.337-.164-7.79-1.705-10.27-4.589-2.84-3.31-3.834-7.8-4.173-10.99-.36-3.431-.065-6.064-.054-6.173a.47.47 0 0 1 .524-.415.47.47 0 0 1 .415.524c-.01.11-1.136 10.445 4.01 16.442 2.294 2.677 5.517 4.108 9.58 4.261 4.95.175 16.4-2.655 37.539-23.794a10.32 10.32 0 0 1 13.175-1.18l6.894 4.763a.465.465 0 0 1 .12.655c-.153.208-.448.274-.656.121l-6.893-4.764c-3.736-2.578-8.762-2.13-11.963 1.071-9.046 9.057-25.87 24.078-37.735 24.078"/><path fill="url(#n)" d="M203.919 184.023c-2.786 1.879-7.156 2.338-10.161.055a7 7 0 0 1-1.54-1.595c-2.851-4.01-4.621-4.621-4.621-4.621s-1.999-2.699-1.923-3.005c.076-.317 3.54-8.325 3.54-8.325l2.392-1.463s8.522.513 13.012-5.55a40 40 0 0 1 1.234-1.563c3.627-4.391 8.26-7.691 12.324-3.9 4.533 4.239-10.947 27.728-14.257 29.967"/><path fill="url(#o)" d="M187.596 177.861s-2.229-.207-5.987-.841a89 89 0 0 1-2.403-.426c-.536-.098-1.093-.207-1.661-.317-9.505-1.89-24.417-5.823-38.86-13.579-.251-.131-.491-.273-.743-.405-.251-.142-.491-.273-.743-.415-.841-.469-1.682-.95-2.534-1.453a96 96 0 0 1-3.551-2.206c.732-3.912 3.321-14.64 10.237-18.759q1.147.869 2.491 1.836c1.07.776 2.239 1.584 3.485 2.425 8.193 5.561 19.763 12.433 30.579 16.967a95 95 0 0 0 4.774 1.868q1.115.393 2.196.754c.775.251 1.54.491 2.283.699 1.529.437 3.015.797 4.435 1.059 0 .011-4.927 6.326-3.998 12.793"/><path fill="url(#p)" d="m184.876 163.309-5.67 13.274c-.536-.098-1.093-.207-1.661-.317-9.505-1.89-24.417-5.823-38.86-13.579-.491-.273-.994-.536-1.497-.82l.514-4.654s22.658 15.623 40.204 3.475a96 96 0 0 0 4.774 1.868q1.115.41 2.196.753"/><path fill="url(#q)" d="M147.327 143.721c-2.316 1.486-7.287 6.107-8.642 18.966-.251-.131-.491-.273-.742-.404-.252-.142-.492-.273-.743-.415a125 125 0 0 1-2.535-1.453c.404-3.453 2.283-15.252 9.188-19.13 1.06.776 2.229 1.595 3.474 2.436"/><path fill="url(#r)" d="M187.159 164.009c-2.731 3.353-4.873 10.542-5.55 13a169 169 0 0 1-4.064-.743c1.125-6.041 3.649-11.099 5.135-13.7a66 66 0 0 0 4.479 1.443"/><path fill="url(#s)" d="M136.675 135.702c-1.06 1.869-4.031 5.365-11.252 4.534-7.102-.819-7.56-4.293-7.287-6.107 0-.011 11.198-3.419 18.539 1.573"/><path fill="url(#t)" d="M203.918 184.023c-1.737 1.169-4.075 1.792-6.325 1.541-1.366-.142-2.709-.623-3.846-1.486-.633-2.109-.601-4.862.361-7.058 1.311-2.982 7.516-8.161 8.958-10.608.874-1.475 1.617-3.823 2.174-5.965.492-1.901 1.486-3.638 2.917-4.971 3.169-2.949 6.763-4.435 10.007-1.409 4.545 4.228-10.935 27.717-14.246 29.956"/><path fill="url(#u)" d="M203.917 184.023c-1.737 1.169-4.075 1.792-6.325 1.541-.842-2-1.956-5.911.622-8.544 2.808-2.873 7.495-5.364 8.631-10.706.972-4.6 4.578-12.149 9.09-12.607 1.595-.164 3.015 1.07 3.048 2.676.163 7.287-12.149 25.674-15.066 27.64"/><path fill="url(#v)" d="m26.497 108.248-.328 4.381a1.96 1.96 0 0 0 .721 1.671l3.42 2.753c1.256 1.016.808 3.038-.765 3.42l-4.272 1.038a1.96 1.96 0 0 0-1.365 1.202l-1.562 4.107c-.58 1.508-2.633 1.705-3.486.328l-2.305-3.736a1.95 1.95 0 0 0-1.562-.929l-4.392-.218c-1.617-.077-2.436-1.978-1.387-3.212l2.84-3.354a1.93 1.93 0 0 0 .394-1.77l-1.137-4.25c-.426-1.562 1.126-2.928 2.622-2.316l4.064 1.672a1.96 1.96 0 0 0 1.803-.175l3.682-2.404c1.365-.874 3.146.175 3.015 1.792"/><path fill="url(#w)" d="m113.82 105.692.557 3.146c.076.459.382.852.808 1.049l2.906 1.333c1.071.491 1.115 1.988.077 2.545l-2.819 1.497a1.4 1.4 0 0 0-.743 1.092l-.36 3.169c-.131 1.169-1.552 1.671-2.393.852l-2.294-2.218a1.42 1.42 0 0 0-1.267-.371l-3.125.633c-1.147.23-2.065-.95-1.551-2.01l1.398-2.873a1.41 1.41 0 0 0-.044-1.322l-1.573-2.786c-.579-1.027.273-2.261 1.431-2.098l3.158.448a1.41 1.41 0 0 0 1.245-.448l2.163-2.348c.776-.874 2.218-.448 2.426.71"/><path fill="url(#x)" d="m115.774 17.331.885-1.267a4.87 4.87 0 0 1 5.779-1.748l7.56 2.96a3.95 3.95 0 0 1 2.48 4.185l-.175 1.41-1.332 2.359s-11.1 2.72-11.81 2.261-3.278-6.882-3.376-7.243c-.12-.36-.011-2.917-.011-2.917"/><path fill="url(#y)" d="M98.579 34.32a75 75 0 0 1-1.683 5.527c-4.534 12.957-11.7 21.62-14.934 25.095-1.06 1.136-1.704 1.715-1.704 1.715l-14.53-9.188s1.966-2.218 4.817-6.293c5.015-7.166 12.75-20.08 17.284-36.805a110 110 0 0 0 2.13-9.483s1.06.666 2.49 2.065a24 24 0 0 1 3.639 4.577c2.917 4.774 5.255 12.236 2.49 22.79"/><path fill="url(#z)" d="M98.578 34.32a75 75 0 0 1-1.683 5.527c-4.533 12.957-11.7 21.62-14.934 25.095l-8.183-4.905C93.115 44.895 95.792 20.74 96.076 11.54c2.928 4.763 5.266 12.225 2.502 22.778"/><path fill="url(#A)" d="M98.578 34.32a75 75 0 0 1-1.682 5.527c.022-14.224-6.107-22.363-9.068-25.466.83-3.037 1.54-6.205 2.13-9.483-.01 0 14.006 8.795 8.62 29.421"/><path fill="#FFCA83" d="M92.439 6.963c-1.104 6.981-5.856 30.044-21.905 44.224 5.015-7.166 12.75-20.08 17.283-36.806.83-3.037 1.54-6.205 2.13-9.483 0 0 1.06.667 2.492 2.065" opacity=".6"/><path fill="url(#B)" d="M69.08 28.267c.252 2.218.405 4.37.47 6.479.481 15.404-3.528 27.377-5.528 32.326-.655 1.617-1.092 2.491-1.092 2.491l-18.933-3.769s1.169-3.113 2.502-8.532c2.36-9.549 5.255-26.198 3.266-45.557-.36-3.518-.885-7.123-1.595-10.794 0 0 1.388.273 3.442 1.158A27.7 27.7 0 0 1 57.27 5.39c4.993 3.813 10.444 10.696 11.81 22.877"/><path fill="url(#C)" d="M69.08 28.268c.25 2.217.404 4.37.47 6.478.48 15.404-3.53 27.378-5.529 32.327l-10.564-1.836c14.17-23.685 7.221-50.08 3.813-59.824 4.993 3.79 10.444 10.673 11.81 22.854"/><path fill="url(#D)" d="M69.081 28.267a79 79 0 0 1 .47 6.479C63.837 19.822 54.125 13.77 49.766 11.705 49.406 8.187 48.88 4.582 48.17.91c-.011 0 18.234 3.562 20.91 27.356"/><path fill="#FFCA83" d="M51.612 2.07c1.66 7.756 5.986 33.855-5.102 55.18 2.349-9.537 5.244-26.186 3.255-45.545-.36-3.518-.885-7.123-1.595-10.794-.01 0 1.377.273 3.442 1.158" opacity=".6"/><path fill="url(#E)" d="m81.065 56.65 7.21.557a1.317 1.317 0 0 1 1.027 2l-5.21 8.696-5.867-6.818z"/><path fill="url(#F)" d="m78.75 55.251-5.364-5.91c-1.235-1.366-3.463-1.07-4.294.579l-4.031 7.986a.936.936 0 0 0 .688 1.344l11.002 1.77a.933.933 0 0 0 1.048-.678l1.158-4.217a.91.91 0 0 0-.207-.874"/><path fill="url(#G)" d="m81.591 55.492-1.54-.896a1.79 1.79 0 0 0-2.459.656l-1.846 3.19a1.79 1.79 0 0 0 .656 2.458l1.54.896a1.79 1.79 0 0 0 2.458-.656l1.846-3.19a1.795 1.795 0 0 0-.655-2.458"/><path fill="url(#H)" d="m132.304 22.87-.514 1.639a9.95 9.95 0 0 1-5.965 6.347l-5.069 1.923-12.989 31.737-6.828 16.682-1.737 4.239-1.093 2.677-14.967-4.49-.251-.077.983-1.923.492-.95 2.796-5.42.798-1.54 23.903-46.332s-3.288-9.242 3.901-10.062c6.325-.732 5.342 5.54 5.342 5.54.339.294.677.556 1.005.797 5.615 3.965 10.193-.787 10.193-.787"/><path fill="url(#I)" d="m107.766 64.516-6.828 16.682-1.737 4.239c-6.664-1.158-14.64-2.699-14.748-2.808-.055-.055-.077-.841-.088-1.945l2.797-5.418.797-1.54c8.445.021 15.35-4.873 19.807-9.21"/><path fill="url(#J)" d="m100.949 81.198-2.83 6.916-14.967-4.49.732-2 2.458-6.653s.306.11.83.284c2.328.842 9.08 3.321 13.777 5.943"/><path fill="url(#K)" d="m91.564 92.615-15.316 6.708H62.165s-1.005-2.731-2.337-6.588c-2.732-7.888-6.818-20.473-6.457-23.991.35-3.441 2.545-7.101 6.435-9.625.917-.6 1.933-1.136 3.048-1.584.36-.153.743-.295 1.125-.426a23 23 0 0 1 3.332-.841 18 18 0 0 1 1.497-.186c.655-.055 1.3-.066 1.923-.033a15.7 15.7 0 0 1 4.73.918c4.752 1.737 8.052 5.593 9.035 9.09.94 3.364 3.212 5.167 4.72 6.008.316.175.6.415.83.677.437.514.688 1.158.699 1.847.011.35.011.699 0 1.038-.044 2.567-.437 4.599-.776 5.877-.262.994-.48 1.54-.48 1.54z"/><path fill="url(#L)" d="M91.029 107.778s1.54 7.09-6.675 12.422c0 0-.11.961.076 2.534.426 3.453 2.294 9.833 9.985 15.339 0 0-23.717 7.593-37.734 26.285 0 0-3.332.306-3.332-3.496v-28.383c0-2.206-.372-4.391-1.104-6.467-.065-.197-.142-.393-.218-.601l-3.256-8.379-2.152-5.55-3.2-8.249-3.617-9.297c-.535-1.376-.634-2.895-.23-4.315.525-1.846 1.76-4.272 4.644-6.096 5.342-3.387 12.476-5.648 12.476-5.648s3.026-1.005 6.544 3.004c1.442 1.65 2.097 3.791 2.349 5.768.076.612.12 1.213.142 1.77a18.6 18.6 0 0 1-.252 3.77v.01s1.093.284 2.82.503c1.441.186 3.331.328 5.429.207.065 0 .13-.01.196-.01 2.644-.164 5.583-.754 8.303-2.164q.345-.182.689-.382c2.6-1.508 4.948-3.824 6.598-7.342 0 0 7.702 1.54 10.783 4.207 2.12 1.835.164 8.477-3.474 14.082-1.672 2.578-3.67 4.916-5.79 6.478"/><path fill="url(#M)" d="M91.575 135.779c.841.776 1.791 1.54 2.84 2.294 0 0-23.718 7.593-37.734 26.285 0 0-3.332.306-3.332-3.496V132.48c0-2.207-.372-4.392-1.104-6.468 13.536 1.158 20.594-9.559 20.594-9.559 16.846.054 16.802-16.53 16.802-16.53l7.156 1.399c-1.65 2.545-3.65 4.883-5.769 6.456 0 0 1.54 7.091-6.675 12.422 0 0-.109.961.077 2.535.24 1.988.961 4.938 2.993 8.139 1.027 1.606 2.371 3.266 4.152 4.905"/><path fill="url(#N)" d="M84.43 122.735c-2.95 1.038-7.724 2.447-7.724 2.447l7.647-4.982s-.109.973.077 2.535"/><path fill="url(#O)" d="M100.6 93.205c-1.049 3.758-3.55 8.401-6.62 11.831-.94 1.049-1.934 1.989-2.961 2.753 0 0-.666-3.037-2.49-7.308-1.268-2.972-3.093-6.544-5.65-10.095a15.3 15.3 0 0 0 1.99-1.366 15.6 15.6 0 0 0 3.004-3.2c.59-.83 1.125-1.76 1.605-2.776 0 0 3.081.612 6.13 1.748 1.77.656 3.517 1.475 4.653 2.459 1.115.95 1.115 3.211.339 5.954"/><path fill="url(#P)" d="M100.598 93.205c-1.048 3.758-3.55 8.401-6.62 11.831-.94 1.049-1.934 1.989-2.96 2.753 0 0-.667-3.037-2.492-7.308 5.474-5.233 6.796-11.941 7.08-15.688 1.77.655 3.518 1.474 4.654 2.458 1.114.95 1.114 3.212.338 5.954"/><path fill="url(#Q)" d="M68.283 92.735c-.688 4.097-4.108 17.84-19.512 24.319l-2.152-5.55-3.201-8.249 22.167-16.584c.076.612.12 1.213.142 1.77a18.6 18.6 0 0 1-.252 3.77v.01c-.01.011 1.071.295 2.808.514"/><path fill="url(#R)" d="M73.702 92.942c.153 2.568.251 9.101-2.775 9.221-3.769.153-6.85-10.248-6.85-10.248v-3.55l1.639.065a18.6 18.6 0 0 1-.251 3.77v.01c0 .022 3.648.995 8.237.732m8.5-2.185c-2.72 1.41-5.66 2-8.303 2.163.71 2.426 2.764 8.391 5.659 7.768 2.742-.568 2.786-6.883 2.644-9.93"/><path fill="url(#S)" d="M65.465 92.21v.011s-.372 2.415-1.705 5.54c0 0-.01 0-.01.01-2.196 5.157-7.025 12.258-17.142 13.722l-5.91-15.208-.907-2.327c-.087-.24-.175-.48-.24-.72a6.65 6.65 0 0 1 .01-3.584c.525-1.846 1.76-4.272 4.644-6.096C49.547 80.17 56.68 77.91 56.68 77.91s2.994-.995 6.511 2.96c.011.011.022.033.033.044 3.518 3.998 2.305 10.925 2.24 11.296"/><path fill="url(#T)" d="M63.192 80.86c-1.267 3.714-6.118 12.509-23.641 12.378a6.65 6.65 0 0 1 .01-3.584c.525-1.846 1.76-4.271 4.644-6.096 5.342-3.387 12.476-5.648 12.476-5.648s2.994-1.005 6.511 2.95"/><path fill="url(#U)" d="M57.785 78.85c-.863 2.097-4.01 7.374-13.634 7.21a2.14 2.14 0 0 1-1.923-1.267c-.044-.099-.077-.208-.11-.306l-.775-2.884-5.615-20.987v-.044l-8.762-32.73s-13.438-3.06-14.782-7.9c-.578-2.097-.262-3.987.798-5.571.317-.47.7-.918 1.136-1.333.383-.36.82-.7 1.3-1.016.383-.251.809-.492 1.246-.71a14 14 0 0 1 1.354-.58c.022-.01.044-.01.066-.021a6.6 6.6 0 0 1 1.213-.317c2.512-.415 5.113.59 6.784 2.6l.01.011a4.8 4.8 0 0 0 2.164 1.486l2.25.765a9.36 9.36 0 0 1 5.725 5.517L56.332 73.42l1.475 3.867c.186.503.186 1.07-.022 1.563"/><path fill="url(#V)" d="m54.376 77.134-12.148 7.659c-.044-.099-.077-.208-.11-.306l-.775-2.885-5.616-20.986c.24.907 4.327 15.316 18.65 16.518"/><path fill="url(#W)" d="m26.955 27.852 3.846.666s-1.3 4.403-.852 10.521z"/><path fill="url(#X)" d="M57.786 78.85c-.863 2.097-4.01 7.374-13.635 7.21a2.14 2.14 0 0 1-2.032-1.573l-.775-2.884c9.854-1.76 13.776-6.359 14.978-8.183l1.475 3.867c.196.503.196 1.071-.011 1.563"/><path fill="url(#Y)" d="M63.749 97.782c-2.196 5.157-7.025 12.258-17.141 13.722l-5.91-15.218c2.403 2.425 5.833 5.222 9.471 5.943 8.478 1.704 13.318-4.13 13.58-4.447"/><path fill="url(#Z)" d="M65.695 112.618s-1.89-1.661-1.683-2.961c.197-1.3 1.945-1.311 2.414-.371 0 0-1.147-3.529 1.606-3.671 2.48-.131 2.218 3.321 2.218 3.321s.918-1.453 2.043-.983c1.136.47.929 3.398-.634 4.348z"/><path fill="#fff" d="M66.906 112.082a.12.12 0 0 1-.12-.033l-1.289-1.715c-.033-.043-.022-.098.033-.131a.103.103 0 0 1 .142.022l1.289 1.715c.033.044.022.099-.033.131 0 0-.01 0-.022.011M68.426 111.536h-.022c-.055 0-.11-.033-.11-.087l-.393-3.933c0-.055.033-.099.099-.099.054 0 .109.033.109.088l.393 3.933a.096.096 0 0 1-.076.098M70.545 111.886a.07.07 0 0 1-.066 0c-.054-.022-.076-.066-.065-.12l.841-2.021c.022-.044.077-.077.131-.055s.077.066.066.12l-.841 2.021a.11.11 0 0 1-.066.055"/><path fill="url(#aa)" d="M72.95 116.988c-.034.229-.066.47-.11.699-.503 2.786-1.78 5.386-3.583 5.484-1.093.055-2.098-.819-2.885-2.13a10 10 0 0 1-.371-.677c-.688-1.366-1.18-3.037-1.366-4.589a8 8 0 0 1-.065-.688c-.011-.186-.022-.372-.022-.557-.022-3.584 4.042-3.813 4.042-3.813s4.064-.219 4.425 3.343c.087.907.065 1.923-.066 2.928"/><path fill="url(#ab)" d="M68.798 115.174v.077c.01.175-.143.317-.34.328l-3.834.207a8 8 0 0 1-.065-.688l3.867-.208c.197-.011.36.12.371.284"/><path fill="url(#ac)" d="M72.949 116.988c-.033.229-.066.47-.11.699l-3.07.164c-.196.011-.36-.12-.371-.295v-.066c-.01-.174.142-.316.339-.327z"/><path fill="url(#ad)" d="M69.584 120.495v.065c.01.175-.142.317-.339.328l-2.895.153a10 10 0 0 1-.371-.677l3.222-.175c.219 0 .383.131.383.306"/><path fill="url(#ae)" d="M91.575 135.779c-16.092 5.091-32.436 18.725-38.237 23.893v-7.167c11.395-11.329 28.973-19.425 34.086-21.631 1.026 1.605 2.37 3.266 4.151 4.905"/><path fill="url(#af)" d="M93.99 105.025c-.94 1.049-1.933 1.989-2.96 2.753 0 0-1.923-8.74-8.14-17.403a15.3 15.3 0 0 0 1.989-1.366c2.108 2.535 6.73 8.653 9.111 16.016"/><path fill="url(#ag)" d="M100.599 93.205c-4.118-4.36-10.313-6.632-12.716-7.386.59-.83 1.125-1.759 1.606-2.775 0 0 7.702 1.54 10.783 4.207 1.103.95 1.103 3.211.327 5.954"/><path fill="url(#ah)" d="m122.122 23.657-.033.044c-2.502 2.48-5.758-.689-5.9-.842 3.638 1.89 4.917 0 4.917 0 .349.306.677.568 1.016.798"/><path fill="url(#ai)" d="m118.407 38.984-10.324-4.446a2.645 2.645 0 0 1-1.388-3.496 2.645 2.645 0 0 1 3.496-1.388l10.324 4.447a2.645 2.645 0 0 1 1.388 3.496 2.667 2.667 0 0 1-3.496 1.387"/><path fill="#F87C38" d="M80.979 71.66H78.29c-.754 0-1.355.612-1.355 1.355v.164c0 .525.306 1.005.776 1.224l1.344.633c.36.175.787.175 1.147 0l1.344-.633c.47-.23.776-.7.776-1.224v-.164c.01-.754-.601-1.354-1.344-1.354"/><path fill="url(#aj)" d="M84.9 77.735a.795.795 0 0 1 .853.732c.043.59.01 1.169-.088 1.737-.23 1.322-.863 2.545-1.78 3.594-1.596 1.825-4.087 3.103-6.949 3.332-2.96.24-5.703-.7-7.57-2.36-.973-.863-1.716-1.922-2.131-3.102a6.2 6.2 0 0 1-.36-1.694.795.795 0 0 1 .731-.852z"/><path fill="url(#ak)" d="M84.9 77.735a.795.795 0 0 1 .853.732c.043.59.01 1.169-.088 1.737l-18.43 1.464a6.2 6.2 0 0 1-.36-1.694.795.795 0 0 1 .731-.852z"/><path fill="url(#al)" d="M83.896 83.787c-1.595 1.825-4.086 3.103-6.948 3.332-2.96.24-5.703-.699-7.571-2.36 1.387-1.463 3.966-2.578 6.981-2.818 3.135-.24 5.965.513 7.538 1.846"/><path fill="#F87C38" d="M64.056 69.705c-.284 0-.568-.098-.786-.306a1.19 1.19 0 0 1-.088-1.671c2.032-2.25 5.058-3.278 8.303-2.797a1.183 1.183 0 0 1-.35 2.338c-2.447-.36-4.708.393-6.205 2.043-.23.262-.557.393-.874.393M84.234 65.423c-.142 0-.295-.022-.437-.088-1.65-.655-3.474-.677-5.014-.076a1.18 1.18 0 0 1-1.53-.678c-.24-.612.066-1.289.677-1.53 2.087-.808 4.545-.786 6.741.088.612.24.907.929.666 1.53-.185.47-.633.754-1.103.754"/><path fill="url(#am)" d="M66.612 72.71a.471.471 0 0 1-.437-.645c.022-.044 1.77-4.174 6.358-2.371a.471.471 0 0 1-.35.874c-3.714-1.464-5.08 1.715-5.134 1.846a.47.47 0 0 1-.437.295"/><path fill="url(#an)" d="M80.781 69.76a.47.47 0 0 1-.284-.099.47.47 0 0 1-.098-.655c.022-.033 2.108-2.775 5.528-.732.23.131.295.426.164.644a.467.467 0 0 1-.645.164c-2.676-1.595-4.228.405-4.293.492a.46.46 0 0 1-.372.186"/><path fill="#FFCA83" d="M75.45 56.956a15.6 15.6 0 0 0-4.73-.918c.874 1.475 3.059 4.785 4.861 4.49 1.388-.23.678-2.097-.13-3.572m-12.596.568c-1.115.448-2.13.983-3.048 1.584 1.551 1.366 6.205 5.255 6.697 2.983.305-1.388-2.611-3.77-3.65-4.567m5.954-1.442c-.492.044-.984.109-1.497.185-1.18.208-2.294.492-3.332.842 1.53 1.475 6.424 5.987 8.478 5.604 1.912-.371-1.901-4.741-3.65-6.631M64.69 78.215c1.985 0 3.594-.68 3.594-1.518 0-.839-1.609-1.519-3.594-1.519s-3.594.68-3.594 1.519 1.609 1.518 3.594 1.518M90.745 74.589c.011.35.011.699 0 1.037-.426.066-.885.11-1.366.11-1.988 0-3.594-.678-3.594-1.508 0-.841 1.606-1.518 3.594-1.518.23 0 .448.01.667.032.426.503.688 1.147.699 1.847" opacity=".6"/><path fill="url(#ao)" d="M20.65 17.298c-2.064-1.081-2.555-4.239-2.632-6.544.022-.01.044-.01.066-.022a6.6 6.6 0 0 1 1.212-.316c.099 3.725 1.355 6.882 1.355 6.882m-3.987-5.976c-.448.219-.863.46-1.245.71.142 2.218.72 4.939 2.6 5.922-.01 0-1.202-3.016-1.355-6.632m-2.556 1.726c-.437.416-.82.853-1.136 1.333.306 1.76.983 3.485 2.403 4.228 0 0-.961-2.436-1.267-5.56"/><path fill="#FFCA83" d="m109.429 72.261 20.211-25.105a3.315 3.315 0 0 1 4.665-.503 3.316 3.316 0 0 1 .503 4.665c-.066.077-.131.153-.208.23l-22.451 23.117a1.816 1.816 0 0 1-2.578.033 1.814 1.814 0 0 1-.142-2.437M108.86 89.053c6.281-4.774 12.847-9.024 18.659-13.874a3.016 3.016 0 0 1 4.25.382 3.016 3.016 0 0 1-.382 4.25 1.6 1.6 0 0 1-.273.196l-.022.011c-6.73 4.392-13.744 7.844-20.386 11.766a1.66 1.66 0 0 1-2.273-.579 1.637 1.637 0 0 1 .427-2.152M29.666 81.144 2.026 62.779a3.404 3.404 0 0 1-.951-4.73 3.404 3.404 0 0 1 4.982-.765l25.826 20.855c.809.656.929 1.836.284 2.633a1.907 1.907 0 0 1-2.501.372M30.692 98.754c-8.15-1.289-16.486-1.966-24.92-3.692h-.01a3.24 3.24 0 0 1-2.525-3.813 3.24 3.24 0 0 1 3.813-2.524c.12.022.252.066.372.099 7.702 2.534 15.906 4.195 24.034 6.467a1.78 1.78 0 0 1 1.235 2.185 1.79 1.79 0 0 1-2 1.278" opacity=".6"/><defs><linearGradient id="a" x1="89.037" x2="35.851" y1="199.583" y2="143.112" gradientUnits="userSpaceOnUse"><stop stop-color="#FF2A64"/><stop offset="1" stop-color="#FFAF48"/></linearGradient><linearGradient id="b" x1="75.375" x2="34.716" y1="190.352" y2="129.568" gradientUnits="userSpaceOnUse"><stop stop-color="#FF2A64"/><stop offset="1" stop-color="#FFAF48"/></linearGradient><linearGradient id="c" x1="12.607" x2="254.254" y1="194.738" y2="99.558" gradientUnits="userSpaceOnUse"><stop stop-color="#03192E"/><stop offset=".5" stop-color="#223C6A"/><stop offset="1" stop-color="#4A74A2"/></linearGradient><linearGradient id="d" x1="129.676" x2="129.881" y1="146.572" y2="119.877" gradientUnits="userSpaceOnUse"><stop stop-color="#03192E"/><stop offset=".5" stop-color="#223C6A"/><stop offset="1" stop-color="#4A74A2"/></linearGradient><linearGradient id="e" x1="204.161" x2="204.161" y1="176.527" y2="37.527" gradientUnits="userSpaceOnUse"><stop stop-color="#03192E"/><stop offset=".5" stop-color="#223C6A"/><stop offset="1" stop-color="#4A74A2"/></linearGradient><linearGradient id="f" x1="236.875" x2="72.8" y1="162.773" y2="103.427" gradientUnits="userSpaceOnUse"><stop stop-color="#386E9F"/><stop offset="1" stop-color="#fff"/></linearGradient><linearGradient id="g" x1="223.756" x2="68.511" y1="158.086" y2="102.025" gradientUnits="userSpaceOnUse"><stop stop-color="#386E9F"/><stop offset="1" stop-color="#fff"/></linearGradient><linearGradient id="h" x1="146.692" x2="148.335" y1="192.292" y2="114.259" gradientUnits="userSpaceOnUse"><stop stop-color="#03192E"/><stop offset=".5" stop-color="#223C6A"/><stop offset="1" stop-color="#4A74A2"/></linearGradient><linearGradient id="i" x1="180.315" x2="181.958" y1="193" y2="114.967" gradientUnits="userSpaceOnUse"><stop stop-color="#03192E"/><stop offset=".5" stop-color="#223C6A"/><stop offset="1" stop-color="#4A74A2"/></linearGradient><linearGradient id="j" x1="214.615" x2="209.686" y1="175.786" y2="111.101" gradientUnits="userSpaceOnUse"><stop stop-color="#386E9F"/><stop offset="1" stop-color="#fff"/></linearGradient><linearGradient id="k" x1="314.18" x2="40.19" y1="148.719" y2="160.732" gradientUnits="userSpaceOnUse"><stop stop-color="#03192E"/><stop offset=".5" stop-color="#223C6A"/><stop offset="1" stop-color="#4A74A2"/></linearGradient><linearGradient id="l" x1="61.412" x2="73.733" y1="207.027" y2="124.065" gradientUnits="userSpaceOnUse"><stop stop-color="#03192E"/><stop offset=".5" stop-color="#223C6A"/><stop offset="1" stop-color="#4A74A2"/></linearGradient><linearGradient id="m" x1="172.628" x2="32.373" y1="185.177" y2="130.964" gradientUnits="userSpaceOnUse"><stop stop-color="#386E9F"/><stop offset="1" stop-color="#fff"/></linearGradient><linearGradient id="n" x1="202.404" x2="202.25" y1="200.921" y2="125.609" gradientUnits="userSpaceOnUse"><stop stop-color="#03192E"/><stop offset=".5" stop-color="#223C6A"/><stop offset="1" stop-color="#4A74A2"/></linearGradient><linearGradient id="o" x1="218.628" x2="80.427" y1="194.423" y2="115.568" gradientUnits="userSpaceOnUse"><stop stop-color="#386E9F"/><stop offset="1" stop-color="#fff"/></linearGradient><linearGradient id="p" x1="214.833" x2="59.588" y1="182.797" y2="126.736" gradientUnits="userSpaceOnUse"><stop stop-color="#386E9F"/><stop offset="1" stop-color="#fff"/></linearGradient><linearGradient id="q" x1="140.148" x2="141.791" y1="192.154" y2="114.121" gradientUnits="userSpaceOnUse"><stop stop-color="#03192E"/><stop offset=".5" stop-color="#223C6A"/><stop offset="1" stop-color="#4A74A2"/></linearGradient><linearGradient id="r" x1="181.872" x2="183.515" y1="193.032" y2="114.999" gradientUnits="userSpaceOnUse"><stop stop-color="#03192E"/><stop offset=".5" stop-color="#223C6A"/><stop offset="1" stop-color="#4A74A2"/></linearGradient><linearGradient id="s" x1="124.8" x2="127.47" y1="162.525" y2="134.186" gradientUnits="userSpaceOnUse"><stop stop-color="#03192E"/><stop offset=".5" stop-color="#223C6A"/><stop offset="1" stop-color="#4A74A2"/></linearGradient><linearGradient id="t" x1="189.646" x2="220.346" y1="198.106" y2="145.434" gradientUnits="userSpaceOnUse"><stop stop-color="#386E9F"/><stop offset="1" stop-color="#fff"/></linearGradient><linearGradient id="u" x1="197.807" x2="227.58" y1="187.488" y2="136.408" gradientUnits="userSpaceOnUse"><stop stop-color="#03192E"/><stop offset=".5" stop-color="#223C6A"/><stop offset="1" stop-color="#4A74A2"/></linearGradient><linearGradient id="v" x1="19.396" x2="20.012" y1="160.298" y2="109.987" gradientUnits="userSpaceOnUse"><stop stop-color="#FF2A64"/><stop offset="1" stop-color="#FFAF48"/></linearGradient><linearGradient id="w" x1="110.432" x2="111.048" y1="161.413" y2="111.102" gradientUnits="userSpaceOnUse"><stop stop-color="#FF2A64"/><stop offset="1" stop-color="#FFAF48"/></linearGradient><linearGradient id="x" x1="122.752" x2="124.651" y1="35.357" y2="13.333" gradientUnits="userSpaceOnUse"><stop stop-color="#FF2A64"/><stop offset="1" stop-color="#FFAF48"/></linearGradient><linearGradient id="y" x1="82.081" x2="83.005" y1="130.208" y2="10.54" gradientUnits="userSpaceOnUse"><stop stop-color="#FF2A64"/><stop offset="1" stop-color="#FFAF48"/></linearGradient><linearGradient id="z" x1="86.058" x2="87.29" y1="128.9" y2="-16.489" gradientUnits="userSpaceOnUse"><stop stop-color="#FF2A64"/><stop offset="1" stop-color="#FFAF48"/></linearGradient><linearGradient id="A" x1="99.668" x2="87.655" y1="65.571" y2="-30.226" gradientUnits="userSpaceOnUse"><stop stop-color="#FF2A64"/><stop offset="1" stop-color="#FFAF48"/></linearGradient><linearGradient id="B" x1="56.187" x2="57.111" y1="130.008" y2="10.34" gradientUnits="userSpaceOnUse"><stop stop-color="#FF2A64"/><stop offset="1" stop-color="#FFAF48"/></linearGradient><linearGradient id="C" x1="60.87" x2="62.102" y1="128.645" y2="-16.744" gradientUnits="userSpaceOnUse"><stop stop-color="#FF2A64"/><stop offset="1" stop-color="#FFAF48"/></linearGradient><linearGradient id="D" x1="65.555" x2="53.542" y1="69.849" y2="-25.947" gradientUnits="userSpaceOnUse"><stop stop-color="#FF2A64"/><stop offset="1" stop-color="#FFAF48"/></linearGradient><linearGradient id="E" x1="82.424" x2="88.687" y1="63.055" y2="49.502" gradientUnits="userSpaceOnUse"><stop stop-color="#A42832"/><stop offset=".506" stop-color="#D62F31"/><stop offset="1" stop-color="#EE4035"/></linearGradient><linearGradient id="F" x1="71.878" x2="78.141" y1="58.181" y2="44.628" gradientUnits="userSpaceOnUse"><stop stop-color="#A42832"/><stop offset=".506" stop-color="#D62F31"/><stop offset="1" stop-color="#EE4035"/></linearGradient><linearGradient id="G" x1="73.964" x2="84.026" y1="68.425" y2="47.993" gradientUnits="userSpaceOnUse"><stop stop-color="#A42832"/><stop offset=".506" stop-color="#D62F31"/><stop offset="1" stop-color="#EE4035"/></linearGradient><linearGradient id="H" x1="110.462" x2="107.073" y1="150.617" y2="35.415" gradientUnits="userSpaceOnUse"><stop stop-color="#FF2A64"/><stop offset="1" stop-color="#FFAF48"/></linearGradient><linearGradient id="I" x1="98.88" x2="94.259" y1="128.478" y2="37.302" gradientUnits="userSpaceOnUse"><stop stop-color="#FF2A64"/><stop offset="1" stop-color="#FFAF48"/></linearGradient><linearGradient id="J" x1="92.046" x2="92.046" y1="93.173" y2="69.349" gradientUnits="userSpaceOnUse"><stop stop-color="#03192E"/><stop offset=".5" stop-color="#223C6A"/><stop offset="1" stop-color="#4A74A2"/></linearGradient><linearGradient id="K" x1="86.772" x2="70.754" y1="154.41" y2="65.083" gradientUnits="userSpaceOnUse"><stop stop-color="#FF2A64"/><stop offset="1" stop-color="#FFAF48"/></linearGradient><linearGradient id="L" x1="59.897" x2="81.151" y1="4.253" y2="181.984" gradientUnits="userSpaceOnUse"><stop stop-color="#03192E"/><stop offset=".5" stop-color="#223C6A"/><stop offset="1" stop-color="#4A74A2"/></linearGradient><linearGradient id="M" x1="69.352" x2="84.959" y1="96.803" y2="191.059" gradientUnits="userSpaceOnUse"><stop stop-color="#03192E"/><stop offset=".5" stop-color="#223C6A"/><stop offset="1" stop-color="#4A74A2"/></linearGradient><linearGradient id="N" x1="80.567" x2="80.567" y1="127.107" y2="91.935" gradientUnits="userSpaceOnUse"><stop stop-color="#03192E"/><stop offset=".5" stop-color="#223C6A"/><stop offset="1" stop-color="#4A74A2"/></linearGradient><linearGradient id="O" x1="93.816" x2="88.887" y1="108.439" y2="57.717" gradientUnits="userSpaceOnUse"><stop stop-color="#386E9F"/><stop offset="1" stop-color="#fff"/></linearGradient><linearGradient id="P" x1="97.811" x2="91.035" y1="116.188" y2="67.725" gradientUnits="userSpaceOnUse"><stop stop-color="#386E9F"/><stop offset="1" stop-color="#fff"/></linearGradient><linearGradient id="Q" x1="56.843" x2="53.762" y1="120.105" y2="52.134" gradientUnits="userSpaceOnUse"><stop stop-color="#03192E"/><stop offset=".5" stop-color="#223C6A"/><stop offset="1" stop-color="#4A74A2"/></linearGradient><linearGradient id="R" x1="82.021" x2="72.369" y1="130.83" y2="87.911" gradientUnits="userSpaceOnUse"><stop stop-color="#03192E"/><stop offset=".5" stop-color="#223C6A"/><stop offset="1" stop-color="#4A74A2"/></linearGradient><linearGradient id="S" x1="54.687" x2="49.758" y1="112.241" y2="61.519" gradientUnits="userSpaceOnUse"><stop stop-color="#386E9F"/><stop offset="1" stop-color="#fff"/></linearGradient><linearGradient id="T" x1="50.868" x2="53.127" y1="93.287" y2="50.985" gradientUnits="userSpaceOnUse"><stop stop-color="#386E9F"/><stop offset="1" stop-color="#fff"/></linearGradient><linearGradient id="U" x1="37.993" x2="34.605" y1="152.749" y2="37.547" gradientUnits="userSpaceOnUse"><stop stop-color="#FF2A64"/><stop offset="1" stop-color="#FFAF48"/></linearGradient><linearGradient id="V" x1="48.199" x2="43.579" y1="131.046" y2="39.87" gradientUnits="userSpaceOnUse"><stop stop-color="#FF2A64"/><stop offset="1" stop-color="#FFAF48"/></linearGradient><linearGradient id="W" x1="19.787" x2="32.724" y1="-17.449" y2="47.442" gradientUnits="userSpaceOnUse"><stop stop-color="#FF2A64"/><stop offset="1" stop-color="#FFAF48"/></linearGradient><linearGradient id="X" x1="49.641" x2="49.641" y1="93.173" y2="69.349" gradientUnits="userSpaceOnUse"><stop stop-color="#03192E"/><stop offset=".5" stop-color="#223C6A"/><stop offset="1" stop-color="#4A74A2"/></linearGradient><linearGradient id="Y" x1="55.72" x2="48.944" y1="122.074" y2="73.611" gradientUnits="userSpaceOnUse"><stop stop-color="#386E9F"/><stop offset="1" stop-color="#fff"/></linearGradient><linearGradient id="Z" x1="68.503" x2="68.503" y1="119.971" y2="97.47" gradientUnits="userSpaceOnUse"><stop stop-color="#386E9F"/><stop offset="1" stop-color="#fff"/></linearGradient><linearGradient id="aa" x1="70.5" x2="68.581" y1="141.949" y2="111.156" gradientUnits="userSpaceOnUse"><stop stop-color="#FF2A64"/><stop offset="1" stop-color="#FFAF48"/></linearGradient><linearGradient id="ab" x1="66.683" x2="66.683" y1="131.368" y2="104.448" gradientUnits="userSpaceOnUse"><stop stop-color="#FF2A64"/><stop offset="1" stop-color="#FFAF48"/></linearGradient><linearGradient id="ac" x1="71.17" x2="71.17" y1="131.368" y2="104.447" gradientUnits="userSpaceOnUse"><stop stop-color="#FF2A64"/><stop offset="1" stop-color="#FFAF48"/></linearGradient><linearGradient id="ad" x1="67.793" x2="67.793" y1="131.368" y2="104.448" gradientUnits="userSpaceOnUse"><stop stop-color="#FF2A64"/><stop offset="1" stop-color="#FFAF48"/></linearGradient><linearGradient id="ae" x1="73.472" x2="70.854" y1="173.333" y2="106.953" gradientUnits="userSpaceOnUse"><stop stop-color="#386E9F"/><stop offset="1" stop-color="#fff"/></linearGradient><linearGradient id="af" x1="89.387" x2="86.307" y1="118.63" y2="50.659" gradientUnits="userSpaceOnUse"><stop stop-color="#03192E"/><stop offset=".5" stop-color="#223C6A"/><stop offset="1" stop-color="#4A74A2"/></linearGradient><linearGradient id="ag" x1="94.104" x2="96.363" y1="95.595" y2="53.293" gradientUnits="userSpaceOnUse"><stop stop-color="#386E9F"/><stop offset="1" stop-color="#fff"/></linearGradient><linearGradient id="ah" x1="118.42" x2="119.652" y1="34.285" y2="15.803" gradientUnits="userSpaceOnUse"><stop stop-color="#FF2A64"/><stop offset="1" stop-color="#FFAF48"/></linearGradient><linearGradient id="ai" x1="114.297" x2="114.297" y1="45.018" y2="22.158" gradientUnits="userSpaceOnUse"><stop stop-color="#386E9F"/><stop offset="1" stop-color="#fff"/></linearGradient><linearGradient id="aj" x1="76.326" x2="76.326" y1="97.228" y2="60.584" gradientUnits="userSpaceOnUse"><stop stop-color="#03192E"/><stop offset=".5" stop-color="#223C6A"/><stop offset="1" stop-color="#4A74A2"/></linearGradient><linearGradient id="ak" x1="76.326" x2="76.326" y1="87.423" y2="78.674" gradientUnits="userSpaceOnUse"><stop stop-color="#386E9F"/><stop offset="1" stop-color="#fff"/></linearGradient><linearGradient id="al" x1="76.63" x2="76.63" y1="97.536" y2="75.776" gradientUnits="userSpaceOnUse"><stop stop-color="#FF2A64"/><stop offset="1" stop-color="#FFAF48"/></linearGradient><linearGradient id="am" x1="70.085" x2="67.159" y1="74.349" y2="58.948" gradientUnits="userSpaceOnUse"><stop stop-color="#03192E"/><stop offset=".5" stop-color="#223C6A"/><stop offset="1" stop-color="#4A74A2"/></linearGradient><linearGradient id="an" x1="83.758" x2="80.832" y1="71.751" y2="56.35" gradientUnits="userSpaceOnUse"><stop stop-color="#03192E"/><stop offset=".5" stop-color="#223C6A"/><stop offset="1" stop-color="#4A74A2"/></linearGradient><linearGradient id="ao" x1="12.615" x2="18.98" y1="-10.548" y2="29.495" gradientUnits="userSpaceOnUse"><stop stop-color="#FF2A64"/><stop offset="1" stop-color="#FFAF48"/></linearGradient></defs></svg>